G04*
G04 #@! TF.GenerationSoftware,Altium Limited,Altium Designer,20.0.13 (296)*
G04*
G04 Layer_Color=8388736*
%FSLAX25Y25*%
%MOIN*%
G70*
G01*
G75*
%ADD21R,0.03543X0.03543*%
%ADD22R,0.05512X0.05709*%
%ADD23R,0.05709X0.10236*%
%ADD24R,0.03543X0.03543*%
%ADD25R,0.03937X0.03543*%
%ADD26R,0.12575X0.04475*%
%ADD27R,0.05118X0.05512*%
%ADD28R,0.03543X0.03937*%
%ADD29R,0.05315X0.03740*%
%ADD30R,0.03740X0.03740*%
%ADD31R,0.06378X0.05158*%
%ADD32R,0.05472X0.05039*%
%ADD33R,0.08661X0.05512*%
%ADD34R,0.15354X0.09449*%
%ADD35R,0.04724X0.04724*%
%ADD36R,0.04724X0.06299*%
%ADD37R,0.07638X0.08268*%
%ADD38O,0.04134X0.02362*%
%ADD39O,0.02362X0.04134*%
%ADD40R,0.03740X0.07874*%
%ADD41R,0.07874X0.03740*%
%ADD42R,0.05575X0.07575*%
%ADD43R,0.07575X0.05575*%
%ADD44R,0.05709X0.05512*%
%ADD45R,0.10236X0.05709*%
%ADD46R,0.11417X0.05512*%
%ADD47O,0.03347X0.09449*%
%ADD48R,0.07480X0.07677*%
%ADD49R,0.03150X0.06890*%
G04:AMPARAMS|DCode=50|XSize=25.59mil|YSize=35.43mil|CornerRadius=9.84mil|HoleSize=0mil|Usage=FLASHONLY|Rotation=90.000|XOffset=0mil|YOffset=0mil|HoleType=Round|Shape=RoundedRectangle|*
%AMROUNDEDRECTD50*
21,1,0.02559,0.01575,0,0,90.0*
21,1,0.00591,0.03543,0,0,90.0*
1,1,0.01968,0.00787,0.00295*
1,1,0.01968,0.00787,-0.00295*
1,1,0.01968,-0.00787,-0.00295*
1,1,0.01968,-0.00787,0.00295*
%
%ADD50ROUNDEDRECTD50*%
G04:AMPARAMS|DCode=51|XSize=48.82mil|YSize=110.24mil|CornerRadius=9.86mil|HoleSize=0mil|Usage=FLASHONLY|Rotation=0.000|XOffset=0mil|YOffset=0mil|HoleType=Round|Shape=RoundedRectangle|*
%AMROUNDEDRECTD51*
21,1,0.04882,0.09052,0,0,0.0*
21,1,0.02910,0.11024,0,0,0.0*
1,1,0.01972,0.01455,-0.04526*
1,1,0.01972,-0.01455,-0.04526*
1,1,0.01972,-0.01455,0.04526*
1,1,0.01972,0.01455,0.04526*
%
%ADD51ROUNDEDRECTD51*%
G04:AMPARAMS|DCode=52|XSize=26.77mil|YSize=49.21mil|CornerRadius=9.86mil|HoleSize=0mil|Usage=FLASHONLY|Rotation=90.000|XOffset=0mil|YOffset=0mil|HoleType=Round|Shape=RoundedRectangle|*
%AMROUNDEDRECTD52*
21,1,0.02677,0.02950,0,0,90.0*
21,1,0.00706,0.04921,0,0,90.0*
1,1,0.01972,0.01475,0.00353*
1,1,0.01972,0.01475,-0.00353*
1,1,0.01972,-0.01475,-0.00353*
1,1,0.01972,-0.01475,0.00353*
%
%ADD52ROUNDEDRECTD52*%
G04:AMPARAMS|DCode=53|XSize=80.71mil|YSize=110.24mil|CornerRadius=9.82mil|HoleSize=0mil|Usage=FLASHONLY|Rotation=0.000|XOffset=0mil|YOffset=0mil|HoleType=Round|Shape=RoundedRectangle|*
%AMROUNDEDRECTD53*
21,1,0.08071,0.09059,0,0,0.0*
21,1,0.06106,0.11024,0,0,0.0*
1,1,0.01965,0.03053,-0.04530*
1,1,0.01965,-0.03053,-0.04530*
1,1,0.01965,-0.03053,0.04530*
1,1,0.01965,0.03053,0.04530*
%
%ADD53ROUNDEDRECTD53*%
%ADD54R,0.06811X0.03780*%
%ADD55O,0.03937X0.07087*%
%ADD56R,0.07874X0.05118*%
%ADD57R,0.05524X0.06902*%
%ADD58R,0.05524X0.06902*%
%ADD59R,0.01902X0.03556*%
G04:AMPARAMS|DCode=60|XSize=94.49mil|YSize=133.86mil|CornerRadius=27.56mil|HoleSize=0mil|Usage=FLASHONLY|Rotation=90.000|XOffset=0mil|YOffset=0mil|HoleType=Round|Shape=RoundedRectangle|*
%AMROUNDEDRECTD60*
21,1,0.09449,0.07874,0,0,90.0*
21,1,0.03937,0.13386,0,0,90.0*
1,1,0.05512,0.03937,0.01968*
1,1,0.05512,0.03937,-0.01968*
1,1,0.05512,-0.03937,-0.01968*
1,1,0.05512,-0.03937,0.01968*
%
%ADD60ROUNDEDRECTD60*%
%ADD61C,0.08661*%
%ADD62R,0.08661X0.08661*%
%ADD63R,0.07284X0.07284*%
%ADD64C,0.07284*%
%ADD65C,0.12598*%
%ADD66C,0.06299*%
%ADD67C,0.07087*%
%ADD68R,0.07087X0.07087*%
%ADD69O,0.05118X0.07677*%
%ADD70O,0.06496X0.05315*%
%ADD71C,0.03162*%
%ADD72C,0.02769*%
G36*
X232887Y148921D02*
X232938Y148911D01*
X232988Y148894D01*
X233035Y148871D01*
X233079Y148842D01*
X233118Y148807D01*
X233153Y148768D01*
X233182Y148724D01*
X233205Y148677D01*
X233222Y148627D01*
X233232Y148576D01*
X233236Y148524D01*
Y145768D01*
X233234Y145749D01*
X233234Y145730D01*
X233233Y145723D01*
X233232Y145715D01*
X233228Y145697D01*
X233225Y145679D01*
X233223Y145671D01*
X233222Y145664D01*
X233216Y145646D01*
X233210Y145628D01*
X233208Y145622D01*
X233205Y145614D01*
X233197Y145598D01*
X233189Y145580D01*
X233185Y145574D01*
X233182Y145567D01*
X233172Y145552D01*
X233162Y145536D01*
X233157Y145530D01*
X233153Y145524D01*
X233140Y145510D01*
X233129Y145495D01*
X233123Y145490D01*
X233118Y145484D01*
X233104Y145472D01*
X233090Y145459D01*
X231739Y144339D01*
Y140700D01*
X233090Y139580D01*
X233104Y139567D01*
X233118Y139555D01*
X233123Y139549D01*
X233129Y139544D01*
X233140Y139530D01*
X233153Y139516D01*
X233157Y139509D01*
X233162Y139504D01*
X233172Y139488D01*
X233182Y139472D01*
X233185Y139465D01*
X233189Y139459D01*
X233197Y139442D01*
X233205Y139425D01*
X233208Y139418D01*
X233210Y139411D01*
X233216Y139393D01*
X233222Y139375D01*
X233223Y139368D01*
X233225Y139361D01*
X233228Y139342D01*
X233232Y139324D01*
X233233Y139316D01*
X233234Y139309D01*
X233234Y139290D01*
X233236Y139272D01*
Y136516D01*
X233232Y136463D01*
X233222Y136412D01*
X233205Y136362D01*
X233182Y136315D01*
X233153Y136272D01*
X233118Y136232D01*
X233079Y136198D01*
X233035Y136169D01*
X232988Y136145D01*
X232938Y136128D01*
X232887Y136118D01*
X232835Y136115D01*
X229350D01*
X229298Y136118D01*
X229247Y136128D01*
X229197Y136145D01*
X229150Y136169D01*
X229106Y136198D01*
X229067Y136232D01*
X229067Y136232D01*
X228063Y137236D01*
X228028Y137276D01*
X227999Y137319D01*
X227976Y137366D01*
X227959Y137416D01*
X227949Y137467D01*
X227946Y137520D01*
Y147520D01*
X227949Y147572D01*
X227959Y147623D01*
X227976Y147673D01*
X227999Y147720D01*
X228028Y147764D01*
X228063Y147803D01*
X229067Y148807D01*
X229106Y148842D01*
X229150Y148871D01*
X229197Y148894D01*
X229247Y148911D01*
X229298Y148921D01*
X229350Y148925D01*
X232835D01*
X232887Y148921D01*
D02*
G37*
G36*
X240387D02*
X240438Y148911D01*
X240488Y148894D01*
X240535Y148871D01*
X240579Y148842D01*
X240618Y148807D01*
X241622Y147803D01*
X241657Y147764D01*
X241686Y147720D01*
X241709Y147673D01*
X241726Y147623D01*
X241736Y147572D01*
X241739Y147520D01*
Y137520D01*
X241736Y137467D01*
X241726Y137416D01*
X241709Y137366D01*
X241686Y137319D01*
X241657Y137276D01*
X241622Y137236D01*
X240618Y136232D01*
X240618Y136232D01*
X240579Y136198D01*
X240535Y136169D01*
X240488Y136145D01*
X240438Y136128D01*
X240387Y136118D01*
X240335Y136115D01*
X236850D01*
X236798Y136118D01*
X236747Y136128D01*
X236697Y136145D01*
X236650Y136169D01*
X236606Y136198D01*
X236567Y136232D01*
X236532Y136272D01*
X236503Y136315D01*
X236480Y136362D01*
X236463Y136412D01*
X236453Y136463D01*
X236450Y136516D01*
Y139272D01*
X236451Y139290D01*
X236451Y139309D01*
X236453Y139316D01*
X236453Y139324D01*
X236457Y139342D01*
X236459Y139361D01*
X236462Y139368D01*
X236463Y139375D01*
X236469Y139393D01*
X236474Y139411D01*
X236478Y139418D01*
X236480Y139425D01*
X236488Y139442D01*
X236496Y139459D01*
X236500Y139465D01*
X236503Y139472D01*
X236513Y139488D01*
X236523Y139504D01*
X236528Y139509D01*
X236532Y139516D01*
X236545Y139530D01*
X236557Y139544D01*
X236562Y139549D01*
X236567Y139555D01*
X236581Y139567D01*
X236595Y139580D01*
X237946Y140700D01*
Y144339D01*
X236595Y145459D01*
X236581Y145472D01*
X236567Y145484D01*
X236562Y145490D01*
X236557Y145495D01*
X236545Y145510D01*
X236532Y145524D01*
X236528Y145530D01*
X236523Y145536D01*
X236513Y145552D01*
X236503Y145567D01*
X236500Y145574D01*
X236496Y145580D01*
X236488Y145598D01*
X236480Y145614D01*
X236478Y145622D01*
X236474Y145628D01*
X236469Y145646D01*
X236463Y145664D01*
X236462Y145671D01*
X236459Y145679D01*
X236457Y145697D01*
X236453Y145715D01*
X236453Y145723D01*
X236451Y145730D01*
X236451Y145749D01*
X236450Y145768D01*
Y148524D01*
X236453Y148576D01*
X236463Y148627D01*
X236480Y148677D01*
X236503Y148724D01*
X236532Y148768D01*
X236567Y148807D01*
X236606Y148842D01*
X236650Y148871D01*
X236697Y148894D01*
X236747Y148911D01*
X236798Y148921D01*
X236850Y148925D01*
X240335D01*
X240387Y148921D01*
D02*
G37*
D21*
X232283Y249410D02*
D03*
Y253346D02*
D03*
X297636Y289984D02*
D03*
Y286047D02*
D03*
X253937Y168504D02*
D03*
Y164567D02*
D03*
X245472Y146850D02*
D03*
Y142913D02*
D03*
X245472Y295866D02*
D03*
Y299803D02*
D03*
X215551Y168504D02*
D03*
Y164567D02*
D03*
X245472Y304528D02*
D03*
Y308465D02*
D03*
Y290945D02*
D03*
Y287008D02*
D03*
X167913Y106890D02*
D03*
Y110827D02*
D03*
X235236Y128543D02*
D03*
Y124606D02*
D03*
X282480Y216142D02*
D03*
Y220079D02*
D03*
X301772Y205512D02*
D03*
Y201575D02*
D03*
X282480Y227953D02*
D03*
Y224016D02*
D03*
X301575Y214173D02*
D03*
Y218110D02*
D03*
X206890Y124016D02*
D03*
Y127953D02*
D03*
D22*
X184646Y328051D02*
D03*
D23*
X178839Y334055D02*
D03*
X190453D02*
D03*
D24*
X224410Y257480D02*
D03*
X228346D02*
D03*
X432677Y299803D02*
D03*
X436614D02*
D03*
X180315Y241929D02*
D03*
X176378D02*
D03*
X208465Y222047D02*
D03*
X204528D02*
D03*
X386013Y170669D02*
D03*
X382076D02*
D03*
X396840Y268701D02*
D03*
X400777D02*
D03*
X419291Y320669D02*
D03*
X423228D02*
D03*
X432677Y305512D02*
D03*
X436614D02*
D03*
X239843Y142520D02*
D03*
X229842D02*
D03*
D25*
X198425Y115945D02*
D03*
Y112008D02*
D03*
X167126Y168110D02*
D03*
Y164173D02*
D03*
X318110Y163976D02*
D03*
Y160039D02*
D03*
X254528Y157087D02*
D03*
Y153150D02*
D03*
Y146783D02*
D03*
Y142845D02*
D03*
X214370Y146063D02*
D03*
Y142126D02*
D03*
D26*
X286150Y280157D02*
D03*
X270150D02*
D03*
X286150Y285157D02*
D03*
X270150D02*
D03*
X286150Y290158D02*
D03*
X270150D02*
D03*
X286150Y295158D02*
D03*
X270150D02*
D03*
X286150Y300157D02*
D03*
X270150D02*
D03*
D27*
X365158Y307283D02*
D03*
X371457D02*
D03*
D28*
X394882Y292520D02*
D03*
X398819D02*
D03*
X445079Y292323D02*
D03*
X441142D02*
D03*
X330315Y164173D02*
D03*
X326378D02*
D03*
X351772Y311024D02*
D03*
X355709D02*
D03*
X334055Y310433D02*
D03*
X337992D02*
D03*
X318504Y311024D02*
D03*
X322441D02*
D03*
X399213Y312205D02*
D03*
X395276D02*
D03*
X395079Y302165D02*
D03*
X399016D02*
D03*
X431496Y284252D02*
D03*
X435433D02*
D03*
X419685D02*
D03*
X423622D02*
D03*
X202165Y139370D02*
D03*
X206102D02*
D03*
X167126Y174606D02*
D03*
X163189D02*
D03*
X296654Y154079D02*
D03*
X300590D02*
D03*
D29*
X167028Y325590D02*
D03*
X158169Y321535D02*
D03*
Y329646D02*
D03*
D30*
X212402Y111024D02*
D03*
Y107480D02*
D03*
X207087Y111024D02*
D03*
Y107480D02*
D03*
D31*
X289173Y130571D02*
D03*
Y143445D02*
D03*
D32*
X290551Y219232D02*
D03*
Y225650D02*
D03*
D33*
X309449Y204527D02*
D03*
Y214370D02*
D03*
D34*
X162402Y259646D02*
D03*
Y277559D02*
D03*
X162598Y294094D02*
D03*
Y312008D02*
D03*
D35*
X219685Y107283D02*
D03*
Y113779D02*
D03*
X230315Y107283D02*
D03*
Y113779D02*
D03*
X322638Y317520D02*
D03*
Y324016D02*
D03*
X337992Y317126D02*
D03*
Y323622D02*
D03*
X355709Y317520D02*
D03*
Y324016D02*
D03*
D36*
X307087Y297024D02*
D03*
X318110Y275024D02*
D03*
X307087D02*
D03*
X318110Y297024D02*
D03*
X334055D02*
D03*
X345079Y275024D02*
D03*
X334055D02*
D03*
X345079Y297024D02*
D03*
X359449Y296827D02*
D03*
X370472Y274827D02*
D03*
X359449D02*
D03*
X370472Y296827D02*
D03*
D37*
X415214Y302953D02*
D03*
D38*
X409013Y299016D02*
D03*
Y300590D02*
D03*
Y302165D02*
D03*
Y303740D02*
D03*
Y305315D02*
D03*
Y306890D02*
D03*
X421414D02*
D03*
Y305315D02*
D03*
Y303740D02*
D03*
Y302165D02*
D03*
Y300590D02*
D03*
Y299016D02*
D03*
D39*
X411277Y309154D02*
D03*
X412851D02*
D03*
X414426D02*
D03*
X416001D02*
D03*
X417576D02*
D03*
X419151D02*
D03*
Y296752D02*
D03*
X417576D02*
D03*
X416001D02*
D03*
X414426D02*
D03*
X412851D02*
D03*
X411277D02*
D03*
D40*
X229724Y241260D02*
D03*
X232874D02*
D03*
X236024D02*
D03*
X239173D02*
D03*
X242323D02*
D03*
X245472D02*
D03*
X248622D02*
D03*
X251772D02*
D03*
X254921D02*
D03*
X258071D02*
D03*
X261221D02*
D03*
Y196535D02*
D03*
X258071D02*
D03*
X254921D02*
D03*
X251772D02*
D03*
X248622D02*
D03*
X245472D02*
D03*
X242323D02*
D03*
X239173D02*
D03*
X236024D02*
D03*
X232874D02*
D03*
X229724D02*
D03*
D41*
X267835Y234646D02*
D03*
Y231496D02*
D03*
Y228346D02*
D03*
Y225197D02*
D03*
Y222047D02*
D03*
Y218898D02*
D03*
Y215748D02*
D03*
Y212598D02*
D03*
Y209449D02*
D03*
Y206299D02*
D03*
Y203150D02*
D03*
X223110D02*
D03*
Y206299D02*
D03*
Y209449D02*
D03*
Y212598D02*
D03*
Y215748D02*
D03*
Y218898D02*
D03*
Y222047D02*
D03*
Y225197D02*
D03*
Y228346D02*
D03*
Y231496D02*
D03*
Y234646D02*
D03*
D42*
X426485Y184882D02*
D03*
X421485D02*
D03*
X416485D02*
D03*
X411485D02*
D03*
X406485D02*
D03*
X401485D02*
D03*
X396485D02*
D03*
X391485D02*
D03*
X386485D02*
D03*
X381485D02*
D03*
X376485D02*
D03*
X371485D02*
D03*
X366485D02*
D03*
X361485D02*
D03*
X356485D02*
D03*
X351485D02*
D03*
X346485D02*
D03*
X341485D02*
D03*
X336485D02*
D03*
X331485D02*
D03*
X426485Y254882D02*
D03*
X421485D02*
D03*
X416485D02*
D03*
X411485D02*
D03*
X406485D02*
D03*
X401485D02*
D03*
X396485D02*
D03*
X391485D02*
D03*
X386485D02*
D03*
X381485D02*
D03*
X376485D02*
D03*
X371485D02*
D03*
X366485D02*
D03*
X361485D02*
D03*
X356485D02*
D03*
X351485D02*
D03*
X346485D02*
D03*
X341485D02*
D03*
X336485D02*
D03*
X331485D02*
D03*
D43*
X431485Y204882D02*
D03*
Y209882D02*
D03*
Y214882D02*
D03*
Y219882D02*
D03*
Y224882D02*
D03*
Y229882D02*
D03*
Y234882D02*
D03*
D44*
X449300Y180512D02*
D03*
Y259252D02*
D03*
D45*
X455304Y186319D02*
D03*
Y174705D02*
D03*
Y253445D02*
D03*
Y265059D02*
D03*
D46*
X178937Y144095D02*
D03*
Y153543D02*
D03*
X192717Y153347D02*
D03*
Y143898D02*
D03*
D47*
X189272Y128347D02*
D03*
X186713D02*
D03*
X184153D02*
D03*
X181595D02*
D03*
X189272Y111417D02*
D03*
X186713D02*
D03*
X184153D02*
D03*
X181595D02*
D03*
D48*
X286918Y106102D02*
D03*
X279044D02*
D03*
D49*
X288099Y116732D02*
D03*
X285540D02*
D03*
X282981D02*
D03*
X280422D02*
D03*
X277863D02*
D03*
D50*
X217126Y128347D02*
D03*
Y126378D02*
D03*
Y124409D02*
D03*
Y122441D02*
D03*
Y120472D02*
D03*
X224606D02*
D03*
Y122441D02*
D03*
Y124409D02*
D03*
Y126378D02*
D03*
Y128347D02*
D03*
D51*
X220866Y124409D02*
D03*
D52*
X240453Y168110D02*
D03*
Y166142D02*
D03*
Y164173D02*
D03*
Y162205D02*
D03*
Y160236D02*
D03*
X228839D02*
D03*
Y162205D02*
D03*
Y164173D02*
D03*
Y166142D02*
D03*
Y168110D02*
D03*
D53*
X234646Y164173D02*
D03*
D54*
X307087Y173031D02*
D03*
Y169291D02*
D03*
Y165551D02*
D03*
X297638D02*
D03*
Y169291D02*
D03*
Y173031D02*
D03*
D55*
X183878Y231791D02*
D03*
X178878D02*
D03*
X173878D02*
D03*
X168878D02*
D03*
X183878Y204035D02*
D03*
X178878D02*
D03*
X173878D02*
D03*
X168878D02*
D03*
D56*
X230118Y286811D02*
D03*
Y282480D02*
D03*
Y278150D02*
D03*
Y273819D02*
D03*
Y269488D02*
D03*
Y291142D02*
D03*
Y295472D02*
D03*
Y299803D02*
D03*
Y304134D02*
D03*
X193898Y269488D02*
D03*
Y273819D02*
D03*
Y278150D02*
D03*
Y282480D02*
D03*
Y286811D02*
D03*
Y291142D02*
D03*
Y295472D02*
D03*
Y299803D02*
D03*
Y304134D02*
D03*
D57*
X294399Y106102D02*
D03*
D58*
X271564Y106102D02*
D03*
D59*
X233661Y158071D02*
D03*
X235630D02*
D03*
Y170276D02*
D03*
X233661D02*
D03*
D60*
X121299Y107598D02*
D03*
X111299Y137598D02*
D03*
X131299D02*
D03*
Y309882D02*
D03*
X111299D02*
D03*
X121299Y339882D02*
D03*
D61*
X418504Y167126D02*
D03*
X401299Y325590D02*
D03*
X391299D02*
D03*
X381299D02*
D03*
D62*
X408504Y167126D02*
D03*
X371299Y325590D02*
D03*
D63*
X386221Y151157D02*
D03*
D64*
X396063D02*
D03*
X403937D02*
D03*
X413779D02*
D03*
D65*
X374134Y140488D02*
D03*
X425866D02*
D03*
D66*
X187402Y187205D02*
D03*
Y175394D02*
D03*
D67*
X336614Y136614D02*
D03*
D68*
X326772D02*
D03*
D69*
X269202Y106102D02*
D03*
X296761D02*
D03*
D70*
X273139Y116732D02*
D03*
X292824D02*
D03*
D71*
X456693Y283465D02*
D03*
X460630Y275591D02*
D03*
Y244095D02*
D03*
X456693Y236221D02*
D03*
X460630Y228347D02*
D03*
X456693Y220473D02*
D03*
X460630Y212598D02*
D03*
X456693Y204725D02*
D03*
X460630Y196851D02*
D03*
Y165354D02*
D03*
X456693Y157480D02*
D03*
X448819Y283465D02*
D03*
X452756Y275591D02*
D03*
Y244095D02*
D03*
X448819Y236221D02*
D03*
X452756Y228347D02*
D03*
X448819Y220473D02*
D03*
X452756Y212598D02*
D03*
X448819Y204725D02*
D03*
X452756Y196851D02*
D03*
Y165354D02*
D03*
X448819Y157480D02*
D03*
X444882Y275591D02*
D03*
X440945Y267717D02*
D03*
X444882Y244095D02*
D03*
Y228347D02*
D03*
X440945Y220473D02*
D03*
X444882Y212598D02*
D03*
Y196851D02*
D03*
X440945Y173228D02*
D03*
X444882Y165354D02*
D03*
X440945Y157480D02*
D03*
X437008Y275591D02*
D03*
X433071Y267717D02*
D03*
X437008Y259843D02*
D03*
Y244095D02*
D03*
Y196851D02*
D03*
Y181103D02*
D03*
X433071Y173228D02*
D03*
X437008Y165354D02*
D03*
X433071Y157480D02*
D03*
X429134Y275591D02*
D03*
X425197Y267717D02*
D03*
X429134Y244095D02*
D03*
X425197Y173228D02*
D03*
X429134Y165354D02*
D03*
X425197Y157480D02*
D03*
X255906Y338583D02*
D03*
X251969Y330709D02*
D03*
X248032Y338583D02*
D03*
X244095Y330709D02*
D03*
X240158Y338583D02*
D03*
X236221Y330709D02*
D03*
X240158Y322835D02*
D03*
X236221Y314961D02*
D03*
Y299213D02*
D03*
X232284Y338583D02*
D03*
X228347Y330709D02*
D03*
X232284Y322835D02*
D03*
X228347Y314961D02*
D03*
X224410Y338583D02*
D03*
X220473Y330709D02*
D03*
X224410Y322835D02*
D03*
X220473Y314961D02*
D03*
X224410Y307087D02*
D03*
X220473Y299213D02*
D03*
X216536Y338583D02*
D03*
X212598Y330709D02*
D03*
X216536Y322835D02*
D03*
X212598Y314961D02*
D03*
X216536Y307087D02*
D03*
X212598Y299213D02*
D03*
X208662Y338583D02*
D03*
X204725Y330709D02*
D03*
X208662Y322835D02*
D03*
X204725Y314961D02*
D03*
X208662Y307087D02*
D03*
X204725Y299213D02*
D03*
X200787Y338583D02*
D03*
Y322835D02*
D03*
X196851Y314961D02*
D03*
X192913Y322835D02*
D03*
X188977Y314961D02*
D03*
X181103Y299213D02*
D03*
X177165Y322835D02*
D03*
X173228Y314961D02*
D03*
X177165Y307087D02*
D03*
X173228Y299213D02*
D03*
X169291Y338583D02*
D03*
X165354Y330709D02*
D03*
X161417Y338583D02*
D03*
X153543D02*
D03*
X149606Y330709D02*
D03*
X153543Y307087D02*
D03*
X145669Y338583D02*
D03*
X141732Y330709D02*
D03*
X145669Y322835D02*
D03*
Y307087D02*
D03*
X141732Y299213D02*
D03*
X428937Y297047D02*
D03*
X419685Y290354D02*
D03*
X436417Y296457D02*
D03*
X404331Y303346D02*
D03*
X211811Y187992D02*
D03*
X158071Y192323D02*
D03*
X176969Y237795D02*
D03*
X178740Y198031D02*
D03*
X237598Y228543D02*
D03*
X252756Y203150D02*
D03*
X242520Y209449D02*
D03*
X183661Y157874D02*
D03*
X197441Y157677D02*
D03*
X242126Y308465D02*
D03*
X241732Y286811D02*
D03*
X297441Y282677D02*
D03*
X426772Y320669D02*
D03*
X436417Y309055D02*
D03*
X400591Y265158D02*
D03*
X382087Y167323D02*
D03*
X238976Y124409D02*
D03*
X200591Y220669D02*
D03*
X183858Y241732D02*
D03*
X218701Y164764D02*
D03*
X245472Y139567D02*
D03*
X257283Y164764D02*
D03*
X301575Y198228D02*
D03*
Y221457D02*
D03*
X278937Y220276D02*
D03*
X221457Y249213D02*
D03*
X301378Y289961D02*
D03*
X399213Y285827D02*
D03*
X394291Y297638D02*
D03*
X350787Y265551D02*
D03*
X304331Y254134D02*
D03*
X300590Y257283D02*
D03*
X297441Y260630D02*
D03*
X294882Y263779D02*
D03*
X286417Y244094D02*
D03*
X290551Y251181D02*
D03*
X297835Y233268D02*
D03*
X321063Y250394D02*
D03*
X305906Y184252D02*
D03*
Y180905D02*
D03*
X258465Y228740D02*
D03*
X249410Y228937D02*
D03*
X253937Y228740D02*
D03*
X259842Y255315D02*
D03*
X245079Y228937D02*
D03*
X267323Y259646D02*
D03*
X262598Y259842D02*
D03*
X253543Y259646D02*
D03*
X352756Y296850D02*
D03*
X250984Y254528D02*
D03*
X152362Y243504D02*
D03*
X236024Y186811D02*
D03*
X162008Y238583D02*
D03*
X229528Y222047D02*
D03*
X226181Y252953D02*
D03*
X236221Y221063D02*
D03*
X237598Y225197D02*
D03*
X284842Y199606D02*
D03*
X293996Y204035D02*
D03*
X307087Y230906D02*
D03*
X284055Y172835D02*
D03*
X253543D02*
D03*
X250590Y205906D02*
D03*
X301378Y230709D02*
D03*
X246063Y209449D02*
D03*
X290158Y232874D02*
D03*
X208465Y217717D02*
D03*
X195866Y136811D02*
D03*
X249409Y143504D02*
D03*
X183465Y138189D02*
D03*
X240551Y173228D02*
D03*
X224016Y166142D02*
D03*
X215354Y136614D02*
D03*
X210630D02*
D03*
X227953Y133268D02*
D03*
X284646Y153937D02*
D03*
X249409Y149803D02*
D03*
X244685Y162205D02*
D03*
X213386Y125787D02*
D03*
X210630Y122441D02*
D03*
X230118Y125000D02*
D03*
X229577Y120866D02*
D03*
X214173Y114764D02*
D03*
X224803Y113779D02*
D03*
X398819Y305906D02*
D03*
X427756Y293110D02*
D03*
X435827Y292520D02*
D03*
X421654Y314961D02*
D03*
D72*
X220866Y126047D02*
D03*
Y122772D02*
D03*
X236614Y161221D02*
D03*
X232677D02*
D03*
Y167126D02*
D03*
X236614D02*
D03*
X234646Y164173D02*
D03*
M02*
