G04*
G04 #@! TF.GenerationSoftware,Altium Limited,Altium Designer,20.0.13 (296)*
G04*
G04 Layer_Physical_Order=1*
G04 Layer_Color=255*
%FSLAX25Y25*%
%MOIN*%
G70*
G01*
G75*
%ADD10C,0.00984*%
%ADD11C,0.01968*%
%ADD12C,0.01575*%
%ADD14C,0.02362*%
%ADD15C,0.00787*%
%ADD71C,0.02953*%
%ADD72C,0.05906*%
%ADD73R,0.01968X0.01968*%
%ADD74R,0.01968X0.01968*%
%ADD75R,0.03937X0.04134*%
%ADD76R,0.04134X0.08661*%
%ADD77R,0.11000X0.02900*%
%ADD78R,0.03543X0.03937*%
%ADD79R,0.01968X0.02362*%
%ADD80R,0.02362X0.01968*%
%ADD81R,0.03740X0.02165*%
%ADD82R,0.02165X0.02165*%
%ADD83R,0.04803X0.03583*%
%ADD84R,0.03898X0.03465*%
%ADD85R,0.07087X0.03937*%
%ADD86R,0.13780X0.07874*%
%ADD87R,0.03150X0.03150*%
%ADD88R,0.03150X0.04724*%
%ADD89R,0.06063X0.06693*%
%ADD90O,0.02559X0.00787*%
%ADD91O,0.00787X0.02559*%
%ADD92R,0.02165X0.06299*%
%ADD93R,0.06299X0.02165*%
%ADD94R,0.04000X0.06000*%
%ADD95R,0.06000X0.04000*%
%ADD96R,0.04134X0.03937*%
%ADD97R,0.08661X0.04134*%
%ADD98R,0.09843X0.03937*%
%ADD99O,0.01772X0.07874*%
%ADD100R,0.05906X0.06102*%
%ADD101R,0.01575X0.05315*%
G04:AMPARAMS|DCode=102|XSize=9.84mil|YSize=19.68mil|CornerRadius=1.97mil|HoleSize=0mil|Usage=FLASHONLY|Rotation=90.000|XOffset=0mil|YOffset=0mil|HoleType=Round|Shape=RoundedRectangle|*
%AMROUNDEDRECTD102*
21,1,0.00984,0.01575,0,0,90.0*
21,1,0.00591,0.01968,0,0,90.0*
1,1,0.00394,0.00787,0.00295*
1,1,0.00394,0.00787,-0.00295*
1,1,0.00394,-0.00787,-0.00295*
1,1,0.00394,-0.00787,0.00295*
%
%ADD102ROUNDEDRECTD102*%
G04:AMPARAMS|DCode=103|XSize=33.07mil|YSize=94.49mil|CornerRadius=1.98mil|HoleSize=0mil|Usage=FLASHONLY|Rotation=0.000|XOffset=0mil|YOffset=0mil|HoleType=Round|Shape=RoundedRectangle|*
%AMROUNDEDRECTD103*
21,1,0.03307,0.09052,0,0,0.0*
21,1,0.02910,0.09449,0,0,0.0*
1,1,0.00397,0.01455,-0.04526*
1,1,0.00397,-0.01455,-0.04526*
1,1,0.00397,-0.01455,0.04526*
1,1,0.00397,0.01455,0.04526*
%
%ADD103ROUNDEDRECTD103*%
G04:AMPARAMS|DCode=104|XSize=11.02mil|YSize=33.47mil|CornerRadius=1.98mil|HoleSize=0mil|Usage=FLASHONLY|Rotation=90.000|XOffset=0mil|YOffset=0mil|HoleType=Round|Shape=RoundedRectangle|*
%AMROUNDEDRECTD104*
21,1,0.01102,0.02950,0,0,90.0*
21,1,0.00706,0.03347,0,0,90.0*
1,1,0.00397,0.01475,0.00353*
1,1,0.00397,0.01475,-0.00353*
1,1,0.00397,-0.01475,-0.00353*
1,1,0.00397,-0.01475,0.00353*
%
%ADD104ROUNDEDRECTD104*%
G04:AMPARAMS|DCode=105|XSize=64.96mil|YSize=94.49mil|CornerRadius=1.95mil|HoleSize=0mil|Usage=FLASHONLY|Rotation=0.000|XOffset=0mil|YOffset=0mil|HoleType=Round|Shape=RoundedRectangle|*
%AMROUNDEDRECTD105*
21,1,0.06496,0.09059,0,0,0.0*
21,1,0.06106,0.09449,0,0,0.0*
1,1,0.00390,0.03053,-0.04530*
1,1,0.00390,-0.03053,-0.04530*
1,1,0.00390,-0.03053,0.04530*
1,1,0.00390,0.03053,0.04530*
%
%ADD105ROUNDEDRECTD105*%
%ADD106R,0.05236X0.02205*%
%ADD107O,0.02362X0.05512*%
%ADD108R,0.06299X0.03543*%
%ADD109C,0.01772*%
%ADD110C,0.02756*%
%ADD111C,0.01378*%
%ADD112C,0.02165*%
%ADD113C,0.03937*%
%ADD114C,0.01181*%
%ADD115C,0.05906*%
%ADD116R,0.04724X0.06102*%
%ADD117R,0.04724X0.06102*%
%ADD118R,0.01102X0.02756*%
%ADD119R,0.05906X0.05906*%
%ADD120R,0.05906X0.05906*%
G04:AMPARAMS|DCode=121|XSize=78.74mil|YSize=118.11mil|CornerRadius=19.68mil|HoleSize=0mil|Usage=FLASHONLY|Rotation=90.000|XOffset=0mil|YOffset=0mil|HoleType=Round|Shape=RoundedRectangle|*
%AMROUNDEDRECTD121*
21,1,0.07874,0.07874,0,0,90.0*
21,1,0.03937,0.11811,0,0,90.0*
1,1,0.03937,0.03937,0.01968*
1,1,0.03937,0.03937,-0.01968*
1,1,0.03937,-0.03937,-0.01968*
1,1,0.03937,-0.03937,0.01968*
%
%ADD121ROUNDEDRECTD121*%
%ADD122R,0.05709X0.05709*%
%ADD123C,0.05709*%
%ADD124C,0.11024*%
%ADD125C,0.04724*%
%ADD126C,0.05512*%
%ADD127R,0.05512X0.05512*%
%ADD128O,0.03543X0.06102*%
%ADD129O,0.04921X0.03740*%
%ADD130C,0.02362*%
%ADD131C,0.05000*%
G36*
X469685Y351417D02*
Y347582D01*
X469625Y347531D01*
X469185Y347360D01*
X468945Y347521D01*
X468504Y347609D01*
X100394D01*
X99953Y347521D01*
X99579Y347271D01*
X99329Y346898D01*
X99242Y346457D01*
Y100394D01*
X99329Y99953D01*
X99579Y99579D01*
X99953Y99329D01*
X100394Y99242D01*
X468504D01*
X468945Y99329D01*
X469185Y99490D01*
X469625Y99319D01*
X469685Y99268D01*
Y97441D01*
X96850D01*
Y349409D01*
X96850D01*
X96850Y349422D01*
X469330Y351769D01*
X469685Y351417D01*
D02*
G37*
G36*
X467352Y101546D02*
X101546D01*
Y345305D01*
X467352D01*
Y101546D01*
D02*
G37*
%LPC*%
G36*
X125236Y344630D02*
X121693D01*
Y340276D01*
X128016D01*
Y341850D01*
X127921Y342570D01*
X127644Y343240D01*
X127202Y343816D01*
X126626Y344258D01*
X125956Y344535D01*
X125236Y344630D01*
D02*
G37*
G36*
X120905D02*
X117362D01*
X116643Y344535D01*
X115972Y344258D01*
X115397Y343816D01*
X114955Y343240D01*
X114677Y342570D01*
X114583Y341850D01*
Y340276D01*
X120905D01*
Y344630D01*
D02*
G37*
G36*
X193307Y339173D02*
X190847D01*
Y334449D01*
X193307D01*
Y339173D01*
D02*
G37*
G36*
X190059D02*
X187598D01*
Y334449D01*
X190059D01*
Y339173D01*
D02*
G37*
G36*
X181693D02*
X179232D01*
Y334449D01*
X181693D01*
Y339173D01*
D02*
G37*
G36*
X178445D02*
X175984D01*
Y334449D01*
X178445D01*
Y339173D01*
D02*
G37*
G36*
X190059Y333661D02*
X187598D01*
Y331100D01*
X187244Y330748D01*
X187098Y330748D01*
X182193D01*
X182047Y330748D01*
X181693Y331100D01*
Y333661D01*
X179232D01*
Y328937D01*
X181547D01*
X181693Y328937D01*
X182047Y328585D01*
Y325354D01*
X182104D01*
Y304921D01*
X182187Y304505D01*
X182149Y304497D01*
X182268Y304099D01*
X182270Y304096D01*
X182293Y304020D01*
X182293Y304020D01*
X182635Y302893D01*
X183436Y301394D01*
X184514Y300081D01*
X185828Y299003D01*
X187327Y298201D01*
X188953Y297708D01*
X189961Y297609D01*
Y295866D01*
X197835D01*
Y298031D01*
X197677D01*
Y301575D01*
X197835D01*
Y303740D01*
X189961D01*
Y302277D01*
X189726Y302071D01*
X189461Y301976D01*
X188443Y302398D01*
X187531Y303098D01*
X186832Y304009D01*
X186399Y305053D01*
Y325354D01*
X187244D01*
Y328585D01*
X187598Y328937D01*
X187744Y328937D01*
X190059D01*
Y333661D01*
D02*
G37*
G36*
X193307D02*
X190847D01*
Y328937D01*
X193307D01*
Y333661D01*
D02*
G37*
G36*
X178445D02*
X175984D01*
Y328937D01*
X178445D01*
Y333661D01*
D02*
G37*
G36*
X373937Y334488D02*
X366772D01*
Y327323D01*
X373937D01*
Y334488D01*
D02*
G37*
G36*
X410354Y334519D02*
X409419Y334396D01*
X408547Y334035D01*
X407799Y333461D01*
X407225Y332712D01*
X406864Y331841D01*
X406741Y330906D01*
X406864Y329970D01*
X407225Y329099D01*
X407799Y328350D01*
X408547Y327776D01*
X409419Y327415D01*
X410354Y327292D01*
X411290Y327415D01*
X412161Y327776D01*
X412910Y328350D01*
X413484Y329099D01*
X413845Y329970D01*
X413968Y330906D01*
X413845Y331841D01*
X413484Y332712D01*
X412910Y333461D01*
X412161Y334035D01*
X411290Y334396D01*
X410354Y334519D01*
D02*
G37*
G36*
X400354D02*
X399419Y334396D01*
X398548Y334035D01*
X397799Y333461D01*
X397225Y332712D01*
X396864Y331841D01*
X396741Y330906D01*
X396864Y329970D01*
X397225Y329099D01*
X397799Y328350D01*
X398548Y327776D01*
X399419Y327415D01*
X400354Y327292D01*
X401290Y327415D01*
X402161Y327776D01*
X402910Y328350D01*
X403484Y329099D01*
X403845Y329970D01*
X403968Y330906D01*
X403845Y331841D01*
X403484Y332712D01*
X402910Y333461D01*
X402161Y334035D01*
X401290Y334396D01*
X400354Y334519D01*
D02*
G37*
G36*
X390354D02*
X389419Y334396D01*
X388547Y334035D01*
X387799Y333461D01*
X387225Y332712D01*
X386864Y331841D01*
X386741Y330906D01*
X386864Y329970D01*
X387225Y329099D01*
X387799Y328350D01*
X388547Y327776D01*
X389419Y327415D01*
X390354Y327292D01*
X391290Y327415D01*
X392161Y327776D01*
X392910Y328350D01*
X393484Y329099D01*
X393845Y329970D01*
X393968Y330906D01*
X393845Y331841D01*
X393484Y332712D01*
X392910Y333461D01*
X392161Y334035D01*
X391290Y334396D01*
X390354Y334519D01*
D02*
G37*
G36*
X380354D02*
X379419Y334396D01*
X378548Y334035D01*
X377799Y333461D01*
X377225Y332712D01*
X376864Y331841D01*
X376741Y330906D01*
X376864Y329970D01*
X377225Y329099D01*
X377799Y328350D01*
X378548Y327776D01*
X379419Y327415D01*
X380354Y327292D01*
X381290Y327415D01*
X382161Y327776D01*
X382909Y328350D01*
X383484Y329099D01*
X383845Y329970D01*
X383968Y330906D01*
X383845Y331841D01*
X383484Y332712D01*
X382909Y333461D01*
X382161Y334035D01*
X381290Y334396D01*
X380354Y334519D01*
D02*
G37*
G36*
X159646Y324587D02*
X157382D01*
Y323110D01*
X159646D01*
Y324587D01*
D02*
G37*
G36*
X348031Y332837D02*
X259055D01*
X258617Y332750D01*
X258246Y332502D01*
X249585Y323840D01*
X249337Y323469D01*
X249250Y323031D01*
Y277967D01*
X248750Y277816D01*
X248644Y277974D01*
X247646Y278971D01*
X247979Y279773D01*
X248102Y280709D01*
X247979Y281644D01*
X247618Y282516D01*
X247043Y283264D01*
X246295Y283838D01*
X245424Y284199D01*
X244488Y284322D01*
X243553Y284199D01*
X242681Y283838D01*
X241933Y283264D01*
X241359Y282516D01*
X241166Y282049D01*
X237795D01*
X237357Y281962D01*
X236986Y281714D01*
X234565Y279294D01*
X233898D01*
Y284409D01*
Y288740D01*
Y293071D01*
Y294722D01*
X243858D01*
Y294252D01*
X244328D01*
Y292559D01*
X243858D01*
Y289331D01*
X247087D01*
Y292559D01*
X246617D01*
Y294252D01*
X247087D01*
Y297480D01*
X243858D01*
Y297010D01*
X233898D01*
Y301732D01*
Y306535D01*
X226339D01*
Y301732D01*
Y297402D01*
Y293071D01*
Y288740D01*
Y286611D01*
X226223Y286588D01*
X225852Y286340D01*
X212380Y272868D01*
X212132Y272497D01*
X212045Y272059D01*
Y256183D01*
X210550Y254687D01*
X198958D01*
X198602Y255547D01*
X198028Y256295D01*
X197279Y256870D01*
X196408Y257231D01*
X195472Y257354D01*
X194537Y257231D01*
X193666Y256870D01*
X192917Y256295D01*
X192343Y255547D01*
X191987Y254687D01*
X177165D01*
X176728Y254600D01*
X176356Y254352D01*
X162363Y240359D01*
X162008Y240429D01*
X161301Y240289D01*
X160702Y239888D01*
X160302Y239289D01*
X160161Y238583D01*
X160302Y237876D01*
X160702Y237277D01*
X161301Y236877D01*
X162008Y236736D01*
X162715Y236877D01*
X163313Y237277D01*
X163714Y237876D01*
X163854Y238583D01*
X163849Y238609D01*
X177639Y252399D01*
X192150D01*
X192343Y251933D01*
X192917Y251185D01*
X193666Y250611D01*
X194537Y250250D01*
X195472Y250127D01*
X196408Y250250D01*
X197279Y250611D01*
X198028Y251185D01*
X198602Y251933D01*
X198795Y252399D01*
X211024D01*
X211461Y252486D01*
X211833Y252734D01*
X213998Y254900D01*
X214246Y255271D01*
X214333Y255709D01*
Y271585D01*
X225877Y283129D01*
X226339Y282938D01*
Y280079D01*
Y275748D01*
Y272047D01*
X226181D01*
Y269882D01*
X234055D01*
Y271395D01*
X237975D01*
X238209Y270831D01*
X238692Y270202D01*
X238594Y270057D01*
X238507Y269619D01*
Y269259D01*
X228343Y259095D01*
X226732D01*
Y257899D01*
X226681Y257865D01*
X226181Y258132D01*
Y259252D01*
X224803D01*
Y257480D01*
Y255709D01*
X225194D01*
X225301Y255579D01*
Y254543D01*
X224875Y254258D01*
X224475Y253659D01*
X224335Y252953D01*
X224475Y252246D01*
X224875Y251647D01*
X225475Y251247D01*
X225657Y251210D01*
X225801Y250736D01*
X225480Y250357D01*
X222870D01*
X222762Y250518D01*
X222163Y250919D01*
X221457Y251059D01*
X220750Y250919D01*
X220151Y250518D01*
X219751Y249919D01*
X219610Y249213D01*
X219751Y248506D01*
X220022Y248101D01*
X219778Y247601D01*
X175591D01*
X175153Y247514D01*
X174782Y247266D01*
X162577Y235061D01*
X162329Y234690D01*
X162242Y234252D01*
Y211102D01*
X162329Y210665D01*
X162577Y210293D01*
X167069Y205801D01*
X167031Y205610D01*
Y202461D01*
X167172Y201754D01*
X167572Y201155D01*
X168171Y200755D01*
X168878Y200614D01*
X169585Y200755D01*
X170184Y201155D01*
X170584Y201754D01*
X170724Y202461D01*
Y205610D01*
X170584Y206317D01*
X170184Y206916D01*
X169585Y207316D01*
X168878Y207457D01*
X168687Y207419D01*
X164530Y211576D01*
Y233778D01*
X166812Y236060D01*
X167273Y235814D01*
X167232Y235610D01*
Y234163D01*
X167172Y234073D01*
X167031Y233366D01*
Y230217D01*
X167172Y229510D01*
X167572Y228911D01*
X168171Y228511D01*
X168878Y228370D01*
X169585Y228511D01*
X170184Y228911D01*
X170584Y229510D01*
X170710Y230146D01*
X172046D01*
X172172Y229510D01*
X172572Y228911D01*
X173171Y228511D01*
X173878Y228370D01*
X174585Y228511D01*
X175184Y228911D01*
X175584Y229510D01*
X175724Y230217D01*
Y233366D01*
X175584Y234073D01*
X175184Y234672D01*
X174585Y235072D01*
X173878Y235213D01*
X173171Y235072D01*
X172572Y234672D01*
X172172Y234073D01*
X172046Y233437D01*
X170710D01*
X170584Y234073D01*
X170524Y234163D01*
Y234928D01*
X174672Y239076D01*
X175134Y238885D01*
Y238759D01*
X175224Y238306D01*
X175122Y237795D01*
X175263Y237089D01*
X175663Y236490D01*
X176262Y236089D01*
X176969Y235949D01*
X177675Y236089D01*
X178274Y236490D01*
X178674Y237089D01*
X178815Y237795D01*
X178674Y238502D01*
X178274Y239101D01*
X177675Y239501D01*
X177622Y239512D01*
Y240315D01*
X177992D01*
Y241770D01*
X178024Y241929D01*
X177992Y242088D01*
Y243543D01*
X176537D01*
X176378Y243575D01*
X176219Y243543D01*
X175002D01*
X174795Y244043D01*
X176064Y245313D01*
X227625D01*
X228012Y245039D01*
Y237888D01*
X227512Y237681D01*
X226392Y238801D01*
X226021Y239049D01*
X225583Y239136D01*
X183504D01*
X183066Y239049D01*
X182695Y238801D01*
X179069Y235175D01*
X178878Y235213D01*
X178171Y235072D01*
X177572Y234672D01*
X177172Y234073D01*
X177031Y233366D01*
Y230217D01*
X177172Y229510D01*
X177572Y228911D01*
X178171Y228511D01*
X178878Y228370D01*
X179585Y228511D01*
X180184Y228911D01*
X180584Y229510D01*
X180725Y230217D01*
Y233366D01*
X180686Y233557D01*
X183978Y236848D01*
X203309D01*
X203395Y236365D01*
X202524Y236003D01*
X201776Y235429D01*
X201201Y234681D01*
X200927Y234018D01*
X185595D01*
X185584Y234073D01*
X185184Y234672D01*
X184585Y235072D01*
X183878Y235213D01*
X183171Y235072D01*
X182572Y234672D01*
X182172Y234073D01*
X182031Y233366D01*
Y230217D01*
X182172Y229510D01*
X182572Y228911D01*
X183171Y228511D01*
X183878Y228370D01*
X184585Y228511D01*
X185184Y228911D01*
X185584Y229510D01*
X185724Y230217D01*
Y231730D01*
X200927D01*
X201201Y231067D01*
X201776Y230319D01*
X202524Y229745D01*
X203396Y229384D01*
X204331Y229260D01*
X205266Y229384D01*
X206137Y229745D01*
X206886Y230319D01*
X207460Y231067D01*
X207735Y231730D01*
X216713D01*
X216830Y231753D01*
X217076Y231293D01*
X213896Y228113D01*
X199664D01*
X199389Y228775D01*
X198815Y229524D01*
X198067Y230098D01*
X197195Y230459D01*
X196260Y230582D01*
X195325Y230459D01*
X194453Y230098D01*
X193705Y229524D01*
X193130Y228775D01*
X192856Y228113D01*
X191929D01*
X191491Y228025D01*
X191120Y227777D01*
X173069Y209726D01*
X172821Y209355D01*
X172734Y208917D01*
Y207024D01*
X172572Y206916D01*
X172172Y206317D01*
X172031Y205610D01*
Y202461D01*
X172172Y201754D01*
X172572Y201155D01*
X173171Y200755D01*
X173878Y200614D01*
X174585Y200755D01*
X175184Y201155D01*
X175584Y201754D01*
X175724Y202461D01*
Y205610D01*
X175584Y206317D01*
X175184Y206916D01*
X175022Y207024D01*
Y208443D01*
X192394Y225815D01*
X192879Y225768D01*
X193130Y225162D01*
X193705Y224413D01*
X194453Y223839D01*
X195325Y223478D01*
X196260Y223355D01*
X197195Y223478D01*
X198067Y223839D01*
X198815Y224413D01*
X199389Y225162D01*
X199664Y225824D01*
X214370D01*
X214808Y225912D01*
X215179Y226160D01*
X218831Y229811D01*
X218908Y229807D01*
X219331Y229631D01*
Y226634D01*
Y223191D01*
X210079D01*
Y223661D01*
X206850D01*
Y220433D01*
X207321D01*
Y219130D01*
X207159Y219022D01*
X206759Y218423D01*
X206618Y217717D01*
X206759Y217010D01*
X207159Y216411D01*
X207718Y216038D01*
X207796Y215928D01*
X207917Y215529D01*
X198649Y206262D01*
X185755D01*
X185732Y206378D01*
X185297Y207029D01*
X184646Y207465D01*
X184272Y207539D01*
Y204035D01*
Y200532D01*
X184646Y200606D01*
X185297Y201041D01*
X185732Y201693D01*
X185885Y202461D01*
Y203974D01*
X199123D01*
X199561Y204061D01*
X199932Y204309D01*
X213377Y217754D01*
X219173D01*
Y217028D01*
X219331D01*
Y214035D01*
Y210593D01*
X215551D01*
X215113Y210506D01*
X214742Y210258D01*
X211002Y206518D01*
X210754Y206147D01*
X210667Y205709D01*
Y202792D01*
X210505Y202684D01*
X210105Y202085D01*
X209964Y201378D01*
X210105Y200671D01*
X210505Y200072D01*
X211104Y199672D01*
X211811Y199531D01*
X212518Y199672D01*
X213117Y200072D01*
X213517Y200671D01*
X213657Y201378D01*
X213517Y202085D01*
X213117Y202684D01*
X212955Y202792D01*
Y205235D01*
X216025Y208305D01*
X219331D01*
Y207443D01*
X218110D01*
X217672Y207356D01*
X217301Y207108D01*
X215136Y204943D01*
X214888Y204572D01*
X214801Y204134D01*
Y201575D01*
X214888Y201137D01*
X215136Y200766D01*
X218467Y197435D01*
X218429Y197244D01*
X218570Y196537D01*
X218970Y195938D01*
X219569Y195538D01*
X220276Y195398D01*
X220982Y195538D01*
X221581Y195938D01*
X221982Y196537D01*
X222122Y197244D01*
X221982Y197951D01*
X221581Y198550D01*
X220982Y198950D01*
X220276Y199091D01*
X220085Y199053D01*
X217089Y202049D01*
Y203660D01*
X218584Y205155D01*
X219331D01*
Y201437D01*
X226890D01*
Y202006D01*
X227362D01*
X227800Y202093D01*
X228171Y202341D01*
X228432Y202602D01*
X228541Y202553D01*
X228845Y202307D01*
X228777Y201969D01*
Y200315D01*
X228012D01*
Y192756D01*
X231730D01*
Y191222D01*
X229644Y189136D01*
X224294D01*
X223815Y189760D01*
X223067Y190334D01*
X222195Y190695D01*
X221260Y190818D01*
X220325Y190695D01*
X219453Y190334D01*
X218705Y189760D01*
X218226Y189136D01*
X213225D01*
X213117Y189298D01*
X212518Y189698D01*
X211811Y189839D01*
X211104Y189698D01*
X210505Y189298D01*
X210105Y188699D01*
X209964Y187992D01*
X210105Y187285D01*
X210505Y186687D01*
X211104Y186286D01*
X211811Y186146D01*
X212518Y186286D01*
X213117Y186687D01*
X213225Y186848D01*
X217693D01*
X217769Y186269D01*
X218130Y185398D01*
X218705Y184650D01*
X219453Y184075D01*
X220325Y183714D01*
X221260Y183591D01*
X222195Y183714D01*
X223067Y184075D01*
X223815Y184650D01*
X224389Y185398D01*
X224750Y186269D01*
X224827Y186848D01*
X230118D01*
X230556Y186935D01*
X230927Y187183D01*
X233683Y189939D01*
X233931Y190310D01*
X234018Y190748D01*
Y192756D01*
X234880D01*
Y188225D01*
X234718Y188117D01*
X234318Y187518D01*
X234177Y186811D01*
X234318Y186104D01*
X234718Y185505D01*
X235317Y185105D01*
X236024Y184965D01*
X236730Y185105D01*
X237329Y185505D01*
X237730Y186104D01*
X237782Y186367D01*
X238313Y186473D01*
X238364Y186396D01*
X244553Y180207D01*
X244346Y179707D01*
X211126D01*
X195810Y195022D01*
X195113Y195488D01*
X194291Y195651D01*
X172346D01*
X158447Y209551D01*
Y255079D01*
X169921D01*
Y264213D01*
X154882D01*
Y257821D01*
X154781Y257719D01*
X154315Y257023D01*
X154152Y256201D01*
Y244986D01*
X153750Y244839D01*
X153652Y244820D01*
X153069Y245210D01*
X152362Y245350D01*
X151656Y245210D01*
X151057Y244810D01*
X151054Y244805D01*
X150554Y244957D01*
Y320412D01*
X153869Y323727D01*
X154331Y323536D01*
Y323110D01*
X156595D01*
Y324587D01*
X155381D01*
X155190Y325048D01*
X157600Y327459D01*
X157848Y327830D01*
X157935Y328268D01*
Y329114D01*
X159488D01*
Y332539D01*
X154488D01*
Y329114D01*
X155340D01*
X155520Y328614D01*
X148600Y321695D01*
X148353Y321324D01*
X148265Y320886D01*
Y200984D01*
X148353Y200547D01*
X148600Y200175D01*
X156262Y192514D01*
X156224Y192323D01*
X156365Y191616D01*
X156765Y191017D01*
X157364Y190617D01*
X158071Y190476D01*
X158777Y190617D01*
X159377Y191017D01*
X159777Y191616D01*
X159917Y192323D01*
X159777Y193029D01*
X159377Y193629D01*
X158777Y194029D01*
X158071Y194169D01*
X157880Y194131D01*
X150554Y201458D01*
Y206039D01*
X151054Y206088D01*
X151108Y205812D01*
X151356Y205441D01*
X165982Y190815D01*
Y176417D01*
X165512D01*
Y172795D01*
X165982D01*
Y169724D01*
X165315D01*
Y166496D01*
X168937D01*
Y169724D01*
X168270D01*
Y172795D01*
X168740D01*
Y176417D01*
X168270D01*
Y191289D01*
X168183Y191727D01*
X167935Y192098D01*
X153309Y206724D01*
Y241860D01*
X153712Y242168D01*
X154152Y241998D01*
Y208661D01*
X154315Y207840D01*
X154781Y207143D01*
X169938Y191985D01*
X170635Y191520D01*
X171457Y191356D01*
X193402D01*
X208718Y176040D01*
X209414Y175575D01*
X210236Y175411D01*
X239518D01*
X239815Y174948D01*
X239810Y174911D01*
X239246Y174534D01*
X238845Y173935D01*
X238705Y173228D01*
X238845Y172522D01*
X239246Y171923D01*
X239358Y171848D01*
Y169308D01*
X238978D01*
X238655Y169243D01*
X238561Y169181D01*
X238407Y169411D01*
X238082Y169628D01*
X237699Y169704D01*
X236823D01*
Y171653D01*
X236774Y171899D01*
X236635Y172108D01*
X236427Y172247D01*
X236181Y172296D01*
X235079D01*
X234833Y172247D01*
X234646Y172122D01*
X234458Y172247D01*
X234213Y172296D01*
X233110D01*
X232864Y172247D01*
X232656Y172108D01*
X232517Y171899D01*
X232468Y171653D01*
Y169704D01*
X231592D01*
X231209Y169628D01*
X230884Y169411D01*
X230730Y169181D01*
X230637Y169243D01*
X230313Y169308D01*
X228137D01*
X228132Y169313D01*
X227761Y169561D01*
X227323Y169648D01*
X217165D01*
Y170118D01*
X213937D01*
Y166890D01*
X217165D01*
Y167360D01*
X222121D01*
X222357Y166919D01*
X222310Y166848D01*
X222169Y166142D01*
X222306Y165454D01*
X222308Y165432D01*
X222068Y164897D01*
X222062Y164895D01*
X221691Y164647D01*
X218482Y161439D01*
X218234Y161068D01*
X218147Y160630D01*
Y147638D01*
X218234Y147200D01*
X218482Y146829D01*
X223601Y141711D01*
X223972Y141463D01*
X224410Y141376D01*
X227704D01*
Y137520D01*
X227753Y137274D01*
X227892Y137065D01*
X228896Y136062D01*
X228896Y136062D01*
X229105Y135922D01*
X229350Y135873D01*
X232835D01*
X233080Y135922D01*
X233289Y136062D01*
X233428Y136270D01*
X233477Y136516D01*
Y139272D01*
X233471Y139301D01*
X233474Y139331D01*
X233447Y139423D01*
X233428Y139517D01*
X233411Y139543D01*
X233402Y139572D01*
X233342Y139646D01*
X233289Y139726D01*
X233264Y139743D01*
X233244Y139766D01*
X231981Y140814D01*
Y144226D01*
X233244Y145273D01*
X233264Y145297D01*
X233289Y145314D01*
X233342Y145393D01*
X233402Y145468D01*
X233411Y145497D01*
X233428Y145522D01*
X233447Y145616D01*
X233474Y145708D01*
X233471Y145738D01*
X233477Y145768D01*
Y148524D01*
X233428Y148769D01*
X233289Y148978D01*
X233080Y149117D01*
X232835Y149166D01*
X229350D01*
X229105Y149117D01*
X228896Y148978D01*
X227892Y147974D01*
X227753Y147766D01*
X227704Y147520D01*
X227704Y147520D01*
Y143664D01*
X224884D01*
X220435Y148112D01*
Y160156D01*
X222974Y162695D01*
X224970D01*
X225408Y162782D01*
X225778Y163029D01*
X225943D01*
X226323Y162598D01*
X228839D01*
Y161811D01*
X226367D01*
X226435Y161467D01*
X226653Y161141D01*
X226711Y161103D01*
X226584Y160912D01*
X226519Y160589D01*
Y159883D01*
X226584Y159560D01*
X226767Y159286D01*
X227041Y159103D01*
X227364Y159039D01*
X228864D01*
Y158209D01*
X228951Y157771D01*
X229199Y157400D01*
X231837Y154762D01*
X232208Y154514D01*
X232646Y154427D01*
X237165D01*
X237603Y154514D01*
X237974Y154762D01*
X238966Y155754D01*
X239590Y155670D01*
X239644Y155589D01*
X244328Y150904D01*
Y148465D01*
X243858D01*
Y148396D01*
X241371D01*
X240789Y148978D01*
X240580Y149117D01*
X240335Y149166D01*
X240335Y149166D01*
X236850D01*
X236605Y149117D01*
X236396Y148978D01*
X236257Y148769D01*
X236208Y148524D01*
Y145768D01*
X236214Y145738D01*
X236211Y145708D01*
X236238Y145616D01*
X236257Y145522D01*
X236274Y145497D01*
X236282Y145468D01*
X236343Y145393D01*
X236396Y145314D01*
X236421Y145297D01*
X236440Y145273D01*
X237704Y144226D01*
Y140814D01*
X236440Y139766D01*
X236421Y139743D01*
X236396Y139726D01*
X236343Y139646D01*
X236282Y139572D01*
X236274Y139543D01*
X236257Y139517D01*
X236238Y139423D01*
X236211Y139331D01*
X236214Y139301D01*
X236208Y139272D01*
Y136516D01*
X236257Y136270D01*
X236396Y136062D01*
X236605Y135922D01*
X236850Y135873D01*
X238297D01*
Y131231D01*
X237313Y130247D01*
X236850Y130157D01*
X236850Y130157D01*
X236850Y130157D01*
X235240D01*
X234274Y131124D01*
X233902Y131372D01*
X233465Y131459D01*
X229405D01*
X229254Y131959D01*
X229258Y131962D01*
X229659Y132561D01*
X229799Y133268D01*
X229659Y133974D01*
X229258Y134573D01*
X228659Y134974D01*
X227953Y135114D01*
X227246Y134974D01*
X227006Y134813D01*
X216819D01*
X216660Y135309D01*
X217060Y135907D01*
X217201Y136614D01*
X217060Y137321D01*
X216660Y137920D01*
X216498Y138028D01*
Y139567D01*
X216411Y140005D01*
X216366Y140073D01*
X216181Y140512D01*
X216181Y140512D01*
X216181Y140512D01*
Y143740D01*
X212559D01*
Y141826D01*
X212526Y141776D01*
X212439Y141339D01*
X212526Y140901D01*
X212559Y140851D01*
Y140512D01*
X212792D01*
X214210Y139093D01*
Y138028D01*
X214049Y137920D01*
X213648Y137321D01*
X213508Y136614D01*
X213648Y135907D01*
X214049Y135309D01*
X213890Y134813D01*
X212094D01*
X211936Y135309D01*
X212336Y135907D01*
X212476Y136614D01*
X212336Y137321D01*
X211936Y137920D01*
X211336Y138320D01*
X210630Y138461D01*
X210439Y138423D01*
X209372Y139490D01*
X209001Y139738D01*
X208563Y139825D01*
X207716D01*
Y141181D01*
X204488D01*
Y137559D01*
X206484D01*
X206594Y137537D01*
X208089D01*
X208821Y136805D01*
X208783Y136614D01*
X208924Y135907D01*
X209324Y135309D01*
X209166Y134813D01*
X208274D01*
X207682Y134695D01*
X207181Y134361D01*
X205797Y132977D01*
X205462Y132475D01*
X205344Y131884D01*
Y129567D01*
X205276D01*
Y126339D01*
X208504D01*
Y127202D01*
X211552D01*
X211819Y126702D01*
X211680Y126494D01*
X211539Y125787D01*
X211680Y125081D01*
X212080Y124482D01*
X212679Y124082D01*
X212612Y123585D01*
X212044D01*
X211936Y123747D01*
X211336Y124147D01*
X210630Y124287D01*
X209923Y124147D01*
X209324Y123747D01*
X209161Y123503D01*
X208769Y123622D01*
X206890D01*
Y124016D01*
X206496D01*
Y125787D01*
X205118D01*
Y123925D01*
X204656Y123733D01*
X203113Y125277D01*
Y133858D01*
Y137559D01*
X203780D01*
Y141181D01*
X203113D01*
Y160827D01*
X203025Y161265D01*
X202777Y161636D01*
X190165Y174248D01*
X190317Y174613D01*
X190419Y175394D01*
X190317Y176175D01*
X190015Y176903D01*
X189536Y177528D01*
X188910Y178007D01*
X188183Y178309D01*
X187402Y178412D01*
X186620Y178309D01*
X185893Y178007D01*
X185268Y177528D01*
X184788Y176903D01*
X184486Y176175D01*
X184384Y175394D01*
X184486Y174613D01*
X184788Y173885D01*
X185268Y173260D01*
X185893Y172780D01*
X186620Y172479D01*
X187402Y172376D01*
X188183Y172479D01*
X188548Y172630D01*
X200824Y160353D01*
Y141181D01*
X200551D01*
Y137559D01*
X200824D01*
Y133858D01*
Y124803D01*
X200912Y124365D01*
X201160Y123994D01*
X205825Y119329D01*
X206196Y119081D01*
X206634Y118994D01*
X216791D01*
X217229Y119081D01*
X217600Y119329D01*
X217606Y119334D01*
X217913D01*
X218236Y119398D01*
X218303Y119443D01*
X218482Y119499D01*
X218700Y119173D01*
X219026Y118955D01*
X219411Y118878D01*
X220472D01*
Y124409D01*
Y129941D01*
X219411D01*
X219026Y129864D01*
X218700Y129646D01*
X218482Y129320D01*
X218303Y129376D01*
X218236Y129420D01*
X217913Y129485D01*
X217155D01*
X217126Y129490D01*
X208504D01*
Y129567D01*
X208435D01*
Y131244D01*
X208914Y131722D01*
X227006D01*
X227246Y131562D01*
X227282Y131555D01*
X227362Y131420D01*
X227429Y131016D01*
X225904Y129490D01*
X224606D01*
X224577Y129485D01*
X223819D01*
X223496Y129420D01*
X223429Y129376D01*
X223250Y129320D01*
X223032Y129646D01*
X222706Y129864D01*
X222321Y129941D01*
X221260D01*
Y124409D01*
Y118878D01*
X222321D01*
X222706Y118955D01*
X223032Y119173D01*
X223250Y119499D01*
X223429Y119443D01*
X223496Y119398D01*
X223819Y119334D01*
X223954D01*
Y118996D01*
X224042Y118558D01*
X224289Y118187D01*
X228110Y114366D01*
Y111575D01*
X232520D01*
Y115984D01*
X229728D01*
X226242Y119470D01*
Y120472D01*
X226237Y120501D01*
Y120768D01*
X226172Y121090D01*
X226036Y121434D01*
X226239Y121901D01*
X226727Y122049D01*
X227760Y121016D01*
X227730Y120866D01*
X227871Y120159D01*
X228271Y119561D01*
X228870Y119160D01*
X229577Y119020D01*
X230283Y119160D01*
X230882Y119561D01*
X231283Y120159D01*
X231423Y120866D01*
X231283Y121573D01*
X230882Y122172D01*
X230283Y122572D01*
X229618Y122705D01*
X229583Y122750D01*
X229776Y123112D01*
X229883Y123200D01*
X230118Y123153D01*
X230825Y123294D01*
X231424Y123694D01*
X231532Y123856D01*
X232075D01*
X232512Y123943D01*
X232884Y124191D01*
X233003Y124310D01*
X233465Y124119D01*
Y122835D01*
X234842D01*
Y124606D01*
X235236D01*
Y125000D01*
X237008D01*
Y126378D01*
X236250D01*
X235952Y126863D01*
X236064Y126929D01*
X236850D01*
Y126998D01*
X237795D01*
X238387Y127115D01*
X238888Y127451D01*
X240935Y129498D01*
X241270Y129999D01*
X241388Y130590D01*
Y136661D01*
X241793Y137065D01*
X241932Y137274D01*
X241981Y137520D01*
X241981Y137520D01*
Y145305D01*
X243858D01*
Y145236D01*
X247087D01*
Y145706D01*
X252676D01*
X255755Y142627D01*
X256126Y142379D01*
X256564Y142292D01*
X259409D01*
Y141822D01*
X259880D01*
Y140631D01*
X259172Y139924D01*
X255198D01*
X254564Y140557D01*
X254602Y140748D01*
X254462Y141455D01*
X254062Y142054D01*
X253463Y142454D01*
X252756Y142595D01*
X252049Y142454D01*
X251450Y142054D01*
X251050Y141455D01*
X250909Y140748D01*
X251050Y140041D01*
X251450Y139442D01*
X252049Y139042D01*
X252756Y138901D01*
X252947Y138939D01*
X253916Y137971D01*
X254287Y137723D01*
X254724Y137636D01*
X259646D01*
X260084Y137723D01*
X260455Y137971D01*
X261833Y139348D01*
X262081Y139720D01*
X262168Y140157D01*
Y141822D01*
X263032D01*
Y145050D01*
X259409D01*
Y144580D01*
X257038D01*
X253959Y147659D01*
X253587Y147907D01*
X253150Y147994D01*
X247087D01*
Y148465D01*
X246616D01*
Y151378D01*
X246529Y151816D01*
X246281Y152187D01*
X241597Y156871D01*
Y158501D01*
X241910Y158758D01*
X245639D01*
X246077Y158845D01*
X246448Y159093D01*
X247797Y160442D01*
X248045Y160813D01*
X248132Y161251D01*
Y163159D01*
X248045Y163596D01*
X247797Y163968D01*
X246448Y165317D01*
X246077Y165565D01*
X245639Y165652D01*
X243731D01*
X243402Y165586D01*
X243225Y165663D01*
X243110Y165748D01*
X240453D01*
Y166535D01*
X242934D01*
X243314Y167025D01*
X252323D01*
Y166890D01*
X255551D01*
Y170118D01*
X254884D01*
Y171582D01*
X255249Y172128D01*
X255390Y172835D01*
X255249Y173541D01*
X254849Y174140D01*
X254250Y174541D01*
X253543Y174681D01*
X252837Y174541D01*
X252238Y174140D01*
X251837Y173541D01*
X251697Y172835D01*
X251837Y172128D01*
X252238Y171529D01*
X252596Y171289D01*
Y170118D01*
X252323D01*
Y169313D01*
X241646D01*
Y171782D01*
X241857Y171923D01*
X242257Y172522D01*
X242398Y173228D01*
X242257Y173935D01*
X241857Y174534D01*
X241292Y174911D01*
X241287Y174948D01*
X241584Y175411D01*
X261063D01*
X273744Y162731D01*
Y153543D01*
Y149606D01*
X273885Y148900D01*
X274285Y148301D01*
X280446Y142139D01*
X281045Y141739D01*
X281752Y141598D01*
X286142D01*
Y141024D01*
X292205D01*
Y145866D01*
X286142D01*
Y145291D01*
X282517D01*
X277437Y150371D01*
Y151835D01*
X282165D01*
X282872Y151975D01*
X283471Y152375D01*
X283577Y152534D01*
X295039D01*
Y152268D01*
X298244D01*
X298268Y152268D01*
X298744Y152211D01*
Y146063D01*
X298885Y145356D01*
X299285Y144757D01*
X301818Y142224D01*
X301701Y141339D01*
X301824Y140403D01*
X302186Y139532D01*
X302760Y138783D01*
X303508Y138209D01*
X304380Y137848D01*
X305315Y137725D01*
X306201Y137842D01*
X308132Y135910D01*
X308148Y135831D01*
X308592Y135167D01*
X309256Y134723D01*
X310039Y134567D01*
X323386D01*
Y133228D01*
X330157D01*
Y140000D01*
X323386D01*
Y138661D01*
X310603D01*
X308812Y140453D01*
X308928Y141339D01*
X308805Y142274D01*
X308444Y143145D01*
X307870Y143894D01*
X307122Y144468D01*
X306250Y144829D01*
X305315Y144952D01*
X304429Y144836D01*
X302437Y146828D01*
Y152935D01*
X311953D01*
X312391Y153022D01*
X312762Y153270D01*
X317917Y158425D01*
X319921D01*
Y161653D01*
X316299D01*
Y160043D01*
X311479Y155223D01*
X302437D01*
Y159649D01*
X306607Y163819D01*
X310335D01*
X310335Y167421D01*
X310335Y167794D01*
X310688Y168147D01*
X311417D01*
X311855Y168234D01*
X312226Y168482D01*
X313801Y170057D01*
X314049Y170428D01*
X314136Y170866D01*
Y188328D01*
X314799Y188603D01*
X315547Y189177D01*
X316122Y189926D01*
X316483Y190797D01*
X316606Y191732D01*
X316483Y192667D01*
X316122Y193539D01*
X315547Y194288D01*
X314799Y194862D01*
X314136Y195136D01*
Y197951D01*
X316360Y200175D01*
X316608Y200547D01*
X316695Y200984D01*
Y222441D01*
X316608Y222879D01*
X316360Y223250D01*
X308895Y230715D01*
X308933Y230906D01*
X308792Y231612D01*
X308392Y232211D01*
X307793Y232611D01*
X307087Y232752D01*
X306380Y232611D01*
X305826Y232242D01*
X305508Y232630D01*
X318329Y245451D01*
X318577Y245822D01*
X318664Y246260D01*
Y250964D01*
X318847Y251101D01*
X319300Y250814D01*
X319216Y250394D01*
X319357Y249687D01*
X319757Y249088D01*
X319919Y248980D01*
Y187088D01*
X317301Y184470D01*
X317053Y184099D01*
X316966Y183661D01*
Y165591D01*
X316299D01*
Y162362D01*
X319921D01*
Y162931D01*
X324764D01*
Y162362D01*
X327992D01*
Y165984D01*
X324764D01*
Y165219D01*
X319921D01*
Y165591D01*
X319254D01*
Y183188D01*
X321872Y185805D01*
X322120Y186176D01*
X322207Y186614D01*
Y195565D01*
X322707Y195809D01*
X323112Y195538D01*
X323819Y195398D01*
X324525Y195538D01*
X325125Y195938D01*
X325525Y196537D01*
X325665Y197244D01*
X325525Y197951D01*
X325125Y198550D01*
X324963Y198658D01*
Y206818D01*
X325328Y207364D01*
X325469Y208071D01*
X325328Y208777D01*
X324928Y209377D01*
X324329Y209777D01*
X323622Y209917D01*
X322915Y209777D01*
X322707Y209638D01*
X322207Y209905D01*
Y248980D01*
X322369Y249088D01*
X322769Y249687D01*
X322909Y250394D01*
X322769Y251100D01*
X322369Y251699D01*
X321770Y252100D01*
X321063Y252240D01*
X320356Y252100D01*
X320077Y252515D01*
X321022Y253459D01*
X321270Y253830D01*
X321357Y254268D01*
Y258912D01*
X323308Y260864D01*
X332063D01*
X332501Y260951D01*
X332872Y261199D01*
X343683Y272009D01*
X343996D01*
X344107Y272031D01*
X347284D01*
Y278016D01*
X346223D01*
Y294032D01*
X347284D01*
Y300016D01*
X342874D01*
Y294032D01*
X343935D01*
Y278016D01*
X342874D01*
Y274231D01*
X342771Y274211D01*
X342400Y273962D01*
X331589Y263152D01*
X322835D01*
X322397Y263065D01*
X322026Y262817D01*
X319404Y260195D01*
X319156Y259824D01*
X319069Y259386D01*
Y254742D01*
X316711Y252384D01*
X316463Y252013D01*
X316376Y251575D01*
Y246734D01*
X298601Y228959D01*
X298353Y228587D01*
X298274Y228191D01*
X298104Y228077D01*
X297704Y227478D01*
X297563Y226772D01*
X297704Y226065D01*
X298104Y225466D01*
X298703Y225066D01*
X299410Y224925D01*
X300116Y225066D01*
X300715Y225466D01*
X301115Y226065D01*
X301256Y226772D01*
X301115Y227478D01*
X300811Y227934D01*
X305362Y232485D01*
X305751Y232166D01*
X305381Y231612D01*
X305240Y230906D01*
X305381Y230199D01*
X305781Y229600D01*
X306380Y229200D01*
X307087Y229059D01*
X307277Y229097D01*
X314407Y221967D01*
Y201458D01*
X312183Y199234D01*
X311935Y198863D01*
X311848Y198425D01*
Y195136D01*
X311185Y194862D01*
X310437Y194288D01*
X309863Y193539D01*
X309502Y192667D01*
X309379Y191732D01*
X309502Y190797D01*
X309863Y189926D01*
X310437Y189177D01*
X311185Y188603D01*
X311848Y188328D01*
Y171340D01*
X311117Y170608D01*
X310515D01*
X310335Y170789D01*
X310335Y171161D01*
X310335Y171524D01*
Y174764D01*
X307156D01*
X307087Y174778D01*
X292688D01*
X292499Y175232D01*
X291925Y175980D01*
X291177Y176555D01*
X290305Y176916D01*
X289370Y177039D01*
X288435Y176916D01*
X287563Y176555D01*
X286815Y175980D01*
X286241Y175232D01*
X286052Y174778D01*
X284252D01*
X283584Y174645D01*
X283462Y174563D01*
X283348Y174541D01*
X282749Y174140D01*
X282349Y173541D01*
X282209Y172835D01*
X282349Y172128D01*
X282749Y171529D01*
X283348Y171129D01*
X284055Y170988D01*
X284762Y171129D01*
X284996Y171285D01*
X286496D01*
X286815Y170870D01*
X287563Y170296D01*
X288435Y169935D01*
X289370Y169812D01*
X290305Y169935D01*
X291177Y170296D01*
X291925Y170870D01*
X292244Y171285D01*
X293776D01*
X294232Y171181D01*
X294232Y170785D01*
Y169685D01*
X297638D01*
Y168898D01*
X294232D01*
X294232Y167402D01*
X294390Y166967D01*
Y163819D01*
X295510D01*
Y155890D01*
X295039D01*
Y155624D01*
X282563D01*
X282076Y155528D01*
X277437D01*
Y162929D01*
X277482Y162996D01*
X277638Y163779D01*
X277482Y164563D01*
X277038Y165227D01*
X263615Y178650D01*
X263338Y179065D01*
X263353Y179146D01*
X263501Y179565D01*
X304653D01*
X305199Y179200D01*
X305906Y179059D01*
X306612Y179200D01*
X307211Y179600D01*
X307611Y180199D01*
X307752Y180905D01*
X307611Y181612D01*
X307211Y182211D01*
X307035Y182329D01*
Y182829D01*
X307211Y182946D01*
X307611Y183545D01*
X307752Y184252D01*
X307611Y184959D01*
X307211Y185558D01*
X306612Y185958D01*
X305906Y186099D01*
X305199Y185958D01*
X304600Y185558D01*
X304334Y185160D01*
X298540D01*
X298389Y185660D01*
X298747Y185899D01*
X299147Y186498D01*
X299287Y187205D01*
X299147Y187911D01*
X298876Y188317D01*
X299120Y188817D01*
X301145D01*
X301253Y188655D01*
X301852Y188255D01*
X302559Y188114D01*
X303266Y188255D01*
X303865Y188655D01*
X304265Y189254D01*
X304406Y189961D01*
X304265Y190667D01*
X303865Y191266D01*
X303266Y191667D01*
X302559Y191807D01*
X301852Y191667D01*
X301253Y191266D01*
X301145Y191105D01*
X290713D01*
X290682Y191258D01*
X290282Y191857D01*
X289683Y192257D01*
X288976Y192398D01*
X288270Y192257D01*
X287671Y191857D01*
X287270Y191258D01*
X287130Y190551D01*
X287270Y189845D01*
X287671Y189245D01*
X288270Y188845D01*
X288976Y188705D01*
X289553Y188819D01*
X289567Y188817D01*
X295356D01*
X295633Y188317D01*
X295530Y188152D01*
X286322D01*
X285951Y188707D01*
X285352Y189108D01*
X284646Y189248D01*
X283939Y189108D01*
X283340Y188707D01*
X282940Y188108D01*
X282799Y187402D01*
X282940Y186695D01*
X283340Y186096D01*
X283939Y185696D01*
X284119Y185660D01*
X284070Y185160D01*
X277392D01*
X277200Y185622D01*
X293805Y202227D01*
X293996Y202189D01*
X294703Y202329D01*
X295302Y202730D01*
X295702Y203329D01*
X295843Y204035D01*
X295702Y204742D01*
X295302Y205341D01*
X294703Y205741D01*
X293996Y205882D01*
X293289Y205741D01*
X292690Y205341D01*
X292290Y204742D01*
X292150Y204035D01*
X292188Y203845D01*
X286963Y198621D01*
X286548Y198900D01*
X286689Y199606D01*
X286548Y200313D01*
X286148Y200912D01*
X285549Y201312D01*
X284842Y201453D01*
X284136Y201312D01*
X283537Y200912D01*
X283137Y200313D01*
X282996Y199606D01*
X283034Y199416D01*
X272558Y188939D01*
X256065D01*
Y192756D01*
X262933D01*
Y200315D01*
X262365D01*
Y201664D01*
X262864Y202031D01*
X262992Y202006D01*
X264055D01*
Y201437D01*
X271614D01*
Y204587D01*
Y208305D01*
X297361D01*
X300157Y205508D01*
Y203898D01*
X303386D01*
Y204368D01*
X305276D01*
Y201929D01*
X313622D01*
Y207126D01*
X305276D01*
Y206656D01*
X303386D01*
Y207126D01*
X301775D01*
X298644Y210258D01*
X298272Y210506D01*
X297835Y210593D01*
X271614D01*
Y211454D01*
X300000D01*
X300438Y211542D01*
X300809Y211789D01*
X301578Y212559D01*
X303189D01*
Y213029D01*
X305276D01*
Y211772D01*
X313622D01*
Y216968D01*
X305276D01*
Y215317D01*
X303189D01*
Y215787D01*
X299961D01*
Y214177D01*
X299526Y213742D01*
X271614D01*
Y214604D01*
X280866D01*
Y214528D01*
X284095D01*
Y214604D01*
X286850D01*
X287288Y214691D01*
X287659Y214939D01*
X289590Y216870D01*
X293130D01*
Y221595D01*
X287972D01*
Y218488D01*
X286377Y216892D01*
X284095D01*
Y217756D01*
X280866D01*
Y216892D01*
X272216D01*
X271772Y217028D01*
Y218504D01*
X267835D01*
X263898D01*
Y217028D01*
X264055D01*
Y213664D01*
X263555Y213457D01*
X259609Y217403D01*
Y227326D01*
X259770Y227434D01*
X260171Y228033D01*
X260311Y228740D01*
X260171Y229447D01*
X259770Y230046D01*
X259171Y230446D01*
X258465Y230587D01*
X257758Y230446D01*
X257159Y230046D01*
X256759Y229447D01*
X256618Y228740D01*
X256759Y228033D01*
X257159Y227434D01*
X257321Y227326D01*
Y217052D01*
X257024Y216872D01*
X256831Y216834D01*
X255081Y218584D01*
Y227326D01*
X255243Y227434D01*
X255643Y228033D01*
X255784Y228740D01*
X255643Y229447D01*
X255243Y230046D01*
X254644Y230446D01*
X253937Y230587D01*
X253230Y230446D01*
X252631Y230046D01*
X252231Y229447D01*
X252091Y228740D01*
X252231Y228033D01*
X252631Y227434D01*
X252793Y227326D01*
Y218110D01*
X252880Y217672D01*
X253128Y217301D01*
X259880Y210550D01*
Y207943D01*
X259418Y207751D01*
X250553Y216616D01*
Y227523D01*
X250715Y227631D01*
X251115Y228230D01*
X251256Y228937D01*
X251115Y229644D01*
X250715Y230243D01*
X250116Y230643D01*
X249410Y230784D01*
X248703Y230643D01*
X248104Y230243D01*
X247704Y229644D01*
X247563Y228937D01*
X247704Y228230D01*
X248104Y227631D01*
X248265Y227523D01*
Y216142D01*
X248353Y215704D01*
X248601Y215333D01*
X248243Y214989D01*
X246223Y217009D01*
Y227523D01*
X246384Y227631D01*
X246785Y228230D01*
X246925Y228937D01*
X246785Y229644D01*
X246384Y230243D01*
X245785Y230643D01*
X245079Y230784D01*
X244372Y230643D01*
X243773Y230243D01*
X243373Y229644D01*
X243232Y228937D01*
X243373Y228230D01*
X243773Y227631D01*
X243935Y227523D01*
Y216535D01*
X244022Y216098D01*
X244270Y215726D01*
X256730Y203266D01*
Y200315D01*
X249766D01*
Y203463D01*
X250400Y204097D01*
X250590Y204059D01*
X251297Y204200D01*
X251896Y204600D01*
X252296Y205199D01*
X252437Y205906D01*
X252296Y206612D01*
X251896Y207211D01*
X251297Y207611D01*
X250590Y207752D01*
X249884Y207611D01*
X249285Y207211D01*
X248885Y206612D01*
X248744Y205906D01*
X248782Y205715D01*
X247813Y204746D01*
X247565Y204375D01*
X247478Y203937D01*
Y200315D01*
X246943D01*
Y207859D01*
X247369Y208143D01*
X247769Y208742D01*
X247909Y209449D01*
X247769Y210155D01*
X247369Y210754D01*
X246770Y211155D01*
X246063Y211295D01*
X245356Y211155D01*
X244757Y210754D01*
X244357Y210155D01*
X244216Y209449D01*
X244357Y208742D01*
X244655Y208296D01*
Y200315D01*
X231065D01*
Y201495D01*
X237029Y207459D01*
X237277Y207830D01*
X237365Y208268D01*
Y219649D01*
X237526Y219757D01*
X237926Y220356D01*
X238067Y221063D01*
X237926Y221770D01*
X237526Y222369D01*
X236927Y222769D01*
X236221Y222909D01*
X235514Y222769D01*
X234915Y222369D01*
X234514Y221770D01*
X234374Y221063D01*
X234514Y220356D01*
X234915Y219757D01*
X235076Y219649D01*
Y208742D01*
X231017Y204682D01*
X230908Y204731D01*
X230604Y204977D01*
X230672Y205315D01*
Y220634D01*
X230833Y220742D01*
X231234Y221341D01*
X231374Y222047D01*
X231234Y222754D01*
X230833Y223353D01*
X230534Y223553D01*
X230686Y224053D01*
X236185D01*
X236293Y223891D01*
X236892Y223491D01*
X237598Y223350D01*
X238305Y223491D01*
X238904Y223891D01*
X239304Y224490D01*
X239445Y225197D01*
X239304Y225904D01*
X238904Y226502D01*
X238305Y226903D01*
X237598Y227043D01*
X236892Y226903D01*
X236293Y226502D01*
X236185Y226341D01*
X226890D01*
Y227793D01*
X230118D01*
X230556Y227880D01*
X230927Y228128D01*
X231911Y229112D01*
X232159Y229484D01*
X232246Y229921D01*
Y232473D01*
X232159Y232910D01*
X231911Y233282D01*
X228213Y236980D01*
X228420Y237480D01*
X262933D01*
Y245039D01*
X259215D01*
Y246376D01*
X260710Y247872D01*
X279447D01*
X284034Y243286D01*
X284405Y243038D01*
X284842Y242951D01*
X285004D01*
X285112Y242789D01*
X285711Y242389D01*
X286417Y242248D01*
X287124Y242389D01*
X287723Y242789D01*
X288123Y243388D01*
X288264Y244094D01*
X288226Y244285D01*
X298053Y254112D01*
X298301Y254483D01*
X298388Y254921D01*
Y256510D01*
X298885Y256577D01*
X299285Y255978D01*
X299447Y255870D01*
Y249293D01*
X290077Y239924D01*
X283661D01*
X283224Y239837D01*
X282853Y239588D01*
X272755Y229490D01*
X271614D01*
Y232933D01*
Y236358D01*
X264055D01*
Y232933D01*
Y229784D01*
Y226634D01*
Y223484D01*
Y220768D01*
X263898D01*
Y219291D01*
X267835D01*
X271772D01*
Y220768D01*
X272216Y220903D01*
X274961D01*
X275398Y220990D01*
X275770Y221238D01*
X277403Y222872D01*
X280866D01*
Y222402D01*
X284095D01*
Y225630D01*
X280866D01*
Y225160D01*
X277091D01*
X276875Y225583D01*
X276867Y225643D01*
X280247Y229023D01*
X280709Y228831D01*
Y228346D01*
X282087D01*
Y229724D01*
X281602D01*
X281411Y230186D01*
X285474Y234250D01*
X289134D01*
X289401Y233750D01*
X289190Y233433D01*
X289049Y232726D01*
X289190Y232020D01*
X289451Y231629D01*
Y228012D01*
X287972D01*
Y223287D01*
X293130D01*
Y228012D01*
X292341D01*
Y231629D01*
X292876Y231736D01*
X293345Y232049D01*
X296465Y235169D01*
X298869D01*
X299060Y234707D01*
X297194Y232841D01*
X296654Y232949D01*
X295947Y232808D01*
X295348Y232408D01*
X294948Y231809D01*
X294807Y231102D01*
X294948Y230396D01*
X295348Y229797D01*
X295947Y229396D01*
X296654Y229256D01*
X297360Y229396D01*
X297959Y229797D01*
X298359Y230396D01*
X298453Y230864D01*
X314982Y247393D01*
X315230Y247765D01*
X315317Y248202D01*
Y270613D01*
X316736Y272031D01*
X320315D01*
Y278016D01*
X319254D01*
Y294032D01*
X320315D01*
Y300016D01*
X320691Y300315D01*
X327869D01*
X330737Y297446D01*
X331402Y297002D01*
X331850Y296913D01*
Y294032D01*
X332008D01*
Y278016D01*
X331850D01*
Y272031D01*
X336260D01*
Y278016D01*
X336102D01*
Y294032D01*
X336260D01*
Y296847D01*
X338067D01*
X338067Y296847D01*
X338850Y297002D01*
X339514Y297446D01*
X342974Y300905D01*
X355906D01*
X355906Y300905D01*
X356689Y301061D01*
X357353Y301505D01*
X358046Y302198D01*
X358434Y301879D01*
X358392Y301816D01*
X358305Y301378D01*
Y299819D01*
X357244D01*
Y297994D01*
X354170D01*
X354062Y298156D01*
X353463Y298556D01*
X352756Y298697D01*
X352049Y298556D01*
X351450Y298156D01*
X351050Y297557D01*
X350909Y296850D01*
X351050Y296144D01*
X351450Y295545D01*
X352049Y295145D01*
X352756Y295004D01*
X353463Y295145D01*
X354062Y295545D01*
X354170Y295706D01*
X357244D01*
Y293835D01*
X358305D01*
Y277819D01*
X357244D01*
Y273452D01*
X351123Y267331D01*
X350787Y267398D01*
X350081Y267257D01*
X349482Y266857D01*
X349081Y266258D01*
X348941Y265551D01*
X349081Y264845D01*
X349482Y264246D01*
X350081Y263845D01*
X350787Y263705D01*
X351494Y263845D01*
X352093Y264246D01*
X352493Y264845D01*
X352634Y265551D01*
X352625Y265597D01*
X358862Y271835D01*
X360421D01*
X360531Y271813D01*
X360845D01*
X364569Y268089D01*
X364940Y267841D01*
X365378Y267754D01*
X389370D01*
X389808Y267841D01*
X390179Y268089D01*
X392797Y270706D01*
X394963D01*
X395225Y270315D01*
Y267087D01*
X395394D01*
Y258512D01*
X364273D01*
Y258669D01*
X361879D01*
Y254882D01*
Y251095D01*
X364273D01*
Y251252D01*
X394338D01*
Y226716D01*
X384967Y217345D01*
X384501Y216649D01*
X384338Y215827D01*
Y189142D01*
X384273Y188669D01*
X381879D01*
Y184882D01*
Y181095D01*
X384273D01*
X384568Y180717D01*
Y172283D01*
X384399D01*
Y169055D01*
X384874D01*
Y165977D01*
X384718Y165873D01*
X384318Y165274D01*
X384177Y164567D01*
X384318Y163860D01*
X384718Y163261D01*
X385317Y162861D01*
X386024Y162720D01*
X386730Y162861D01*
X387329Y163261D01*
X387730Y163860D01*
X387870Y164567D01*
X387730Y165274D01*
X387329Y165873D01*
X387162Y165984D01*
Y169055D01*
X387627D01*
Y172283D01*
X387458D01*
Y181252D01*
X423698D01*
Y181095D01*
X426091D01*
Y184882D01*
Y188669D01*
X423698D01*
Y188512D01*
X388633D01*
Y214937D01*
X398004Y224308D01*
X398469Y225005D01*
X398633Y225827D01*
Y250622D01*
X398698Y251095D01*
X401091D01*
Y254882D01*
Y258669D01*
X398698D01*
X398285Y258879D01*
Y267087D01*
X398454D01*
Y269894D01*
X398811Y270167D01*
X399005Y270098D01*
Y269094D01*
X400777D01*
X402548D01*
Y270206D01*
X402548Y270472D01*
X402951Y270706D01*
X403069D01*
X405341Y268435D01*
Y258512D01*
X404273D01*
Y258669D01*
X401879D01*
Y254882D01*
Y251095D01*
X404273D01*
Y251252D01*
X423698D01*
Y251095D01*
X426091D01*
Y254882D01*
Y258669D01*
X423698D01*
Y258512D01*
X407629D01*
Y268909D01*
X407542Y269346D01*
X407294Y269717D01*
X404352Y272659D01*
X403981Y272907D01*
X403543Y272994D01*
X400713D01*
X400478Y273435D01*
X400525Y273506D01*
X400665Y274213D01*
X400525Y274919D01*
X400125Y275518D01*
X399963Y275626D01*
Y276124D01*
X400626Y276398D01*
X401374Y276972D01*
X401948Y277721D01*
X402309Y278592D01*
X402432Y279528D01*
X402309Y280463D01*
X401948Y281334D01*
X401374Y282083D01*
X400626Y282657D01*
X399963Y282931D01*
Y284606D01*
X400236D01*
Y288228D01*
X399766D01*
Y289487D01*
X404943Y294664D01*
X405191Y295035D01*
X405278Y295472D01*
Y296967D01*
X406283Y297972D01*
X409790D01*
X410042Y297781D01*
X410233Y297529D01*
Y295866D01*
X410312Y295467D01*
X410539Y295128D01*
X410877Y294902D01*
X411277Y294823D01*
X411676Y294902D01*
X412014Y295128D01*
X412113D01*
X412452Y294902D01*
X412851Y294823D01*
X413251Y294902D01*
X413639Y295103D01*
X414027Y294902D01*
X414426Y294823D01*
X414826Y294902D01*
X415164Y295128D01*
X415263D01*
X415602Y294902D01*
X416001Y294823D01*
X416400Y294902D01*
X416739Y295128D01*
X416838D01*
X417176Y294902D01*
X417576Y294823D01*
X417975Y294902D01*
X418363Y295103D01*
X418751Y294902D01*
X419151Y294823D01*
X419550Y294902D01*
X419889Y295128D01*
X420115Y295467D01*
X420194Y295866D01*
Y297529D01*
X420385Y297781D01*
X420638Y297972D01*
X421671D01*
X426013Y293630D01*
X425909Y293110D01*
X426050Y292404D01*
X426450Y291805D01*
X427049Y291404D01*
X427756Y291264D01*
X428463Y291404D01*
X429062Y291805D01*
X429462Y292404D01*
X429602Y293110D01*
X429462Y293817D01*
X429062Y294416D01*
X428463Y294816D01*
X427756Y294957D01*
X427658Y294937D01*
X423548Y299047D01*
X423755Y299547D01*
X426879D01*
X427164Y299262D01*
X427503Y299036D01*
X427902Y298956D01*
X427902Y298956D01*
X431063D01*
Y298189D01*
X431533D01*
Y297477D01*
X431371Y297369D01*
X430971Y296770D01*
X430831Y296063D01*
X430971Y295356D01*
X431336Y294810D01*
Y289450D01*
X430687Y288801D01*
X430439Y288430D01*
X430352Y287992D01*
Y286063D01*
X429882D01*
Y285396D01*
X425236D01*
Y286063D01*
X422008D01*
Y282441D01*
X425236D01*
Y283108D01*
X429882D01*
Y282441D01*
X433110D01*
Y286063D01*
X432640D01*
Y287518D01*
X433289Y288167D01*
X433537Y288539D01*
X433624Y288976D01*
Y291746D01*
X434121Y291813D01*
X434521Y291214D01*
X435120Y290814D01*
X435827Y290673D01*
X436533Y290814D01*
X437080Y291179D01*
X439528D01*
Y290512D01*
X442756D01*
Y294134D01*
X439528D01*
Y293467D01*
X437372D01*
X437132Y293825D01*
X436533Y294226D01*
X435827Y294366D01*
X435120Y294226D01*
X434521Y293825D01*
X434121Y293226D01*
X433624Y293293D01*
Y294518D01*
X433983Y294757D01*
X434383Y295356D01*
X434524Y296063D01*
X434383Y296770D01*
X433983Y297369D01*
X433821Y297477D01*
Y298189D01*
X434291D01*
Y301417D01*
X431063D01*
Y301044D01*
X428334D01*
X428050Y301328D01*
X427711Y301555D01*
X427312Y301634D01*
X427311Y301634D01*
X423732D01*
X423338Y302134D01*
X423344Y302165D01*
X423338Y302197D01*
X423732Y302696D01*
X424170D01*
X424170Y302696D01*
X424570Y302776D01*
X424908Y303002D01*
X425981Y304075D01*
X431063D01*
Y303898D01*
X434291D01*
Y307126D01*
X431063D01*
Y306162D01*
X425548D01*
X425149Y306082D01*
X424810Y305856D01*
X424810Y305856D01*
X423951Y304997D01*
X423527Y305223D01*
X423498Y305284D01*
X423504Y305315D01*
X423413Y305776D01*
X423152Y306167D01*
X423128Y306286D01*
X423264Y306490D01*
X423344Y306890D01*
X423264Y307289D01*
X423038Y307628D01*
X422700Y307854D01*
X422300Y307933D01*
X420638D01*
X420385Y308124D01*
X420194Y308377D01*
Y310039D01*
X420138Y310321D01*
Y319055D01*
X420905D01*
Y322284D01*
X417677D01*
Y321617D01*
X416339D01*
X415901Y321529D01*
X415530Y321281D01*
X414219Y319970D01*
X413971Y319599D01*
X413883Y319161D01*
Y318125D01*
X413458Y317841D01*
X413058Y317242D01*
X412917Y316535D01*
X413058Y315829D01*
X413458Y315230D01*
X414057Y314829D01*
X414764Y314689D01*
X415470Y314829D01*
X416069Y315230D01*
X416470Y315829D01*
X416610Y316535D01*
X416470Y317242D01*
X416172Y317688D01*
Y318687D01*
X416812Y319328D01*
X417677D01*
Y319055D01*
X418051D01*
Y311498D01*
X417576Y311083D01*
X417176Y311004D01*
X416838Y310777D01*
X416739D01*
X416400Y311004D01*
X416001Y311083D01*
X415602Y311004D01*
X415263Y310777D01*
X415164D01*
X414826Y311004D01*
X414426Y311083D01*
X414027Y311004D01*
X413639Y310803D01*
X413251Y311004D01*
X412851Y311083D01*
X412452Y311004D01*
X412248Y310867D01*
X412128Y310891D01*
X411737Y311152D01*
X411670Y311165D01*
Y309154D01*
X411277D01*
Y308760D01*
X410072D01*
Y308409D01*
X410001Y308214D01*
X409629Y307933D01*
X408127D01*
X407728Y307854D01*
X407389Y307628D01*
X407163Y307289D01*
X407083Y306890D01*
X407159Y306508D01*
X407161Y306487D01*
X407080Y306324D01*
X406471Y306225D01*
X400827Y311870D01*
Y314016D01*
X397598D01*
Y310394D01*
X399351D01*
X404090Y305655D01*
X403925Y305112D01*
X403624Y305052D01*
X403025Y304652D01*
X402625Y304053D01*
X402484Y303346D01*
X402489Y303321D01*
X402039Y303020D01*
X401876Y303130D01*
X401476Y303209D01*
X401476Y303209D01*
X400630D01*
Y303976D01*
X397402D01*
Y300354D01*
X397872D01*
Y299778D01*
X396480Y298386D01*
X395817Y298661D01*
X394882Y298784D01*
X393947Y298661D01*
X393075Y298300D01*
X392327Y297725D01*
X391752Y296977D01*
X391391Y296106D01*
X391268Y295170D01*
X391391Y294235D01*
X391666Y293572D01*
X390673Y292580D01*
X390041Y292454D01*
X389442Y292054D01*
X389042Y291455D01*
X388901Y290748D01*
X389042Y290041D01*
X389442Y289442D01*
X390041Y289042D01*
X390748Y288901D01*
X391455Y289042D01*
X392054Y289442D01*
X392454Y290041D01*
X392595Y290748D01*
X392509Y291179D01*
X393284Y291954D01*
X393947Y291680D01*
X394882Y291557D01*
X395817Y291680D01*
X396689Y292041D01*
X397437Y292615D01*
X398011Y293363D01*
X398372Y294235D01*
X398496Y295170D01*
X398372Y296106D01*
X398098Y296768D01*
X399825Y298495D01*
X400073Y298866D01*
X400160Y299304D01*
Y300354D01*
X400630D01*
Y300914D01*
X401130Y301036D01*
X402313Y299853D01*
X402313Y299853D01*
X402652Y299626D01*
X403051Y299547D01*
X403969D01*
X404160Y299085D01*
X403325Y298250D01*
X403077Y297879D01*
X402990Y297441D01*
Y295946D01*
X397813Y290770D01*
X397565Y290398D01*
X397478Y289961D01*
Y288228D01*
X397008D01*
Y284606D01*
X397675D01*
Y282931D01*
X397012Y282657D01*
X396264Y282083D01*
X395689Y281334D01*
X395328Y280463D01*
X395205Y279528D01*
X395328Y278592D01*
X395689Y277721D01*
X396264Y276972D01*
X397012Y276398D01*
X397675Y276124D01*
Y275626D01*
X397513Y275518D01*
X397113Y274919D01*
X396972Y274213D01*
X397113Y273506D01*
X397160Y273435D01*
X396924Y272994D01*
X392323D01*
X391885Y272907D01*
X391514Y272659D01*
X388896Y270042D01*
X365852D01*
X362128Y273766D01*
X361757Y274014D01*
X361653Y274034D01*
Y277819D01*
X360593D01*
Y293835D01*
X361653D01*
Y299819D01*
X360593D01*
Y300904D01*
X365966Y306278D01*
X366214Y306649D01*
X366301Y307087D01*
Y308819D01*
X367559D01*
Y314016D01*
X362894D01*
X362637Y314467D01*
X363249Y315079D01*
X368640D01*
X369203Y314516D01*
X369055Y314016D01*
X369055D01*
Y308819D01*
X373858D01*
Y310273D01*
X385550D01*
X390136Y305687D01*
X390507Y305439D01*
X390945Y305352D01*
X393468D01*
X393576Y305190D01*
X393738Y305082D01*
Y303976D01*
X393465D01*
Y303309D01*
X393110D01*
X392672Y303222D01*
X392301Y302974D01*
X386199Y296872D01*
X385951Y296501D01*
X385864Y296063D01*
Y289173D01*
X385951Y288735D01*
X386199Y288364D01*
X388955Y285608D01*
X389326Y285360D01*
X389764Y285273D01*
X393071D01*
Y284606D01*
X396299D01*
Y288228D01*
X393071D01*
Y287561D01*
X390238D01*
X388152Y289647D01*
Y295589D01*
X393077Y300515D01*
X393465Y300354D01*
Y300354D01*
X396693D01*
Y303976D01*
X396026D01*
Y305082D01*
X396188Y305190D01*
X396588Y305789D01*
X396728Y306496D01*
X396588Y307203D01*
X396188Y307802D01*
X395588Y308202D01*
X394882Y308343D01*
X394175Y308202D01*
X393576Y307802D01*
X393468Y307640D01*
X391419D01*
X386833Y312226D01*
X386461Y312474D01*
X386024Y312561D01*
X373858D01*
Y314016D01*
X373504D01*
Y315158D01*
X373348Y315941D01*
X372904Y316605D01*
X372904Y316605D01*
X370936Y318574D01*
X370272Y319017D01*
X369488Y319173D01*
X369488Y319173D01*
X362402D01*
X362402Y319173D01*
X361618Y319017D01*
X360954Y318574D01*
X360954Y318573D01*
X358789Y316408D01*
X358413Y315847D01*
X357913Y315943D01*
Y319724D01*
X353504D01*
Y315315D01*
X354565D01*
Y312835D01*
X354095D01*
Y309213D01*
X357323D01*
Y312835D01*
X356853D01*
Y315315D01*
X357750D01*
X358136Y315003D01*
X358189Y314929D01*
Y308131D01*
X355058Y305000D01*
X342126D01*
X342126Y305000D01*
X341342Y304844D01*
X340678Y304400D01*
X340678Y304400D01*
X337219Y300941D01*
X335138D01*
X334354Y300785D01*
X334055Y300585D01*
X333756Y300785D01*
X333048Y300926D01*
X330164Y303810D01*
X329500Y304254D01*
X328716Y304409D01*
X328716Y304409D01*
X312425D01*
X312425Y304409D01*
X311642Y304254D01*
X310978Y303810D01*
X308094Y300926D01*
X307386Y300785D01*
X306722Y300341D01*
X306396Y300016D01*
X304882D01*
Y298283D01*
X292437D01*
Y299764D01*
X286543D01*
Y297920D01*
X288980D01*
X289234Y297420D01*
X289102Y297237D01*
X280020D01*
Y293078D01*
X292280D01*
Y294189D01*
X304882D01*
Y294032D01*
X305039D01*
Y278016D01*
X304882D01*
Y272031D01*
X305039D01*
Y271063D01*
X305195Y270280D01*
X305639Y269615D01*
X306303Y269172D01*
X306382Y269156D01*
X309968Y265570D01*
Y249020D01*
X299008Y238059D01*
X296407D01*
X296200Y238559D01*
X305140Y247499D01*
X305388Y247870D01*
X305475Y248308D01*
Y252720D01*
X305636Y252828D01*
X306037Y253427D01*
X306177Y254134D01*
X306037Y254840D01*
X305636Y255439D01*
X305037Y255840D01*
X304331Y255980D01*
X303624Y255840D01*
X303025Y255439D01*
X302625Y254840D01*
X302484Y254134D01*
X302625Y253427D01*
X303025Y252828D01*
X303187Y252720D01*
Y248782D01*
X290943Y236538D01*
X285000D01*
X284562Y236451D01*
X284191Y236203D01*
X274329Y226341D01*
X271614D01*
Y227202D01*
X273228D01*
X273666Y227290D01*
X274037Y227537D01*
X284135Y237635D01*
X290551D01*
X290989Y237723D01*
X291360Y237971D01*
X301399Y248010D01*
X301647Y248381D01*
X301735Y248819D01*
Y255870D01*
X301896Y255978D01*
X302296Y256577D01*
X302437Y257283D01*
X302296Y257990D01*
X301896Y258589D01*
X301297Y258989D01*
X300590Y259130D01*
X299884Y258989D01*
X299285Y258589D01*
X298885Y257990D01*
X298388Y258057D01*
Y259085D01*
X298747Y259324D01*
X299147Y259923D01*
X299287Y260630D01*
X299147Y261336D01*
X298747Y261936D01*
X298148Y262336D01*
X297441Y262476D01*
X296734Y262336D01*
X296666Y262291D01*
X296306Y262651D01*
X296588Y263073D01*
X296728Y263779D01*
X296588Y264486D01*
X296188Y265085D01*
X295588Y265486D01*
X294882Y265626D01*
X294175Y265486D01*
X293576Y265085D01*
X293176Y264486D01*
X293035Y263779D01*
X293073Y263589D01*
X288896Y259412D01*
X275000D01*
X274562Y259325D01*
X274191Y259077D01*
X271238Y256124D01*
X270990Y255753D01*
X270903Y255315D01*
Y253382D01*
X270742Y253274D01*
X270634Y253113D01*
X260702D01*
X260264Y253025D01*
X259893Y252777D01*
X254112Y246997D01*
X253864Y246626D01*
X253777Y246188D01*
Y245039D01*
X252916D01*
Y248819D01*
X252829Y249257D01*
X252581Y249628D01*
X249250Y252959D01*
X249287Y253150D01*
X249147Y253856D01*
X248747Y254455D01*
X248148Y254855D01*
X247441Y254996D01*
X246734Y254855D01*
X246135Y254455D01*
X245735Y253856D01*
X245594Y253150D01*
X245735Y252443D01*
X246135Y251844D01*
X246734Y251444D01*
X247441Y251303D01*
X247632Y251341D01*
X250628Y248345D01*
Y245039D01*
X243467D01*
Y252873D01*
X251819Y261225D01*
X252207Y260906D01*
X251837Y260352D01*
X251697Y259646D01*
X251837Y258939D01*
X252238Y258340D01*
X252837Y257940D01*
X253543Y257799D01*
X254250Y257940D01*
X254849Y258340D01*
X255249Y258939D01*
X255390Y259646D01*
X255249Y260352D01*
X254849Y260951D01*
X254835Y261091D01*
X256740Y262997D01*
X257202Y262805D01*
Y260512D01*
X257290Y260074D01*
X257538Y259703D01*
X258699Y258542D01*
Y256729D01*
X258537Y256621D01*
X258137Y256022D01*
X257996Y255315D01*
X258137Y254608D01*
X258537Y254009D01*
X259136Y253609D01*
X259842Y253468D01*
X260549Y253609D01*
X261148Y254009D01*
X261548Y254608D01*
X261689Y255315D01*
X261548Y256022D01*
X261148Y256621D01*
X260986Y256729D01*
Y258164D01*
X261487Y258407D01*
X261892Y258137D01*
X262598Y257996D01*
X263305Y258137D01*
X263904Y258537D01*
X264304Y259136D01*
X264445Y259842D01*
X264304Y260549D01*
X263904Y261148D01*
X263305Y261548D01*
X262598Y261689D01*
X262408Y261651D01*
X261105Y262954D01*
Y268066D01*
X261605Y268273D01*
X266179Y263699D01*
Y261059D01*
X266017Y260951D01*
X265617Y260352D01*
X265476Y259646D01*
X265617Y258939D01*
X266017Y258340D01*
X266616Y257940D01*
X267323Y257799D01*
X268029Y257940D01*
X268629Y258340D01*
X269029Y258939D01*
X269169Y259646D01*
X269029Y260352D01*
X268629Y260951D01*
X268467Y261059D01*
Y264173D01*
X268380Y264611D01*
X268132Y264982D01*
X263349Y269765D01*
Y275789D01*
X265638Y278078D01*
X276279D01*
Y282237D01*
X264020D01*
Y279695D01*
X261683Y277359D01*
X261183Y277566D01*
Y288306D01*
X261891Y289014D01*
X264020D01*
Y288078D01*
X276279D01*
Y292237D01*
X264020D01*
Y291301D01*
X261417D01*
X260980Y291214D01*
X260608Y290966D01*
X259952Y290311D01*
X259490Y290502D01*
Y292912D01*
X260592Y294014D01*
X264020D01*
Y293078D01*
X276279D01*
Y297237D01*
X264020D01*
Y296302D01*
X260118D01*
X259680Y296214D01*
X259309Y295966D01*
X258338Y294995D01*
X257876Y295187D01*
Y297400D01*
X259490Y299013D01*
X264020D01*
Y298078D01*
X276279D01*
Y302237D01*
X264020D01*
Y301302D01*
X259016D01*
X258578Y301214D01*
X258207Y300966D01*
X256724Y299484D01*
X256262Y299675D01*
Y318621D01*
X260513Y322872D01*
X320433D01*
Y321811D01*
X324843D01*
Y326220D01*
X320433D01*
Y325160D01*
X260039D01*
X259602Y325073D01*
X259230Y324825D01*
X254597Y320191D01*
X254097Y320398D01*
Y321180D01*
X261301Y328383D01*
X331613D01*
X335787Y324209D01*
Y321417D01*
X340197D01*
Y325827D01*
X337405D01*
X333183Y330049D01*
X333390Y330549D01*
X347558D01*
X353504Y324603D01*
Y321811D01*
X357913D01*
Y326220D01*
X355122D01*
X348840Y332502D01*
X348469Y332750D01*
X348031Y332837D01*
D02*
G37*
G36*
X425000Y322441D02*
X423622D01*
Y321063D01*
X425000D01*
Y322441D01*
D02*
G37*
G36*
X422835D02*
X421457D01*
Y321063D01*
X422835D01*
Y322441D01*
D02*
G37*
G36*
X159646Y322323D02*
X157382D01*
Y320847D01*
X159646D01*
Y322323D01*
D02*
G37*
G36*
X156595D02*
X154331D01*
Y320847D01*
X156595D01*
Y322323D01*
D02*
G37*
G36*
X425000Y320276D02*
X423622D01*
Y318898D01*
X425000D01*
Y320276D01*
D02*
G37*
G36*
X422835D02*
X421457D01*
Y318898D01*
X422835D01*
Y320276D01*
D02*
G37*
G36*
X397047Y314173D02*
X395669D01*
Y312598D01*
X397047D01*
Y314173D01*
D02*
G37*
G36*
X394882D02*
X393504D01*
Y312598D01*
X394882D01*
Y314173D01*
D02*
G37*
G36*
X353543Y312992D02*
X352165D01*
Y311417D01*
X353543D01*
Y312992D01*
D02*
G37*
G36*
X320276D02*
X318898D01*
Y311417D01*
X320276D01*
Y312992D01*
D02*
G37*
G36*
X318110D02*
X316732D01*
Y311417D01*
X318110D01*
Y312992D01*
D02*
G37*
G36*
X351378D02*
X350000D01*
Y311417D01*
X351378D01*
Y312992D01*
D02*
G37*
G36*
X335827Y312402D02*
X334449D01*
Y310827D01*
X335827D01*
Y312402D01*
D02*
G37*
G36*
X333661D02*
X332283D01*
Y310827D01*
X333661D01*
Y312402D01*
D02*
G37*
G36*
X135236Y314630D02*
X131693D01*
Y310276D01*
X138016D01*
Y311850D01*
X137921Y312570D01*
X137644Y313240D01*
X137202Y313816D01*
X136626Y314258D01*
X135956Y314535D01*
X135236Y314630D01*
D02*
G37*
G36*
X397047Y311811D02*
X395669D01*
Y310236D01*
X397047D01*
Y311811D01*
D02*
G37*
G36*
X394882D02*
X393504D01*
Y310236D01*
X394882D01*
Y311811D01*
D02*
G37*
G36*
X410883Y311165D02*
X410816Y311152D01*
X410425Y310891D01*
X410164Y310500D01*
X410072Y310039D01*
Y309547D01*
X410883D01*
Y311165D01*
D02*
G37*
G36*
X324843Y319724D02*
X320433D01*
Y315315D01*
X321297D01*
Y312835D01*
X320827D01*
Y309213D01*
X324055D01*
Y312835D01*
X323585D01*
Y315315D01*
X324843D01*
Y319724D01*
D02*
G37*
G36*
X353543Y310630D02*
X352165D01*
Y309055D01*
X353543D01*
Y310630D01*
D02*
G37*
G36*
X351378D02*
X350000D01*
Y309055D01*
X351378D01*
Y310630D01*
D02*
G37*
G36*
X320276D02*
X318898D01*
Y309055D01*
X320276D01*
Y310630D01*
D02*
G37*
G36*
X318110D02*
X316732D01*
Y309055D01*
X318110D01*
Y310630D01*
D02*
G37*
G36*
X247244Y310236D02*
X245866D01*
Y308858D01*
X247244D01*
Y310236D01*
D02*
G37*
G36*
X245079D02*
X243701D01*
Y308858D01*
X245079D01*
Y310236D01*
D02*
G37*
G36*
X340197Y319331D02*
X335787D01*
Y314921D01*
X336848D01*
Y312244D01*
X336378D01*
Y308622D01*
X339606D01*
Y312244D01*
X339136D01*
Y314921D01*
X340197D01*
Y319331D01*
D02*
G37*
G36*
X335827Y310039D02*
X334449D01*
Y308465D01*
X335827D01*
Y310039D01*
D02*
G37*
G36*
X333661D02*
X332283D01*
Y308465D01*
X333661D01*
Y310039D01*
D02*
G37*
G36*
X247244Y308071D02*
X245866D01*
Y306693D01*
X247244D01*
Y308071D01*
D02*
G37*
G36*
X245079D02*
X243701D01*
Y306693D01*
X245079D01*
Y308071D01*
D02*
G37*
G36*
X438386Y307283D02*
X437008D01*
Y305906D01*
X438386D01*
Y307283D01*
D02*
G37*
G36*
X436221D02*
X434842D01*
Y305906D01*
X436221D01*
Y307283D01*
D02*
G37*
G36*
X168347Y328484D02*
X163347D01*
Y325059D01*
X164301D01*
Y314606D01*
X155669D01*
Y305472D01*
X170709D01*
Y314606D01*
X167392D01*
Y325059D01*
X168347D01*
Y328484D01*
D02*
G37*
G36*
X138016Y309488D02*
X131693D01*
Y305134D01*
X135236D01*
X135956Y305228D01*
X136626Y305506D01*
X137202Y305948D01*
X137644Y306523D01*
X137921Y307194D01*
X138016Y307913D01*
Y309488D01*
D02*
G37*
G36*
X128016Y339488D02*
X121299D01*
X114583D01*
Y338013D01*
X114364Y337485D01*
X114241Y336549D01*
Y323347D01*
X108744Y317850D01*
X108170Y317102D01*
X107809Y316231D01*
X107686Y315295D01*
Y314630D01*
X107362D01*
X106643Y314535D01*
X105972Y314258D01*
X105397Y313816D01*
X104955Y313240D01*
X104677Y312570D01*
X104583Y311850D01*
Y310276D01*
X111299D01*
Y309882D01*
X111693D01*
Y305134D01*
X115236D01*
X115956Y305228D01*
X116626Y305506D01*
X117202Y305948D01*
X117448Y306268D01*
X125151D01*
X125397Y305948D01*
X125972Y305506D01*
X126643Y305228D01*
X127362Y305134D01*
X130905D01*
Y309882D01*
Y314630D01*
X127362D01*
X126643Y314535D01*
X125972Y314258D01*
X125397Y313816D01*
X125151Y313495D01*
X117448D01*
X117202Y313816D01*
X116626Y314258D01*
X116239Y314418D01*
X116112Y314997D01*
X120410Y319295D01*
X120984Y320044D01*
X121345Y320915D01*
X121468Y321850D01*
Y335134D01*
X125236D01*
X125956Y335228D01*
X126626Y335506D01*
X127202Y335948D01*
X127644Y336524D01*
X127921Y337194D01*
X128016Y337913D01*
Y339488D01*
D02*
G37*
G36*
X110906Y309488D02*
X104583D01*
Y307913D01*
X104677Y307194D01*
X104955Y306523D01*
X105397Y305948D01*
X105972Y305506D01*
X106643Y305228D01*
X107362Y305134D01*
X110906D01*
Y309488D01*
D02*
G37*
G36*
X197835Y306693D02*
X194291D01*
Y304528D01*
X197835D01*
Y306693D01*
D02*
G37*
G36*
X193504D02*
X189961D01*
Y304528D01*
X193504D01*
Y306693D01*
D02*
G37*
G36*
X438386Y305118D02*
X437008D01*
Y303740D01*
X438386D01*
Y305118D01*
D02*
G37*
G36*
X436221D02*
X434842D01*
Y303740D01*
X436221D01*
Y305118D01*
D02*
G37*
G36*
X292437Y302395D02*
X286543D01*
Y300551D01*
X292437D01*
Y302395D01*
D02*
G37*
G36*
X285756D02*
X279862D01*
Y300551D01*
X285756D01*
Y302395D01*
D02*
G37*
G36*
X438386Y301575D02*
X437008D01*
Y300197D01*
X438386D01*
Y301575D01*
D02*
G37*
G36*
X436221D02*
X434842D01*
Y300197D01*
X436221D01*
Y301575D01*
D02*
G37*
G36*
X247087Y306142D02*
X243858D01*
Y302913D01*
X244328D01*
Y301417D01*
X243858D01*
Y298189D01*
X247087D01*
Y301417D01*
X246617D01*
Y302913D01*
X247087D01*
Y306142D01*
D02*
G37*
G36*
X438386Y299410D02*
X437008D01*
Y298031D01*
X438386D01*
Y299410D01*
D02*
G37*
G36*
X436221D02*
X434842D01*
Y298031D01*
X436221D01*
Y299410D01*
D02*
G37*
G36*
X285756Y299764D02*
X279862D01*
Y297920D01*
X285756D01*
Y299764D01*
D02*
G37*
G36*
X372835Y299976D02*
X370866D01*
Y297220D01*
X372835D01*
Y299976D01*
D02*
G37*
G36*
X370079D02*
X368110D01*
Y297220D01*
X370079D01*
Y299976D01*
D02*
G37*
G36*
X446850Y294291D02*
X445472D01*
Y292717D01*
X446850D01*
Y294291D01*
D02*
G37*
G36*
X444685D02*
X443307D01*
Y292717D01*
X444685D01*
Y294291D01*
D02*
G37*
G36*
X446850Y291929D02*
X445472D01*
Y290354D01*
X446850D01*
Y291929D01*
D02*
G37*
G36*
X444685D02*
X443307D01*
Y290354D01*
X444685D01*
Y291929D01*
D02*
G37*
G36*
X292280Y292237D02*
X280020D01*
Y288078D01*
X292280D01*
Y288817D01*
X296022D01*
Y288370D01*
X299250D01*
Y288817D01*
X299964D01*
X300072Y288655D01*
X300671Y288255D01*
X301378Y288114D01*
X302085Y288255D01*
X302684Y288655D01*
X303084Y289254D01*
X303224Y289961D01*
X303084Y290667D01*
X302684Y291266D01*
X302085Y291667D01*
X301378Y291807D01*
X300671Y291667D01*
X300072Y291266D01*
X299964Y291105D01*
X299250D01*
Y291598D01*
X296022D01*
Y291105D01*
X292280D01*
Y292237D01*
D02*
G37*
G36*
X247244Y288779D02*
X245866D01*
Y287402D01*
X247244D01*
Y288779D01*
D02*
G37*
G36*
X245079D02*
X243701D01*
Y287402D01*
X245079D01*
Y288779D01*
D02*
G37*
G36*
X299408Y287819D02*
X298030D01*
Y286441D01*
X299408D01*
Y287819D01*
D02*
G37*
G36*
X297242D02*
X295865D01*
Y286441D01*
X297242D01*
Y287819D01*
D02*
G37*
G36*
X247244Y286614D02*
X245866D01*
Y285236D01*
X247244D01*
Y286614D01*
D02*
G37*
G36*
X245079D02*
X243701D01*
Y285236D01*
X245079D01*
Y286614D01*
D02*
G37*
G36*
X437205Y286221D02*
X435827D01*
Y284646D01*
X437205D01*
Y286221D01*
D02*
G37*
G36*
X435039D02*
X433661D01*
Y284646D01*
X435039D01*
Y286221D01*
D02*
G37*
G36*
X299408Y285653D02*
X298030D01*
Y284276D01*
X299408D01*
Y285653D01*
D02*
G37*
G36*
X297242D02*
X295865D01*
Y284276D01*
X297242D01*
Y285653D01*
D02*
G37*
G36*
X292280Y287237D02*
X280020D01*
Y283078D01*
X292280D01*
Y287237D01*
D02*
G37*
G36*
X276279D02*
X264020D01*
Y283078D01*
X276279D01*
Y287237D01*
D02*
G37*
G36*
X419685Y292201D02*
X418978Y292060D01*
X418379Y291660D01*
X417979Y291061D01*
X417966Y290994D01*
X417825Y290900D01*
X417577Y290528D01*
X417490Y290091D01*
X417577Y289653D01*
X417825Y289282D01*
X418196Y289034D01*
X418489Y288976D01*
X418541Y288941D01*
Y286063D01*
X418071D01*
Y282441D01*
X421299D01*
Y286063D01*
X420829D01*
Y288941D01*
X420991Y289049D01*
X421391Y289648D01*
X421531Y290354D01*
X421391Y291061D01*
X420991Y291660D01*
X420392Y292060D01*
X419685Y292201D01*
D02*
G37*
G36*
X437205Y283858D02*
X435827D01*
Y282283D01*
X437205D01*
Y283858D01*
D02*
G37*
G36*
X435039D02*
X433661D01*
Y282283D01*
X435039D01*
Y283858D01*
D02*
G37*
G36*
X292437Y282395D02*
X286543D01*
Y280551D01*
X292437D01*
Y282395D01*
D02*
G37*
G36*
X285756D02*
X279862D01*
Y280551D01*
X285756D01*
Y282395D01*
D02*
G37*
G36*
X292437Y279764D02*
X286543D01*
Y277920D01*
X292437D01*
Y279764D01*
D02*
G37*
G36*
X285756D02*
X279862D01*
Y277920D01*
X285756D01*
Y279764D01*
D02*
G37*
G36*
X372835Y296433D02*
X368110D01*
Y293677D01*
X369328D01*
Y277976D01*
X368110D01*
Y275220D01*
X372835D01*
Y277976D01*
X371617D01*
Y293677D01*
X372835D01*
Y296433D01*
D02*
G37*
G36*
X170709Y296693D02*
X155669D01*
Y287559D01*
X160254D01*
Y282126D01*
X154882D01*
Y272992D01*
X169921D01*
Y282126D01*
X164549D01*
Y287559D01*
X170709D01*
Y296693D01*
D02*
G37*
G36*
X372835Y274433D02*
X370866D01*
Y271677D01*
X372835D01*
Y274433D01*
D02*
G37*
G36*
X370079D02*
X368110D01*
Y271677D01*
X370079D01*
Y274433D01*
D02*
G37*
G36*
X197835Y295079D02*
X189961D01*
Y292913D01*
X190118D01*
Y288740D01*
Y284409D01*
Y280079D01*
Y275748D01*
Y271417D01*
Y267087D01*
X197677D01*
Y271417D01*
Y275748D01*
Y280079D01*
Y284409D01*
Y288740D01*
Y292913D01*
X197835D01*
Y295079D01*
D02*
G37*
G36*
X234055Y269094D02*
X230512D01*
Y266929D01*
X234055D01*
Y269094D01*
D02*
G37*
G36*
X229724D02*
X226181D01*
Y266929D01*
X229724D01*
Y269094D01*
D02*
G37*
G36*
X402548Y268307D02*
X401170D01*
Y266929D01*
X402548D01*
Y268307D01*
D02*
G37*
G36*
X400383D02*
X399005D01*
Y266929D01*
X400383D01*
Y268307D01*
D02*
G37*
G36*
X460422Y267913D02*
X455698D01*
Y265453D01*
X460422D01*
Y267913D01*
D02*
G37*
G36*
X454910D02*
X450186D01*
Y265453D01*
X454910D01*
Y267913D01*
D02*
G37*
G36*
X460422Y264665D02*
X455698D01*
Y262205D01*
X460422D01*
Y264665D01*
D02*
G37*
G36*
X361091Y258669D02*
X358698D01*
Y258512D01*
X334273D01*
Y258669D01*
X331879D01*
Y254882D01*
Y251095D01*
X334273D01*
Y251252D01*
X358698D01*
Y251095D01*
X361091D01*
Y254882D01*
Y258669D01*
D02*
G37*
G36*
X224016Y259252D02*
X222638D01*
Y257874D01*
X224016D01*
Y259252D01*
D02*
G37*
G36*
Y257087D02*
X222638D01*
Y255709D01*
X224016D01*
Y257087D01*
D02*
G37*
G36*
X331091Y258669D02*
X328698D01*
Y255276D01*
X331091D01*
Y258669D01*
D02*
G37*
G36*
X429273D02*
X426879D01*
Y255276D01*
X429273D01*
Y258669D01*
D02*
G37*
G36*
X460422Y256299D02*
X455698D01*
Y253839D01*
X460422D01*
Y256299D01*
D02*
G37*
G36*
X454910Y264665D02*
X450186D01*
Y262350D01*
X450186Y262205D01*
X449834Y261850D01*
X446603D01*
Y261186D01*
X444813Y260643D01*
X443079Y259717D01*
X441559Y258469D01*
X440312Y256950D01*
X439385Y255216D01*
X438815Y253334D01*
X438622Y251378D01*
X438629D01*
Y232756D01*
X438653Y232633D01*
X438473Y231263D01*
X437897Y229872D01*
X436980Y228678D01*
X435786Y227762D01*
X435688Y227721D01*
X435273Y227999D01*
Y229488D01*
X427698D01*
Y227095D01*
X427855D01*
Y222669D01*
X427698D01*
Y220276D01*
X435273D01*
Y222669D01*
X435273Y222669D01*
X435273D01*
X435455Y223101D01*
X436740Y223491D01*
X438474Y224417D01*
X439994Y225665D01*
X441241Y227184D01*
X442168Y228918D01*
X442738Y230799D01*
X442931Y232756D01*
X442924D01*
Y251378D01*
X442900Y251501D01*
X443080Y252871D01*
X443656Y254261D01*
X444573Y255456D01*
X445767Y256372D01*
X446543Y256694D01*
X446603Y256653D01*
Y256654D01*
X449834D01*
X450186Y256299D01*
X450186Y256153D01*
Y253839D01*
X454910D01*
Y256299D01*
X452349D01*
X451997Y256654D01*
X451997Y256799D01*
Y261705D01*
X451997Y261850D01*
X452349Y262205D01*
X454910D01*
Y264665D01*
D02*
G37*
G36*
X429273Y254488D02*
X426879D01*
Y251095D01*
X429273D01*
Y254488D01*
D02*
G37*
G36*
X331091Y254488D02*
X328698D01*
Y251095D01*
X331091D01*
Y254488D01*
D02*
G37*
G36*
X460422Y253051D02*
X455698D01*
Y250591D01*
X460422D01*
Y253051D01*
D02*
G37*
G36*
X454910D02*
X450186D01*
Y250591D01*
X454910D01*
Y253051D01*
D02*
G37*
G36*
X182087Y243701D02*
X180709D01*
Y242323D01*
X182087D01*
Y243701D01*
D02*
G37*
G36*
X179921D02*
X178543D01*
Y242323D01*
X179921D01*
Y243701D01*
D02*
G37*
G36*
X182087Y241535D02*
X180709D01*
Y240158D01*
X182087D01*
Y241535D01*
D02*
G37*
G36*
X179921D02*
X178543D01*
Y240158D01*
X179921D01*
Y241535D01*
D02*
G37*
G36*
X276181Y241807D02*
X275475Y241667D01*
X274875Y241266D01*
X274475Y240667D01*
X274335Y239961D01*
X274475Y239254D01*
X274875Y238655D01*
X275475Y238255D01*
X276181Y238114D01*
X276888Y238255D01*
X277487Y238655D01*
X277887Y239254D01*
X278028Y239961D01*
X277887Y240667D01*
X277487Y241266D01*
X276888Y241667D01*
X276181Y241807D01*
D02*
G37*
G36*
X435273Y237669D02*
X431879D01*
Y235276D01*
X435273D01*
Y237669D01*
D02*
G37*
G36*
X431091D02*
X427698D01*
Y235276D01*
X431091D01*
Y237669D01*
D02*
G37*
G36*
X435273Y234488D02*
X427698D01*
Y232095D01*
Y230276D01*
X435273D01*
Y232095D01*
Y234488D01*
D02*
G37*
G36*
X284252Y229724D02*
X282874D01*
Y228346D01*
X284252D01*
Y229724D01*
D02*
G37*
G36*
Y227559D02*
X282874D01*
Y226181D01*
X284252D01*
Y227559D01*
D02*
G37*
G36*
X282087D02*
X280709D01*
Y226181D01*
X282087D01*
Y227559D01*
D02*
G37*
G36*
X206299Y223819D02*
X204921D01*
Y222441D01*
X206299D01*
Y223819D01*
D02*
G37*
G36*
X204134D02*
X202756D01*
Y222441D01*
X204134D01*
Y223819D01*
D02*
G37*
G36*
X284252Y221850D02*
X282874D01*
Y220472D01*
X284252D01*
Y221850D01*
D02*
G37*
G36*
X282087D02*
X280709D01*
Y220472D01*
X282087D01*
Y221850D01*
D02*
G37*
G36*
X206299Y221654D02*
X204921D01*
Y220276D01*
X206299D01*
Y221654D01*
D02*
G37*
G36*
X204134D02*
X202756D01*
Y220276D01*
X204134D01*
Y221654D01*
D02*
G37*
G36*
X303346Y219882D02*
X301969D01*
Y218504D01*
X303346D01*
Y219882D01*
D02*
G37*
G36*
X301181D02*
X299803D01*
Y218504D01*
X301181D01*
Y219882D01*
D02*
G37*
G36*
X284252Y219685D02*
X282874D01*
Y218307D01*
X284252D01*
Y219685D01*
D02*
G37*
G36*
X282087D02*
X280709D01*
Y218307D01*
X282087D01*
Y219685D01*
D02*
G37*
G36*
X303346Y217717D02*
X301969D01*
Y216339D01*
X303346D01*
Y217717D01*
D02*
G37*
G36*
X301181D02*
X299803D01*
Y216339D01*
X301181D01*
Y217717D01*
D02*
G37*
G36*
X435273Y209488D02*
X427698D01*
Y207095D01*
Y205276D01*
X435273D01*
Y207095D01*
Y209488D01*
D02*
G37*
G36*
X183484Y207539D02*
X183110Y207465D01*
X182459Y207029D01*
X182024Y206378D01*
X181871Y205610D01*
Y204429D01*
X183484D01*
Y207539D01*
D02*
G37*
G36*
X435273Y204488D02*
X431879D01*
Y202095D01*
X435273D01*
Y204488D01*
D02*
G37*
G36*
X431091D02*
X427698D01*
Y202095D01*
X431091D01*
Y204488D01*
D02*
G37*
G36*
X303543Y203346D02*
X302165D01*
Y201969D01*
X303543D01*
Y203346D01*
D02*
G37*
G36*
X301378D02*
X300000D01*
Y201969D01*
X301378D01*
Y203346D01*
D02*
G37*
G36*
X183484Y203642D02*
X181871D01*
Y202461D01*
X182024Y201693D01*
X182459Y201041D01*
X183110Y200606D01*
X183484Y200532D01*
Y203642D01*
D02*
G37*
G36*
X303543Y201181D02*
X302165D01*
Y199803D01*
X303543D01*
Y201181D01*
D02*
G37*
G36*
X301378D02*
X300000D01*
Y199803D01*
X301378D01*
Y201181D01*
D02*
G37*
G36*
X178878Y207457D02*
X178171Y207316D01*
X177572Y206916D01*
X177172Y206317D01*
X177031Y205610D01*
Y202461D01*
X177172Y201754D01*
X177232Y201664D01*
Y199034D01*
X177034Y198738D01*
X176894Y198031D01*
X177034Y197325D01*
X177435Y196726D01*
X178033Y196326D01*
X178740Y196185D01*
X179447Y196326D01*
X180046Y196726D01*
X180446Y197325D01*
X180587Y198031D01*
X180522Y198357D01*
X180524Y198366D01*
Y201664D01*
X180584Y201754D01*
X180725Y202461D01*
Y205610D01*
X180584Y206317D01*
X180184Y206916D01*
X179585Y207316D01*
X178878Y207457D01*
D02*
G37*
G36*
X381091Y188669D02*
X378698D01*
Y188512D01*
X369273D01*
Y188669D01*
X366879D01*
Y184882D01*
Y181095D01*
X369273D01*
Y181252D01*
X378698D01*
Y181095D01*
X381091D01*
Y184882D01*
Y188669D01*
D02*
G37*
G36*
X366091D02*
X363698D01*
Y188512D01*
X334273D01*
Y188669D01*
X331879D01*
Y184882D01*
Y181095D01*
X334273D01*
Y181252D01*
X355341D01*
Y177431D01*
X347267Y169358D01*
X346605Y169632D01*
X345669Y169755D01*
X344734Y169632D01*
X343863Y169271D01*
X343114Y168697D01*
X342540Y167948D01*
X342179Y167077D01*
X342056Y166142D01*
X342179Y165207D01*
X342540Y164335D01*
X343114Y163586D01*
X343738Y163108D01*
Y161453D01*
X343576Y161345D01*
X343176Y160746D01*
X343035Y160039D01*
X343176Y159333D01*
X343576Y158734D01*
X344175Y158333D01*
X344882Y158193D01*
X345588Y158333D01*
X346188Y158734D01*
X346588Y159333D01*
X346728Y160039D01*
X346588Y160746D01*
X346188Y161345D01*
X346026Y161453D01*
Y162575D01*
X346605Y162651D01*
X347476Y163012D01*
X348224Y163586D01*
X348799Y164335D01*
X349160Y165207D01*
X349283Y166142D01*
X349160Y167077D01*
X348885Y167740D01*
X357294Y176149D01*
X357542Y176520D01*
X357629Y176958D01*
Y181252D01*
X360341D01*
Y170817D01*
X358881Y169358D01*
X358219Y169632D01*
X357283Y169755D01*
X356348Y169632D01*
X355477Y169271D01*
X354728Y168697D01*
X354154Y167948D01*
X353793Y167077D01*
X353670Y166142D01*
X353793Y165207D01*
X354154Y164335D01*
X354728Y163586D01*
X355477Y163012D01*
X355746Y162901D01*
Y161453D01*
X355584Y161345D01*
X355184Y160746D01*
X355043Y160039D01*
X355184Y159333D01*
X355584Y158734D01*
X356183Y158333D01*
X356890Y158193D01*
X357596Y158333D01*
X358195Y158734D01*
X358596Y159333D01*
X358736Y160039D01*
X358596Y160746D01*
X358195Y161345D01*
X358034Y161453D01*
Y162627D01*
X358219Y162651D01*
X359090Y163012D01*
X359839Y163586D01*
X360413Y164335D01*
X360774Y165207D01*
X360897Y166142D01*
X360774Y167077D01*
X360499Y167740D01*
X362294Y169535D01*
X362542Y169906D01*
X362629Y170343D01*
Y181252D01*
X363698D01*
Y181095D01*
X366091D01*
Y184882D01*
Y188669D01*
D02*
G37*
G36*
X187795Y190330D02*
Y187598D01*
X190526D01*
X190470Y188027D01*
X190153Y188793D01*
X189648Y189451D01*
X188990Y189956D01*
X188224Y190273D01*
X187795Y190330D01*
D02*
G37*
G36*
X187008D02*
X186579Y190273D01*
X185813Y189956D01*
X185155Y189451D01*
X184650Y188793D01*
X184333Y188027D01*
X184277Y187598D01*
X187008D01*
Y190330D01*
D02*
G37*
G36*
X460422Y189173D02*
X455698D01*
Y186713D01*
X460422D01*
Y189173D01*
D02*
G37*
G36*
X454910D02*
X450186D01*
Y186713D01*
X454910D01*
Y189173D01*
D02*
G37*
G36*
X429273Y188669D02*
X426879D01*
Y185276D01*
X429273D01*
Y188669D01*
D02*
G37*
G36*
X331091D02*
X328698D01*
Y185276D01*
X331091D01*
Y188669D01*
D02*
G37*
G36*
X187008Y186811D02*
X184277D01*
X184333Y186382D01*
X184650Y185616D01*
X185155Y184958D01*
X185813Y184453D01*
X186579Y184136D01*
X187008Y184080D01*
Y186811D01*
D02*
G37*
G36*
X190526D02*
X187795D01*
Y184080D01*
X188224Y184136D01*
X188990Y184453D01*
X189648Y184958D01*
X190153Y185616D01*
X190470Y186382D01*
X190526Y186811D01*
D02*
G37*
G36*
X460422Y185925D02*
X455698D01*
Y183465D01*
X460422D01*
Y185925D01*
D02*
G37*
G36*
X429273Y184488D02*
X426879D01*
Y181095D01*
X429273D01*
Y184488D01*
D02*
G37*
G36*
X331091Y184488D02*
X328698D01*
Y181095D01*
X331091D01*
Y184488D01*
D02*
G37*
G36*
X460422Y177559D02*
X455698D01*
Y175098D01*
X460422D01*
Y177559D01*
D02*
G37*
G36*
X435273Y219488D02*
X427698D01*
Y217094D01*
X427855D01*
Y212669D01*
X427698D01*
Y210276D01*
X435273D01*
Y211765D01*
X435688Y212043D01*
X435786Y212002D01*
X436980Y211086D01*
X437897Y209891D01*
X438473Y208501D01*
X438653Y207131D01*
X438629Y207008D01*
Y188386D01*
X438622D01*
X438815Y186429D01*
X439385Y184548D01*
X440312Y182814D01*
X441559Y181295D01*
X443079Y180047D01*
X444813Y179121D01*
X446603Y178577D01*
Y177913D01*
X449834D01*
X450186Y177559D01*
X450186Y177413D01*
Y175098D01*
X454910D01*
Y177559D01*
X452349D01*
X451997Y177913D01*
X451997Y178059D01*
Y182965D01*
X451997Y183110D01*
X452349Y183465D01*
X454910D01*
Y185925D01*
X450186D01*
Y183610D01*
X450186Y183465D01*
X449834Y183110D01*
X446603D01*
Y183110D01*
X446543Y183070D01*
X445767Y183391D01*
X444573Y184308D01*
X443656Y185502D01*
X443080Y186893D01*
X442900Y188263D01*
X442924Y188386D01*
Y207008D01*
X442931D01*
X442738Y208964D01*
X442168Y210846D01*
X441241Y212579D01*
X439994Y214099D01*
X438474Y215346D01*
X436740Y216273D01*
X435463Y216660D01*
X435273Y217094D01*
X435273Y217094D01*
X435273Y217094D01*
Y219488D01*
D02*
G37*
G36*
X164961Y176575D02*
X163583D01*
Y175000D01*
X164961D01*
Y176575D01*
D02*
G37*
G36*
X162795D02*
X161417D01*
Y175000D01*
X162795D01*
Y176575D01*
D02*
G37*
G36*
X164961Y174213D02*
X163583D01*
Y172638D01*
X164961D01*
Y174213D01*
D02*
G37*
G36*
X162795D02*
X161417D01*
Y172638D01*
X162795D01*
Y174213D01*
D02*
G37*
G36*
X460422Y174311D02*
X455698D01*
Y171850D01*
X460422D01*
Y174311D01*
D02*
G37*
G36*
X454910D02*
X450186D01*
Y171850D01*
X454910D01*
Y174311D01*
D02*
G37*
G36*
X383847Y172441D02*
X382470D01*
Y171063D01*
X383847D01*
Y172441D01*
D02*
G37*
G36*
X381682D02*
X380304D01*
Y171063D01*
X381682D01*
Y172441D01*
D02*
G37*
G36*
X383847Y170276D02*
X382470D01*
Y168898D01*
X383847D01*
Y170276D01*
D02*
G37*
G36*
X381682D02*
X380304D01*
Y168898D01*
X381682D01*
Y170276D01*
D02*
G37*
G36*
X217323Y166339D02*
X215945D01*
Y164961D01*
X217323D01*
Y166339D01*
D02*
G37*
G36*
X215158D02*
X213779D01*
Y164961D01*
X215158D01*
Y166339D01*
D02*
G37*
G36*
X255709D02*
X254331D01*
Y164961D01*
X255709D01*
Y166339D01*
D02*
G37*
G36*
X253543D02*
X252165D01*
Y164961D01*
X253543D01*
Y166339D01*
D02*
G37*
G36*
X332087Y166142D02*
X330709D01*
Y164567D01*
X332087D01*
Y166142D01*
D02*
G37*
G36*
X329921D02*
X328543D01*
Y164567D01*
X329921D01*
Y166142D01*
D02*
G37*
G36*
X255709Y164173D02*
X254331D01*
Y162795D01*
X255709D01*
Y164173D01*
D02*
G37*
G36*
X253543D02*
X252165D01*
Y162795D01*
X253543D01*
Y164173D01*
D02*
G37*
G36*
X217323Y164173D02*
X215945D01*
Y162795D01*
X217323D01*
Y164173D01*
D02*
G37*
G36*
X215158D02*
X213779D01*
Y162795D01*
X215158D01*
Y164173D01*
D02*
G37*
G36*
X332087Y163779D02*
X330709D01*
Y162205D01*
X332087D01*
Y163779D01*
D02*
G37*
G36*
X329921D02*
X328543D01*
Y162205D01*
X329921D01*
Y163779D01*
D02*
G37*
G36*
X263189Y159449D02*
X261614D01*
Y158071D01*
X263189D01*
Y159449D01*
D02*
G37*
G36*
X260827D02*
X259252D01*
Y158071D01*
X260827D01*
Y159449D01*
D02*
G37*
G36*
X263189Y157283D02*
X261614D01*
Y155905D01*
X263189D01*
Y157283D01*
D02*
G37*
G36*
X260827D02*
X259252D01*
Y155905D01*
X260827D01*
Y157283D01*
D02*
G37*
G36*
X448819Y159327D02*
X448112Y159186D01*
X447513Y158786D01*
X447113Y158187D01*
X446973Y157480D01*
X447113Y156774D01*
X447513Y156175D01*
X448112Y155774D01*
X448819Y155634D01*
X449526Y155774D01*
X450125Y156175D01*
X450525Y156774D01*
X450666Y157480D01*
X450525Y158187D01*
X450125Y158786D01*
X449526Y159186D01*
X448819Y159327D01*
D02*
G37*
G36*
X184646Y156299D02*
X179331D01*
Y153937D01*
X184646D01*
Y156299D01*
D02*
G37*
G36*
X178543D02*
X173228D01*
Y153937D01*
X178543D01*
Y156299D01*
D02*
G37*
G36*
X198425Y156102D02*
X193110D01*
Y153740D01*
X198425D01*
Y156102D01*
D02*
G37*
G36*
X192323D02*
X187008D01*
Y153740D01*
X192323D01*
Y156102D01*
D02*
G37*
G36*
X414173Y154779D02*
Y151551D01*
X417401D01*
X417327Y152108D01*
X416961Y152994D01*
X416377Y153755D01*
X415616Y154339D01*
X414730Y154706D01*
X414173Y154779D01*
D02*
G37*
G36*
X413386D02*
X412829Y154706D01*
X411943Y154339D01*
X411182Y153755D01*
X410599Y152994D01*
X410231Y152108D01*
X410158Y151551D01*
X413386D01*
Y154779D01*
D02*
G37*
G36*
X184646Y153150D02*
X179331D01*
Y150787D01*
X184646D01*
Y153150D01*
D02*
G37*
G36*
X178543D02*
X173228D01*
Y150787D01*
X178543D01*
Y153150D01*
D02*
G37*
G36*
X198425Y152953D02*
X193110D01*
Y150591D01*
X198425D01*
Y152953D01*
D02*
G37*
G36*
X192323D02*
X187008D01*
Y150591D01*
X192323D01*
Y152953D01*
D02*
G37*
G36*
X389705Y154642D02*
X382736D01*
Y147673D01*
X389705D01*
Y154642D01*
D02*
G37*
G36*
X403937Y154672D02*
X403027Y154552D01*
X402180Y154201D01*
X401452Y153642D01*
X400893Y152915D01*
X400542Y152067D01*
X400423Y151157D01*
X400542Y150248D01*
X400893Y149400D01*
X401452Y148672D01*
X402180Y148114D01*
X403027Y147763D01*
X403937Y147643D01*
X404847Y147763D01*
X405694Y148114D01*
X406422Y148672D01*
X406981Y149400D01*
X407332Y150248D01*
X407451Y151157D01*
X407332Y152067D01*
X406981Y152915D01*
X406422Y153642D01*
X405694Y154201D01*
X404847Y154552D01*
X403937Y154672D01*
D02*
G37*
G36*
X396063D02*
X395153Y154552D01*
X394306Y154201D01*
X393578Y153642D01*
X393020Y152915D01*
X392668Y152067D01*
X392549Y151157D01*
X392668Y150248D01*
X393020Y149400D01*
X393578Y148672D01*
X394306Y148114D01*
X395153Y147763D01*
X396063Y147643D01*
X396973Y147763D01*
X397820Y148114D01*
X398548Y148672D01*
X399107Y149400D01*
X399458Y150248D01*
X399577Y151157D01*
X399458Y152067D01*
X399107Y152915D01*
X398548Y153642D01*
X397820Y154201D01*
X396973Y154552D01*
X396063Y154672D01*
D02*
G37*
G36*
X417401Y150764D02*
X414173D01*
Y147536D01*
X414730Y147609D01*
X415616Y147976D01*
X416377Y148560D01*
X416961Y149321D01*
X417327Y150207D01*
X417401Y150764D01*
D02*
G37*
G36*
X413386D02*
X410158D01*
X410231Y150207D01*
X410599Y149321D01*
X411182Y148560D01*
X411943Y147976D01*
X412829Y147609D01*
X413386Y147536D01*
Y150764D01*
D02*
G37*
G36*
X168937Y165787D02*
X165315D01*
Y162559D01*
X165982D01*
Y146715D01*
X163201D01*
X162538Y147224D01*
X161667Y147585D01*
X160732Y147708D01*
X159796Y147585D01*
X158925Y147224D01*
X158262Y146715D01*
X156299D01*
X155621Y146626D01*
X154989Y146364D01*
X154446Y145948D01*
X147537Y139038D01*
X137857D01*
Y139567D01*
X137768Y140245D01*
X137506Y140877D01*
X137090Y141420D01*
X136547Y141837D01*
X135915Y142098D01*
X135236Y142188D01*
X127362D01*
X126684Y142098D01*
X126052Y141837D01*
X125509Y141420D01*
X125349Y141212D01*
X117249D01*
X117089Y141420D01*
X116547Y141837D01*
X115915Y142098D01*
X115236Y142188D01*
X107362D01*
X106684Y142098D01*
X106052Y141837D01*
X105509Y141420D01*
X105093Y140877D01*
X104831Y140245D01*
X104741Y139567D01*
Y135630D01*
X104831Y134952D01*
X105093Y134319D01*
X105509Y133777D01*
X106052Y133360D01*
X106684Y133098D01*
X107362Y133009D01*
X107686D01*
Y125347D01*
X107809Y124412D01*
X108170Y123541D01*
X108744Y122792D01*
X114241Y117296D01*
Y110931D01*
X114364Y109996D01*
X114725Y109124D01*
X114741Y109103D01*
Y105630D01*
X114831Y104952D01*
X115093Y104320D01*
X115509Y103777D01*
X116052Y103360D01*
X116684Y103098D01*
X117362Y103009D01*
X125236D01*
X125915Y103098D01*
X126547Y103360D01*
X127090Y103777D01*
X127506Y104320D01*
X127768Y104952D01*
X127857Y105630D01*
Y109567D01*
X127768Y110245D01*
X127506Y110877D01*
X127090Y111420D01*
X126547Y111837D01*
X125915Y112099D01*
X125236Y112188D01*
X121468D01*
Y118792D01*
X121345Y119728D01*
X120984Y120599D01*
X120410Y121347D01*
X114913Y126844D01*
Y133009D01*
X115236D01*
X115915Y133098D01*
X116547Y133360D01*
X117089Y133777D01*
X117249Y133985D01*
X125349D01*
X125509Y133777D01*
X126052Y133360D01*
X126684Y133098D01*
X127362Y133009D01*
X135236D01*
X135915Y133098D01*
X136547Y133360D01*
X137090Y133777D01*
X137105Y133797D01*
X148622D01*
X149300Y133886D01*
X149933Y134148D01*
X150475Y134564D01*
X157385Y141474D01*
X158262D01*
X158925Y140965D01*
X159796Y140604D01*
X160732Y140481D01*
X161667Y140604D01*
X162538Y140965D01*
X163201Y141474D01*
X178080D01*
Y136713D01*
X178198Y136121D01*
X178533Y135620D01*
X180600Y133553D01*
X180789Y133427D01*
X180801Y133390D01*
X180754Y132849D01*
X180388Y132604D01*
X180018Y132051D01*
X179888Y131398D01*
Y128740D01*
X181595D01*
Y128347D01*
X181988D01*
Y123668D01*
X182247Y123719D01*
X182510Y123894D01*
X183010Y123627D01*
Y117815D01*
X183097Y117377D01*
X183345Y117006D01*
X183881Y116470D01*
X183716Y115927D01*
X183562Y115896D01*
X183061Y115561D01*
X182687D01*
X182186Y115896D01*
X181595Y116014D01*
X181003Y115896D01*
X180502Y115561D01*
X180167Y115060D01*
X180049Y114469D01*
Y111971D01*
X169528D01*
Y112441D01*
X166299D01*
Y109213D01*
X169528D01*
Y109683D01*
X180049D01*
Y108366D01*
X180167Y107775D01*
X180502Y107273D01*
X181003Y106938D01*
X181595Y106821D01*
X182130Y106927D01*
X182266Y106886D01*
X182641Y106644D01*
X182675Y106341D01*
X181219Y104884D01*
X171537D01*
X169528Y106894D01*
Y108504D01*
X166299D01*
Y105276D01*
X167910D01*
X170254Y102931D01*
X170625Y102683D01*
X171063Y102596D01*
X181693D01*
X182131Y102683D01*
X182502Y102931D01*
X184812Y105241D01*
X185060Y105612D01*
X185147Y106050D01*
Y106901D01*
X185596Y107204D01*
X185777Y107168D01*
X186121Y106938D01*
X186713Y106821D01*
X187304Y106938D01*
X187805Y107273D01*
X188249Y107037D01*
X188619Y106790D01*
X188878Y106738D01*
Y111417D01*
Y116096D01*
X188619Y116045D01*
X188249Y115797D01*
X188119Y115728D01*
X187648Y115833D01*
X187619Y115844D01*
X187371Y116216D01*
X185298Y118289D01*
Y123853D01*
X185798Y124084D01*
X186121Y123867D01*
X186713Y123750D01*
X187304Y123867D01*
X187805Y124203D01*
X188249Y123966D01*
X188619Y123719D01*
X188878Y123668D01*
Y128347D01*
Y133025D01*
X188619Y132974D01*
X188507Y132899D01*
X188007Y133167D01*
Y135011D01*
X189982Y136986D01*
X190230Y137357D01*
X190317Y137795D01*
Y141299D01*
X190870D01*
Y139961D01*
X191011Y139254D01*
X191411Y138655D01*
X194561Y135505D01*
X195159Y135105D01*
X195866Y134965D01*
X196573Y135105D01*
X197172Y135505D01*
X197572Y136104D01*
X197713Y136811D01*
X197572Y137518D01*
X197172Y138117D01*
X194563Y140726D01*
Y141299D01*
X198268D01*
Y146496D01*
X187165D01*
Y141299D01*
X188029D01*
Y138269D01*
X186054Y136294D01*
X185806Y135923D01*
X185719Y135485D01*
Y134651D01*
X185335Y134495D01*
X185219Y134486D01*
X183967Y135739D01*
X183743Y135888D01*
X183849Y136419D01*
X184171Y136483D01*
X184770Y136883D01*
X185170Y137482D01*
X185311Y138189D01*
X185170Y138896D01*
X184770Y139495D01*
X184510Y139668D01*
Y142618D01*
X184488Y142729D01*
Y146693D01*
X179107D01*
X178937Y146715D01*
X168270D01*
Y162559D01*
X168937D01*
Y165787D01*
D02*
G37*
G36*
X216339Y147835D02*
X214764D01*
Y146457D01*
X216339D01*
Y147835D01*
D02*
G37*
G36*
X213976D02*
X212402D01*
Y146457D01*
X213976D01*
Y147835D01*
D02*
G37*
G36*
X253346Y155390D02*
X252640Y155249D01*
X252041Y154849D01*
X251641Y154250D01*
X251500Y153543D01*
X251641Y152837D01*
X252041Y152238D01*
X252640Y151837D01*
X253346Y151697D01*
X254053Y151837D01*
X254652Y152238D01*
X254826Y152498D01*
X259409D01*
Y152126D01*
X260076D01*
Y148987D01*
X259409D01*
Y145759D01*
X263032D01*
Y148987D01*
X262365D01*
Y152126D01*
X263032D01*
Y155354D01*
X259409D01*
Y154786D01*
X254694D01*
X254652Y154849D01*
X254053Y155249D01*
X253346Y155390D01*
D02*
G37*
G36*
X458307Y151772D02*
X451142D01*
Y144606D01*
X458307D01*
Y151772D01*
D02*
G37*
G36*
X216339Y145669D02*
X214764D01*
Y144291D01*
X216339D01*
Y145669D01*
D02*
G37*
G36*
X213976D02*
X212402D01*
Y144291D01*
X213976D01*
Y145669D01*
D02*
G37*
G36*
X247244Y144685D02*
X245866D01*
Y143307D01*
X247244D01*
Y144685D01*
D02*
G37*
G36*
X245079D02*
X243701D01*
Y143307D01*
X245079D01*
Y144685D01*
D02*
G37*
G36*
X247244Y142520D02*
X245866D01*
Y141142D01*
X247244D01*
Y142520D01*
D02*
G37*
G36*
X245079D02*
X243701D01*
Y141142D01*
X245079D01*
Y142520D01*
D02*
G37*
G36*
X426260Y146779D02*
Y140882D01*
X432157D01*
X432074Y141723D01*
X431714Y142911D01*
X431129Y144005D01*
X430342Y144964D01*
X429383Y145751D01*
X428288Y146336D01*
X427101Y146696D01*
X426260Y146779D01*
D02*
G37*
G36*
X425472D02*
X424631Y146696D01*
X423444Y146336D01*
X422350Y145751D01*
X421390Y144964D01*
X420603Y144005D01*
X420018Y142911D01*
X419658Y141723D01*
X419575Y140882D01*
X425472D01*
Y146779D01*
D02*
G37*
G36*
X374528D02*
Y140882D01*
X380425D01*
X380342Y141723D01*
X379982Y142911D01*
X379397Y144005D01*
X378610Y144964D01*
X377650Y145751D01*
X376556Y146336D01*
X375369Y146696D01*
X374528Y146779D01*
D02*
G37*
G36*
X373740D02*
X372899Y146696D01*
X371712Y146336D01*
X370617Y145751D01*
X369658Y144964D01*
X368871Y144005D01*
X368286Y142911D01*
X367926Y141723D01*
X367843Y140882D01*
X373740D01*
Y146779D01*
D02*
G37*
G36*
X337008Y140136D02*
Y137008D01*
X340136D01*
X340066Y137539D01*
X339709Y138401D01*
X339141Y139141D01*
X338401Y139709D01*
X337539Y140066D01*
X337008Y140136D01*
D02*
G37*
G36*
X336221D02*
X335689Y140066D01*
X334827Y139709D01*
X334087Y139141D01*
X333519Y138401D01*
X333162Y137539D01*
X333092Y137008D01*
X336221D01*
Y140136D01*
D02*
G37*
G36*
X454724Y141803D02*
X453789Y141679D01*
X452918Y141318D01*
X452169Y140744D01*
X451595Y139996D01*
X451234Y139124D01*
X451111Y138189D01*
X451234Y137254D01*
X451595Y136382D01*
X452169Y135634D01*
X452918Y135059D01*
X453789Y134698D01*
X454724Y134575D01*
X455660Y134698D01*
X456531Y135059D01*
X457280Y135634D01*
X457854Y136382D01*
X458215Y137254D01*
X458338Y138189D01*
X458215Y139124D01*
X457854Y139996D01*
X457280Y140744D01*
X456531Y141318D01*
X455660Y141679D01*
X454724Y141803D01*
D02*
G37*
G36*
X432157Y140094D02*
X426260D01*
Y134197D01*
X427101Y134280D01*
X428288Y134640D01*
X429383Y135225D01*
X430342Y136012D01*
X431129Y136972D01*
X431714Y138066D01*
X432074Y139253D01*
X432157Y140094D01*
D02*
G37*
G36*
X425472D02*
X419575D01*
X419658Y139253D01*
X420018Y138066D01*
X420603Y136972D01*
X421390Y136012D01*
X422350Y135225D01*
X423444Y134640D01*
X424631Y134280D01*
X425472Y134197D01*
Y140094D01*
D02*
G37*
G36*
X380425D02*
X374528D01*
Y134197D01*
X375369Y134280D01*
X376556Y134640D01*
X377650Y135225D01*
X378610Y136012D01*
X379397Y136972D01*
X379982Y138066D01*
X380342Y139253D01*
X380425Y140094D01*
D02*
G37*
G36*
X373740D02*
X367843D01*
X367926Y139253D01*
X368286Y138066D01*
X368871Y136972D01*
X369658Y136012D01*
X370617Y135225D01*
X371712Y134640D01*
X372899Y134280D01*
X373740Y134197D01*
Y140094D01*
D02*
G37*
G36*
X340136Y136221D02*
X337008D01*
Y133092D01*
X337539Y133162D01*
X338401Y133519D01*
X339141Y134087D01*
X339709Y134827D01*
X340066Y135689D01*
X340136Y136221D01*
D02*
G37*
G36*
X336221D02*
X333092D01*
X333162Y135689D01*
X333519Y134827D01*
X334087Y134087D01*
X334827Y133519D01*
X335689Y133162D01*
X336221Y133092D01*
Y136221D01*
D02*
G37*
G36*
X292205Y132992D02*
X286142D01*
Y131916D01*
X283327D01*
X283327Y131916D01*
X282812Y131813D01*
X282376Y131522D01*
X276912Y126058D01*
X276621Y125622D01*
X276518Y125107D01*
Y120020D01*
X276446D01*
Y118379D01*
X275946Y118209D01*
X275625Y118628D01*
X275069Y119054D01*
X274423Y119321D01*
X273729Y119413D01*
X273533D01*
Y116732D01*
Y114052D01*
X273729D01*
X274423Y114143D01*
X275069Y114411D01*
X275625Y114837D01*
X275946Y115255D01*
X276446Y115086D01*
Y113445D01*
X286525D01*
Y113287D01*
X287706D01*
Y116732D01*
Y120177D01*
X286525D01*
Y120020D01*
X279208D01*
Y124550D01*
X283884Y129226D01*
X286142D01*
Y128150D01*
X292205D01*
Y132992D01*
D02*
G37*
G36*
X189665Y133025D02*
Y128740D01*
X190978D01*
Y131398D01*
X190848Y132051D01*
X190478Y132604D01*
X189925Y132974D01*
X189665Y133025D01*
D02*
G37*
G36*
X269685Y132881D02*
X268868Y132774D01*
X268107Y132458D01*
X267453Y131957D01*
X267388Y131872D01*
X267126D01*
X266304Y131709D01*
X265607Y131243D01*
X254446Y120082D01*
X253937Y120149D01*
X253002Y120026D01*
X252130Y119665D01*
X251382Y119091D01*
X250808Y118342D01*
X250447Y117471D01*
X250323Y116535D01*
X250391Y116026D01*
X246355Y111990D01*
X242652D01*
X242587Y112075D01*
X241933Y112576D01*
X241171Y112892D01*
X240354Y112999D01*
X239537Y112892D01*
X238776Y112576D01*
X238122Y112075D01*
X237620Y111421D01*
X237305Y110660D01*
X237197Y109843D01*
X237305Y109026D01*
X237620Y108264D01*
X238122Y107610D01*
X238776Y107108D01*
X239537Y106793D01*
X240354Y106686D01*
X241171Y106793D01*
X241933Y107108D01*
X242587Y107610D01*
X242652Y107695D01*
X247244D01*
X248066Y107858D01*
X248763Y108324D01*
X253428Y112989D01*
X253937Y112922D01*
X254872Y113045D01*
X255744Y113406D01*
X256492Y113980D01*
X257066Y114729D01*
X257428Y115600D01*
X257551Y116535D01*
X257484Y117045D01*
X267723Y127285D01*
X268107Y126990D01*
X268868Y126675D01*
X269685Y126567D01*
X270502Y126675D01*
X271264Y126990D01*
X271917Y127492D01*
X272419Y128146D01*
X272734Y128907D01*
X272842Y129724D01*
X272734Y130542D01*
X272419Y131303D01*
X271917Y131957D01*
X271264Y132458D01*
X270502Y132774D01*
X269685Y132881D01*
D02*
G37*
G36*
X454724Y131803D02*
X453789Y131679D01*
X452918Y131318D01*
X452169Y130744D01*
X451595Y129996D01*
X451234Y129124D01*
X451111Y128189D01*
X451234Y127254D01*
X451595Y126382D01*
X452169Y125634D01*
X452918Y125059D01*
X453789Y124698D01*
X454724Y124575D01*
X455660Y124698D01*
X456531Y125059D01*
X457280Y125634D01*
X457854Y126382D01*
X458215Y127254D01*
X458338Y128189D01*
X458215Y129124D01*
X457854Y129996D01*
X457280Y130744D01*
X456531Y131318D01*
X455660Y131679D01*
X454724Y131803D01*
D02*
G37*
G36*
X208661Y125787D02*
X207283D01*
Y124409D01*
X208661D01*
Y125787D01*
D02*
G37*
G36*
X190978Y127953D02*
X189665D01*
Y123668D01*
X189925Y123719D01*
X190478Y124089D01*
X190848Y124642D01*
X190978Y125295D01*
Y127953D01*
D02*
G37*
G36*
X181201D02*
X179888D01*
Y125295D01*
X180018Y124642D01*
X180388Y124089D01*
X180942Y123719D01*
X181201Y123668D01*
Y127953D01*
D02*
G37*
G36*
X237008Y124213D02*
X235630D01*
Y122835D01*
X237008D01*
Y124213D01*
D02*
G37*
G36*
X293414Y119413D02*
X293217D01*
Y117126D01*
X296043D01*
X296003Y117426D01*
X295736Y118072D01*
X295310Y118628D01*
X294755Y119054D01*
X294108Y119321D01*
X293414Y119413D01*
D02*
G37*
G36*
X272745D02*
X272548D01*
X271854Y119321D01*
X271208Y119054D01*
X270653Y118628D01*
X270227Y118072D01*
X269959Y117426D01*
X269920Y117126D01*
X272745D01*
Y119413D01*
D02*
G37*
G36*
X454724Y121803D02*
X453789Y121679D01*
X452918Y121318D01*
X452169Y120744D01*
X451595Y119996D01*
X451234Y119124D01*
X451111Y118189D01*
X451234Y117254D01*
X451595Y116382D01*
X452169Y115634D01*
X452918Y115059D01*
X453789Y114699D01*
X454724Y114575D01*
X455660Y114699D01*
X456531Y115059D01*
X457280Y115634D01*
X457854Y116382D01*
X458215Y117254D01*
X458338Y118189D01*
X458215Y119124D01*
X457854Y119996D01*
X457280Y120744D01*
X456531Y121318D01*
X455660Y121679D01*
X454724Y121803D01*
D02*
G37*
G36*
X296043Y116339D02*
X293217D01*
Y114052D01*
X293414D01*
X294108Y114143D01*
X294755Y114411D01*
X295310Y114837D01*
X295736Y115392D01*
X296003Y116039D01*
X296043Y116339D01*
D02*
G37*
G36*
X289674Y120177D02*
X288493D01*
Y116732D01*
Y113287D01*
X289674D01*
Y114881D01*
X290174Y115050D01*
X290338Y114837D01*
X290893Y114411D01*
X291540Y114143D01*
X292233Y114052D01*
X292430D01*
Y116732D01*
Y119413D01*
X292233D01*
X291540Y119321D01*
X290893Y119054D01*
X290338Y118628D01*
X290174Y118414D01*
X289674Y118584D01*
Y120177D01*
D02*
G37*
G36*
X272745Y116339D02*
X269920D01*
X269959Y116039D01*
X270227Y115392D01*
X270653Y114837D01*
X271208Y114411D01*
X271854Y114143D01*
X272548Y114052D01*
X272745D01*
Y116339D01*
D02*
G37*
G36*
X214173Y116610D02*
X213467Y116470D01*
X212867Y116069D01*
X212467Y115470D01*
X212327Y114764D01*
X212365Y114573D01*
X212183Y114392D01*
X211935Y114021D01*
X211848Y113583D01*
Y112736D01*
X210689D01*
Y112168D01*
X208799D01*
Y112736D01*
X205374D01*
Y109693D01*
X205374Y109311D01*
X205374Y108811D01*
Y105768D01*
X207181D01*
X209171Y103778D01*
X209542Y103530D01*
X209980Y103443D01*
X227618D01*
X228056Y103530D01*
X228427Y103778D01*
X229728Y105079D01*
X232520D01*
Y109488D01*
X228110D01*
Y106697D01*
X227144Y105731D01*
X221890D01*
Y109488D01*
X217480D01*
Y108624D01*
X214468D01*
X214114Y108978D01*
Y109193D01*
X214114Y109693D01*
Y111504D01*
X214136Y111614D01*
Y112887D01*
X214173Y112917D01*
X214880Y113058D01*
X215479Y113458D01*
X215879Y114057D01*
X216020Y114764D01*
X215879Y115470D01*
X215479Y116069D01*
X214880Y116470D01*
X214173Y116610D01*
D02*
G37*
G36*
X221890Y115984D02*
X217480D01*
Y111575D01*
X221890D01*
Y112636D01*
X223390D01*
X223498Y112474D01*
X224096Y112074D01*
X224803Y111933D01*
X225510Y112074D01*
X226109Y112474D01*
X226509Y113073D01*
X226650Y113779D01*
X226509Y114486D01*
X226109Y115085D01*
X225510Y115486D01*
X224803Y115626D01*
X224096Y115486D01*
X223498Y115085D01*
X223390Y114924D01*
X221890D01*
Y115984D01*
D02*
G37*
G36*
X189665Y116096D02*
Y111811D01*
X190978D01*
Y114469D01*
X190848Y115121D01*
X190478Y115675D01*
X189925Y116045D01*
X189665Y116096D01*
D02*
G37*
G36*
X190978Y111024D02*
X189665D01*
Y106738D01*
X189925Y106790D01*
X190478Y107160D01*
X190848Y107713D01*
X190978Y108366D01*
Y111024D01*
D02*
G37*
G36*
X297154Y109911D02*
Y106496D01*
X299342D01*
Y107382D01*
X299254Y108050D01*
X298996Y108672D01*
X298586Y109207D01*
X298051Y109617D01*
X297429Y109875D01*
X297154Y109911D01*
D02*
G37*
G36*
X287312Y109941D02*
Y106496D01*
X290658D01*
Y109941D01*
X287312D01*
D02*
G37*
G36*
X278651D02*
X275304D01*
Y106496D01*
X278651D01*
Y109941D01*
D02*
G37*
G36*
X268808Y109911D02*
X268534Y109875D01*
X267911Y109617D01*
X267377Y109207D01*
X266966Y108672D01*
X266709Y108050D01*
X266621Y107382D01*
Y106496D01*
X268808D01*
Y109911D01*
D02*
G37*
G36*
X454724Y111803D02*
X453789Y111679D01*
X452918Y111318D01*
X452169Y110744D01*
X451595Y109996D01*
X451234Y109124D01*
X451111Y108189D01*
X451234Y107254D01*
X451595Y106382D01*
X452169Y105634D01*
X452918Y105060D01*
X453789Y104699D01*
X454724Y104575D01*
X455660Y104699D01*
X456531Y105060D01*
X457280Y105634D01*
X457854Y106382D01*
X458215Y107254D01*
X458338Y108189D01*
X458215Y109124D01*
X457854Y109996D01*
X457280Y110744D01*
X456531Y111318D01*
X455660Y111679D01*
X454724Y111803D01*
D02*
G37*
G36*
X269596Y109911D02*
Y106102D01*
Y102294D01*
X269870Y102330D01*
X270061Y102409D01*
X273926D01*
X274172Y102458D01*
X274380Y102597D01*
X274520Y102805D01*
X274569Y103051D01*
Y109154D01*
X274520Y109399D01*
X274380Y109608D01*
X274172Y109747D01*
X273926Y109796D01*
X270061D01*
X269870Y109875D01*
X269596Y109911D01*
D02*
G37*
G36*
X296367D02*
X296093Y109875D01*
X295901Y109796D01*
X292036D01*
X291791Y109747D01*
X291582Y109608D01*
X291443Y109399D01*
X291394Y109154D01*
Y103051D01*
X291443Y102805D01*
X291582Y102597D01*
X291791Y102458D01*
X292036Y102409D01*
X295901D01*
X296093Y102330D01*
X296367Y102294D01*
Y106102D01*
Y109911D01*
D02*
G37*
G36*
X299342Y105709D02*
X297154D01*
Y102294D01*
X297429Y102330D01*
X298051Y102587D01*
X298586Y102998D01*
X298996Y103532D01*
X299254Y104155D01*
X299342Y104823D01*
Y105709D01*
D02*
G37*
G36*
X268808Y105709D02*
X266621D01*
Y104823D01*
X266709Y104155D01*
X266966Y103532D01*
X267377Y102998D01*
X267911Y102587D01*
X268534Y102330D01*
X268808Y102294D01*
Y105709D01*
D02*
G37*
G36*
X290658Y105709D02*
X287312D01*
Y102264D01*
X290658D01*
Y105709D01*
D02*
G37*
G36*
X278651D02*
X275304D01*
Y102264D01*
X278651D01*
Y105709D01*
D02*
G37*
G36*
X283178Y109941D02*
X282784D01*
X282678Y109941D01*
X279438D01*
Y106102D01*
Y102264D01*
X282678D01*
X282784Y102264D01*
X283178D01*
X283284Y102264D01*
X286525D01*
Y106102D01*
Y109941D01*
X283284D01*
X283178Y109941D01*
D02*
G37*
%LPD*%
G36*
X241359Y278902D02*
X241933Y278153D01*
X242681Y277579D01*
X243553Y277218D01*
X244488Y277095D01*
X245424Y277218D01*
X245947Y277435D01*
X246691Y276692D01*
Y272915D01*
X245291Y271515D01*
X244971Y271645D01*
X244838Y271769D01*
X244952Y272638D01*
X244829Y273573D01*
X244468Y274445D01*
X243894Y275193D01*
X243145Y275767D01*
X242274Y276128D01*
X241339Y276251D01*
X240403Y276128D01*
X239532Y275767D01*
X238783Y275193D01*
X238209Y274445D01*
X237894Y273683D01*
X233898D01*
Y277006D01*
X235039D01*
X235477Y277093D01*
X235848Y277341D01*
X238269Y279762D01*
X241003D01*
X241359Y278902D01*
D02*
G37*
G36*
X315905Y300016D02*
Y294032D01*
X316966D01*
Y278016D01*
X315905D01*
Y274437D01*
X313364Y271896D01*
X313116Y271524D01*
X313029Y271087D01*
Y268439D01*
X312529Y268232D01*
X309229Y271532D01*
X309291Y272031D01*
X309291D01*
Y278016D01*
X309134D01*
Y294032D01*
X309291D01*
Y296913D01*
X309740Y297002D01*
X310404Y297446D01*
X313273Y300315D01*
X315529D01*
X315905Y300016D01*
D02*
G37*
G36*
X296017Y261758D02*
X295735Y261336D01*
X295594Y260630D01*
X295735Y259923D01*
X296100Y259377D01*
Y255395D01*
X286608Y245903D01*
X286417Y245941D01*
X285711Y245800D01*
X285138Y245417D01*
X280730Y249825D01*
X280359Y250073D01*
X279921Y250160D01*
X273500D01*
X273348Y250660D01*
X273353Y250663D01*
X273753Y251262D01*
X273894Y251969D01*
X273753Y252675D01*
X273353Y253274D01*
X273191Y253382D01*
Y254841D01*
X275474Y257124D01*
X289370D01*
X289808Y257211D01*
X290179Y257459D01*
X294691Y261971D01*
X294882Y261933D01*
X295588Y262074D01*
X295656Y262119D01*
X296017Y261758D01*
D02*
G37*
G36*
X249250Y271639D02*
Y271143D01*
X235215Y257108D01*
X234967Y256737D01*
X234880Y256299D01*
Y245039D01*
X230868D01*
Y245472D01*
X230781Y245910D01*
X230533Y246281D01*
X229549Y247266D01*
X229178Y247514D01*
X228740Y247601D01*
X226195D01*
X226146Y248101D01*
X226422Y248156D01*
X226793Y248404D01*
X230169Y251780D01*
X230669Y251732D01*
Y251732D01*
X233898D01*
Y254961D01*
X233624D01*
Y256613D01*
X248644Y271632D01*
X248750Y271791D01*
X249250Y271639D01*
D02*
G37*
G36*
X253974Y267594D02*
Y266616D01*
X241514Y254155D01*
X241266Y253784D01*
X241179Y253346D01*
Y245039D01*
X240317D01*
Y254644D01*
X253474Y267801D01*
X253974Y267594D01*
D02*
G37*
G36*
X219331Y236358D02*
X219331D01*
Y235790D01*
X218484D01*
X218046Y235703D01*
X217675Y235455D01*
X216239Y234018D01*
X207735D01*
X207460Y234681D01*
X206886Y235429D01*
X206137Y236003D01*
X205266Y236365D01*
X205352Y236848D01*
X219306D01*
X219331Y236358D01*
D02*
G37*
G36*
X228521Y223553D02*
X228222Y223353D01*
X227822Y222754D01*
X227681Y222047D01*
X227822Y221341D01*
X228222Y220742D01*
X228383Y220634D01*
Y205789D01*
X227390Y204795D01*
X226890Y205002D01*
Y207736D01*
Y210886D01*
Y214035D01*
Y217028D01*
X227047D01*
Y218504D01*
X223110D01*
Y219291D01*
X227047D01*
Y220768D01*
X226890D01*
Y224053D01*
X228369D01*
X228521Y223553D01*
D02*
G37*
G36*
X250628Y189239D02*
X250715Y188801D01*
X250963Y188430D01*
X253771Y185622D01*
X253579Y185160D01*
X247757D01*
X243467Y189450D01*
Y192756D01*
X250628D01*
Y189239D01*
D02*
G37*
G36*
X241179Y188976D02*
X241266Y188539D01*
X241514Y188167D01*
X246475Y183207D01*
X246846Y182959D01*
X247284Y182872D01*
X304287D01*
X304741Y182393D01*
X304736Y182302D01*
X304600Y182211D01*
X304360Y181853D01*
X246143D01*
X240317Y187679D01*
Y192756D01*
X241179D01*
Y188976D01*
D02*
G37*
G36*
X241339Y147520D02*
Y137520D01*
X240335Y136516D01*
Y136516D01*
X236850D01*
Y139272D01*
X238347Y140512D01*
Y144527D01*
X236850Y145768D01*
Y148524D01*
X240335D01*
X241339Y147520D01*
D02*
G37*
G36*
X232835Y145768D02*
X231339Y144527D01*
Y140512D01*
X232835Y139272D01*
Y136516D01*
X229350D01*
Y136516D01*
X228346Y137520D01*
Y147520D01*
X229350Y148524D01*
X232835D01*
Y145768D01*
D02*
G37*
%LPC*%
G36*
X234055Y251181D02*
X232677D01*
Y249803D01*
X234055D01*
Y251181D01*
D02*
G37*
G36*
X231890D02*
X230512D01*
Y249803D01*
X231890D01*
Y251181D01*
D02*
G37*
G36*
X234055Y249016D02*
X232677D01*
Y247638D01*
X234055D01*
Y249016D01*
D02*
G37*
G36*
X231890D02*
X230512D01*
Y247638D01*
X231890D01*
Y249016D01*
D02*
G37*
%LPD*%
D10*
X163189Y310039D02*
X165847Y312697D01*
X162402Y291339D02*
X163189Y292126D01*
X208563Y138681D02*
X210630Y136614D01*
X156791Y330630D02*
X156988Y330827D01*
X156791Y328268D02*
Y330630D01*
X275590Y153543D02*
X275728Y153681D01*
X296654Y164941D02*
X297264Y165551D01*
X296654Y154079D02*
Y164941D01*
X211811Y187992D02*
X230118D01*
X177165Y253543D02*
X211024D01*
X323819Y197244D02*
Y207874D01*
X323622Y208071D02*
X323819Y207874D01*
X296654Y231102D02*
X297073D01*
X290551Y238779D02*
X300590Y248819D01*
X291417Y235394D02*
X304331Y248308D01*
X283661Y238779D02*
X290551D01*
X273228Y228346D02*
X283661Y238779D01*
X285000Y235394D02*
X291417D01*
X274803Y225197D02*
X285000Y235394D01*
X304331Y248308D02*
Y254134D01*
X297073Y231102D02*
X314173Y248202D01*
X267835Y228346D02*
X273228D01*
X267835Y225197D02*
X274803D01*
X279921Y249016D02*
X284842Y244094D01*
X286417D01*
X260236Y249016D02*
X279921D01*
X314173Y248202D02*
Y271087D01*
X299410Y228150D02*
X317520Y246260D01*
X299410Y226772D02*
Y228150D01*
X317520Y246260D02*
Y251575D01*
X247441Y253150D02*
X251772Y248819D01*
Y241260D02*
Y248819D01*
X226181Y252953D02*
X226445Y253216D01*
X225984Y249213D02*
X230118Y253346D01*
X221457Y249213D02*
X225984D01*
X226445Y253216D02*
Y255579D01*
X230118Y278150D02*
X231398Y276870D01*
X242323Y253346D02*
X255118Y266142D01*
Y319094D01*
X242323Y241260D02*
Y253346D01*
X289370Y258268D02*
X294882Y263779D01*
X275000Y258268D02*
X289370D01*
X297244Y260433D02*
X297441Y260630D01*
X297244Y254921D02*
Y260433D01*
X272047Y255315D02*
X275000Y258268D01*
X272047Y251969D02*
Y255315D01*
X259842Y255315D02*
Y259016D01*
X260702Y251969D02*
X272047D01*
X254921Y241260D02*
Y246188D01*
X260702Y251969D01*
X312992Y191732D02*
Y198425D01*
Y170866D02*
Y191732D01*
X286417Y244094D02*
X297244Y254921D01*
X300590Y248819D02*
Y257283D01*
X149409Y320886D02*
X156791Y328268D01*
X149409Y200984D02*
Y320886D01*
X186713Y128347D02*
X186863Y128196D01*
X162205Y238583D02*
X177165Y253543D01*
X213189Y255709D02*
Y272059D01*
X211024Y253543D02*
X213189Y255709D01*
Y272059D02*
X226661Y285531D01*
X230118Y228937D02*
X231102Y229921D01*
X225583Y237992D02*
X231102Y232473D01*
Y229921D02*
Y232473D01*
X223701Y228937D02*
X230118D01*
X386013Y170669D02*
X386018Y170664D01*
Y164572D02*
Y170664D01*
Y164572D02*
X386024Y164567D01*
X389764Y286417D02*
X394685D01*
X387008Y289173D02*
X389764Y286417D01*
X387008Y296063D02*
X393110Y302165D01*
X387008Y289173D02*
Y296063D01*
X390748Y290748D02*
Y291036D01*
X399016Y299304D01*
Y302165D01*
X398819Y279528D02*
Y287598D01*
X404134Y297441D02*
X405709Y299016D01*
X404134Y295472D02*
Y297441D01*
X398622Y289961D02*
X404134Y295472D01*
X398622Y287598D02*
Y289961D01*
X398819Y274213D02*
Y279528D01*
X389370Y268898D02*
X392323Y271850D01*
X403543D02*
X406485Y268909D01*
X392323Y271850D02*
X403543D01*
X334055Y297024D02*
Y297811D01*
X335138Y298894D01*
X371457Y311417D02*
X386024D01*
X390945Y306496D01*
X365158Y307087D02*
Y311417D01*
X359449Y301378D02*
X365158Y307087D01*
X247284Y184016D02*
X305669D01*
X245669Y180709D02*
X305709D01*
X254921Y188372D02*
Y196535D01*
X275590Y185630D02*
X293996Y204035D01*
X251772Y189239D02*
X255380Y185630D01*
X273031Y187795D02*
X284842Y199606D01*
X305669Y184016D02*
X305906Y184252D01*
X255380Y185630D02*
X275590D01*
X242323Y188976D02*
X247284Y184016D01*
X305709Y180709D02*
X305906Y180905D01*
X254921Y188372D02*
X255498Y187795D01*
X273031D01*
X251772Y189239D02*
Y196535D01*
X239173Y187205D02*
X245669Y180709D01*
X242323Y188976D02*
Y196535D01*
X223110Y206299D02*
X223110Y206299D01*
X218110Y206299D02*
X223110D01*
X215945Y204134D02*
X218110Y206299D01*
X215945Y201575D02*
X220276Y197244D01*
X215945Y201575D02*
Y204134D01*
X289567Y189961D02*
X302559D01*
X288976Y190551D02*
X289567Y189961D01*
X215551Y209449D02*
X223110D01*
X211811Y205709D02*
X215551Y209449D01*
X211811Y201378D02*
Y205709D01*
X285039Y187008D02*
X297244D01*
X284646Y187402D02*
X285039Y187008D01*
X297244D02*
X297441Y187205D01*
X356890Y165748D02*
X357283Y166142D01*
X356890Y160039D02*
Y165748D01*
X344882Y165354D02*
X345669Y166142D01*
X344882Y160039D02*
Y165354D01*
X356485Y176958D02*
Y184882D01*
X345669Y166142D02*
X356485Y176958D01*
X361485Y170343D02*
Y184882D01*
X357283Y166142D02*
X361485Y170343D01*
X237795Y280906D02*
X244094D01*
X230118Y278150D02*
X235039D01*
X237795Y280906D01*
X239651Y269619D02*
X240495Y270462D01*
X239065Y272539D02*
X240495Y271110D01*
Y270462D02*
Y271110D01*
X239651Y268785D02*
Y269619D01*
X244094Y280906D02*
X247835Y277165D01*
X232480Y257087D02*
X247835Y272441D01*
Y277165D01*
X236024Y256299D02*
X250394Y270669D01*
Y323031D02*
X259055Y331693D01*
X250394Y270669D02*
Y323031D01*
X252953Y321654D02*
X260827Y329528D01*
X239173Y255118D02*
X252953Y268898D01*
Y321654D01*
X226445Y255579D02*
X228839Y257972D01*
X228839D02*
X239651Y268785D01*
X229626Y196634D02*
X229921Y196929D01*
X228839Y257972D02*
X228839D01*
X231398Y272539D02*
X239065D01*
X194685Y226969D02*
X214370D01*
X419095Y320472D02*
X419095Y320473D01*
X416339Y320472D02*
X419095D01*
X414764Y316535D02*
X415027Y316799D01*
Y319161D01*
X416339Y320472D01*
X431496Y284252D02*
Y287992D01*
X432480Y295866D02*
X432677Y296063D01*
X432480Y288976D02*
Y295866D01*
X431496Y287992D02*
X432480Y288976D01*
X432677Y296063D02*
Y299803D01*
X284055Y172835D02*
X284252Y173031D01*
X318110Y163976D02*
Y183661D01*
X321063Y186614D02*
Y250394D01*
X318110Y183661D02*
X321063Y186614D01*
X290551Y225650D02*
X290896Y225994D01*
X390945Y306496D02*
X394882D01*
Y302362D02*
Y306496D01*
Y302362D02*
X395079Y302165D01*
X261122Y153642D02*
X261221Y153740D01*
X253445Y153642D02*
X261122D01*
X253346Y153543D02*
X253445Y153642D01*
X261024Y143239D02*
X261221Y143436D01*
X261024Y140157D02*
Y143239D01*
X259646Y138779D02*
X261024Y140157D01*
X254724Y138779D02*
X259646D01*
X252756Y140748D02*
X254724Y138779D01*
X245472Y146850D02*
X253150D01*
X256564Y143436D02*
X261221D01*
X253150Y146850D02*
X256564Y143436D01*
X261221Y147373D02*
Y153740D01*
X240453Y156398D02*
X245472Y151378D01*
X240453Y156398D02*
Y158858D01*
X245472Y146850D02*
Y151378D01*
X229724Y241260D02*
X229724Y241260D01*
X229724Y241260D02*
Y245472D01*
X228740Y246457D02*
X229724Y245472D01*
X175591Y246457D02*
X228740D01*
X163386Y234252D02*
X175591Y246457D01*
X233465Y130315D02*
X235236Y128543D01*
X228346Y130315D02*
X233465D01*
X226378Y128347D02*
X228346Y130315D01*
X224606Y128347D02*
X226378D01*
X230118Y125000D02*
X232075D01*
X234744Y128051D02*
X235236Y128543D01*
X234744Y127670D02*
Y128051D01*
X232075Y125000D02*
X234744Y127670D01*
X224410Y142520D02*
X229842D01*
X219291Y147638D02*
Y160630D01*
Y147638D02*
X224410Y142520D01*
X186863Y128497D02*
Y135485D01*
X189173Y137795D02*
Y142421D01*
X186863Y135485D02*
X189173Y137795D01*
X190650Y143898D02*
X192717D01*
X186713Y128347D02*
X186863Y128497D01*
X189173Y142421D02*
X190650Y143898D01*
X236221Y208268D02*
Y221063D01*
X237598Y225197D02*
X237598Y225197D01*
X229528Y205315D02*
Y222047D01*
X223110Y225197D02*
X237598D01*
X427756Y293110D02*
Y293363D01*
X418634Y290091D02*
X419421D01*
X419685Y290354D01*
X404331Y303346D02*
X404528D01*
X300590Y154079D02*
X311953D01*
X317913Y160039D01*
X232874Y190748D02*
Y196535D01*
X230118Y187992D02*
X232874Y190748D01*
X149409Y200984D02*
X158071Y192323D01*
X229724Y241260D02*
Y243327D01*
X178740Y198031D02*
Y198228D01*
X178878Y198366D01*
X230118Y253346D02*
X232283D01*
X232480Y253543D01*
Y257087D01*
X189272Y126151D02*
Y128347D01*
Y126151D02*
X189635Y125787D01*
X283241Y280157D02*
X286150D01*
X282283Y279200D02*
X283241Y280157D01*
X267835Y222047D02*
X274961D01*
X276929Y224016D01*
X282480D01*
X290335Y219232D02*
X290551D01*
X286850Y215748D02*
X290335Y219232D01*
X267835Y215748D02*
X286850D01*
X178878Y233366D02*
X183504Y237992D01*
X225583D01*
X286347Y289961D02*
X301378D01*
X286150Y290158D02*
X286347Y289961D01*
X393110Y302165D02*
X395079D01*
X350961Y265551D02*
X359449Y274039D01*
X350787Y265551D02*
X350961D01*
X307087Y296236D02*
Y297024D01*
X307087Y271063D02*
X307087Y271063D01*
X314173Y271087D02*
X318110Y275024D01*
X317520Y251575D02*
X320213Y254268D01*
X318209Y164075D02*
X326279D01*
X318110Y163976D02*
X318209Y164075D01*
X320213Y254268D02*
Y259386D01*
X239173Y187205D02*
Y196535D01*
X267638Y206102D02*
X267835Y206299D01*
X263976Y206102D02*
X267638D01*
X262992Y207087D02*
X263976Y206102D01*
X258465Y216929D02*
X262992Y212402D01*
Y207087D02*
Y212402D01*
X258465Y216929D02*
Y228740D01*
X261221Y196535D02*
Y202639D01*
X259409Y204450D02*
X261221Y202639D01*
X259409Y204450D02*
Y206142D01*
X249410Y216142D02*
X259409Y206142D01*
X262992Y203150D02*
X267835D01*
X261024Y205118D02*
X262992Y203150D01*
X261024Y205118D02*
Y211024D01*
X253937Y218110D02*
X261024Y211024D01*
X257874Y196732D02*
X258071Y196535D01*
X245079Y216535D02*
X257874Y203740D01*
Y196732D02*
Y203740D01*
X249410Y216142D02*
Y228937D01*
X253937Y218110D02*
Y228740D01*
X258347Y260512D02*
X259842Y259016D01*
X258347Y260512D02*
Y293386D01*
X245079Y216535D02*
Y228937D01*
X262205Y269291D02*
X267323Y264173D01*
Y259646D02*
Y264173D01*
X262008Y260433D02*
X262008D01*
X262598Y259842D01*
X259961Y262480D02*
Y269291D01*
Y262480D02*
X262008Y260433D01*
X253543Y259646D02*
Y261417D01*
X256732Y264606D01*
X266100Y280157D02*
X270150D01*
X262205Y276263D02*
X266100Y280157D01*
X262205Y269291D02*
Y276263D01*
X260039Y269370D02*
Y288779D01*
X259961Y269291D02*
X260039Y269370D01*
X261417Y290158D02*
X270150D01*
X260039Y288779D02*
X261417Y290158D01*
X260118Y295158D02*
X270150D01*
X258347Y293386D02*
X260118Y295158D01*
X256732Y264606D02*
Y297874D01*
X258071Y241260D02*
Y246850D01*
X260236Y249016D01*
X259016Y300157D02*
X270150D01*
X256732Y297874D02*
X259016Y300157D01*
X359425Y296850D02*
X359449Y296827D01*
X352756Y296850D02*
X359425D01*
X345079Y274236D02*
Y275024D01*
Y297024D01*
X370472Y274827D02*
Y296827D01*
X318110Y275024D02*
Y297024D01*
X322835Y262008D02*
X332063D01*
X320213Y259386D02*
X322835Y262008D01*
X152165Y243307D02*
X152362Y243504D01*
X152165Y206250D02*
Y243307D01*
X167126Y174606D02*
Y191289D01*
X152165Y206250D02*
X167126Y191289D01*
Y168110D02*
Y174606D01*
Y144587D02*
Y164173D01*
X326279Y164075D02*
X326378Y164173D01*
X317913Y160039D02*
X318110D01*
X236024Y186811D02*
Y196535D01*
X236024Y186811D02*
X236024Y186811D01*
X162008Y238583D02*
X162205D01*
X228839Y285531D02*
X230118Y286811D01*
X226661Y285531D02*
X228839D01*
X229921Y196929D02*
Y201969D01*
X236221Y208268D01*
X227362Y203150D02*
X229528Y205315D01*
X223110Y203150D02*
X227362D01*
X229626Y196634D02*
X229724Y196535D01*
X230118Y273819D02*
X231398Y272539D01*
X236024Y241260D02*
Y256299D01*
X245472Y299803D02*
Y304528D01*
Y290945D02*
Y295866D01*
X230512D02*
X245472D01*
X359449Y296827D02*
Y301378D01*
Y274039D02*
Y274827D01*
X406485Y254882D02*
Y268909D01*
X365378Y268898D02*
X389370D01*
X361319Y272957D02*
X365378Y268898D01*
X360531Y272957D02*
X361319D01*
X359449Y274039D02*
X360531Y272957D01*
X307087Y230906D02*
X315551Y222441D01*
Y200984D02*
Y222441D01*
X312992Y198425D02*
X315551Y200984D01*
X311417Y169291D02*
X312992Y170866D01*
X307087Y169291D02*
X311417D01*
X253543Y172835D02*
X253740Y172638D01*
Y168701D02*
Y172638D01*
Y168701D02*
X253937Y168504D01*
X248622Y203937D02*
X250590Y205906D01*
X248622Y196535D02*
Y203937D01*
X332063Y262008D02*
X343209Y273153D01*
X343996D01*
X345079Y274236D01*
X245799Y209185D02*
X246063Y209449D01*
X245799Y196862D02*
Y209185D01*
X245472Y196535D02*
X245799Y196862D01*
X359449Y274827D02*
Y296827D01*
X322441Y311024D02*
Y317323D01*
X322638Y317520D01*
X355709Y311024D02*
Y317520D01*
X337992Y310433D02*
Y317126D01*
X337992Y317126D01*
X255118Y319094D02*
X260039Y324016D01*
X322638D01*
X260827Y329528D02*
X332087D01*
X337992Y323622D01*
X239173Y241260D02*
Y255118D01*
X348031Y331693D02*
X355709Y324016D01*
X259055Y331693D02*
X348031D01*
X163386Y211102D02*
Y234252D01*
Y211102D02*
X168878Y205610D01*
Y204035D02*
Y205610D01*
X212903Y218898D02*
X223110D01*
X199123Y205118D02*
X212903Y218898D01*
X184514Y205118D02*
X199123D01*
X183878Y204482D02*
X184514Y205118D01*
X183878Y204035D02*
Y204482D01*
X178878Y231791D02*
Y233366D01*
X223110Y228346D02*
X223701Y228937D01*
X173878Y204035D02*
Y208917D01*
X191929Y226969D01*
X194685D01*
X214370D02*
X218484Y231083D01*
X222697D01*
X223110Y231496D01*
X216713Y232874D02*
X218484Y234646D01*
X184514Y232874D02*
X216713D01*
X183878Y232238D02*
X184514Y232874D01*
X183878Y231791D02*
Y232238D01*
X218484Y234646D02*
X223110D01*
X300000Y212598D02*
X301575Y214173D01*
X267835Y212598D02*
X300000D01*
X297835Y209449D02*
X301772Y205512D01*
X267835Y209449D02*
X297835D01*
X308465Y205512D02*
X309449Y204527D01*
X301772Y205512D02*
X308465D01*
X309252Y214173D02*
X309449Y214370D01*
X301575Y214173D02*
X309252D01*
X208465Y217717D02*
Y222047D01*
X223110D01*
X162402Y277559D02*
X162598Y277756D01*
X181595Y111190D02*
Y111417D01*
X181231Y110827D02*
X181595Y111190D01*
X167913Y110827D02*
X181231D01*
X181693Y103740D02*
X184003Y106050D01*
Y111267D01*
X184153Y111417D01*
X171063Y103740D02*
X181693D01*
X167913Y106890D02*
X171063Y103740D01*
X117854Y336549D02*
X121187Y339882D01*
X121299D01*
X183366Y138287D02*
X183465Y138189D01*
X183366Y138287D02*
Y142618D01*
X181890Y144095D02*
X183366Y142618D01*
X178937Y144095D02*
X181890D01*
X240453Y158858D02*
Y160236D01*
X237165Y155571D02*
X240453Y158858D01*
X232646Y155571D02*
X237165D01*
X230008Y158209D02*
X232646Y155571D01*
X230008Y158209D02*
Y160177D01*
X229949Y160236D02*
X230008Y160177D01*
X228839Y160236D02*
X229949D01*
X240502Y168159D02*
X240512Y168169D01*
X240502Y173179D02*
X240551Y173228D01*
X240502Y168159D02*
Y173179D01*
X240453Y168110D02*
X240502Y168159D01*
X224016Y166142D02*
X224016Y166142D01*
X227716Y168110D02*
X228839D01*
X227323Y168504D02*
X227716Y168110D01*
X215551Y168504D02*
X227323D01*
X222500Y163839D02*
X224970D01*
X219291Y160630D02*
X222500Y163839D01*
X225304Y164173D02*
X228839D01*
X224970Y163839D02*
X225304Y164173D01*
X224016Y166142D02*
X228839D01*
X206890Y127953D02*
X207283Y128347D01*
X215354Y136614D02*
Y139567D01*
X213583Y141339D02*
X215354Y139567D01*
X201969Y133858D02*
Y160827D01*
X206102Y139173D02*
Y139370D01*
Y139173D02*
X206594Y138681D01*
X208563D01*
X278158Y117027D02*
Y119556D01*
X277863Y116732D02*
X278158Y117027D01*
X241575Y160236D02*
X241910Y159902D01*
X240453Y160236D02*
X241575D01*
X241910Y159902D02*
X245639D01*
X246988Y161251D01*
Y163159D01*
X245639Y164508D02*
X246988Y163159D01*
X243731Y164508D02*
X245639D01*
X243456Y164232D02*
X243731Y164508D01*
X240512Y164232D02*
X243456D01*
X240453Y164173D02*
X240512Y164232D01*
X240453Y162205D02*
X244685D01*
X240512Y168169D02*
X253602D01*
X253937Y168504D01*
X213583Y141339D02*
X214370Y142126D01*
X213386Y125787D02*
X213759D01*
X214349Y126378D01*
X217126D01*
X210630Y122441D02*
X217126D01*
X206634Y120138D02*
X216791D01*
X201969Y124803D02*
X206634Y120138D01*
X216791D02*
X217126Y120472D01*
X201969Y124803D02*
Y133858D01*
X187402Y175394D02*
X201969Y160827D01*
X229528Y120866D02*
X229577D01*
X225984Y124409D02*
X229528Y120866D01*
X212992Y113583D02*
X214173Y114764D01*
X212992Y111614D02*
Y113583D01*
X212402Y111024D02*
X212992Y111614D01*
X207087Y111024D02*
X212402D01*
X207087Y107480D02*
X209980Y104587D01*
X227618D01*
X230315Y107283D01*
X212402Y107480D02*
X219488D01*
X219685Y107283D01*
X224606Y124409D02*
X225984D01*
X219685Y113779D02*
X224803D01*
X225098Y118996D02*
Y120472D01*
Y118996D02*
X230315Y113779D01*
X224606Y120472D02*
X225098D01*
X224606D02*
Y122441D01*
X207283Y128347D02*
X217126D01*
X399213Y312008D02*
Y312205D01*
X435827Y292520D02*
X436024Y292323D01*
X441142D01*
X423622Y284449D02*
X423819Y284252D01*
X431496D01*
X419685D02*
Y290354D01*
X184153Y117815D02*
Y128347D01*
Y117815D02*
X186562Y115407D01*
Y111568D02*
Y115407D01*
Y111568D02*
X186713Y111417D01*
X386013Y184409D02*
X386485Y184882D01*
X396485Y254882D02*
X396840Y255236D01*
X121187Y107598D02*
X121299D01*
X117854Y110931D02*
X121187Y107598D01*
D11*
X305728Y165551D02*
X307087D01*
X178878Y198366D02*
Y204035D01*
X168878Y231791D02*
X173878D01*
X168878D02*
Y235610D01*
X176181Y241732D02*
X176378Y241929D01*
X175000Y241732D02*
X176181D01*
X168878Y235610D02*
X175000Y241732D01*
X311614Y248622D02*
Y266535D01*
D12*
X292323Y233071D02*
X295866Y236614D01*
X291240Y233071D02*
X292323D01*
X290896Y225994D02*
Y232726D01*
X291240Y233071D01*
X295866Y236614D02*
X299606D01*
X230118Y295472D02*
Y299803D01*
Y291142D02*
Y295472D01*
X299606Y236614D02*
X311614Y248622D01*
X230118Y295472D02*
X230512Y295866D01*
X386013Y170669D02*
Y184409D01*
X396840Y255236D02*
Y268701D01*
D14*
X275728Y153681D02*
X282165D01*
X275590Y149606D02*
X281752Y143445D01*
X275590Y149606D02*
Y153543D01*
X281752Y143445D02*
X289173D01*
X275590Y153543D02*
Y163779D01*
X192717Y139961D02*
X195866Y136811D01*
X300590Y146063D02*
Y154079D01*
Y146063D02*
X310039Y136614D01*
X300590Y160413D02*
X305728Y165551D01*
X300590Y154079D02*
Y160413D01*
X307087Y271063D02*
X311614Y266535D01*
X192717Y139961D02*
Y143898D01*
D15*
X405709Y299016D02*
X409013D01*
X427902Y300000D02*
X433071D01*
X419151Y309154D02*
Y310039D01*
X419095Y310095D02*
X419151Y310039D01*
X419095Y310095D02*
Y320473D01*
X399016Y302165D02*
X401476D01*
X403051Y300590D01*
X404528Y303346D02*
X405709Y302165D01*
X409013D01*
X407421Y303799D02*
X408954D01*
X399213Y312008D02*
X407421Y303799D01*
X403051Y300590D02*
X409013D01*
X422202Y298917D02*
X427756Y293363D01*
X427312Y300590D02*
X427902Y300000D01*
X424170Y303740D02*
X425548Y305118D01*
X432874D01*
X421414Y303740D02*
X424170D01*
X421414Y300590D02*
X427312D01*
D71*
X184252Y304921D02*
G03*
X191339Y299727I6392J1289D01*
G01*
X440777Y188386D02*
G03*
X448651Y180512I7874J0D01*
G01*
X440777Y207008D02*
G03*
X432902Y214882I-7874J0D01*
G01*
X448651Y259252D02*
G03*
X440777Y251378I0J-7874D01*
G01*
X432902Y224882D02*
G03*
X440777Y232756I0J7874D01*
G01*
X162402Y277559D02*
Y291339D01*
X247244Y109843D02*
X267126Y129724D01*
X269685D01*
X240354Y109843D02*
X247244D01*
X210236Y177559D02*
X261811D01*
X171457Y193504D02*
X194291D01*
X210236Y177559D01*
X156299Y208661D02*
X171457Y193504D01*
X156299Y208661D02*
Y256201D01*
X159744Y259646D01*
X162402D01*
X184252Y304921D02*
Y327658D01*
X184646Y328051D01*
X386485Y215827D02*
X396485Y225827D01*
X386485Y184882D02*
Y215827D01*
X396485Y225827D02*
Y254882D01*
X440777Y188386D02*
Y207008D01*
Y232756D02*
Y251378D01*
D72*
X357283Y166142D02*
D03*
X345669D02*
D03*
X253937Y116535D02*
D03*
X195472Y253740D02*
D03*
X394882Y295170D02*
D03*
X398819Y279528D02*
D03*
X221260Y187205D02*
D03*
X160732Y144095D02*
D03*
X244488Y280709D02*
D03*
X241339Y272638D02*
D03*
X289370Y173425D02*
D03*
X196260Y226969D02*
D03*
X204331Y232874D02*
D03*
X305315Y141339D02*
D03*
X312992Y191732D02*
D03*
X454724Y138189D02*
D03*
Y128189D02*
D03*
Y118189D02*
D03*
Y108189D02*
D03*
X380354Y330906D02*
D03*
X390354D02*
D03*
X400354D02*
D03*
X410354D02*
D03*
D73*
X228346Y257480D02*
D03*
X224410D02*
D03*
X432677Y299803D02*
D03*
X436614D02*
D03*
X180315Y241929D02*
D03*
X176378D02*
D03*
X208465Y222047D02*
D03*
X204528D02*
D03*
X386013Y170669D02*
D03*
X382076D02*
D03*
X396840Y268701D02*
D03*
X400777D02*
D03*
X419291Y320669D02*
D03*
X423228D02*
D03*
X432677Y305512D02*
D03*
X436614D02*
D03*
X239843Y142520D02*
D03*
X229842D02*
D03*
D74*
X282480Y224016D02*
D03*
Y227953D02*
D03*
X232283Y249410D02*
D03*
Y253346D02*
D03*
X297636Y289984D02*
D03*
Y286047D02*
D03*
X253937Y168504D02*
D03*
Y164567D02*
D03*
X245472Y146850D02*
D03*
Y142913D02*
D03*
X245472Y295866D02*
D03*
Y299803D02*
D03*
X215551Y168504D02*
D03*
Y164567D02*
D03*
X245472Y304528D02*
D03*
Y308465D02*
D03*
Y290945D02*
D03*
Y287008D02*
D03*
X167913Y106890D02*
D03*
Y110827D02*
D03*
X235236Y128543D02*
D03*
Y124606D02*
D03*
X282480Y216142D02*
D03*
Y220079D02*
D03*
X301772Y205512D02*
D03*
Y201575D02*
D03*
X301575Y214173D02*
D03*
Y218110D02*
D03*
X206890Y124016D02*
D03*
Y127953D02*
D03*
D75*
X184646Y328051D02*
D03*
D76*
X178839Y334055D02*
D03*
X190453D02*
D03*
D77*
X286150Y280157D02*
D03*
X270150D02*
D03*
X286150Y285157D02*
D03*
X270150D02*
D03*
X286150Y290158D02*
D03*
X270150D02*
D03*
X286150Y295158D02*
D03*
X270150D02*
D03*
X286150Y300157D02*
D03*
X270150D02*
D03*
D78*
X365158Y311417D02*
D03*
X371457D02*
D03*
D79*
X394685Y286417D02*
D03*
X398622D02*
D03*
X445079Y292323D02*
D03*
X441142D02*
D03*
X330315Y164173D02*
D03*
X326378D02*
D03*
X351772Y311024D02*
D03*
X355709D02*
D03*
X334055Y310433D02*
D03*
X337992D02*
D03*
X318504Y311024D02*
D03*
X322441D02*
D03*
X399213Y312205D02*
D03*
X395276D02*
D03*
X395079Y302165D02*
D03*
X399016D02*
D03*
X431496Y284252D02*
D03*
X435433D02*
D03*
X419685D02*
D03*
X423622D02*
D03*
X202165Y139370D02*
D03*
X206102D02*
D03*
X167126Y174606D02*
D03*
X163189D02*
D03*
X296654Y154079D02*
D03*
X300590D02*
D03*
D80*
X167126Y168110D02*
D03*
Y164173D02*
D03*
X318110Y163976D02*
D03*
Y160039D02*
D03*
X261221Y157677D02*
D03*
Y153740D02*
D03*
Y147373D02*
D03*
Y143436D02*
D03*
X214370Y146063D02*
D03*
Y142126D02*
D03*
D81*
X165847Y326772D02*
D03*
X156988Y322716D02*
D03*
Y330827D02*
D03*
D82*
X212402Y111024D02*
D03*
Y107480D02*
D03*
X207087Y111024D02*
D03*
Y107480D02*
D03*
D83*
X289173Y130571D02*
D03*
Y143445D02*
D03*
D84*
X290551Y219232D02*
D03*
Y225650D02*
D03*
D85*
X309449Y204527D02*
D03*
Y214370D02*
D03*
D86*
X162402Y259646D02*
D03*
Y277559D02*
D03*
X163189Y310039D02*
D03*
Y292126D02*
D03*
D87*
X219685Y107283D02*
D03*
Y113779D02*
D03*
X230315Y107283D02*
D03*
Y113779D02*
D03*
X322638Y317520D02*
D03*
Y324016D02*
D03*
X337992Y317126D02*
D03*
Y323622D02*
D03*
X355709Y317520D02*
D03*
Y324016D02*
D03*
D88*
X307087Y297024D02*
D03*
X318110Y275024D02*
D03*
X307087D02*
D03*
X318110Y297024D02*
D03*
X334055D02*
D03*
X345079Y275024D02*
D03*
X334055D02*
D03*
X345079Y297024D02*
D03*
X359449Y296827D02*
D03*
X370472Y274827D02*
D03*
X359449D02*
D03*
X370472Y296827D02*
D03*
D89*
X415214Y302953D02*
D03*
D90*
X409013Y299016D02*
D03*
Y300590D02*
D03*
Y302165D02*
D03*
Y303740D02*
D03*
Y305315D02*
D03*
Y306890D02*
D03*
X421414D02*
D03*
Y305315D02*
D03*
Y303740D02*
D03*
Y302165D02*
D03*
Y300590D02*
D03*
Y299016D02*
D03*
D91*
X411277Y309154D02*
D03*
X412851D02*
D03*
X414426D02*
D03*
X416001D02*
D03*
X417576D02*
D03*
X419151D02*
D03*
Y296752D02*
D03*
X417576D02*
D03*
X416001D02*
D03*
X414426D02*
D03*
X412851D02*
D03*
X411277D02*
D03*
D92*
X229724Y241260D02*
D03*
X232874D02*
D03*
X236024D02*
D03*
X239173D02*
D03*
X242323D02*
D03*
X245472D02*
D03*
X248622D02*
D03*
X251772D02*
D03*
X254921D02*
D03*
X258071D02*
D03*
X261221D02*
D03*
Y196535D02*
D03*
X258071D02*
D03*
X254921D02*
D03*
X251772D02*
D03*
X248622D02*
D03*
X245472D02*
D03*
X242323D02*
D03*
X239173D02*
D03*
X236024D02*
D03*
X232874D02*
D03*
X229724D02*
D03*
D93*
X267835Y234646D02*
D03*
Y231496D02*
D03*
Y228346D02*
D03*
Y225197D02*
D03*
Y222047D02*
D03*
Y218898D02*
D03*
Y215748D02*
D03*
Y212598D02*
D03*
Y209449D02*
D03*
Y206299D02*
D03*
Y203150D02*
D03*
X223110D02*
D03*
Y206299D02*
D03*
Y209449D02*
D03*
Y212598D02*
D03*
Y215748D02*
D03*
Y218898D02*
D03*
Y222047D02*
D03*
Y225197D02*
D03*
Y228346D02*
D03*
Y231496D02*
D03*
Y234646D02*
D03*
D94*
X426485Y184882D02*
D03*
X421485D02*
D03*
X416485D02*
D03*
X411485D02*
D03*
X406485D02*
D03*
X401485D02*
D03*
X396485D02*
D03*
X391485D02*
D03*
X386485D02*
D03*
X381485D02*
D03*
X376485D02*
D03*
X371485D02*
D03*
X366485D02*
D03*
X361485D02*
D03*
X356485D02*
D03*
X351485D02*
D03*
X346485D02*
D03*
X341485D02*
D03*
X336485D02*
D03*
X331485D02*
D03*
X426485Y254882D02*
D03*
X421485D02*
D03*
X416485D02*
D03*
X411485D02*
D03*
X406485D02*
D03*
X401485D02*
D03*
X396485D02*
D03*
X391485D02*
D03*
X386485D02*
D03*
X381485D02*
D03*
X376485D02*
D03*
X371485D02*
D03*
X366485D02*
D03*
X361485D02*
D03*
X356485D02*
D03*
X351485D02*
D03*
X346485D02*
D03*
X341485D02*
D03*
X336485D02*
D03*
X331485D02*
D03*
D95*
X431485Y204882D02*
D03*
Y209882D02*
D03*
Y214882D02*
D03*
Y219882D02*
D03*
Y224882D02*
D03*
Y229882D02*
D03*
Y234882D02*
D03*
D96*
X449300Y180512D02*
D03*
Y259252D02*
D03*
D97*
X455304Y186319D02*
D03*
Y174705D02*
D03*
Y253445D02*
D03*
Y265059D02*
D03*
D98*
X178937Y144095D02*
D03*
Y153543D02*
D03*
X192717Y153347D02*
D03*
Y143898D02*
D03*
D99*
X189272Y128347D02*
D03*
X186713D02*
D03*
X184153D02*
D03*
X181595D02*
D03*
X189272Y111417D02*
D03*
X186713D02*
D03*
X184153D02*
D03*
X181595D02*
D03*
D100*
X286918Y106102D02*
D03*
X279044D02*
D03*
D101*
X288099Y116732D02*
D03*
X285540D02*
D03*
X282981D02*
D03*
X280422D02*
D03*
X277863D02*
D03*
D102*
X217126Y128347D02*
D03*
Y126378D02*
D03*
Y124409D02*
D03*
Y122441D02*
D03*
Y120472D02*
D03*
X224606D02*
D03*
Y122441D02*
D03*
Y124409D02*
D03*
Y126378D02*
D03*
Y128347D02*
D03*
D103*
X220866Y124409D02*
D03*
D104*
X240453Y168110D02*
D03*
Y166142D02*
D03*
Y164173D02*
D03*
Y162205D02*
D03*
Y160236D02*
D03*
X228839D02*
D03*
Y162205D02*
D03*
Y164173D02*
D03*
Y166142D02*
D03*
Y168110D02*
D03*
D105*
X234646Y164173D02*
D03*
D106*
X307087Y173031D02*
D03*
Y169291D02*
D03*
Y165551D02*
D03*
X297638D02*
D03*
Y169291D02*
D03*
Y173031D02*
D03*
D107*
X183878Y231791D02*
D03*
X178878D02*
D03*
X173878D02*
D03*
X168878D02*
D03*
X183878Y204035D02*
D03*
X178878D02*
D03*
X173878D02*
D03*
X168878D02*
D03*
D108*
X230118Y286811D02*
D03*
Y282480D02*
D03*
Y278150D02*
D03*
Y273819D02*
D03*
Y269488D02*
D03*
Y291142D02*
D03*
Y295472D02*
D03*
Y299803D02*
D03*
Y304134D02*
D03*
X193898Y269488D02*
D03*
Y273819D02*
D03*
Y278150D02*
D03*
Y282480D02*
D03*
Y286811D02*
D03*
Y291142D02*
D03*
Y295472D02*
D03*
Y299803D02*
D03*
Y304134D02*
D03*
D109*
X282165Y153681D02*
X282563Y154079D01*
X165847Y312697D02*
Y326772D01*
X206890Y127953D02*
Y131884D01*
X208274Y133268D01*
X282563Y154079D02*
X296654D01*
X239843Y130590D02*
Y142520D01*
X239871Y146850D02*
X245472D01*
X235236Y128543D02*
X237795D01*
X239843Y130590D01*
X184153Y128347D02*
Y133366D01*
X182874Y134646D02*
X184153Y133366D01*
X181693Y134646D02*
X182874D01*
X179626Y136713D02*
X181693Y134646D01*
X208274Y133268D02*
X227953D01*
X179626Y136713D02*
Y142421D01*
D110*
X261811Y177559D02*
X275590Y163779D01*
X290200Y295158D02*
X291278Y296236D01*
X286150Y295158D02*
X290200D01*
X291278Y296236D02*
X307087D01*
X371457Y311417D02*
Y315158D01*
X369488Y317126D02*
X371457Y315158D01*
X362402Y317126D02*
X369488D01*
X360236Y307283D02*
Y314961D01*
X362402Y317126D01*
X355906Y302953D02*
X360236Y307283D01*
X338067Y298894D02*
X342126Y302953D01*
X355906D01*
X335138Y298894D02*
X338067D01*
X310039Y136614D02*
X326772D01*
X307087Y275024D02*
Y296236D01*
X332972Y298894D02*
X334055Y297811D01*
X332185Y298894D02*
X332972D01*
X328716Y302362D02*
X332185Y298894D01*
X312425Y302362D02*
X328716D01*
X307087Y297024D02*
Y297811D01*
X308169Y298894D01*
X308957D01*
X312425Y302362D01*
X307087Y271063D02*
Y275024D01*
X334055D02*
Y297024D01*
D111*
X277863Y119556D02*
Y125107D01*
X283327Y130571D02*
X289173D01*
X277863Y125107D02*
X283327Y130571D01*
X277863Y116732D02*
Y119556D01*
D112*
X284252Y173031D02*
X297638D01*
X307087D01*
D113*
X128543Y136417D02*
X148622D01*
X156299Y144095D02*
X167618D01*
X178937D01*
X148622Y136417D02*
X156299Y144095D01*
D114*
X176969Y237795D02*
Y238168D01*
X176378Y238759D02*
X176969Y238168D01*
X176378Y238759D02*
Y241929D01*
D115*
X111299Y315295D02*
X117854Y321850D01*
Y336549D01*
X111299Y309882D02*
Y315295D01*
Y309882D02*
X131299D01*
X111299Y137598D02*
X131299D01*
X117854Y110931D02*
Y118792D01*
X111299Y125347D02*
X117854Y118792D01*
X111299Y125347D02*
Y137598D01*
D116*
X294399Y106102D02*
D03*
D117*
X271564Y106102D02*
D03*
D118*
X233661Y158071D02*
D03*
X235630D02*
D03*
Y170276D02*
D03*
X233661D02*
D03*
D119*
X454724Y148189D02*
D03*
D120*
X370354Y330906D02*
D03*
D121*
X121299Y107598D02*
D03*
X111299Y137598D02*
D03*
X131299D02*
D03*
Y309882D02*
D03*
X111299D02*
D03*
X121299Y339882D02*
D03*
D122*
X386221Y151157D02*
D03*
D123*
X396063D02*
D03*
X403937D02*
D03*
X413779D02*
D03*
D124*
X374134Y140488D02*
D03*
X425866D02*
D03*
D125*
X187402Y187205D02*
D03*
Y175394D02*
D03*
D126*
X336614Y136614D02*
D03*
D127*
X326772D02*
D03*
D128*
X269202Y106102D02*
D03*
X296761D02*
D03*
D129*
X273139Y116732D02*
D03*
X292824D02*
D03*
D130*
X210630Y136614D02*
D03*
X275590Y153543D02*
D03*
X183661Y157874D02*
D03*
X198085Y157033D02*
D03*
X444936Y165408D02*
D03*
X437008Y165354D02*
D03*
X425197Y173228D02*
D03*
X323819Y197244D02*
D03*
X323622Y208071D02*
D03*
X296654Y231102D02*
D03*
X290896Y232726D02*
D03*
X276181Y239961D02*
D03*
X299410Y226772D02*
D03*
X425197Y157480D02*
D03*
X433071D02*
D03*
X247441Y253150D02*
D03*
X226181Y252953D02*
D03*
X297441Y260630D02*
D03*
X259842Y255315D02*
D03*
X300590Y257283D02*
D03*
X272047Y251969D02*
D03*
X195866Y136811D02*
D03*
X386024Y164567D02*
D03*
X390748Y290748D02*
D03*
X398819Y274213D02*
D03*
X220276Y197244D02*
D03*
X288976Y190551D02*
D03*
X211811Y201378D02*
D03*
X284646Y187402D02*
D03*
X302559Y189961D02*
D03*
X297441Y187205D02*
D03*
X356890Y160039D02*
D03*
X344882D02*
D03*
X414764Y316535D02*
D03*
X432677Y296063D02*
D03*
X284055Y172835D02*
D03*
X394882Y306496D02*
D03*
X253346Y153543D02*
D03*
X252756Y140748D02*
D03*
X236221Y221063D02*
D03*
X229528Y222047D02*
D03*
X237598Y225197D02*
D03*
X427756Y293110D02*
D03*
X456693Y283465D02*
D03*
X460630Y275591D02*
D03*
Y244095D02*
D03*
X456693Y236221D02*
D03*
X460630Y228347D02*
D03*
X456693Y220473D02*
D03*
X460630Y212598D02*
D03*
X456693Y204725D02*
D03*
X460630Y196851D02*
D03*
Y165354D02*
D03*
X456693Y157480D02*
D03*
X448819Y283465D02*
D03*
X452756Y275591D02*
D03*
Y244095D02*
D03*
X448819Y236221D02*
D03*
X452756Y228347D02*
D03*
X448819Y220473D02*
D03*
X452756Y212598D02*
D03*
X448819Y204725D02*
D03*
X452756Y196851D02*
D03*
Y165354D02*
D03*
X448819Y157480D02*
D03*
X444882Y275591D02*
D03*
X440945Y267717D02*
D03*
X444882Y244095D02*
D03*
Y228347D02*
D03*
X440945Y220473D02*
D03*
X444882Y212598D02*
D03*
Y196851D02*
D03*
X440945Y173228D02*
D03*
Y157480D02*
D03*
X437008Y275591D02*
D03*
X433071Y267717D02*
D03*
X437008Y259843D02*
D03*
Y244095D02*
D03*
Y196851D02*
D03*
Y181103D02*
D03*
X433071Y173228D02*
D03*
X429134Y275591D02*
D03*
X425197Y267717D02*
D03*
X429134Y244095D02*
D03*
Y165354D02*
D03*
X255906Y338583D02*
D03*
X251969Y330709D02*
D03*
X248032Y338583D02*
D03*
X244095Y330709D02*
D03*
X240158Y338583D02*
D03*
X236221Y330709D02*
D03*
X240158Y322835D02*
D03*
X236221Y314961D02*
D03*
Y299213D02*
D03*
X232284Y338583D02*
D03*
X228347Y330709D02*
D03*
X232284Y322835D02*
D03*
X228347Y314961D02*
D03*
X224410Y338583D02*
D03*
X220473Y330709D02*
D03*
X224410Y322835D02*
D03*
X220473Y314961D02*
D03*
X224410Y307087D02*
D03*
X220473Y299213D02*
D03*
X216536Y338583D02*
D03*
X212598Y330709D02*
D03*
X216536Y322835D02*
D03*
X212598Y314961D02*
D03*
X216536Y307087D02*
D03*
X212598Y299213D02*
D03*
X208662Y338583D02*
D03*
X204725Y330709D02*
D03*
X208662Y322835D02*
D03*
X204725Y314961D02*
D03*
X208662Y307087D02*
D03*
X204725Y299213D02*
D03*
X200787Y338583D02*
D03*
Y322835D02*
D03*
X196851Y314961D02*
D03*
X192913Y322835D02*
D03*
X188977Y314961D02*
D03*
X181103Y299213D02*
D03*
X177165Y322835D02*
D03*
X173228Y314961D02*
D03*
X177165Y307087D02*
D03*
X173228Y299213D02*
D03*
X169291Y338583D02*
D03*
X165354Y330709D02*
D03*
X161417Y338583D02*
D03*
X153543D02*
D03*
X149606Y330709D02*
D03*
X153543Y307087D02*
D03*
X145669Y338583D02*
D03*
X141732Y330709D02*
D03*
X145669Y322835D02*
D03*
Y307087D02*
D03*
X141732Y299213D02*
D03*
X419685Y290354D02*
D03*
X436417Y296457D02*
D03*
X404331Y303346D02*
D03*
X211811Y187992D02*
D03*
X158071Y192323D02*
D03*
X176969Y237795D02*
D03*
X178740Y198031D02*
D03*
X237598Y228543D02*
D03*
X252756Y203150D02*
D03*
X242520Y209449D02*
D03*
X242126Y308465D02*
D03*
X241732Y286811D02*
D03*
X297441Y282677D02*
D03*
X426772Y320669D02*
D03*
X436417Y309055D02*
D03*
X400591Y265158D02*
D03*
X382087Y167126D02*
D03*
X238976Y124409D02*
D03*
X200591Y220669D02*
D03*
X183858Y241732D02*
D03*
X218701Y164764D02*
D03*
X245472Y139567D02*
D03*
X257283Y164764D02*
D03*
X301575Y198228D02*
D03*
Y221457D02*
D03*
X278937Y220276D02*
D03*
X221457Y249213D02*
D03*
X301378Y289961D02*
D03*
X350787Y265551D02*
D03*
X304331Y254134D02*
D03*
X294882Y263779D02*
D03*
X286417Y244094D02*
D03*
X321063Y250394D02*
D03*
X305906Y184252D02*
D03*
Y180905D02*
D03*
X258465Y228740D02*
D03*
X249410Y228937D02*
D03*
X253937Y228740D02*
D03*
X245079Y228937D02*
D03*
X267323Y259646D02*
D03*
X262598Y259842D02*
D03*
X253543Y259646D02*
D03*
X352756Y296850D02*
D03*
X152362Y243504D02*
D03*
X236024Y186811D02*
D03*
X162008Y238583D02*
D03*
X284842Y199606D02*
D03*
X293996Y204035D02*
D03*
X307087Y230906D02*
D03*
X253543Y172835D02*
D03*
X250590Y205906D02*
D03*
X246063Y209449D02*
D03*
X208465Y217717D02*
D03*
X183465Y138189D02*
D03*
X240551Y173228D02*
D03*
X224016Y166142D02*
D03*
X215354Y136614D02*
D03*
X227953Y133268D02*
D03*
X244685Y162205D02*
D03*
X213386Y125787D02*
D03*
X210630Y122441D02*
D03*
X230118Y125000D02*
D03*
X229577Y120866D02*
D03*
X214173Y114764D02*
D03*
X224803Y113779D02*
D03*
X435827Y292520D02*
D03*
X220866Y126047D02*
D03*
Y122772D02*
D03*
X236614Y161221D02*
D03*
X232677D02*
D03*
Y167126D02*
D03*
X236614D02*
D03*
X234646Y164173D02*
D03*
D131*
X269685Y129724D02*
D03*
X240354Y109843D02*
D03*
M02*
