G04*
G04 #@! TF.GenerationSoftware,Altium Limited,Altium Designer,20.0.13 (296)*
G04*
G04 Layer_Physical_Order=2*
G04 Layer_Color=16711680*
%FSLAX25Y25*%
%MOIN*%
G70*
G01*
G75*
%ADD10C,0.00984*%
%ADD11C,0.01968*%
%ADD14C,0.02362*%
%ADD67C,0.07087*%
%ADD73C,0.02953*%
G04:AMPARAMS|DCode=121|XSize=78.74mil|YSize=118.11mil|CornerRadius=19.68mil|HoleSize=0mil|Usage=FLASHONLY|Rotation=90.000|XOffset=0mil|YOffset=0mil|HoleType=Round|Shape=RoundedRectangle|*
%AMROUNDEDRECTD121*
21,1,0.07874,0.07874,0,0,90.0*
21,1,0.03937,0.11811,0,0,90.0*
1,1,0.03937,0.03937,0.01968*
1,1,0.03937,0.03937,-0.01968*
1,1,0.03937,-0.03937,-0.01968*
1,1,0.03937,-0.03937,0.01968*
%
%ADD121ROUNDEDRECTD121*%
%ADD122R,0.07087X0.07087*%
%ADD123R,0.05709X0.05709*%
%ADD124C,0.05709*%
%ADD125C,0.11024*%
%ADD126C,0.04724*%
%ADD127C,0.05512*%
%ADD128R,0.05512X0.05512*%
%ADD129O,0.03543X0.06102*%
%ADD130O,0.04921X0.03740*%
%ADD131C,0.02362*%
%ADD132C,0.01968*%
G36*
X470276Y97835D02*
X96850D01*
Y349803D01*
X470276D01*
Y97835D01*
D02*
G37*
%LPC*%
G36*
X125236Y344630D02*
X121693D01*
Y340276D01*
X128016D01*
Y341850D01*
X127921Y342570D01*
X127644Y343240D01*
X127202Y343816D01*
X126626Y344258D01*
X125956Y344535D01*
X125236Y344630D01*
D02*
G37*
G36*
X120905D02*
X117362D01*
X116643Y344535D01*
X115972Y344258D01*
X115397Y343816D01*
X114955Y343240D01*
X114677Y342570D01*
X114583Y341850D01*
Y340276D01*
X120905D01*
Y344630D01*
D02*
G37*
G36*
X128016Y339488D02*
X121693D01*
Y335134D01*
X125236D01*
X125956Y335228D01*
X126626Y335506D01*
X127202Y335948D01*
X127644Y336524D01*
X127921Y337194D01*
X128016Y337913D01*
Y339488D01*
D02*
G37*
G36*
X120905D02*
X114583D01*
Y337913D01*
X114677Y337194D01*
X114955Y336524D01*
X115397Y335948D01*
X115972Y335506D01*
X116643Y335228D01*
X117362Y335134D01*
X120905D01*
Y339488D01*
D02*
G37*
G36*
X381299Y329800D02*
X380210Y329656D01*
X379195Y329236D01*
X378323Y328567D01*
X377654Y327695D01*
X377233Y326680D01*
X377090Y325590D01*
X377233Y324501D01*
X377631Y323540D01*
X375972Y321882D01*
X375472Y322089D01*
Y329764D01*
X367126D01*
Y323035D01*
X363955Y319864D01*
X363707Y319493D01*
X363620Y319055D01*
Y294765D01*
X356810Y287955D01*
X317913D01*
X317476Y287868D01*
X317104Y287620D01*
X295073Y265588D01*
X294882Y265626D01*
X294175Y265486D01*
X293576Y265085D01*
X293176Y264486D01*
X293035Y263779D01*
X293176Y263073D01*
X293576Y262474D01*
X294175Y262074D01*
X294882Y261933D01*
X295588Y262074D01*
X295656Y262119D01*
X296017Y261758D01*
X295735Y261336D01*
X295594Y260630D01*
X295735Y259923D01*
X296135Y259324D01*
X296734Y258924D01*
X297441Y258783D01*
X298148Y258924D01*
X298747Y259324D01*
X299147Y259923D01*
X299287Y260630D01*
X299217Y260985D01*
X320946Y282714D01*
X359449D01*
X359887Y282801D01*
X360258Y283049D01*
X373644Y296435D01*
X373892Y296806D01*
X373979Y297244D01*
Y316652D01*
X379249Y321923D01*
X380210Y321525D01*
X381299Y321381D01*
X382389Y321525D01*
X383404Y321945D01*
X384276Y322614D01*
X384945Y323486D01*
X385365Y324501D01*
X385508Y325590D01*
X385365Y326680D01*
X384945Y327695D01*
X384276Y328567D01*
X383404Y329236D01*
X382389Y329656D01*
X381299Y329800D01*
D02*
G37*
G36*
X401299D02*
X400210Y329656D01*
X399195Y329236D01*
X398323Y328567D01*
X397654Y327695D01*
X397233Y326680D01*
X397090Y325590D01*
X397233Y324501D01*
X397631Y323540D01*
X382262Y308171D01*
X382014Y307800D01*
X381927Y307362D01*
Y295159D01*
X364684Y277916D01*
X326969D01*
X326531Y277829D01*
X326160Y277581D01*
X304521Y255942D01*
X304331Y255980D01*
X303624Y255840D01*
X303025Y255439D01*
X302625Y254840D01*
X302484Y254134D01*
X302625Y253427D01*
X303025Y252828D01*
X303624Y252428D01*
X304331Y252287D01*
X305037Y252428D01*
X305636Y252828D01*
X306037Y253427D01*
X306177Y254134D01*
X306139Y254325D01*
X327442Y275628D01*
X365158D01*
X365595Y275715D01*
X365966Y275963D01*
X383880Y293876D01*
X384128Y294247D01*
X384215Y294685D01*
Y306888D01*
X399249Y321923D01*
X400210Y321525D01*
X401299Y321381D01*
X402389Y321525D01*
X403404Y321945D01*
X404276Y322614D01*
X404945Y323486D01*
X405365Y324501D01*
X405508Y325590D01*
X405365Y326680D01*
X404945Y327695D01*
X404276Y328567D01*
X403404Y329236D01*
X402389Y329656D01*
X401299Y329800D01*
D02*
G37*
G36*
X391299D02*
X390210Y329656D01*
X389195Y329236D01*
X388323Y328567D01*
X387654Y327695D01*
X387233Y326680D01*
X387090Y325590D01*
X387233Y324501D01*
X387631Y323540D01*
X376750Y312659D01*
X376502Y312288D01*
X376415Y311850D01*
Y295749D01*
X362518Y281853D01*
X324016D01*
X323578Y281766D01*
X323207Y281518D01*
X300781Y259092D01*
X300590Y259130D01*
X299884Y258989D01*
X299285Y258589D01*
X298885Y257990D01*
X298744Y257283D01*
X298885Y256577D01*
X299285Y255978D01*
X299884Y255577D01*
X300590Y255437D01*
X301297Y255577D01*
X301896Y255978D01*
X302296Y256577D01*
X302437Y257283D01*
X302399Y257474D01*
X324490Y279565D01*
X362992D01*
X363430Y279652D01*
X363801Y279900D01*
X378368Y294467D01*
X378616Y294838D01*
X378703Y295276D01*
Y311377D01*
X389249Y321923D01*
X390210Y321525D01*
X391299Y321381D01*
X392389Y321525D01*
X393404Y321945D01*
X394276Y322614D01*
X394945Y323486D01*
X395365Y324501D01*
X395508Y325590D01*
X395365Y326680D01*
X394945Y327695D01*
X394276Y328567D01*
X393404Y329236D01*
X392389Y329656D01*
X391299Y329800D01*
D02*
G37*
G36*
X421654Y316807D02*
X420947Y316667D01*
X420348Y316266D01*
X420240Y316105D01*
X418504D01*
X418066Y316018D01*
X417695Y315770D01*
X408975Y307049D01*
X400233D01*
X400125Y307211D01*
X399525Y307611D01*
X398819Y307752D01*
X398112Y307611D01*
X397513Y307211D01*
X397113Y306612D01*
X396972Y305906D01*
X397113Y305199D01*
X397513Y304600D01*
X398112Y304200D01*
X398819Y304059D01*
X399525Y304200D01*
X400125Y304600D01*
X400233Y304762D01*
X402497D01*
X402764Y304261D01*
X402625Y304053D01*
X402484Y303346D01*
X402625Y302640D01*
X403025Y302041D01*
X403187Y301933D01*
Y299606D01*
X403274Y299168D01*
X403522Y298797D01*
X415727Y286593D01*
X416098Y286345D01*
X416535Y286258D01*
X421850D01*
X422288Y286345D01*
X422659Y286593D01*
X425022Y288955D01*
X425270Y289326D01*
X425357Y289764D01*
Y294802D01*
X426458Y295903D01*
X427523D01*
X427631Y295742D01*
X428143Y295399D01*
X428230Y295341D01*
X428067Y294895D01*
X427996Y294909D01*
X427756Y294957D01*
X427049Y294816D01*
X426450Y294416D01*
X426050Y293817D01*
X425909Y293110D01*
X426050Y292404D01*
X426450Y291805D01*
X427049Y291404D01*
X427756Y291264D01*
X428333Y291378D01*
X428346Y291376D01*
X434413D01*
X434521Y291214D01*
X435120Y290814D01*
X435827Y290673D01*
X436533Y290814D01*
X437132Y291214D01*
X437533Y291813D01*
X437673Y292520D01*
X437533Y293226D01*
X437132Y293825D01*
X436533Y294226D01*
X435827Y294366D01*
X435120Y294226D01*
X434521Y293825D01*
X434413Y293664D01*
X429492D01*
X429462Y293817D01*
X429062Y294416D01*
X428549Y294758D01*
X428463Y294816D01*
X428626Y295263D01*
X428697Y295249D01*
X428937Y295201D01*
X429644Y295341D01*
X430243Y295742D01*
X430643Y296341D01*
X430784Y297047D01*
X430643Y297754D01*
X430243Y298353D01*
X429644Y298753D01*
X428937Y298894D01*
X428230Y298753D01*
X427631Y298353D01*
X427523Y298191D01*
X425984D01*
X425547Y298104D01*
X425175Y297856D01*
X423404Y296084D01*
X423156Y295713D01*
X423069Y295276D01*
Y290238D01*
X421594Y288763D01*
X421429Y288805D01*
X421209Y289375D01*
X421391Y289648D01*
X421531Y290354D01*
X421391Y291061D01*
X420991Y291660D01*
X420829Y291768D01*
Y312518D01*
X421463Y313152D01*
X421654Y313114D01*
X422360Y313255D01*
X422959Y313655D01*
X423359Y314254D01*
X423500Y314961D01*
X423359Y315667D01*
X422959Y316266D01*
X422360Y316667D01*
X421654Y316807D01*
D02*
G37*
G36*
X135236Y314630D02*
X131693D01*
Y310276D01*
X138016D01*
Y311850D01*
X137921Y312570D01*
X137644Y313240D01*
X137202Y313816D01*
X136626Y314258D01*
X135956Y314535D01*
X135236Y314630D01*
D02*
G37*
G36*
X115236D02*
X111693D01*
Y310276D01*
X118016D01*
Y311850D01*
X117921Y312570D01*
X117643Y313240D01*
X117202Y313816D01*
X116626Y314258D01*
X115956Y314535D01*
X115236Y314630D01*
D02*
G37*
G36*
X130905D02*
X127362D01*
X126643Y314535D01*
X125972Y314258D01*
X125397Y313816D01*
X124955Y313240D01*
X124677Y312570D01*
X124583Y311850D01*
Y310276D01*
X130905D01*
Y314630D01*
D02*
G37*
G36*
X110906D02*
X107362D01*
X106643Y314535D01*
X105972Y314258D01*
X105397Y313816D01*
X104955Y313240D01*
X104677Y312570D01*
X104583Y311850D01*
Y310276D01*
X110906D01*
Y314630D01*
D02*
G37*
G36*
X138016Y309488D02*
X131693D01*
Y305134D01*
X135236D01*
X135956Y305228D01*
X136626Y305506D01*
X137202Y305948D01*
X137644Y306523D01*
X137921Y307194D01*
X138016Y307913D01*
Y309488D01*
D02*
G37*
G36*
X130905D02*
X124583D01*
Y307913D01*
X124677Y307194D01*
X124955Y306523D01*
X125397Y305948D01*
X125972Y305506D01*
X126643Y305228D01*
X127362Y305134D01*
X130905D01*
Y309488D01*
D02*
G37*
G36*
X118016D02*
X111693D01*
Y305134D01*
X115236D01*
X115956Y305228D01*
X116626Y305506D01*
X117202Y305948D01*
X117643Y306523D01*
X117921Y307194D01*
X118016Y307913D01*
Y309488D01*
D02*
G37*
G36*
X110906D02*
X104583D01*
Y307913D01*
X104677Y307194D01*
X104955Y306523D01*
X105397Y305948D01*
X105972Y305506D01*
X106643Y305228D01*
X107362Y305134D01*
X110906D01*
Y309488D01*
D02*
G37*
G36*
X352756Y298697D02*
X352049Y298556D01*
X351450Y298156D01*
X351050Y297557D01*
X350909Y296850D01*
X350947Y296660D01*
X345392Y291105D01*
X302792D01*
X302684Y291266D01*
X302085Y291667D01*
X301378Y291807D01*
X300671Y291667D01*
X300072Y291266D01*
X299672Y290667D01*
X299531Y289961D01*
X299672Y289254D01*
X300072Y288655D01*
X300671Y288255D01*
X301378Y288114D01*
X302085Y288255D01*
X302684Y288655D01*
X302792Y288817D01*
X345866D01*
X346304Y288904D01*
X346675Y289152D01*
X352565Y295042D01*
X352756Y295004D01*
X353463Y295145D01*
X354062Y295545D01*
X354462Y296144D01*
X354602Y296850D01*
X354462Y297557D01*
X354062Y298156D01*
X353463Y298556D01*
X352756Y298697D01*
D02*
G37*
G36*
X350787Y267398D02*
X350081Y267257D01*
X349482Y266857D01*
X349081Y266258D01*
X348941Y265551D01*
X348979Y265360D01*
X331810Y248191D01*
X321836D01*
X321770Y248688D01*
X322369Y249088D01*
X322769Y249687D01*
X322909Y250394D01*
X322769Y251100D01*
X322369Y251699D01*
X321770Y252100D01*
X321063Y252240D01*
X320356Y252100D01*
X319757Y251699D01*
X319518Y251341D01*
X299490D01*
X298840Y251990D01*
X298469Y252238D01*
X298031Y252325D01*
X291965D01*
X291857Y252487D01*
X291258Y252887D01*
X290551Y253028D01*
X289845Y252887D01*
X289246Y252487D01*
X288845Y251888D01*
X288705Y251181D01*
X288845Y250475D01*
X289246Y249875D01*
X289845Y249475D01*
X290551Y249335D01*
X291258Y249475D01*
X291857Y249875D01*
X291965Y250037D01*
X297558D01*
X298207Y249388D01*
X298578Y249140D01*
X299016Y249053D01*
X319810D01*
X320356Y248688D01*
X320289Y248191D01*
X283465D01*
X283027Y248104D01*
X282656Y247856D01*
X261140Y226341D01*
X239012D01*
X238904Y226502D01*
X238305Y226903D01*
X237598Y227043D01*
X236892Y226903D01*
X236293Y226502D01*
X235893Y225904D01*
X235752Y225197D01*
X235893Y224490D01*
X236293Y223891D01*
X236892Y223491D01*
X237598Y223350D01*
X238305Y223491D01*
X238904Y223891D01*
X239012Y224053D01*
X261614D01*
X262052Y224140D01*
X262423Y224388D01*
X283938Y245903D01*
X284965D01*
X285116Y245403D01*
X285112Y245400D01*
X284711Y244801D01*
X284571Y244094D01*
X284711Y243388D01*
X285112Y242789D01*
X285711Y242389D01*
X286417Y242248D01*
X287124Y242389D01*
X287723Y242789D01*
X287831Y242951D01*
X293424D01*
X305278Y231096D01*
X305240Y230906D01*
X305381Y230199D01*
X305781Y229600D01*
X306380Y229200D01*
X307087Y229059D01*
X307793Y229200D01*
X308392Y229600D01*
X308792Y230199D01*
X308933Y230906D01*
X308792Y231612D01*
X308392Y232211D01*
X307793Y232611D01*
X307087Y232752D01*
X306896Y232714D01*
X294707Y244903D01*
X294335Y245151D01*
X293898Y245238D01*
X288181D01*
X288060Y245403D01*
X288314Y245903D01*
X332283D01*
X332721Y245990D01*
X333092Y246238D01*
X350597Y263743D01*
X350787Y263705D01*
X351494Y263845D01*
X352093Y264246D01*
X352493Y264845D01*
X352634Y265551D01*
X352493Y266258D01*
X352093Y266857D01*
X351494Y267257D01*
X350787Y267398D01*
D02*
G37*
G36*
X262598Y261689D02*
X261892Y261548D01*
X261293Y261148D01*
X261185Y260986D01*
X259646D01*
X259208Y260899D01*
X258837Y260651D01*
X256081Y257896D01*
X255833Y257524D01*
X255746Y257087D01*
Y242009D01*
X248601Y234864D01*
X248353Y234493D01*
X248265Y234055D01*
Y230351D01*
X248104Y230243D01*
X247704Y229644D01*
X247563Y228937D01*
X247704Y228230D01*
X248104Y227631D01*
X248703Y227231D01*
X249410Y227091D01*
X250116Y227231D01*
X250715Y227631D01*
X251115Y228230D01*
X251256Y228937D01*
X251115Y229644D01*
X250715Y230243D01*
X250553Y230351D01*
Y233581D01*
X257699Y240726D01*
X257947Y241098D01*
X258034Y241535D01*
Y253418D01*
X258534Y253672D01*
X258699Y253552D01*
Y239647D01*
X253128Y234077D01*
X252880Y233705D01*
X252793Y233268D01*
Y230154D01*
X252631Y230046D01*
X252231Y229447D01*
X252091Y228740D01*
X252231Y228033D01*
X252631Y227434D01*
X253230Y227034D01*
X253937Y226894D01*
X254644Y227034D01*
X255243Y227434D01*
X255643Y228033D01*
X255784Y228740D01*
X255643Y229447D01*
X255243Y230046D01*
X255081Y230154D01*
Y232794D01*
X260651Y238364D01*
X260899Y238735D01*
X260986Y239173D01*
Y253901D01*
X261148Y254009D01*
X261548Y254608D01*
X261689Y255315D01*
X261548Y256022D01*
X261148Y256621D01*
X260549Y257021D01*
X259842Y257161D01*
X259136Y257021D01*
X258857Y257436D01*
X260120Y258699D01*
X261185D01*
X261293Y258537D01*
X261892Y258137D01*
X262598Y257996D01*
X263305Y258137D01*
X263859Y258506D01*
X264177Y258118D01*
X262577Y256518D01*
X262329Y256147D01*
X262242Y255709D01*
Y238269D01*
X257656Y233683D01*
X257408Y233312D01*
X257321Y232874D01*
Y230154D01*
X257159Y230046D01*
X256759Y229447D01*
X256618Y228740D01*
X256759Y228033D01*
X257159Y227434D01*
X257758Y227034D01*
X258465Y226894D01*
X259171Y227034D01*
X259770Y227434D01*
X260171Y228033D01*
X260311Y228740D01*
X260171Y229447D01*
X259770Y230046D01*
X259609Y230154D01*
Y232400D01*
X264195Y236986D01*
X264443Y237357D01*
X264530Y237795D01*
Y255235D01*
X267132Y257837D01*
X267323Y257799D01*
X268029Y257940D01*
X268629Y258340D01*
X269029Y258939D01*
X269169Y259646D01*
X269029Y260352D01*
X268629Y260951D01*
X268029Y261352D01*
X267323Y261492D01*
X266616Y261352D01*
X266017Y260951D01*
X265617Y260352D01*
X265476Y259646D01*
X265514Y259455D01*
X264323Y258264D01*
X263934Y258582D01*
X264304Y259136D01*
X264445Y259842D01*
X264304Y260549D01*
X263904Y261148D01*
X263305Y261548D01*
X262598Y261689D01*
D02*
G37*
G36*
X253543Y261492D02*
X252837Y261352D01*
X252238Y260951D01*
X251837Y260352D01*
X251697Y259646D01*
X251837Y258939D01*
X252238Y258340D01*
X252399Y258232D01*
Y256362D01*
X251899Y256094D01*
X251691Y256234D01*
X250984Y256374D01*
X250794Y256336D01*
X249431Y257699D01*
X249060Y257947D01*
X248622Y258034D01*
X218504D01*
X218066Y257947D01*
X217695Y257699D01*
X208384Y248388D01*
X156102D01*
X155665Y248301D01*
X155293Y248053D01*
X152553Y245312D01*
X152362Y245350D01*
X151656Y245210D01*
X151057Y244810D01*
X150656Y244211D01*
X150516Y243504D01*
X150656Y242797D01*
X151057Y242198D01*
X151656Y241798D01*
X152362Y241657D01*
X153069Y241798D01*
X153668Y242198D01*
X154068Y242797D01*
X154209Y243504D01*
X154171Y243695D01*
X156576Y246100D01*
X208858D01*
X209296Y246187D01*
X209667Y246435D01*
X218978Y255746D01*
X248148D01*
X249176Y254718D01*
X249138Y254528D01*
X249278Y253821D01*
X249679Y253222D01*
X250278Y252822D01*
X250984Y252681D01*
X251691Y252822D01*
X251899Y252961D01*
X252399Y252694D01*
Y243387D01*
X244467Y235455D01*
X244219Y235084D01*
X244132Y234646D01*
Y230482D01*
X243773Y230243D01*
X243373Y229644D01*
X243232Y228937D01*
X243373Y228230D01*
X243773Y227631D01*
X244372Y227231D01*
X245079Y227091D01*
X245785Y227231D01*
X246384Y227631D01*
X246785Y228230D01*
X246925Y228937D01*
X246785Y229644D01*
X246420Y230190D01*
Y234172D01*
X254352Y242104D01*
X254600Y242476D01*
X254687Y242913D01*
Y258232D01*
X254849Y258340D01*
X255249Y258939D01*
X255390Y259646D01*
X255249Y260352D01*
X254849Y260951D01*
X254250Y261352D01*
X253543Y261492D01*
D02*
G37*
G36*
X297835Y235114D02*
X297128Y234974D01*
X296529Y234573D01*
X296129Y233974D01*
X295988Y233268D01*
X296026Y233077D01*
X273542Y210593D01*
X247477D01*
X247369Y210754D01*
X246770Y211155D01*
X246063Y211295D01*
X245356Y211155D01*
X244757Y210754D01*
X244357Y210155D01*
X244216Y209449D01*
X244357Y208742D01*
X244757Y208143D01*
X245356Y207743D01*
X246063Y207602D01*
X246770Y207743D01*
X247369Y208143D01*
X247477Y208305D01*
X274016D01*
X274453Y208392D01*
X274825Y208640D01*
X297644Y231459D01*
X297835Y231421D01*
X298541Y231562D01*
X299140Y231962D01*
X299541Y232561D01*
X299681Y233268D01*
X299541Y233974D01*
X299140Y234573D01*
X298541Y234974D01*
X297835Y235114D01*
D02*
G37*
G36*
X301378Y232555D02*
X300671Y232415D01*
X300072Y232014D01*
X299672Y231415D01*
X299531Y230709D01*
X299569Y230518D01*
X276101Y207049D01*
X252004D01*
X251896Y207211D01*
X251297Y207611D01*
X250590Y207752D01*
X249884Y207611D01*
X249285Y207211D01*
X248885Y206612D01*
X248744Y205906D01*
X248885Y205199D01*
X249285Y204600D01*
X249884Y204200D01*
X250590Y204059D01*
X251297Y204200D01*
X251896Y204600D01*
X252004Y204762D01*
X276575D01*
X277013Y204849D01*
X277384Y205097D01*
X301187Y228900D01*
X301378Y228862D01*
X302085Y229003D01*
X302684Y229403D01*
X303084Y230002D01*
X303224Y230709D01*
X303084Y231415D01*
X302684Y232014D01*
X302085Y232415D01*
X301378Y232555D01*
D02*
G37*
G36*
X221457Y251059D02*
X220750Y250919D01*
X220151Y250518D01*
X219751Y249919D01*
X219610Y249213D01*
X219751Y248506D01*
X220151Y247907D01*
X220313Y247799D01*
Y230118D01*
X220400Y229680D01*
X220648Y229309D01*
X227719Y222238D01*
X227681Y222047D01*
X227822Y221341D01*
X228222Y220742D01*
X228821Y220341D01*
X229528Y220201D01*
X230234Y220341D01*
X230833Y220742D01*
X231234Y221341D01*
X231374Y222047D01*
X231234Y222754D01*
X230833Y223353D01*
X230234Y223753D01*
X229528Y223894D01*
X229337Y223856D01*
X222601Y230592D01*
Y247799D01*
X222762Y247907D01*
X223163Y248506D01*
X223303Y249213D01*
X223163Y249919D01*
X222762Y250518D01*
X222163Y250919D01*
X221457Y251059D01*
D02*
G37*
G36*
X226181Y254799D02*
X225475Y254659D01*
X224875Y254258D01*
X224475Y253659D01*
X224335Y252953D01*
X224475Y252246D01*
X224875Y251647D01*
X225037Y251539D01*
Y235433D01*
X225124Y234995D01*
X225372Y234624D01*
X232911Y227085D01*
Y222835D01*
X232998Y222397D01*
X233246Y222026D01*
X233617Y221778D01*
X233687Y221764D01*
X234376Y221074D01*
X234374Y221063D01*
X234514Y220356D01*
X234845Y219862D01*
X234675Y219362D01*
X209261D01*
X209171Y219423D01*
X209065Y219444D01*
X189550Y238959D01*
X189016Y239316D01*
X188386Y239441D01*
X177765D01*
X177675Y239501D01*
X177569Y239522D01*
X176594Y240498D01*
X176611Y240586D01*
X176486Y241216D01*
X176129Y241750D01*
X173998Y243880D01*
X173465Y244237D01*
X172835Y244362D01*
X160630D01*
X160000Y244237D01*
X159466Y243880D01*
X156120Y240534D01*
X155763Y240000D01*
X155638Y239370D01*
Y219488D01*
X155763Y218858D01*
X156120Y218324D01*
X177013Y197431D01*
X177034Y197325D01*
X177435Y196726D01*
X178033Y196326D01*
X178740Y196185D01*
X179447Y196326D01*
X180046Y196726D01*
X180446Y197325D01*
X180587Y198031D01*
X180446Y198738D01*
X180046Y199337D01*
X179447Y199737D01*
X179341Y199759D01*
X158929Y220170D01*
Y238688D01*
X160044Y239803D01*
X160432Y239484D01*
X160302Y239289D01*
X160161Y238583D01*
X160302Y237876D01*
X160702Y237277D01*
X161301Y236877D01*
X162008Y236736D01*
X162715Y236877D01*
X163313Y237277D01*
X163422Y237439D01*
X168424D01*
X219860Y186002D01*
X220232Y185754D01*
X220669Y185667D01*
X234610D01*
X234718Y185505D01*
X235317Y185105D01*
X236024Y184965D01*
X236730Y185105D01*
X237329Y185505D01*
X237730Y186104D01*
X237870Y186811D01*
X237730Y187518D01*
X237329Y188117D01*
X236730Y188517D01*
X236024Y188657D01*
X235317Y188517D01*
X234718Y188117D01*
X234610Y187955D01*
X221143D01*
X169707Y239392D01*
X169335Y239640D01*
X168898Y239727D01*
X163422D01*
X163313Y239888D01*
X162715Y240289D01*
X162008Y240429D01*
X161301Y240289D01*
X161106Y240159D01*
X160788Y240547D01*
X161312Y241071D01*
X172153D01*
X173337Y239887D01*
X173319Y239798D01*
X173445Y239169D01*
X173802Y238635D01*
X175241Y237195D01*
X175263Y237089D01*
X175663Y236490D01*
X176262Y236089D01*
X176969Y235949D01*
X177675Y236089D01*
X177765Y236150D01*
X187704D01*
X206737Y217116D01*
X206759Y217010D01*
X207159Y216411D01*
X207758Y216011D01*
X207864Y215989D01*
X211828Y212025D01*
X212362Y211668D01*
X212992Y211543D01*
X227074D01*
X233482Y205135D01*
X234016Y204779D01*
X234646Y204653D01*
X242232D01*
X251898Y194988D01*
Y173631D01*
X251837Y173541D01*
X251697Y172835D01*
X251837Y172128D01*
X252238Y171529D01*
X252837Y171129D01*
X253543Y170988D01*
X254250Y171129D01*
X254340Y171189D01*
X283259D01*
X283348Y171129D01*
X284055Y170988D01*
X284762Y171129D01*
X285361Y171529D01*
X285761Y172128D01*
X285902Y172835D01*
X285761Y173541D01*
X285361Y174140D01*
X284762Y174541D01*
X284055Y174681D01*
X283348Y174541D01*
X283259Y174480D01*
X255189D01*
Y195669D01*
X255064Y196299D01*
X254707Y196833D01*
X244077Y207463D01*
X243543Y207820D01*
X242913Y207945D01*
X235327D01*
X228920Y214353D01*
X228386Y214709D01*
X227756Y214835D01*
X213674D01*
X212900Y215609D01*
X213091Y216071D01*
X271654D01*
X272283Y216196D01*
X272817Y216553D01*
X273174Y217087D01*
X273299Y217717D01*
X273295Y217740D01*
X287817Y232262D01*
X287899Y232384D01*
X288429Y232279D01*
X288452Y232167D01*
X288852Y231568D01*
X289451Y231168D01*
X290158Y231028D01*
X290864Y231168D01*
X291463Y231568D01*
X291863Y232167D01*
X292004Y232874D01*
X291863Y233581D01*
X291463Y234180D01*
X290864Y234580D01*
X290158Y234720D01*
X289451Y234580D01*
X288852Y234180D01*
X288512Y233671D01*
X288480Y233659D01*
X288146Y233634D01*
X287959Y233667D01*
X287817Y233880D01*
X287446Y234128D01*
X287008Y234215D01*
X286570Y234128D01*
X286199Y233880D01*
X271677Y219358D01*
X271654Y219362D01*
X237767D01*
X237596Y219862D01*
X237926Y220356D01*
X238067Y221063D01*
X237926Y221770D01*
X237526Y222369D01*
X236927Y222769D01*
X236221Y222909D01*
X235851Y222836D01*
X235199Y223487D01*
Y227559D01*
X235112Y227997D01*
X234864Y228368D01*
X227325Y235907D01*
Y251539D01*
X227487Y251647D01*
X227887Y252246D01*
X228028Y252953D01*
X227887Y253659D01*
X227487Y254258D01*
X226888Y254659D01*
X226181Y254799D01*
D02*
G37*
G36*
X394291Y299484D02*
X393585Y299344D01*
X392986Y298943D01*
X392585Y298344D01*
X392445Y297638D01*
X392585Y296931D01*
X392986Y296332D01*
X393147Y296224D01*
Y272127D01*
X326298Y205278D01*
X295344D01*
X295302Y205341D01*
X294703Y205741D01*
X293996Y205882D01*
X293289Y205741D01*
X292690Y205341D01*
X292290Y204742D01*
X292150Y204035D01*
X292290Y203329D01*
X292690Y202730D01*
X293289Y202329D01*
X293996Y202189D01*
X294703Y202329D01*
X295302Y202730D01*
X295476Y202990D01*
X326772D01*
X327209Y203077D01*
X327581Y203325D01*
X395100Y270845D01*
X395348Y271216D01*
X395435Y271654D01*
Y296224D01*
X395597Y296332D01*
X395997Y296931D01*
X396138Y297638D01*
X395997Y298344D01*
X395597Y298943D01*
X394998Y299344D01*
X394291Y299484D01*
D02*
G37*
G36*
X399213Y287673D02*
X398506Y287533D01*
X397907Y287132D01*
X397507Y286533D01*
X397366Y285827D01*
X397507Y285120D01*
X397907Y284521D01*
X398069Y284413D01*
Y269765D01*
X330235Y201931D01*
X299016D01*
X298578Y201844D01*
X298207Y201596D01*
X297361Y200750D01*
X286256D01*
X286148Y200912D01*
X285549Y201312D01*
X284842Y201453D01*
X284136Y201312D01*
X283537Y200912D01*
X283137Y200313D01*
X282996Y199606D01*
X283137Y198900D01*
X283537Y198301D01*
X284136Y197900D01*
X284842Y197760D01*
X285549Y197900D01*
X286148Y198301D01*
X286256Y198462D01*
X297835D01*
X298272Y198549D01*
X298644Y198797D01*
X299490Y199643D01*
X330709D01*
X331147Y199731D01*
X331518Y199978D01*
X400022Y268482D01*
X400270Y268853D01*
X400357Y269291D01*
Y284413D01*
X400518Y284521D01*
X400918Y285120D01*
X401059Y285827D01*
X400918Y286533D01*
X400518Y287132D01*
X399919Y287533D01*
X399213Y287673D01*
D02*
G37*
G36*
X187795Y190330D02*
Y187598D01*
X190526D01*
X190470Y188027D01*
X190153Y188793D01*
X189648Y189451D01*
X188990Y189956D01*
X188224Y190273D01*
X187795Y190330D01*
D02*
G37*
G36*
X187008D02*
X186579Y190273D01*
X185813Y189956D01*
X185155Y189451D01*
X184650Y188793D01*
X184333Y188027D01*
X184277Y187598D01*
X187008D01*
Y190330D01*
D02*
G37*
G36*
X158071Y194169D02*
X157364Y194029D01*
X156765Y193629D01*
X156365Y193029D01*
X156224Y192323D01*
X156365Y191616D01*
X156765Y191017D01*
X157364Y190617D01*
X158071Y190476D01*
X158777Y190617D01*
X159377Y191017D01*
X159485Y191179D01*
X207007D01*
X210002Y188183D01*
X209964Y187992D01*
X210105Y187285D01*
X210505Y186687D01*
X211104Y186286D01*
X211811Y186146D01*
X212518Y186286D01*
X213117Y186687D01*
X213517Y187285D01*
X213657Y187992D01*
X213517Y188699D01*
X213117Y189298D01*
X212518Y189698D01*
X211811Y189839D01*
X211620Y189801D01*
X208289Y193132D01*
X207918Y193380D01*
X207480Y193467D01*
X159485D01*
X159377Y193629D01*
X158777Y194029D01*
X158071Y194169D01*
D02*
G37*
G36*
X187008Y186811D02*
X184277D01*
X184333Y186382D01*
X184650Y185616D01*
X185155Y184958D01*
X185813Y184453D01*
X186579Y184136D01*
X187008Y184080D01*
Y186811D01*
D02*
G37*
G36*
X190526D02*
X187795D01*
Y184080D01*
X188224Y184136D01*
X188990Y184453D01*
X189648Y184958D01*
X190153Y185616D01*
X190470Y186382D01*
X190526Y186811D01*
D02*
G37*
G36*
X187402Y178412D02*
X186620Y178309D01*
X185893Y178007D01*
X185268Y177528D01*
X184788Y176903D01*
X184486Y176175D01*
X184384Y175394D01*
X184486Y174613D01*
X184788Y173885D01*
X185268Y173260D01*
X185893Y172780D01*
X186620Y172479D01*
X187402Y172376D01*
X188183Y172479D01*
X188910Y172780D01*
X189536Y173260D01*
X190015Y173885D01*
X190317Y174613D01*
X190419Y175394D01*
X190317Y176175D01*
X190015Y176903D01*
X189536Y177528D01*
X188910Y178007D01*
X188183Y178309D01*
X187402Y178412D01*
D02*
G37*
G36*
X240551Y175075D02*
X239844Y174934D01*
X239246Y174534D01*
X239138Y174372D01*
X231102D01*
X230665Y174285D01*
X230293Y174037D01*
X224206Y167950D01*
X224016Y167988D01*
X223309Y167848D01*
X222710Y167447D01*
X222310Y166848D01*
X222169Y166142D01*
X222310Y165435D01*
X222710Y164836D01*
X223309Y164436D01*
X224016Y164295D01*
X224722Y164436D01*
X225321Y164836D01*
X225722Y165435D01*
X225862Y166142D01*
X225824Y166332D01*
X231576Y172084D01*
X239138D01*
X239246Y171923D01*
X239844Y171522D01*
X240551Y171382D01*
X241258Y171522D01*
X241857Y171923D01*
X242257Y172522D01*
X242398Y173228D01*
X242257Y173935D01*
X241857Y174534D01*
X241258Y174934D01*
X240551Y175075D01*
D02*
G37*
G36*
X305906Y186099D02*
X305199Y185958D01*
X304600Y185558D01*
X304200Y184959D01*
X304059Y184252D01*
X304200Y183545D01*
X304600Y182946D01*
X304776Y182829D01*
Y182329D01*
X304600Y182211D01*
X304200Y181612D01*
X304059Y180905D01*
X304200Y180199D01*
X304600Y179600D01*
X305199Y179200D01*
X305906Y179059D01*
X306612Y179200D01*
X307211Y179600D01*
X307319Y179762D01*
X311928D01*
X320451Y171238D01*
X320822Y170990D01*
X321260Y170903D01*
X387321D01*
X392301Y165923D01*
X392672Y165675D01*
X393110Y165588D01*
X404331D01*
Y162953D01*
X412677D01*
Y170628D01*
X413177Y170835D01*
X414836Y169176D01*
X414438Y168215D01*
X414295Y167126D01*
X414438Y166037D01*
X414859Y165021D01*
X415528Y164150D01*
X416399Y163481D01*
X417415Y163060D01*
X418504Y162917D01*
X419593Y163060D01*
X420609Y163481D01*
X421480Y164150D01*
X422149Y165021D01*
X422570Y166037D01*
X422713Y167126D01*
X422570Y168215D01*
X422149Y169231D01*
X421480Y170102D01*
X420609Y170771D01*
X419593Y171192D01*
X418504Y171335D01*
X417415Y171192D01*
X416454Y170794D01*
X411439Y175809D01*
X411068Y176057D01*
X410630Y176144D01*
X323702D01*
X314785Y185061D01*
X314414Y185309D01*
X313976Y185396D01*
X307319D01*
X307211Y185558D01*
X306612Y185958D01*
X305906Y186099D01*
D02*
G37*
G36*
X414173Y154779D02*
Y151551D01*
X417401D01*
X417327Y152108D01*
X416961Y152994D01*
X416377Y153755D01*
X415616Y154339D01*
X414730Y154706D01*
X414173Y154779D01*
D02*
G37*
G36*
X413386D02*
X412829Y154706D01*
X411943Y154339D01*
X411182Y153755D01*
X410599Y152994D01*
X410231Y152108D01*
X410158Y151551D01*
X413386D01*
Y154779D01*
D02*
G37*
G36*
X244685Y164051D02*
X243978Y163911D01*
X243379Y163510D01*
X242979Y162911D01*
X242839Y162205D01*
X242979Y161498D01*
X243379Y160899D01*
X243541Y160791D01*
Y154527D01*
X243628Y154090D01*
X243876Y153719D01*
X247601Y149994D01*
X247563Y149803D01*
X247704Y149097D01*
X248104Y148497D01*
X248703Y148097D01*
X249409Y147957D01*
X250116Y148097D01*
X250715Y148497D01*
X251115Y149097D01*
X251256Y149803D01*
X251115Y150510D01*
X250715Y151109D01*
X250116Y151509D01*
X249409Y151650D01*
X249219Y151612D01*
X245829Y155001D01*
Y160791D01*
X245991Y160899D01*
X246391Y161498D01*
X246532Y162205D01*
X246391Y162911D01*
X245991Y163510D01*
X245392Y163911D01*
X244685Y164051D01*
D02*
G37*
G36*
X403937Y154672D02*
X403027Y154552D01*
X402180Y154201D01*
X401452Y153642D01*
X400893Y152915D01*
X400542Y152067D01*
X400423Y151157D01*
X400542Y150248D01*
X400893Y149400D01*
X401452Y148672D01*
X402180Y148114D01*
X403027Y147763D01*
X403937Y147643D01*
X404847Y147763D01*
X405694Y148114D01*
X406422Y148672D01*
X406981Y149400D01*
X407332Y150248D01*
X407451Y151157D01*
X407332Y152067D01*
X406981Y152915D01*
X406422Y153642D01*
X405694Y154201D01*
X404847Y154552D01*
X403937Y154672D01*
D02*
G37*
G36*
X396063D02*
X395153Y154552D01*
X394306Y154201D01*
X393578Y153642D01*
X393020Y152915D01*
X392668Y152067D01*
X392549Y151157D01*
X392668Y150248D01*
X393020Y149400D01*
X393578Y148672D01*
X394306Y148114D01*
X395153Y147763D01*
X396063Y147643D01*
X396973Y147763D01*
X397820Y148114D01*
X398548Y148672D01*
X399107Y149400D01*
X399458Y150248D01*
X399577Y151157D01*
X399458Y152067D01*
X399107Y152915D01*
X398548Y153642D01*
X397820Y154201D01*
X396973Y154552D01*
X396063Y154672D01*
D02*
G37*
G36*
X417401Y150764D02*
X414173D01*
Y147536D01*
X414730Y147609D01*
X415616Y147976D01*
X416377Y148560D01*
X416961Y149321D01*
X417327Y150207D01*
X417401Y150764D01*
D02*
G37*
G36*
X413386D02*
X410158D01*
X410231Y150207D01*
X410599Y149321D01*
X411182Y148560D01*
X411943Y147976D01*
X412829Y147609D01*
X413386Y147536D01*
Y150764D01*
D02*
G37*
G36*
X249409Y145350D02*
X248703Y145210D01*
X248104Y144810D01*
X247996Y144648D01*
X188779D01*
X188342Y144561D01*
X187971Y144313D01*
X183655Y139998D01*
X183465Y140035D01*
X182758Y139895D01*
X182159Y139495D01*
X181759Y138896D01*
X181618Y138189D01*
X181759Y137482D01*
X182159Y136883D01*
X182758Y136483D01*
X183465Y136343D01*
X184171Y136483D01*
X184770Y136883D01*
X185170Y137482D01*
X185311Y138189D01*
X185273Y138380D01*
X189253Y142360D01*
X247996D01*
X248104Y142198D01*
X248703Y141798D01*
X249409Y141657D01*
X250116Y141798D01*
X250715Y142198D01*
X251115Y142797D01*
X251256Y143504D01*
X251115Y144211D01*
X250715Y144810D01*
X250116Y145210D01*
X249409Y145350D01*
D02*
G37*
G36*
X426260Y146779D02*
Y140882D01*
X432157D01*
X432074Y141723D01*
X431714Y142911D01*
X431129Y144005D01*
X430342Y144964D01*
X429383Y145751D01*
X428288Y146336D01*
X427101Y146696D01*
X426260Y146779D01*
D02*
G37*
G36*
X425472D02*
X424631Y146696D01*
X423444Y146336D01*
X422350Y145751D01*
X421390Y144964D01*
X420603Y144005D01*
X420018Y142911D01*
X419658Y141723D01*
X419575Y140882D01*
X425472D01*
Y146779D01*
D02*
G37*
G36*
X374528D02*
Y140882D01*
X380425D01*
X380342Y141723D01*
X379982Y142911D01*
X379397Y144005D01*
X378610Y144964D01*
X377650Y145751D01*
X376556Y146336D01*
X375369Y146696D01*
X374528Y146779D01*
D02*
G37*
G36*
X373740D02*
X372899Y146696D01*
X371712Y146336D01*
X370617Y145751D01*
X369658Y144964D01*
X368871Y144005D01*
X368286Y142911D01*
X367926Y141723D01*
X367843Y140882D01*
X373740D01*
Y146779D01*
D02*
G37*
G36*
X337008Y140136D02*
Y137008D01*
X340136D01*
X340066Y137539D01*
X339709Y138401D01*
X339141Y139141D01*
X338401Y139709D01*
X337539Y140066D01*
X337008Y140136D01*
D02*
G37*
G36*
X336221D02*
X335689Y140066D01*
X334827Y139709D01*
X334087Y139141D01*
X333519Y138401D01*
X333162Y137539D01*
X333092Y137008D01*
X336221D01*
Y140136D01*
D02*
G37*
G36*
X432157Y140094D02*
X426260D01*
Y134197D01*
X427101Y134280D01*
X428288Y134640D01*
X429383Y135225D01*
X430342Y136012D01*
X431129Y136972D01*
X431714Y138066D01*
X432074Y139253D01*
X432157Y140094D01*
D02*
G37*
G36*
X425472D02*
X419575D01*
X419658Y139253D01*
X420018Y138066D01*
X420603Y136972D01*
X421390Y136012D01*
X422350Y135225D01*
X423444Y134640D01*
X424631Y134280D01*
X425472Y134197D01*
Y140094D01*
D02*
G37*
G36*
X380425D02*
X374528D01*
Y134197D01*
X375369Y134280D01*
X376556Y134640D01*
X377650Y135225D01*
X378610Y136012D01*
X379397Y136972D01*
X379982Y138066D01*
X380342Y139253D01*
X380425Y140094D01*
D02*
G37*
G36*
X373740D02*
X367843D01*
X367926Y139253D01*
X368286Y138066D01*
X368871Y136972D01*
X369658Y136012D01*
X370617Y135225D01*
X371712Y134640D01*
X372899Y134280D01*
X373740Y134197D01*
Y140094D01*
D02*
G37*
G36*
X330157Y140000D02*
X323386D01*
Y133228D01*
X330157D01*
Y140000D01*
D02*
G37*
G36*
X340136Y136221D02*
X337008D01*
Y133092D01*
X337539Y133162D01*
X338401Y133519D01*
X339141Y134087D01*
X339709Y134827D01*
X340066Y135689D01*
X340136Y136221D01*
D02*
G37*
G36*
X336221D02*
X333092D01*
X333162Y135689D01*
X333519Y134827D01*
X334087Y134087D01*
X334827Y133519D01*
X335689Y133162D01*
X336221Y133092D01*
Y136221D01*
D02*
G37*
G36*
X135236Y142188D02*
X127362D01*
X126684Y142098D01*
X126052Y141837D01*
X125509Y141420D01*
X125092Y140877D01*
X124831Y140245D01*
X124741Y139567D01*
Y135630D01*
X124831Y134952D01*
X125092Y134319D01*
X125509Y133777D01*
X126052Y133360D01*
X126684Y133098D01*
X127362Y133009D01*
X135236D01*
X135915Y133098D01*
X136547Y133360D01*
X137090Y133777D01*
X137506Y134319D01*
X137768Y134952D01*
X137857Y135630D01*
Y139567D01*
X137768Y140245D01*
X137506Y140877D01*
X137090Y141420D01*
X136547Y141837D01*
X135915Y142098D01*
X135236Y142188D01*
D02*
G37*
G36*
X115236D02*
X107362D01*
X106684Y142098D01*
X106052Y141837D01*
X105509Y141420D01*
X105093Y140877D01*
X104831Y140245D01*
X104741Y139567D01*
Y135630D01*
X104831Y134952D01*
X105093Y134319D01*
X105509Y133777D01*
X106052Y133360D01*
X106684Y133098D01*
X107362Y133009D01*
X115236D01*
X115915Y133098D01*
X116547Y133360D01*
X117089Y133777D01*
X117506Y134319D01*
X117768Y134952D01*
X117857Y135630D01*
Y139567D01*
X117768Y140245D01*
X117506Y140877D01*
X117089Y141420D01*
X116547Y141837D01*
X115915Y142098D01*
X115236Y142188D01*
D02*
G37*
G36*
X284646Y155783D02*
X273031D01*
X272325Y155643D01*
X271726Y155243D01*
X251597Y135114D01*
X227953D01*
X227246Y134974D01*
X226647Y134573D01*
X226247Y133974D01*
X226106Y133268D01*
X226247Y132561D01*
X226647Y131962D01*
X227246Y131562D01*
X227953Y131421D01*
X252362D01*
X253069Y131562D01*
X253668Y131962D01*
X273796Y152091D01*
X284646D01*
X285352Y152231D01*
X285951Y152631D01*
X286352Y153230D01*
X286492Y153937D01*
X286352Y154644D01*
X285951Y155243D01*
X285352Y155643D01*
X284646Y155783D01*
D02*
G37*
G36*
X215354Y138461D02*
X214648Y138320D01*
X214049Y137920D01*
X213648Y137321D01*
X213508Y136614D01*
X213648Y135907D01*
X214031Y135334D01*
X212774Y134077D01*
X212526Y133705D01*
X212439Y133268D01*
Y127699D01*
X212274Y127595D01*
X211774Y127873D01*
Y135201D01*
X211936Y135309D01*
X212336Y135907D01*
X212476Y136614D01*
X212336Y137321D01*
X211936Y137920D01*
X211336Y138320D01*
X210630Y138461D01*
X209923Y138320D01*
X209324Y137920D01*
X208924Y137321D01*
X208783Y136614D01*
X208924Y135907D01*
X209324Y135309D01*
X209486Y135201D01*
Y123855D01*
X209324Y123747D01*
X208924Y123148D01*
X208783Y122441D01*
X208924Y121734D01*
X209324Y121135D01*
X209923Y120735D01*
X210630Y120594D01*
X211336Y120735D01*
X211936Y121135D01*
X212336Y121734D01*
X212476Y122441D01*
X212336Y123148D01*
X211994Y123660D01*
X212013Y123925D01*
X212289Y124117D01*
X212551Y124167D01*
X212679Y124082D01*
X213386Y123941D01*
X214092Y124082D01*
X214691Y124482D01*
X215092Y125081D01*
X215232Y125787D01*
X215092Y126494D01*
X214727Y127040D01*
Y132794D01*
X216163Y134230D01*
X216411Y134601D01*
X216498Y135039D01*
Y135201D01*
X216660Y135309D01*
X217060Y135907D01*
X217201Y136614D01*
X217060Y137321D01*
X216660Y137920D01*
X216061Y138320D01*
X215354Y138461D01*
D02*
G37*
G36*
X273729Y119413D02*
X273533D01*
Y117126D01*
X276358D01*
X276318Y117426D01*
X276051Y118072D01*
X275625Y118628D01*
X275069Y119054D01*
X274423Y119321D01*
X273729Y119413D01*
D02*
G37*
G36*
X293414D02*
X293217D01*
Y117126D01*
X296043D01*
X296003Y117426D01*
X295736Y118072D01*
X295310Y118628D01*
X294755Y119054D01*
X294108Y119321D01*
X293414Y119413D01*
D02*
G37*
G36*
X272745D02*
X272548D01*
X271854Y119321D01*
X271208Y119054D01*
X270653Y118628D01*
X270227Y118072D01*
X269959Y117426D01*
X269920Y117126D01*
X272745D01*
Y119413D01*
D02*
G37*
G36*
X292430D02*
X292233D01*
X291540Y119321D01*
X290893Y119054D01*
X290338Y118628D01*
X289912Y118072D01*
X289644Y117426D01*
X289605Y117126D01*
X292430D01*
Y119413D01*
D02*
G37*
G36*
X296043Y116339D02*
X293217D01*
Y114052D01*
X293414D01*
X294108Y114143D01*
X294755Y114411D01*
X295310Y114837D01*
X295736Y115392D01*
X296003Y116039D01*
X296043Y116339D01*
D02*
G37*
G36*
X292430D02*
X289605D01*
X289644Y116039D01*
X289912Y115392D01*
X290338Y114837D01*
X290893Y114411D01*
X291540Y114143D01*
X292233Y114052D01*
X292430D01*
Y116339D01*
D02*
G37*
G36*
X276358D02*
X273533D01*
Y114052D01*
X273729D01*
X274423Y114143D01*
X275069Y114411D01*
X275625Y114837D01*
X276051Y115392D01*
X276318Y116039D01*
X276358Y116339D01*
D02*
G37*
G36*
X272745D02*
X269920D01*
X269959Y116039D01*
X270227Y115392D01*
X270653Y114837D01*
X271208Y114411D01*
X271854Y114143D01*
X272548Y114052D01*
X272745D01*
Y116339D01*
D02*
G37*
G36*
X389705Y154642D02*
X382736D01*
Y147673D01*
X384073D01*
Y135142D01*
X373520Y124589D01*
X250787D01*
X249966Y124425D01*
X249269Y123960D01*
X237299Y111990D01*
X226285D01*
X226139Y112392D01*
X226120Y112490D01*
X226509Y113073D01*
X226650Y113779D01*
X226612Y113970D01*
X230386Y117744D01*
X230634Y118115D01*
X230721Y118553D01*
Y119453D01*
X230882Y119561D01*
X231283Y120159D01*
X231423Y120866D01*
X231283Y121573D01*
X230882Y122172D01*
X230470Y122448D01*
X230302Y122980D01*
X230307Y123077D01*
X230402Y123210D01*
X230825Y123294D01*
X231424Y123694D01*
X231824Y124293D01*
X231965Y125000D01*
X231824Y125707D01*
X231424Y126306D01*
X230825Y126706D01*
X230118Y126847D01*
X229412Y126706D01*
X228812Y126306D01*
X228412Y125707D01*
X228272Y125000D01*
X228309Y124809D01*
X225052Y121551D01*
X219817D01*
X219379Y121464D01*
X219008Y121216D01*
X214364Y116572D01*
X214173Y116610D01*
X213467Y116470D01*
X212867Y116069D01*
X212467Y115470D01*
X212327Y114764D01*
X212467Y114057D01*
X212867Y113458D01*
X213467Y113058D01*
X214173Y112917D01*
X214880Y113058D01*
X215479Y113458D01*
X215879Y114057D01*
X216020Y114764D01*
X215982Y114954D01*
X220291Y119263D01*
X225525D01*
X225963Y119351D01*
X226335Y119598D01*
X227284Y120548D01*
X227826Y120383D01*
X227871Y120159D01*
X228271Y119561D01*
X228364Y119499D01*
X228395Y118989D01*
X224994Y115588D01*
X224803Y115626D01*
X224096Y115486D01*
X223498Y115085D01*
X223097Y114486D01*
X222957Y113779D01*
X223097Y113073D01*
X223487Y112490D01*
X223468Y112392D01*
X223322Y111990D01*
X209945D01*
X197713Y124222D01*
Y136811D01*
X197572Y137518D01*
X197172Y138117D01*
X196573Y138517D01*
X195866Y138657D01*
X195159Y138517D01*
X194561Y138117D01*
X194160Y137518D01*
X194020Y136811D01*
Y124059D01*
X193882Y123853D01*
X193719Y123031D01*
X193882Y122210D01*
X194348Y121513D01*
X207537Y108324D01*
X208233Y107858D01*
X209055Y107695D01*
X238189D01*
X239011Y107858D01*
X239707Y108324D01*
X251677Y120293D01*
X374410D01*
X375231Y120457D01*
X375928Y120922D01*
X387739Y132733D01*
X388205Y133430D01*
X388368Y134252D01*
Y147673D01*
X389705D01*
Y154642D01*
D02*
G37*
G36*
X297154Y109911D02*
Y106496D01*
X299342D01*
Y107382D01*
X299254Y108050D01*
X298996Y108672D01*
X298586Y109207D01*
X298051Y109617D01*
X297429Y109875D01*
X297154Y109911D01*
D02*
G37*
G36*
X296367D02*
X296093Y109875D01*
X295470Y109617D01*
X294936Y109207D01*
X294526Y108672D01*
X294268Y108050D01*
X294180Y107382D01*
Y106496D01*
X296367D01*
Y109911D01*
D02*
G37*
G36*
X269596D02*
Y106496D01*
X271783D01*
Y107382D01*
X271695Y108050D01*
X271437Y108672D01*
X271027Y109207D01*
X270492Y109617D01*
X269870Y109875D01*
X269596Y109911D01*
D02*
G37*
G36*
X268808D02*
X268534Y109875D01*
X267911Y109617D01*
X267377Y109207D01*
X266966Y108672D01*
X266709Y108050D01*
X266621Y107382D01*
Y106496D01*
X268808D01*
Y109911D01*
D02*
G37*
G36*
X125236Y112188D02*
X117362D01*
X116684Y112099D01*
X116052Y111837D01*
X115509Y111420D01*
X115093Y110877D01*
X114831Y110245D01*
X114741Y109567D01*
Y105630D01*
X114831Y104952D01*
X115093Y104320D01*
X115509Y103777D01*
X116052Y103360D01*
X116684Y103098D01*
X117362Y103009D01*
X125236D01*
X125915Y103098D01*
X126547Y103360D01*
X127090Y103777D01*
X127506Y104320D01*
X127768Y104952D01*
X127857Y105630D01*
Y109567D01*
X127768Y110245D01*
X127506Y110877D01*
X127090Y111420D01*
X126547Y111837D01*
X125915Y112099D01*
X125236Y112188D01*
D02*
G37*
G36*
X271783Y105709D02*
X269596D01*
Y102294D01*
X269870Y102330D01*
X270492Y102587D01*
X271027Y102998D01*
X271437Y103532D01*
X271695Y104155D01*
X271783Y104823D01*
Y105709D01*
D02*
G37*
G36*
X296367Y105709D02*
X294180D01*
Y104823D01*
X294268Y104155D01*
X294526Y103532D01*
X294936Y102998D01*
X295470Y102587D01*
X296093Y102330D01*
X296367Y102294D01*
Y105709D01*
D02*
G37*
G36*
X299342D02*
X297154D01*
Y102294D01*
X297429Y102330D01*
X298051Y102587D01*
X298586Y102998D01*
X298996Y103532D01*
X299254Y104155D01*
X299342Y104823D01*
Y105709D01*
D02*
G37*
G36*
X268808Y105709D02*
X266621D01*
Y104823D01*
X266709Y104155D01*
X266966Y103532D01*
X267377Y102998D01*
X267911Y102587D01*
X268534Y102330D01*
X268808Y102294D01*
Y105709D01*
D02*
G37*
%LPD*%
G36*
X375008Y320917D02*
X372026Y317935D01*
X371778Y317564D01*
X371691Y317126D01*
Y297718D01*
X358975Y285002D01*
X320472D01*
X320035Y284915D01*
X319664Y284667D01*
X297467Y262471D01*
X297441Y262476D01*
X296734Y262336D01*
X296666Y262291D01*
X296306Y262651D01*
X296588Y263073D01*
X296728Y263779D01*
X296691Y263970D01*
X318387Y285667D01*
X357283D01*
X357721Y285754D01*
X358092Y286002D01*
X365573Y293482D01*
X365821Y293853D01*
X365908Y294291D01*
Y318581D01*
X368744Y321417D01*
X374801D01*
X375008Y320917D01*
D02*
G37*
G36*
X418541Y312673D02*
Y291768D01*
X418379Y291660D01*
X417979Y291061D01*
X417838Y290354D01*
X417979Y289648D01*
X418379Y289049D01*
X418384Y289046D01*
X418232Y288546D01*
X417009D01*
X405475Y300080D01*
Y301933D01*
X405636Y302041D01*
X406037Y302640D01*
X406177Y303346D01*
X406037Y304053D01*
X405897Y304261D01*
X406165Y304762D01*
X409449D01*
X409887Y304849D01*
X410258Y305097D01*
X418041Y312880D01*
X418541Y312673D01*
D02*
G37*
G36*
X322419Y174191D02*
X322791Y173943D01*
X323228Y173856D01*
X410156D01*
X412213Y171799D01*
X412006Y171299D01*
X404331D01*
Y167876D01*
X393584D01*
X388604Y172856D01*
X388233Y173104D01*
X387795Y173191D01*
X321734D01*
X313211Y181714D01*
X312839Y181962D01*
X312402Y182050D01*
X307319D01*
X307211Y182211D01*
X307130Y182265D01*
X307097Y182787D01*
X307420Y183108D01*
X313503D01*
X322419Y174191D01*
D02*
G37*
D10*
X424213Y295276D02*
X425984Y297047D01*
X428937D01*
X424213Y289764D02*
Y295276D01*
X421850Y287402D02*
X424213Y289764D01*
X416535Y287402D02*
X421850D01*
X419685Y290354D02*
Y312992D01*
X421654Y314961D01*
X404331Y299606D02*
Y303346D01*
Y299606D02*
X416535Y287402D01*
X158071Y192323D02*
X207480D01*
X211811Y187992D01*
X174965Y239798D02*
Y240586D01*
X162008Y238583D02*
X168898D01*
X220669Y186811D02*
X236024D01*
X168898Y238583D02*
X220669Y186811D01*
X208465Y217717D02*
X208465D01*
X221457Y230118D02*
Y249213D01*
Y230118D02*
X229528Y222047D01*
X345866Y289961D02*
X352756Y296850D01*
X301378Y289961D02*
X345866D01*
X410630Y175000D02*
X418504Y167126D01*
X323228Y175000D02*
X410630D01*
X408110Y166732D02*
X408504Y167126D01*
X393110Y166732D02*
X408110D01*
X387795Y172047D02*
X393110Y166732D01*
X321260Y172047D02*
X387795D01*
X383071Y307362D02*
X401299Y325590D01*
X383071Y294685D02*
Y307362D01*
X365158Y276772D02*
X383071Y294685D01*
X377559Y311850D02*
X391299Y325590D01*
X377559Y295276D02*
Y311850D01*
X362992Y280709D02*
X377559Y295276D01*
X359449Y283858D02*
X372835Y297244D01*
Y317126D01*
X381299Y325590D01*
X364764Y319055D02*
X371299Y325590D01*
X357283Y286811D02*
X364764Y294291D01*
Y319055D01*
X330709Y200787D02*
X399213Y269291D01*
Y285827D01*
X326772Y204134D02*
X394291Y271654D01*
Y297638D01*
X304331Y254134D02*
X326969Y276772D01*
X365158D01*
X324016Y280709D02*
X362992D01*
X300590Y257283D02*
X324016Y280709D01*
X297441Y260827D02*
X320472Y283858D01*
X359449D01*
X297441Y260630D02*
Y260827D01*
X317913Y286811D02*
X357283D01*
X294882Y263779D02*
X317913Y286811D01*
X293996Y204035D02*
X294094Y204134D01*
X326772D01*
X299016Y200787D02*
X330709D01*
X297835Y199606D02*
X299016Y200787D01*
X286417Y244094D02*
X293898D01*
X290551Y251181D02*
X298031D01*
X299016Y250197D01*
X320866D01*
X321063Y250394D01*
X293898Y244094D02*
X307087Y230906D01*
X261614Y225197D02*
X283465Y247047D01*
X237598Y225197D02*
X261614D01*
X283465Y247047D02*
X332283D01*
X274016Y209449D02*
X297835Y233268D01*
X246063Y209449D02*
X274016D01*
X305906Y184252D02*
X313976D01*
X323228Y175000D01*
X312402Y180905D02*
X321260Y172047D01*
X305906Y180905D02*
X312402D01*
X258465Y228740D02*
Y232874D01*
X263386Y237795D01*
Y255709D02*
X267323Y259646D01*
X263386Y237795D02*
Y255709D01*
X249410Y228937D02*
Y234055D01*
X256890Y241535D01*
Y257087D01*
X259646Y259842D02*
X262598D01*
X256890Y257087D02*
X259646Y259842D01*
X253937Y228740D02*
Y233268D01*
X259842Y239173D02*
Y255315D01*
X253937Y233268D02*
X259842Y239173D01*
X245276Y229134D02*
Y234646D01*
X245079Y228937D02*
X245276Y229134D01*
Y234646D02*
X253543Y242913D01*
Y259646D01*
X284842Y199606D02*
X297835D01*
X218504Y256890D02*
X248622D01*
X250984Y254528D01*
X156102Y247244D02*
X208858D01*
X218504Y256890D01*
X152362Y243504D02*
X156102Y247244D01*
X226181Y235433D02*
Y252953D01*
Y235433D02*
X234055Y227559D01*
X236006Y221063D02*
X236221D01*
X234234Y222835D02*
X236006Y221063D01*
X234055Y222835D02*
X234234D01*
X234055D02*
Y227559D01*
X271654Y217717D02*
X287008Y233071D01*
X332283Y247047D02*
X350787Y265551D01*
X250590Y205906D02*
X276575D01*
X301378Y230709D01*
X188779Y143504D02*
X249409D01*
X183465Y138189D02*
X188779Y143504D01*
X210630Y122441D02*
Y136614D01*
X213583Y133268D02*
X215354Y135039D01*
X213583Y125984D02*
Y133268D01*
X215354Y135039D02*
Y136614D01*
X213386Y125787D02*
X213583Y125984D01*
X231102Y173228D02*
X240551D01*
X224016Y166142D02*
X231102Y173228D01*
X244685Y154527D02*
X249409Y149803D01*
X244685Y154527D02*
Y162205D01*
X219817Y120407D02*
X225525D01*
X230118Y125000D01*
X224803Y113779D02*
X229577Y118553D01*
Y120866D01*
X214173Y114764D02*
X219817Y120407D01*
X409449Y305906D02*
X418504Y314961D01*
X421654D01*
X398819Y305906D02*
X409449D01*
X427756Y293110D02*
X428346Y292520D01*
X435827D01*
D11*
X172835Y242717D02*
X174965Y240586D01*
Y239798D02*
X176969Y237795D01*
X160630Y242717D02*
X172835D01*
X157283Y219488D02*
Y239370D01*
X160630Y242717D01*
X157283Y219488D02*
X178740Y198031D01*
X176969Y237795D02*
X188386D01*
X208465Y217717D01*
X208465D02*
X271654D01*
X253543Y172835D02*
Y195669D01*
X242913Y206299D02*
X253543Y195669D01*
X227756Y213189D02*
X234646Y206299D01*
X242913D01*
X212992Y213189D02*
X227756D01*
X208465Y217717D02*
X212992Y213189D01*
X253543Y172835D02*
X284055D01*
D14*
X195866Y123031D02*
Y136811D01*
X227953Y133268D02*
X252362D01*
X273031Y153937D01*
X284646D01*
D67*
X418504Y167126D02*
D03*
X401299Y325590D02*
D03*
X391299D02*
D03*
X381299D02*
D03*
D73*
X386221Y134252D02*
Y151157D01*
X374410Y122441D02*
X386221Y134252D01*
X195866Y123031D02*
X209055Y109843D01*
X238189D01*
X250787Y122441D01*
X374410D01*
D121*
X121299Y107598D02*
D03*
X111299Y137598D02*
D03*
X131299D02*
D03*
Y309882D02*
D03*
X111299D02*
D03*
X121299Y339882D02*
D03*
D122*
X408504Y167126D02*
D03*
X371299Y325590D02*
D03*
D123*
X386221Y151157D02*
D03*
D124*
X396063D02*
D03*
X403937D02*
D03*
X413779D02*
D03*
D125*
X374134Y140488D02*
D03*
X425866D02*
D03*
D126*
X187402Y187205D02*
D03*
Y175394D02*
D03*
D127*
X336614Y136614D02*
D03*
D128*
X326772D02*
D03*
D129*
X269202Y106102D02*
D03*
X296761D02*
D03*
D130*
X273139Y116732D02*
D03*
X292824D02*
D03*
D131*
X456693Y283465D02*
D03*
X460630Y275591D02*
D03*
Y244095D02*
D03*
X456693Y236221D02*
D03*
X460630Y228347D02*
D03*
X456693Y220473D02*
D03*
X460630Y212598D02*
D03*
X456693Y204725D02*
D03*
X460630Y196851D02*
D03*
Y165354D02*
D03*
X456693Y157480D02*
D03*
X448819Y283465D02*
D03*
X452756Y275591D02*
D03*
Y244095D02*
D03*
X448819Y236221D02*
D03*
X452756Y228347D02*
D03*
X448819Y220473D02*
D03*
X452756Y212598D02*
D03*
X448819Y204725D02*
D03*
X452756Y196851D02*
D03*
Y165354D02*
D03*
X448819Y157480D02*
D03*
X444882Y275591D02*
D03*
X440945Y267717D02*
D03*
X444882Y244095D02*
D03*
Y228347D02*
D03*
X440945Y220473D02*
D03*
X444882Y212598D02*
D03*
Y196851D02*
D03*
X440945Y173228D02*
D03*
X444882Y165354D02*
D03*
X440945Y157480D02*
D03*
X437008Y275591D02*
D03*
X433071Y267717D02*
D03*
X437008Y259843D02*
D03*
Y244095D02*
D03*
Y196851D02*
D03*
Y181103D02*
D03*
X433071Y173228D02*
D03*
X437008Y165354D02*
D03*
X433071Y157480D02*
D03*
X429134Y275591D02*
D03*
X425197Y267717D02*
D03*
X429134Y244095D02*
D03*
X425197Y173228D02*
D03*
X429134Y165354D02*
D03*
X425197Y157480D02*
D03*
X255906Y338583D02*
D03*
X251969Y330709D02*
D03*
X248032Y338583D02*
D03*
X244095Y330709D02*
D03*
X240158Y338583D02*
D03*
X236221Y330709D02*
D03*
X240158Y322835D02*
D03*
X236221Y314961D02*
D03*
Y299213D02*
D03*
X232284Y338583D02*
D03*
X228347Y330709D02*
D03*
X232284Y322835D02*
D03*
X228347Y314961D02*
D03*
X224410Y338583D02*
D03*
X220473Y330709D02*
D03*
X224410Y322835D02*
D03*
X220473Y314961D02*
D03*
X224410Y307087D02*
D03*
X220473Y299213D02*
D03*
X216536Y338583D02*
D03*
X212598Y330709D02*
D03*
X216536Y322835D02*
D03*
X212598Y314961D02*
D03*
X216536Y307087D02*
D03*
X212598Y299213D02*
D03*
X208662Y338583D02*
D03*
X204725Y330709D02*
D03*
X208662Y322835D02*
D03*
X204725Y314961D02*
D03*
X208662Y307087D02*
D03*
X204725Y299213D02*
D03*
X200787Y338583D02*
D03*
Y322835D02*
D03*
X196851Y314961D02*
D03*
X192913Y322835D02*
D03*
X188977Y314961D02*
D03*
X181103Y299213D02*
D03*
X177165Y322835D02*
D03*
X173228Y314961D02*
D03*
X177165Y307087D02*
D03*
X173228Y299213D02*
D03*
X169291Y338583D02*
D03*
X165354Y330709D02*
D03*
X161417Y338583D02*
D03*
X153543D02*
D03*
X149606Y330709D02*
D03*
X153543Y307087D02*
D03*
X145669Y338583D02*
D03*
X141732Y330709D02*
D03*
X145669Y322835D02*
D03*
Y307087D02*
D03*
X141732Y299213D02*
D03*
X428937Y297047D02*
D03*
X419685Y290354D02*
D03*
X436417Y296457D02*
D03*
X404331Y303346D02*
D03*
X211811Y187992D02*
D03*
X158071Y192323D02*
D03*
X176969Y237795D02*
D03*
X178740Y198031D02*
D03*
X237598Y228543D02*
D03*
X252756Y203150D02*
D03*
X242520Y209449D02*
D03*
X183661Y157874D02*
D03*
X197441Y157677D02*
D03*
X242126Y308465D02*
D03*
X241732Y286811D02*
D03*
X297441Y282677D02*
D03*
X426772Y320669D02*
D03*
X436417Y309055D02*
D03*
X400591Y265158D02*
D03*
X382087Y167323D02*
D03*
X238976Y124409D02*
D03*
X200591Y220669D02*
D03*
X183858Y241732D02*
D03*
X218701Y164764D02*
D03*
X245472Y139567D02*
D03*
X257283Y164764D02*
D03*
X301575Y198228D02*
D03*
Y221457D02*
D03*
X278937Y220276D02*
D03*
X221457Y249213D02*
D03*
X301378Y289961D02*
D03*
X399213Y285827D02*
D03*
X394291Y297638D02*
D03*
X350787Y265551D02*
D03*
X304331Y254134D02*
D03*
X300590Y257283D02*
D03*
X297441Y260630D02*
D03*
X294882Y263779D02*
D03*
X286417Y244094D02*
D03*
X290551Y251181D02*
D03*
X297835Y233268D02*
D03*
X321063Y250394D02*
D03*
X305906Y184252D02*
D03*
Y180905D02*
D03*
X258465Y228740D02*
D03*
X249410Y228937D02*
D03*
X253937Y228740D02*
D03*
X259842Y255315D02*
D03*
X245079Y228937D02*
D03*
X267323Y259646D02*
D03*
X262598Y259842D02*
D03*
X253543Y259646D02*
D03*
X352756Y296850D02*
D03*
X250984Y254528D02*
D03*
X152362Y243504D02*
D03*
X236024Y186811D02*
D03*
X162008Y238583D02*
D03*
X229528Y222047D02*
D03*
X226181Y252953D02*
D03*
X236221Y221063D02*
D03*
X237598Y225197D02*
D03*
X284842Y199606D02*
D03*
X293996Y204035D02*
D03*
X307087Y230906D02*
D03*
X284055Y172835D02*
D03*
X253543D02*
D03*
X250590Y205906D02*
D03*
X301378Y230709D02*
D03*
X246063Y209449D02*
D03*
X290158Y232874D02*
D03*
X208465Y217717D02*
D03*
X195866Y136811D02*
D03*
X249409Y143504D02*
D03*
X183465Y138189D02*
D03*
X240551Y173228D02*
D03*
X224016Y166142D02*
D03*
X215354Y136614D02*
D03*
X210630D02*
D03*
X227953Y133268D02*
D03*
X284646Y153937D02*
D03*
X249409Y149803D02*
D03*
X244685Y162205D02*
D03*
X213386Y125787D02*
D03*
X210630Y122441D02*
D03*
X230118Y125000D02*
D03*
X229577Y120866D02*
D03*
X214173Y114764D02*
D03*
X224803Y113779D02*
D03*
X398819Y305906D02*
D03*
X427756Y293110D02*
D03*
X435827Y292520D02*
D03*
X421654Y314961D02*
D03*
D132*
X220866Y126047D02*
D03*
Y122772D02*
D03*
X236614Y161221D02*
D03*
X232677D02*
D03*
Y167126D02*
D03*
X236614D02*
D03*
X234646Y164173D02*
D03*
M02*
