G04*
G04 #@! TF.GenerationSoftware,Altium Limited,Altium Designer,20.0.13 (296)*
G04*
G04 Layer_Physical_Order=2*
G04 Layer_Color=16711680*
%FSLAX25Y25*%
%MOIN*%
G70*
G01*
G75*
%ADD10C,0.00984*%
%ADD11C,0.01968*%
%ADD12C,0.01575*%
%ADD14C,0.02362*%
%ADD71C,0.02953*%
%ADD72C,0.05906*%
%ADD119R,0.05906X0.05906*%
%ADD120R,0.05906X0.05906*%
G04:AMPARAMS|DCode=121|XSize=78.74mil|YSize=118.11mil|CornerRadius=19.68mil|HoleSize=0mil|Usage=FLASHONLY|Rotation=90.000|XOffset=0mil|YOffset=0mil|HoleType=Round|Shape=RoundedRectangle|*
%AMROUNDEDRECTD121*
21,1,0.07874,0.07874,0,0,90.0*
21,1,0.03937,0.11811,0,0,90.0*
1,1,0.03937,0.03937,0.01968*
1,1,0.03937,0.03937,-0.01968*
1,1,0.03937,-0.03937,-0.01968*
1,1,0.03937,-0.03937,0.01968*
%
%ADD121ROUNDEDRECTD121*%
%ADD122R,0.05709X0.05709*%
%ADD123C,0.05709*%
%ADD124C,0.11024*%
%ADD125C,0.04724*%
%ADD126C,0.05512*%
%ADD127R,0.05512X0.05512*%
%ADD128O,0.03543X0.06102*%
%ADD129O,0.04921X0.03740*%
%ADD130C,0.02362*%
%ADD131C,0.05000*%
G36*
X470276Y97835D02*
X96850D01*
Y349803D01*
X470276D01*
Y97835D01*
D02*
G37*
%LPC*%
G36*
X468504Y347609D02*
X100394D01*
X99953Y347521D01*
X99579Y347271D01*
X99329Y346898D01*
X99242Y346457D01*
Y100394D01*
X99329Y99953D01*
X99579Y99579D01*
X99953Y99329D01*
X100394Y99242D01*
X468504D01*
X468945Y99329D01*
X469319Y99579D01*
X469568Y99953D01*
X469656Y100394D01*
Y346457D01*
X469568Y346898D01*
X469319Y347271D01*
X468945Y347521D01*
X468504Y347609D01*
D02*
G37*
%LPD*%
G36*
X467352Y101546D02*
X252868D01*
X252788Y101658D01*
X252679Y102046D01*
X270356Y119722D01*
X271515D01*
X271615Y119222D01*
X271208Y119054D01*
X270653Y118628D01*
X270227Y118072D01*
X269959Y117426D01*
X269920Y117126D01*
X273139D01*
X276358D01*
X276318Y117426D01*
X276051Y118072D01*
X275625Y118628D01*
X275069Y119054D01*
X274663Y119222D01*
X274762Y119722D01*
X291200D01*
X291300Y119222D01*
X290893Y119054D01*
X290338Y118628D01*
X289912Y118072D01*
X289644Y117426D01*
X289605Y117126D01*
X292824D01*
X296043D01*
X296003Y117426D01*
X295736Y118072D01*
X295310Y118628D01*
X294755Y119054D01*
X294348Y119222D01*
X294447Y119722D01*
X430038D01*
X442597Y107164D01*
X442968Y106915D01*
X443405Y106828D01*
X451410D01*
X451595Y106382D01*
X452169Y105634D01*
X452918Y105060D01*
X453789Y104699D01*
X454724Y104575D01*
X455660Y104699D01*
X456531Y105060D01*
X457280Y105634D01*
X457854Y106382D01*
X458215Y107254D01*
X458338Y108189D01*
X458215Y109124D01*
X457854Y109996D01*
X457280Y110744D01*
X456531Y111318D01*
X455660Y111679D01*
X454724Y111803D01*
X453789Y111679D01*
X452918Y111318D01*
X452169Y110744D01*
X451595Y109996D01*
X451234Y109124D01*
X451233Y109116D01*
X443879D01*
X431321Y121675D01*
X430950Y121923D01*
X430512Y122010D01*
X269882D01*
X269444Y121923D01*
X269073Y121675D01*
X251298Y103900D01*
X248045D01*
X247996Y104400D01*
X248272Y104455D01*
X248644Y104703D01*
X267206Y123265D01*
X437912D01*
X443797Y117380D01*
X444169Y117132D01*
X444606Y117045D01*
X451320D01*
X451595Y116382D01*
X452169Y115634D01*
X452918Y115059D01*
X453789Y114699D01*
X454724Y114575D01*
X455660Y114699D01*
X456531Y115059D01*
X457280Y115634D01*
X457854Y116382D01*
X458215Y117254D01*
X458338Y118189D01*
X458215Y119124D01*
X457854Y119996D01*
X457280Y120744D01*
X456531Y121318D01*
X455660Y121679D01*
X454724Y121803D01*
X453789Y121679D01*
X452918Y121318D01*
X452169Y120744D01*
X451595Y119996D01*
X451320Y119333D01*
X445080D01*
X439195Y125218D01*
X438824Y125466D01*
X438386Y125554D01*
X266732D01*
X266295Y125466D01*
X265923Y125218D01*
X247361Y106656D01*
X242133D01*
X242009Y106936D01*
X241994Y107156D01*
X242587Y107610D01*
X243088Y108264D01*
X243404Y109026D01*
X243511Y109843D01*
X243404Y110660D01*
X243088Y111421D01*
X242587Y112075D01*
X241933Y112576D01*
X241171Y112892D01*
X240354Y112999D01*
X239537Y112892D01*
X238776Y112576D01*
X238122Y112075D01*
X237906Y111793D01*
X225990D01*
X225838Y112293D01*
X226109Y112474D01*
X226509Y113073D01*
X226650Y113779D01*
X226612Y113970D01*
X230386Y117744D01*
X230634Y118115D01*
X230721Y118553D01*
Y119453D01*
X230882Y119561D01*
X231283Y120159D01*
X231423Y120866D01*
X231283Y121573D01*
X230882Y122172D01*
X230470Y122448D01*
X230302Y122980D01*
X230307Y123077D01*
X230402Y123210D01*
X230825Y123294D01*
X231424Y123694D01*
X231824Y124293D01*
X231965Y125000D01*
X231824Y125707D01*
X231424Y126306D01*
X230825Y126706D01*
X230118Y126847D01*
X229412Y126706D01*
X228812Y126306D01*
X228412Y125707D01*
X228272Y125000D01*
X228309Y124809D01*
X225052Y121551D01*
X219817D01*
X219379Y121464D01*
X219008Y121216D01*
X214364Y116572D01*
X214173Y116610D01*
X213467Y116470D01*
X212867Y116069D01*
X212467Y115470D01*
X212327Y114764D01*
X212467Y114057D01*
X212867Y113458D01*
X213467Y113058D01*
X214173Y112917D01*
X214880Y113058D01*
X215479Y113458D01*
X215879Y114057D01*
X216020Y114764D01*
X215982Y114954D01*
X220291Y119263D01*
X225525D01*
X225963Y119351D01*
X226335Y119598D01*
X227284Y120548D01*
X227826Y120383D01*
X227871Y120159D01*
X228271Y119561D01*
X228364Y119499D01*
X228395Y118989D01*
X224994Y115588D01*
X224803Y115626D01*
X224096Y115486D01*
X223498Y115085D01*
X223097Y114486D01*
X222957Y113779D01*
X223097Y113073D01*
X223498Y112474D01*
X223768Y112293D01*
X223616Y111793D01*
X210141D01*
X197713Y124222D01*
Y136811D01*
X197572Y137518D01*
X197172Y138117D01*
X196573Y138517D01*
X195866Y138657D01*
X195159Y138517D01*
X194561Y138117D01*
X194160Y137518D01*
X194020Y136811D01*
Y124059D01*
X193882Y123853D01*
X193719Y123031D01*
X193882Y122210D01*
X194348Y121513D01*
X207733Y108127D01*
X208430Y107662D01*
X209252Y107498D01*
X238268D01*
X238714Y107156D01*
X238699Y106936D01*
X238575Y106656D01*
X196340D01*
X176735Y126261D01*
Y137321D01*
X207757Y168344D01*
X221850D01*
X222288Y168431D01*
X222659Y168679D01*
X236833Y182852D01*
X237081Y183224D01*
X237168Y183661D01*
Y185397D01*
X237329Y185505D01*
X237730Y186104D01*
X237870Y186811D01*
X237730Y187518D01*
X237329Y188117D01*
X236730Y188517D01*
X236024Y188657D01*
X235317Y188517D01*
X234718Y188117D01*
X234610Y187955D01*
X221143D01*
X169707Y239392D01*
X169335Y239640D01*
X168898Y239727D01*
X163422D01*
X163313Y239888D01*
X162715Y240289D01*
X162008Y240429D01*
X161301Y240289D01*
X161106Y240159D01*
X160788Y240547D01*
X161312Y241071D01*
X172153D01*
X173337Y239887D01*
X173319Y239798D01*
X173445Y239169D01*
X173802Y238635D01*
X175241Y237195D01*
X175263Y237089D01*
X175663Y236490D01*
X176262Y236089D01*
X176969Y235949D01*
X177675Y236089D01*
X177765Y236150D01*
X187704D01*
X206737Y217116D01*
X206759Y217010D01*
X206819Y216920D01*
Y209449D01*
X206944Y208819D01*
X207301Y208285D01*
X210450Y205135D01*
X210984Y204779D01*
X211614Y204653D01*
X242232D01*
X249033Y197852D01*
X249567Y197495D01*
X250197Y197370D01*
X275696D01*
X279348Y193718D01*
X279882Y193361D01*
X280512Y193236D01*
X290066D01*
X292252Y191051D01*
Y187690D01*
X282891Y178329D01*
X282535Y177795D01*
X282409Y177165D01*
Y174480D01*
X254340D01*
X254250Y174541D01*
X253543Y174681D01*
X252837Y174541D01*
X252238Y174140D01*
X251837Y173541D01*
X251697Y172835D01*
X251837Y172128D01*
X252238Y171529D01*
X252837Y171129D01*
X253543Y170988D01*
X254250Y171129D01*
X254340Y171189D01*
X282911D01*
Y164370D01*
X282998Y163932D01*
X283246Y163561D01*
X297223Y149585D01*
X297594Y149337D01*
X298031Y149250D01*
X356693D01*
X357131Y149337D01*
X357502Y149585D01*
X371143Y163226D01*
X384771D01*
X385317Y162861D01*
X386024Y162720D01*
X386730Y162861D01*
X387329Y163261D01*
X387730Y163860D01*
X387870Y164567D01*
X387730Y165274D01*
X387329Y165873D01*
X386730Y166273D01*
X386024Y166413D01*
X385317Y166273D01*
X384718Y165873D01*
X384478Y165514D01*
X370669D01*
X370232Y165427D01*
X369860Y165179D01*
X356219Y151538D01*
X298505D01*
X285199Y164844D01*
Y171421D01*
X285361Y171529D01*
X285761Y172128D01*
X285902Y172835D01*
X285761Y173541D01*
X285701Y173631D01*
Y176484D01*
X295061Y185844D01*
X295318Y186228D01*
X295796Y186284D01*
X295895Y186259D01*
X296135Y185899D01*
X296297Y185791D01*
Y175197D01*
X296384Y174759D01*
X296632Y174388D01*
X316908Y154112D01*
X317279Y153864D01*
X317717Y153777D01*
X351772D01*
X352209Y153864D01*
X352581Y154112D01*
X356699Y158231D01*
X356890Y158193D01*
X357596Y158333D01*
X358195Y158734D01*
X358596Y159333D01*
X358736Y160039D01*
X358596Y160746D01*
X358195Y161345D01*
X357596Y161745D01*
X356890Y161886D01*
X356183Y161745D01*
X355584Y161345D01*
X355184Y160746D01*
X355043Y160039D01*
X355081Y159849D01*
X351298Y156065D01*
X318190D01*
X298585Y175671D01*
Y185791D01*
X298747Y185899D01*
X299147Y186498D01*
X299287Y187205D01*
X299147Y187911D01*
X298747Y188510D01*
X298148Y188911D01*
X297441Y189051D01*
X296734Y188911D01*
X296135Y188510D01*
X296043Y188373D01*
X295543Y188525D01*
Y191732D01*
X295418Y192362D01*
X295061Y192896D01*
X291912Y196046D01*
X291378Y196402D01*
X290748Y196528D01*
X281193D01*
X277542Y200180D01*
X277008Y200536D01*
X276378Y200661D01*
X250879D01*
X244077Y207463D01*
X243543Y207820D01*
X242913Y207945D01*
X212296D01*
X210110Y210131D01*
Y216268D01*
X271850D01*
X272480Y216393D01*
X273014Y216750D01*
X273371Y217284D01*
X273397Y217417D01*
X287262Y231281D01*
X289799D01*
X290189Y231020D01*
X290896Y230880D01*
X291602Y231020D01*
X292201Y231421D01*
X292602Y232020D01*
X292742Y232726D01*
X292602Y233433D01*
X292201Y234032D01*
X291602Y234432D01*
X290896Y234573D01*
X290189Y234432D01*
X289799Y234172D01*
X286663D01*
X286110Y234062D01*
X285642Y233748D01*
X271452Y219559D01*
X237995D01*
X237728Y220059D01*
X237926Y220356D01*
X238067Y221063D01*
X237926Y221770D01*
X237526Y222369D01*
X236927Y222769D01*
X236221Y222909D01*
X235851Y222836D01*
X235199Y223487D01*
Y227559D01*
X235112Y227997D01*
X234864Y228368D01*
X227325Y235907D01*
Y251539D01*
X227487Y251647D01*
X227887Y252246D01*
X228028Y252953D01*
X227887Y253659D01*
X227487Y254258D01*
X226888Y254659D01*
X226181Y254799D01*
X225475Y254659D01*
X224875Y254258D01*
X224475Y253659D01*
X224335Y252953D01*
X224475Y252246D01*
X224875Y251647D01*
X225037Y251539D01*
Y235433D01*
X225124Y234995D01*
X225372Y234624D01*
X232911Y227085D01*
Y222835D01*
X232998Y222397D01*
X233246Y222026D01*
X233617Y221778D01*
X233687Y221764D01*
X234376Y221074D01*
X234374Y221063D01*
X234514Y220356D01*
X234713Y220059D01*
X234446Y219559D01*
X208949D01*
X189550Y238959D01*
X189016Y239316D01*
X188386Y239441D01*
X177765D01*
X177675Y239501D01*
X177569Y239522D01*
X176594Y240498D01*
X176611Y240586D01*
X176486Y241216D01*
X176129Y241750D01*
X173998Y243880D01*
X173465Y244237D01*
X172835Y244362D01*
X160630D01*
X160000Y244237D01*
X159466Y243880D01*
X156120Y240534D01*
X155763Y240000D01*
X155638Y239370D01*
Y219488D01*
X155763Y218858D01*
X156120Y218324D01*
X177013Y197431D01*
X177034Y197325D01*
X177435Y196726D01*
X178033Y196326D01*
X178740Y196185D01*
X179447Y196326D01*
X180046Y196726D01*
X180446Y197325D01*
X180587Y198031D01*
X180446Y198738D01*
X180046Y199337D01*
X179447Y199737D01*
X179341Y199759D01*
X158929Y220170D01*
Y238688D01*
X160044Y239803D01*
X160432Y239484D01*
X160302Y239289D01*
X160161Y238583D01*
X160302Y237876D01*
X160702Y237277D01*
X161301Y236877D01*
X162008Y236736D01*
X162715Y236877D01*
X163313Y237277D01*
X163422Y237439D01*
X168424D01*
X219860Y186002D01*
X220232Y185754D01*
X220669Y185667D01*
X234610D01*
X234718Y185505D01*
X234880Y185397D01*
Y184135D01*
X221376Y170632D01*
X207283D01*
X206846Y170545D01*
X206474Y170297D01*
X174782Y138604D01*
X174534Y138233D01*
X174446Y137795D01*
Y125787D01*
X174534Y125350D01*
X174782Y124978D01*
X195057Y104703D01*
X195428Y104455D01*
X195704Y104400D01*
X195655Y103900D01*
X186891D01*
X170829Y119962D01*
Y138109D01*
X212620Y179900D01*
X212868Y180271D01*
X212955Y180709D01*
Y186578D01*
X213117Y186687D01*
X213517Y187285D01*
X213657Y187992D01*
X213517Y188699D01*
X213117Y189298D01*
X212518Y189698D01*
X211811Y189839D01*
X211620Y189801D01*
X208289Y193132D01*
X207918Y193380D01*
X207480Y193467D01*
X159485D01*
X159377Y193629D01*
X158777Y194029D01*
X158071Y194169D01*
X157364Y194029D01*
X156765Y193629D01*
X156365Y193029D01*
X156224Y192323D01*
X156365Y191616D01*
X156765Y191017D01*
X157364Y190617D01*
X158071Y190476D01*
X158777Y190617D01*
X159377Y191017D01*
X159485Y191179D01*
X207007D01*
X210002Y188183D01*
X209964Y187992D01*
X210105Y187285D01*
X210505Y186687D01*
X210667Y186578D01*
Y181183D01*
X168876Y139392D01*
X168628Y139021D01*
X168541Y138583D01*
Y119488D01*
X168628Y119050D01*
X168876Y118679D01*
X185510Y102046D01*
X185401Y101658D01*
X185321Y101546D01*
X101546D01*
Y345305D01*
X467352D01*
Y101546D01*
D02*
G37*
%LPC*%
G36*
X125236Y344630D02*
X121693D01*
Y340276D01*
X128016D01*
Y341850D01*
X127921Y342570D01*
X127644Y343240D01*
X127202Y343816D01*
X126626Y344258D01*
X125956Y344535D01*
X125236Y344630D01*
D02*
G37*
G36*
X120905D02*
X117362D01*
X116643Y344535D01*
X115972Y344258D01*
X115397Y343816D01*
X114955Y343240D01*
X114677Y342570D01*
X114583Y341850D01*
Y340276D01*
X120905D01*
Y344630D01*
D02*
G37*
G36*
X128016Y339488D02*
X121693D01*
Y335134D01*
X125236D01*
X125956Y335228D01*
X126626Y335506D01*
X127202Y335948D01*
X127644Y336524D01*
X127921Y337194D01*
X128016Y337913D01*
Y339488D01*
D02*
G37*
G36*
X120905D02*
X114583D01*
Y337913D01*
X114677Y337194D01*
X114955Y336524D01*
X115397Y335948D01*
X115972Y335506D01*
X116643Y335228D01*
X117362Y335134D01*
X120905D01*
Y339488D01*
D02*
G37*
G36*
X373937Y334488D02*
X366772D01*
Y332049D01*
X319882D01*
X319444Y331962D01*
X319073Y331714D01*
X248797Y261439D01*
X248549Y261068D01*
X248462Y260630D01*
Y255789D01*
X247632Y254958D01*
X247441Y254996D01*
X246734Y254855D01*
X246135Y254455D01*
X246027Y254294D01*
X240041D01*
X236636Y257699D01*
X236265Y257947D01*
X235827Y258034D01*
X218504D01*
X218066Y257947D01*
X217695Y257699D01*
X208384Y248388D01*
X156102D01*
X155665Y248301D01*
X155293Y248053D01*
X152553Y245312D01*
X152362Y245350D01*
X151656Y245210D01*
X151057Y244810D01*
X150656Y244211D01*
X150516Y243504D01*
X150656Y242797D01*
X151057Y242198D01*
X151656Y241798D01*
X152362Y241657D01*
X153069Y241798D01*
X153668Y242198D01*
X154068Y242797D01*
X154209Y243504D01*
X154171Y243695D01*
X156576Y246100D01*
X208858D01*
X209296Y246187D01*
X209667Y246435D01*
X218978Y255746D01*
X235353D01*
X238758Y252341D01*
X239129Y252093D01*
X239567Y252006D01*
X246027D01*
X246135Y251844D01*
X246734Y251444D01*
X247441Y251303D01*
X248148Y251444D01*
X248747Y251844D01*
X249147Y252443D01*
X249287Y253150D01*
X249250Y253340D01*
X250415Y254506D01*
X250663Y254877D01*
X250750Y255315D01*
Y260156D01*
X251819Y261225D01*
X252207Y260906D01*
X251837Y260352D01*
X251697Y259646D01*
X251837Y258939D01*
X252238Y258340D01*
X252399Y258232D01*
Y243387D01*
X244467Y235455D01*
X244219Y235084D01*
X244132Y234646D01*
Y230482D01*
X243773Y230243D01*
X243373Y229644D01*
X243232Y228937D01*
X243373Y228230D01*
X243773Y227631D01*
X244372Y227231D01*
X245079Y227091D01*
X245785Y227231D01*
X246384Y227631D01*
X246785Y228230D01*
X246925Y228937D01*
X246785Y229644D01*
X246420Y230190D01*
Y234172D01*
X254352Y242104D01*
X254600Y242476D01*
X254687Y242913D01*
Y258232D01*
X254849Y258340D01*
X255249Y258939D01*
X255390Y259646D01*
X255249Y260352D01*
X254849Y260951D01*
X254250Y261352D01*
X253543Y261492D01*
X252837Y261352D01*
X252283Y260982D01*
X251964Y261370D01*
X320356Y329762D01*
X366772D01*
Y327323D01*
X373937D01*
Y334488D01*
D02*
G37*
G36*
X135236Y314630D02*
X131693D01*
Y310276D01*
X138016D01*
Y311850D01*
X137921Y312570D01*
X137644Y313240D01*
X137202Y313816D01*
X136626Y314258D01*
X135956Y314535D01*
X135236Y314630D01*
D02*
G37*
G36*
X115236D02*
X111693D01*
Y310276D01*
X118016D01*
Y311850D01*
X117921Y312570D01*
X117643Y313240D01*
X117202Y313816D01*
X116626Y314258D01*
X115956Y314535D01*
X115236Y314630D01*
D02*
G37*
G36*
X130905D02*
X127362D01*
X126643Y314535D01*
X125972Y314258D01*
X125397Y313816D01*
X124955Y313240D01*
X124677Y312570D01*
X124583Y311850D01*
Y310276D01*
X130905D01*
Y314630D01*
D02*
G37*
G36*
X110906D02*
X107362D01*
X106643Y314535D01*
X105972Y314258D01*
X105397Y313816D01*
X104955Y313240D01*
X104677Y312570D01*
X104583Y311850D01*
Y310276D01*
X110906D01*
Y314630D01*
D02*
G37*
G36*
X414764Y318382D02*
X414057Y318241D01*
X413458Y317841D01*
X413058Y317242D01*
X412917Y316535D01*
X413058Y315829D01*
X413126Y315728D01*
X405038Y307640D01*
X396296D01*
X396188Y307802D01*
X395588Y308202D01*
X394882Y308343D01*
X394175Y308202D01*
X393576Y307802D01*
X393176Y307203D01*
X393035Y306496D01*
X393176Y305789D01*
X393576Y305190D01*
X394175Y304790D01*
X394882Y304650D01*
X395588Y304790D01*
X396188Y305190D01*
X396296Y305352D01*
X403173D01*
X403324Y304852D01*
X403025Y304652D01*
X402625Y304053D01*
X402484Y303346D01*
X402625Y302640D01*
X403025Y302041D01*
X403187Y301933D01*
Y299606D01*
X403274Y299168D01*
X403522Y298797D01*
X415727Y286593D01*
X416098Y286345D01*
X416535Y286258D01*
X421850D01*
X422288Y286345D01*
X422659Y286593D01*
X425809Y289742D01*
X426057Y290113D01*
X426144Y290551D01*
Y291431D01*
X426644Y291675D01*
X427049Y291404D01*
X427756Y291264D01*
X428333Y291378D01*
X428346Y291376D01*
X434413D01*
X434521Y291214D01*
X435120Y290814D01*
X435827Y290673D01*
X436533Y290814D01*
X437132Y291214D01*
X437533Y291813D01*
X437673Y292520D01*
X437533Y293226D01*
X437132Y293825D01*
X436533Y294226D01*
X435827Y294366D01*
X435120Y294226D01*
X434521Y293825D01*
X434413Y293664D01*
X429492D01*
X429462Y293817D01*
X429062Y294416D01*
X429057Y294419D01*
X429209Y294919D01*
X431263D01*
X431371Y294757D01*
X431971Y294357D01*
X432677Y294216D01*
X433384Y294357D01*
X433983Y294757D01*
X434383Y295356D01*
X434524Y296063D01*
X434383Y296770D01*
X433983Y297369D01*
X433384Y297769D01*
X432677Y297909D01*
X431971Y297769D01*
X431371Y297369D01*
X431263Y297207D01*
X426378D01*
X425940Y297120D01*
X425569Y296872D01*
X424479Y295782D01*
X423979Y295989D01*
Y313695D01*
X423892Y314133D01*
X423644Y314504D01*
X420803Y317344D01*
X420432Y317592D01*
X419994Y317679D01*
X416178D01*
X416069Y317841D01*
X415470Y318241D01*
X414764Y318382D01*
D02*
G37*
G36*
X138016Y309488D02*
X131693D01*
Y305134D01*
X135236D01*
X135956Y305228D01*
X136626Y305506D01*
X137202Y305948D01*
X137644Y306523D01*
X137921Y307194D01*
X138016Y307913D01*
Y309488D01*
D02*
G37*
G36*
X130905D02*
X124583D01*
Y307913D01*
X124677Y307194D01*
X124955Y306523D01*
X125397Y305948D01*
X125972Y305506D01*
X126643Y305228D01*
X127362Y305134D01*
X130905D01*
Y309488D01*
D02*
G37*
G36*
X118016D02*
X111693D01*
Y305134D01*
X115236D01*
X115956Y305228D01*
X116626Y305506D01*
X117202Y305948D01*
X117643Y306523D01*
X117921Y307194D01*
X118016Y307913D01*
Y309488D01*
D02*
G37*
G36*
X110906D02*
X104583D01*
Y307913D01*
X104677Y307194D01*
X104955Y306523D01*
X105397Y305948D01*
X105972Y305506D01*
X106643Y305228D01*
X107362Y305134D01*
X110906D01*
Y309488D01*
D02*
G37*
G36*
X352756Y298697D02*
X352049Y298556D01*
X351450Y298156D01*
X351050Y297557D01*
X350909Y296850D01*
X350947Y296660D01*
X345392Y291105D01*
X302792D01*
X302684Y291266D01*
X302085Y291667D01*
X301378Y291807D01*
X300671Y291667D01*
X300072Y291266D01*
X299672Y290667D01*
X299531Y289961D01*
X299672Y289254D01*
X300072Y288655D01*
X300671Y288255D01*
X301378Y288114D01*
X302085Y288255D01*
X302684Y288655D01*
X302792Y288817D01*
X345866D01*
X346304Y288904D01*
X346675Y289152D01*
X352565Y295042D01*
X352756Y295004D01*
X353463Y295145D01*
X354062Y295545D01*
X354462Y296144D01*
X354602Y296850D01*
X354462Y297557D01*
X354062Y298156D01*
X353463Y298556D01*
X352756Y298697D01*
D02*
G37*
G36*
X350787Y267398D02*
X350081Y267257D01*
X349482Y266857D01*
X349081Y266258D01*
X348941Y265551D01*
X348979Y265360D01*
X331810Y248191D01*
X321836D01*
X321770Y248688D01*
X322369Y249088D01*
X322769Y249687D01*
X322909Y250394D01*
X322769Y251100D01*
X322369Y251699D01*
X321770Y252100D01*
X321063Y252240D01*
X320356Y252100D01*
X319757Y251699D01*
X319518Y251341D01*
X299490D01*
X298053Y252777D01*
X297682Y253025D01*
X297244Y253113D01*
X273461D01*
X273353Y253274D01*
X272754Y253674D01*
X272047Y253815D01*
X271341Y253674D01*
X270742Y253274D01*
X270341Y252675D01*
X270201Y251969D01*
X270341Y251262D01*
X270742Y250663D01*
X271341Y250263D01*
X272047Y250122D01*
X272754Y250263D01*
X273353Y250663D01*
X273461Y250824D01*
X296770D01*
X298207Y249388D01*
X298578Y249140D01*
X299016Y249053D01*
X319810D01*
X320356Y248688D01*
X320289Y248191D01*
X283465D01*
X283027Y248104D01*
X282656Y247856D01*
X276536Y241737D01*
X276181Y241807D01*
X275475Y241667D01*
X274875Y241266D01*
X274475Y240667D01*
X274335Y239961D01*
X274405Y239606D01*
X261140Y226341D01*
X239012D01*
X238904Y226502D01*
X238305Y226903D01*
X237598Y227043D01*
X236892Y226903D01*
X236293Y226502D01*
X235893Y225904D01*
X235752Y225197D01*
X235893Y224490D01*
X236293Y223891D01*
X236892Y223491D01*
X237598Y223350D01*
X238305Y223491D01*
X238904Y223891D01*
X239012Y224053D01*
X261614D01*
X262052Y224140D01*
X262423Y224388D01*
X275964Y237929D01*
X276581Y237943D01*
X278128Y236396D01*
X278499Y236148D01*
X278937Y236061D01*
X294211D01*
X296853Y233419D01*
X296704Y233068D01*
X296622Y232943D01*
X295947Y232808D01*
X295348Y232408D01*
X295142Y232099D01*
X294860Y231911D01*
X273542Y210593D01*
X247477D01*
X247369Y210754D01*
X246770Y211155D01*
X246063Y211295D01*
X245356Y211155D01*
X244757Y210754D01*
X244357Y210155D01*
X244216Y209449D01*
X244357Y208742D01*
X244757Y208143D01*
X245356Y207743D01*
X246063Y207602D01*
X246770Y207743D01*
X247369Y208143D01*
X247477Y208305D01*
X274016D01*
X274453Y208392D01*
X274825Y208640D01*
X295728Y229543D01*
X295947Y229396D01*
X296654Y229256D01*
X297360Y229396D01*
X297959Y229797D01*
X298359Y230396D01*
X298494Y231071D01*
X298620Y231153D01*
X298970Y231302D01*
X321846Y208426D01*
X321776Y208071D01*
X321916Y207364D01*
X322316Y206765D01*
X322915Y206365D01*
X323622Y206224D01*
X324329Y206365D01*
X324928Y206765D01*
X325328Y207364D01*
X325469Y208071D01*
X325328Y208777D01*
X324928Y209377D01*
X324329Y209777D01*
X323622Y209917D01*
X323596Y209912D01*
X295494Y238014D01*
X295123Y238262D01*
X294685Y238349D01*
X279411D01*
X278199Y239560D01*
X278213Y240178D01*
X283938Y245903D01*
X284965D01*
X285116Y245403D01*
X285112Y245400D01*
X284711Y244801D01*
X284571Y244094D01*
X284711Y243388D01*
X285112Y242789D01*
X285711Y242389D01*
X286417Y242248D01*
X287124Y242389D01*
X287723Y242789D01*
X287831Y242951D01*
X293424D01*
X305278Y231096D01*
X305240Y230906D01*
X305381Y230199D01*
X305781Y229600D01*
X306380Y229200D01*
X307087Y229059D01*
X307793Y229200D01*
X308392Y229600D01*
X308792Y230199D01*
X308933Y230906D01*
X308792Y231612D01*
X308392Y232211D01*
X307793Y232611D01*
X307087Y232752D01*
X306896Y232714D01*
X294707Y244903D01*
X294335Y245151D01*
X293898Y245238D01*
X288181D01*
X288060Y245403D01*
X288314Y245903D01*
X332283D01*
X332721Y245990D01*
X333092Y246238D01*
X350597Y263743D01*
X350787Y263705D01*
X351494Y263845D01*
X352093Y264246D01*
X352493Y264845D01*
X352634Y265551D01*
X352493Y266258D01*
X352093Y266857D01*
X351494Y267257D01*
X350787Y267398D01*
D02*
G37*
G36*
X390354Y334519D02*
X389419Y334396D01*
X388547Y334035D01*
X387799Y333461D01*
X387225Y332712D01*
X386864Y331841D01*
X386741Y330906D01*
X386864Y329970D01*
X387225Y329099D01*
X387799Y328350D01*
X388547Y327776D01*
X389210Y327502D01*
Y324687D01*
X387912Y323388D01*
X383858D01*
X383420Y323301D01*
X383049Y323053D01*
X372026Y312029D01*
X371778Y311658D01*
X371691Y311221D01*
Y297718D01*
X358975Y285002D01*
X320472D01*
X320035Y284915D01*
X319664Y284667D01*
X297467Y262471D01*
X297441Y262476D01*
X296734Y262336D01*
X296666Y262291D01*
X296306Y262651D01*
X296588Y263073D01*
X296728Y263779D01*
X296691Y263970D01*
X318387Y285667D01*
X357283D01*
X357721Y285754D01*
X358092Y286002D01*
X365573Y293482D01*
X365821Y293853D01*
X365908Y294291D01*
Y308975D01*
X380730Y323797D01*
X380978Y324168D01*
X381065Y324606D01*
Y327385D01*
X381290Y327415D01*
X382161Y327776D01*
X382909Y328350D01*
X383484Y329099D01*
X383845Y329970D01*
X383968Y330906D01*
X383845Y331841D01*
X383484Y332712D01*
X382909Y333461D01*
X382161Y334035D01*
X381290Y334396D01*
X380354Y334519D01*
X379419Y334396D01*
X378548Y334035D01*
X377799Y333461D01*
X377225Y332712D01*
X376864Y331841D01*
X376741Y330906D01*
X376864Y329970D01*
X377225Y329099D01*
X377799Y328350D01*
X378548Y327776D01*
X378777Y327681D01*
Y325080D01*
X363955Y310258D01*
X363707Y309887D01*
X363620Y309449D01*
Y294765D01*
X356810Y287955D01*
X317913D01*
X317476Y287868D01*
X317104Y287620D01*
X295073Y265588D01*
X294882Y265626D01*
X294175Y265486D01*
X293576Y265085D01*
X293176Y264486D01*
X293035Y263779D01*
X293176Y263073D01*
X293576Y262474D01*
X294175Y262074D01*
X294882Y261933D01*
X295588Y262074D01*
X295656Y262119D01*
X296017Y261758D01*
X295735Y261336D01*
X295594Y260630D01*
X295735Y259923D01*
X296135Y259324D01*
X296734Y258924D01*
X297441Y258783D01*
X298148Y258924D01*
X298747Y259324D01*
X299147Y259923D01*
X299287Y260630D01*
X299217Y260985D01*
X320946Y282714D01*
X359449D01*
X359887Y282801D01*
X360258Y283049D01*
X373644Y296435D01*
X373892Y296806D01*
X373979Y297244D01*
Y310747D01*
X384332Y321100D01*
X388386D01*
X388824Y321187D01*
X389195Y321435D01*
X391163Y323404D01*
X391411Y323775D01*
X391498Y324213D01*
Y327502D01*
X392161Y327776D01*
X392910Y328350D01*
X393484Y329099D01*
X393845Y329970D01*
X393968Y330906D01*
X393845Y331841D01*
X393484Y332712D01*
X392910Y333461D01*
X392161Y334035D01*
X391290Y334396D01*
X390354Y334519D01*
D02*
G37*
G36*
X400354D02*
X399419Y334396D01*
X398548Y334035D01*
X397799Y333461D01*
X397225Y332712D01*
X396864Y331841D01*
X396741Y330906D01*
X396864Y329970D01*
X397225Y329099D01*
X397799Y328350D01*
X398548Y327776D01*
X399210Y327502D01*
Y321891D01*
X396770Y319451D01*
X386811D01*
X386373Y319364D01*
X386002Y319116D01*
X376750Y309864D01*
X376502Y309493D01*
X376415Y309055D01*
Y295749D01*
X362518Y281853D01*
X324016D01*
X323578Y281766D01*
X323207Y281518D01*
X300781Y259092D01*
X300590Y259130D01*
X299884Y258989D01*
X299285Y258589D01*
X298885Y257990D01*
X298744Y257283D01*
X298885Y256577D01*
X299285Y255978D01*
X299884Y255577D01*
X300590Y255437D01*
X301297Y255577D01*
X301896Y255978D01*
X302296Y256577D01*
X302437Y257283D01*
X302399Y257474D01*
X324490Y279565D01*
X362992D01*
X363430Y279652D01*
X363801Y279900D01*
X378368Y294467D01*
X378616Y294838D01*
X378703Y295276D01*
Y308581D01*
X387285Y317163D01*
X397244D01*
X397682Y317250D01*
X398053Y317498D01*
X401163Y320608D01*
X401411Y320979D01*
X401498Y321417D01*
Y327502D01*
X402161Y327776D01*
X402910Y328350D01*
X403484Y329099D01*
X403845Y329970D01*
X403968Y330906D01*
X403845Y331841D01*
X403484Y332712D01*
X402910Y333461D01*
X402161Y334035D01*
X401290Y334396D01*
X400354Y334519D01*
D02*
G37*
G36*
X262598Y261689D02*
X261892Y261548D01*
X261293Y261148D01*
X261185Y260986D01*
X259646D01*
X259208Y260899D01*
X258837Y260651D01*
X256081Y257896D01*
X255833Y257524D01*
X255746Y257087D01*
Y242009D01*
X248601Y234864D01*
X248353Y234493D01*
X248265Y234055D01*
Y230351D01*
X248104Y230243D01*
X247704Y229644D01*
X247563Y228937D01*
X247704Y228230D01*
X248104Y227631D01*
X248703Y227231D01*
X249410Y227091D01*
X250116Y227231D01*
X250715Y227631D01*
X251115Y228230D01*
X251256Y228937D01*
X251115Y229644D01*
X250715Y230243D01*
X250553Y230351D01*
Y233581D01*
X257699Y240726D01*
X257947Y241098D01*
X258034Y241535D01*
Y253418D01*
X258534Y253672D01*
X258699Y253552D01*
Y239647D01*
X253128Y234077D01*
X252880Y233705D01*
X252793Y233268D01*
Y230154D01*
X252631Y230046D01*
X252231Y229447D01*
X252091Y228740D01*
X252231Y228033D01*
X252631Y227434D01*
X253230Y227034D01*
X253937Y226894D01*
X254644Y227034D01*
X255243Y227434D01*
X255643Y228033D01*
X255784Y228740D01*
X255643Y229447D01*
X255243Y230046D01*
X255081Y230154D01*
Y232794D01*
X260651Y238364D01*
X260899Y238735D01*
X260986Y239173D01*
Y253901D01*
X261148Y254009D01*
X261548Y254608D01*
X261689Y255315D01*
X261548Y256022D01*
X261148Y256621D01*
X260549Y257021D01*
X259842Y257161D01*
X259136Y257021D01*
X258857Y257436D01*
X260120Y258699D01*
X261185D01*
X261293Y258537D01*
X261892Y258137D01*
X262598Y257996D01*
X263305Y258137D01*
X263859Y258506D01*
X264177Y258118D01*
X262577Y256518D01*
X262329Y256147D01*
X262242Y255709D01*
Y238269D01*
X257656Y233683D01*
X257408Y233312D01*
X257321Y232874D01*
Y230154D01*
X257159Y230046D01*
X256759Y229447D01*
X256618Y228740D01*
X256759Y228033D01*
X257159Y227434D01*
X257758Y227034D01*
X258465Y226894D01*
X259171Y227034D01*
X259770Y227434D01*
X260171Y228033D01*
X260311Y228740D01*
X260171Y229447D01*
X259770Y230046D01*
X259609Y230154D01*
Y232400D01*
X264195Y236986D01*
X264443Y237357D01*
X264530Y237795D01*
Y255235D01*
X267132Y257837D01*
X267323Y257799D01*
X268029Y257940D01*
X268629Y258340D01*
X269029Y258939D01*
X269169Y259646D01*
X269029Y260352D01*
X268629Y260951D01*
X268029Y261352D01*
X267323Y261492D01*
X266616Y261352D01*
X266017Y260951D01*
X265617Y260352D01*
X265476Y259646D01*
X265514Y259455D01*
X264323Y258264D01*
X263934Y258582D01*
X264304Y259136D01*
X264445Y259842D01*
X264304Y260549D01*
X263904Y261148D01*
X263305Y261548D01*
X262598Y261689D01*
D02*
G37*
G36*
X410354Y334519D02*
X409419Y334396D01*
X408547Y334035D01*
X407799Y333461D01*
X407225Y332712D01*
X406864Y331841D01*
X406741Y330906D01*
X406864Y329970D01*
X407225Y329099D01*
X407799Y328350D01*
X408547Y327776D01*
X409210Y327502D01*
Y321852D01*
X401101Y313742D01*
X388307D01*
X387869Y313655D01*
X387498Y313407D01*
X382262Y308171D01*
X382014Y307800D01*
X381927Y307362D01*
Y295159D01*
X364684Y277916D01*
X326969D01*
X326531Y277829D01*
X326160Y277581D01*
X304521Y255942D01*
X304331Y255980D01*
X303624Y255840D01*
X303025Y255439D01*
X302625Y254840D01*
X302484Y254134D01*
X302625Y253427D01*
X303025Y252828D01*
X303624Y252428D01*
X304331Y252287D01*
X305037Y252428D01*
X305636Y252828D01*
X306037Y253427D01*
X306177Y254134D01*
X306139Y254325D01*
X327442Y275628D01*
X365158D01*
X365595Y275715D01*
X365966Y275963D01*
X383880Y293876D01*
X384128Y294247D01*
X384215Y294685D01*
Y306888D01*
X388781Y311454D01*
X401575D01*
X402013Y311542D01*
X402384Y311789D01*
X411163Y320569D01*
X411411Y320940D01*
X411498Y321378D01*
Y327502D01*
X412161Y327776D01*
X412910Y328350D01*
X413484Y329099D01*
X413845Y329970D01*
X413968Y330906D01*
X413845Y331841D01*
X413484Y332712D01*
X412910Y333461D01*
X412161Y334035D01*
X411290Y334396D01*
X410354Y334519D01*
D02*
G37*
G36*
X299410Y228618D02*
X298703Y228478D01*
X298104Y228077D01*
X297996Y227916D01*
X297441D01*
X297003Y227829D01*
X296632Y227581D01*
X276101Y207049D01*
X252004D01*
X251896Y207211D01*
X251297Y207611D01*
X250590Y207752D01*
X249884Y207611D01*
X249285Y207211D01*
X248885Y206612D01*
X248744Y205906D01*
X248885Y205199D01*
X249285Y204600D01*
X249884Y204200D01*
X250590Y204059D01*
X251297Y204200D01*
X251896Y204600D01*
X252004Y204762D01*
X276575D01*
X277013Y204849D01*
X277384Y205097D01*
X297603Y225316D01*
X298104Y225466D01*
X298703Y225066D01*
X299410Y224925D01*
X300116Y225066D01*
X300715Y225466D01*
X301115Y226065D01*
X301256Y226772D01*
X301115Y227478D01*
X300715Y228077D01*
X300116Y228478D01*
X299410Y228618D01*
D02*
G37*
G36*
X221457Y251059D02*
X220750Y250919D01*
X220151Y250518D01*
X219751Y249919D01*
X219610Y249213D01*
X219751Y248506D01*
X220151Y247907D01*
X220313Y247799D01*
Y230118D01*
X220400Y229680D01*
X220648Y229309D01*
X227719Y222238D01*
X227681Y222047D01*
X227822Y221341D01*
X228222Y220742D01*
X228821Y220341D01*
X229528Y220201D01*
X230234Y220341D01*
X230833Y220742D01*
X231234Y221341D01*
X231374Y222047D01*
X231234Y222754D01*
X230833Y223353D01*
X230234Y223753D01*
X229528Y223894D01*
X229337Y223856D01*
X222601Y230592D01*
Y247799D01*
X222762Y247907D01*
X223163Y248506D01*
X223303Y249213D01*
X223163Y249919D01*
X222762Y250518D01*
X222163Y250919D01*
X221457Y251059D01*
D02*
G37*
G36*
X390748Y292595D02*
X390041Y292454D01*
X389442Y292054D01*
X389042Y291455D01*
X388901Y290748D01*
X389042Y290041D01*
X389442Y289442D01*
X389604Y289334D01*
Y268584D01*
X326298Y205278D01*
X295344D01*
X295302Y205341D01*
X294703Y205741D01*
X293996Y205882D01*
X293289Y205741D01*
X292690Y205341D01*
X292290Y204742D01*
X292150Y204035D01*
X292290Y203329D01*
X292690Y202730D01*
X293289Y202329D01*
X293996Y202189D01*
X294703Y202329D01*
X295302Y202730D01*
X295476Y202990D01*
X326772D01*
X327209Y203077D01*
X327581Y203325D01*
X391557Y267301D01*
X391805Y267672D01*
X391892Y268110D01*
Y289334D01*
X392054Y289442D01*
X392454Y290041D01*
X392595Y290748D01*
X392454Y291455D01*
X392054Y292054D01*
X391455Y292454D01*
X390748Y292595D01*
D02*
G37*
G36*
X398819Y276059D02*
X398112Y275919D01*
X397513Y275518D01*
X397113Y274919D01*
X396972Y274213D01*
X397113Y273506D01*
X397513Y272907D01*
X397675Y272799D01*
Y269372D01*
X330235Y201931D01*
X299016D01*
X298578Y201844D01*
X298207Y201596D01*
X297361Y200750D01*
X286256D01*
X286148Y200912D01*
X285549Y201312D01*
X284842Y201453D01*
X284136Y201312D01*
X283537Y200912D01*
X283137Y200313D01*
X282996Y199606D01*
X283137Y198900D01*
X283537Y198301D01*
X284136Y197900D01*
X284842Y197760D01*
X285549Y197900D01*
X286148Y198301D01*
X286256Y198462D01*
X297835D01*
X298272Y198549D01*
X298644Y198797D01*
X299490Y199643D01*
X330709D01*
X331147Y199731D01*
X331518Y199978D01*
X399628Y268089D01*
X399876Y268460D01*
X399963Y268898D01*
Y272799D01*
X400125Y272907D01*
X400525Y273506D01*
X400665Y274213D01*
X400525Y274919D01*
X400125Y275518D01*
X399525Y275919D01*
X398819Y276059D01*
D02*
G37*
G36*
X211811Y203224D02*
X211104Y203084D01*
X210505Y202684D01*
X210105Y202085D01*
X209964Y201378D01*
X210105Y200671D01*
X210505Y200072D01*
X210720Y199929D01*
X210754Y199759D01*
X211002Y199388D01*
X219664Y190726D01*
X220035Y190479D01*
X220472Y190391D01*
X244014D01*
X247813Y186593D01*
X248184Y186345D01*
X248622Y186258D01*
X283232D01*
X283340Y186096D01*
X283939Y185696D01*
X284646Y185555D01*
X285352Y185696D01*
X285951Y186096D01*
X286352Y186695D01*
X286492Y187402D01*
X286352Y188108D01*
X285951Y188707D01*
X285652Y188907D01*
X285804Y189407D01*
X287563D01*
X287671Y189245D01*
X288270Y188845D01*
X288976Y188705D01*
X289683Y188845D01*
X290282Y189245D01*
X290682Y189845D01*
X290823Y190551D01*
X290682Y191258D01*
X290282Y191857D01*
X289683Y192257D01*
X288976Y192398D01*
X288270Y192257D01*
X287671Y191857D01*
X287563Y191695D01*
X251655D01*
X247856Y195494D01*
X247485Y195742D01*
X247047Y195829D01*
X223308D01*
X222084Y197053D01*
X222122Y197244D01*
X221982Y197951D01*
X221581Y198550D01*
X220982Y198950D01*
X220276Y199091D01*
X219569Y198950D01*
X218970Y198550D01*
X218570Y197951D01*
X218429Y197244D01*
X218570Y196537D01*
X218970Y195938D01*
X219569Y195538D01*
X220276Y195398D01*
X220466Y195436D01*
X222026Y193876D01*
X222397Y193628D01*
X222835Y193541D01*
X246573D01*
X250372Y189742D01*
X250743Y189494D01*
X251181Y189407D01*
X283488D01*
X283639Y188907D01*
X283340Y188707D01*
X283232Y188546D01*
X249096D01*
X245297Y192344D01*
X244926Y192592D01*
X244488Y192679D01*
X220946D01*
X213292Y200334D01*
X213517Y200671D01*
X213657Y201378D01*
X213517Y202085D01*
X213117Y202684D01*
X212518Y203084D01*
X211811Y203224D01*
D02*
G37*
G36*
X187795Y190330D02*
Y187598D01*
X190526D01*
X190470Y188027D01*
X190153Y188793D01*
X189648Y189451D01*
X188990Y189956D01*
X188224Y190273D01*
X187795Y190330D01*
D02*
G37*
G36*
X187008D02*
X186579Y190273D01*
X185813Y189956D01*
X185155Y189451D01*
X184650Y188793D01*
X184333Y188027D01*
X184277Y187598D01*
X187008D01*
Y190330D01*
D02*
G37*
G36*
Y186811D02*
X184277D01*
X184333Y186382D01*
X184650Y185616D01*
X185155Y184958D01*
X185813Y184453D01*
X186579Y184136D01*
X187008Y184080D01*
Y186811D01*
D02*
G37*
G36*
X190526D02*
X187795D01*
Y184080D01*
X188224Y184136D01*
X188990Y184453D01*
X189648Y184958D01*
X190153Y185616D01*
X190470Y186382D01*
X190526Y186811D01*
D02*
G37*
G36*
X187402Y178412D02*
X186620Y178309D01*
X185893Y178007D01*
X185268Y177528D01*
X184788Y176903D01*
X184486Y176175D01*
X184384Y175394D01*
X184486Y174613D01*
X184788Y173885D01*
X185268Y173260D01*
X185893Y172780D01*
X186620Y172479D01*
X187402Y172376D01*
X188183Y172479D01*
X188910Y172780D01*
X189536Y173260D01*
X190015Y173885D01*
X190317Y174613D01*
X190419Y175394D01*
X190317Y176175D01*
X190015Y176903D01*
X189536Y177528D01*
X188910Y178007D01*
X188183Y178309D01*
X187402Y178412D01*
D02*
G37*
G36*
X240551Y175075D02*
X239844Y174934D01*
X239246Y174534D01*
X239138Y174372D01*
X231102D01*
X230665Y174285D01*
X230293Y174037D01*
X224206Y167950D01*
X224016Y167988D01*
X223309Y167848D01*
X222710Y167447D01*
X222310Y166848D01*
X222169Y166142D01*
X222310Y165435D01*
X222710Y164836D01*
X223309Y164436D01*
X224016Y164295D01*
X224722Y164436D01*
X225321Y164836D01*
X225722Y165435D01*
X225862Y166142D01*
X225824Y166332D01*
X231576Y172084D01*
X239138D01*
X239246Y171923D01*
X239844Y171522D01*
X240551Y171382D01*
X241258Y171522D01*
X241857Y171923D01*
X242257Y172522D01*
X242398Y173228D01*
X242257Y173935D01*
X241857Y174534D01*
X241258Y174934D01*
X240551Y175075D01*
D02*
G37*
G36*
X448819Y159327D02*
X448112Y159186D01*
X447513Y158786D01*
X447113Y158187D01*
X446973Y157480D01*
X447113Y156774D01*
X447513Y156175D01*
X448112Y155774D01*
X448819Y155634D01*
X449526Y155774D01*
X450125Y156175D01*
X450525Y156774D01*
X450666Y157480D01*
X450525Y158187D01*
X450125Y158786D01*
X449526Y159186D01*
X448819Y159327D01*
D02*
G37*
G36*
X244685Y164051D02*
X243978Y163911D01*
X243379Y163510D01*
X242979Y162911D01*
X242839Y162205D01*
X242979Y161498D01*
X243379Y160899D01*
X243978Y160499D01*
X244685Y160358D01*
X244876Y160396D01*
X249583Y155689D01*
X251538Y153734D01*
X251500Y153543D01*
X251641Y152837D01*
X252041Y152238D01*
X252640Y151837D01*
X253346Y151697D01*
X254053Y151837D01*
X254652Y152238D01*
X255052Y152837D01*
X255193Y153543D01*
X255052Y154250D01*
X254652Y154849D01*
X254053Y155249D01*
X253346Y155390D01*
X253156Y155352D01*
X251201Y157307D01*
X251201Y157307D01*
X246494Y162014D01*
X246532Y162205D01*
X246391Y162911D01*
X245991Y163510D01*
X245392Y163911D01*
X244685Y164051D01*
D02*
G37*
G36*
X414173Y154779D02*
Y151551D01*
X417401D01*
X417327Y152108D01*
X416961Y152994D01*
X416377Y153755D01*
X415616Y154339D01*
X414730Y154706D01*
X414173Y154779D01*
D02*
G37*
G36*
X413386D02*
X412829Y154706D01*
X411943Y154339D01*
X411182Y153755D01*
X410599Y152994D01*
X410231Y152108D01*
X410158Y151551D01*
X413386D01*
Y154779D01*
D02*
G37*
G36*
X403937Y154672D02*
X403027Y154552D01*
X402180Y154201D01*
X401452Y153642D01*
X400893Y152915D01*
X400542Y152067D01*
X400423Y151157D01*
X400542Y150248D01*
X400893Y149400D01*
X401452Y148672D01*
X402180Y148114D01*
X403027Y147763D01*
X403937Y147643D01*
X404847Y147763D01*
X405694Y148114D01*
X406422Y148672D01*
X406981Y149400D01*
X407332Y150248D01*
X407451Y151157D01*
X407332Y152067D01*
X406981Y152915D01*
X406422Y153642D01*
X405694Y154201D01*
X404847Y154552D01*
X403937Y154672D01*
D02*
G37*
G36*
X396063D02*
X395153Y154552D01*
X394306Y154201D01*
X393578Y153642D01*
X393020Y152915D01*
X392668Y152067D01*
X392549Y151157D01*
X392668Y150248D01*
X393020Y149400D01*
X393578Y148672D01*
X394306Y148114D01*
X395153Y147763D01*
X396063Y147643D01*
X396973Y147763D01*
X397820Y148114D01*
X398548Y148672D01*
X399107Y149400D01*
X399458Y150248D01*
X399577Y151157D01*
X399458Y152067D01*
X399107Y152915D01*
X398548Y153642D01*
X397820Y154201D01*
X396973Y154552D01*
X396063Y154672D01*
D02*
G37*
G36*
X417401Y150764D02*
X414173D01*
Y147536D01*
X414730Y147609D01*
X415616Y147976D01*
X416377Y148560D01*
X416961Y149321D01*
X417327Y150207D01*
X417401Y150764D01*
D02*
G37*
G36*
X413386D02*
X410158D01*
X410231Y150207D01*
X410599Y149321D01*
X411182Y148560D01*
X411943Y147976D01*
X412829Y147609D01*
X413386Y147536D01*
Y150764D01*
D02*
G37*
G36*
X323819Y199091D02*
X323112Y198950D01*
X322513Y198550D01*
X322113Y197951D01*
X321972Y197244D01*
X322113Y196537D01*
X322513Y195938D01*
X322675Y195830D01*
Y181102D01*
X322762Y180665D01*
X323010Y180293D01*
X325372Y177931D01*
X325743Y177683D01*
X326181Y177596D01*
X413503D01*
X422026Y169073D01*
X422397Y168825D01*
X422835Y168738D01*
X436731D01*
X443738Y161731D01*
Y153150D01*
X443825Y152712D01*
X444073Y152341D01*
X449034Y147380D01*
X449405Y147132D01*
X449843Y147045D01*
X451142D01*
Y144606D01*
X458307D01*
Y151772D01*
X451142D01*
Y149333D01*
X450316D01*
X446026Y153623D01*
Y162205D01*
X445939Y162643D01*
X445691Y163014D01*
X438014Y170691D01*
X437642Y170939D01*
X437205Y171026D01*
X423309D01*
X414785Y179549D01*
X414414Y179797D01*
X413976Y179884D01*
X326655D01*
X324963Y181576D01*
Y195830D01*
X325125Y195938D01*
X325525Y196537D01*
X325665Y197244D01*
X325525Y197951D01*
X325125Y198550D01*
X324525Y198950D01*
X323819Y199091D01*
D02*
G37*
G36*
X426260Y146779D02*
Y140882D01*
X432157D01*
X432074Y141723D01*
X431714Y142911D01*
X431129Y144005D01*
X430342Y144964D01*
X429383Y145751D01*
X428288Y146336D01*
X427101Y146696D01*
X426260Y146779D01*
D02*
G37*
G36*
X425472D02*
X424631Y146696D01*
X423444Y146336D01*
X422350Y145751D01*
X421390Y144964D01*
X420603Y144005D01*
X420018Y142911D01*
X419658Y141723D01*
X419575Y140882D01*
X425472D01*
Y146779D01*
D02*
G37*
G36*
X374528D02*
Y140882D01*
X380425D01*
X380342Y141723D01*
X379982Y142911D01*
X379397Y144005D01*
X378610Y144964D01*
X377650Y145751D01*
X376556Y146336D01*
X375369Y146696D01*
X374528Y146779D01*
D02*
G37*
G36*
X373740D02*
X372899Y146696D01*
X371712Y146336D01*
X370617Y145751D01*
X369658Y144964D01*
X368871Y144005D01*
X368286Y142911D01*
X367926Y141723D01*
X367843Y140882D01*
X373740D01*
Y146779D01*
D02*
G37*
G36*
X250000Y144648D02*
X188779D01*
X188342Y144561D01*
X187971Y144313D01*
X183655Y139998D01*
X183465Y140035D01*
X182758Y139895D01*
X182159Y139495D01*
X181759Y138896D01*
X181618Y138189D01*
X181759Y137482D01*
X182159Y136883D01*
X182758Y136483D01*
X183465Y136343D01*
X184171Y136483D01*
X184770Y136883D01*
X185170Y137482D01*
X185311Y138189D01*
X185273Y138380D01*
X189253Y142360D01*
X249526D01*
X250947Y140939D01*
X250909Y140748D01*
X251050Y140041D01*
X251450Y139442D01*
X252049Y139042D01*
X252756Y138901D01*
X253463Y139042D01*
X254062Y139442D01*
X254462Y140041D01*
X254602Y140748D01*
X254462Y141455D01*
X254062Y142054D01*
X253463Y142454D01*
X252756Y142595D01*
X252565Y142557D01*
X250809Y144313D01*
X250438Y144561D01*
X250000Y144648D01*
D02*
G37*
G36*
X337008Y140136D02*
Y137008D01*
X340136D01*
X340066Y137539D01*
X339709Y138401D01*
X339141Y139141D01*
X338401Y139709D01*
X337539Y140066D01*
X337008Y140136D01*
D02*
G37*
G36*
X336221D02*
X335689Y140066D01*
X334827Y139709D01*
X334087Y139141D01*
X333519Y138401D01*
X333162Y137539D01*
X333092Y137008D01*
X336221D01*
Y140136D01*
D02*
G37*
G36*
X302559Y191807D02*
X301852Y191667D01*
X301253Y191266D01*
X300853Y190667D01*
X300713Y189961D01*
X300853Y189254D01*
X301253Y188655D01*
X301415Y188547D01*
Y175787D01*
X301502Y175350D01*
X301750Y174978D01*
X317498Y159230D01*
X317869Y158982D01*
X318307Y158895D01*
X343468D01*
X343576Y158734D01*
X344175Y158333D01*
X344882Y158193D01*
X345588Y158333D01*
X346188Y158734D01*
X346588Y159333D01*
X346728Y160039D01*
X346588Y160746D01*
X346188Y161345D01*
X345588Y161745D01*
X344882Y161886D01*
X344175Y161745D01*
X343576Y161345D01*
X343468Y161183D01*
X318781D01*
X303703Y176261D01*
Y180132D01*
X304200Y180199D01*
X304600Y179600D01*
X305199Y179200D01*
X305906Y179059D01*
X306612Y179200D01*
X307211Y179600D01*
X307319Y179762D01*
X311928D01*
X320451Y171238D01*
X320822Y170990D01*
X321260Y170903D01*
X387321D01*
X392301Y165923D01*
X392672Y165675D01*
X393110Y165588D01*
X407636D01*
X420569Y152656D01*
X420597Y152515D01*
X420845Y152144D01*
X424388Y148600D01*
X424759Y148353D01*
X425197Y148265D01*
X430432D01*
X435667Y143030D01*
Y134055D01*
X435754Y133617D01*
X436002Y133246D01*
X441868Y127380D01*
X442239Y127132D01*
X442677Y127045D01*
X451320D01*
X451595Y126382D01*
X452169Y125634D01*
X452918Y125059D01*
X453789Y124698D01*
X454724Y124575D01*
X455660Y124698D01*
X456531Y125059D01*
X457280Y125634D01*
X457854Y126382D01*
X458215Y127254D01*
X458338Y128189D01*
X458215Y129124D01*
X457854Y129996D01*
X457280Y130744D01*
X456531Y131318D01*
X455660Y131679D01*
X454724Y131803D01*
X453789Y131679D01*
X452918Y131318D01*
X452169Y130744D01*
X451595Y129996D01*
X451320Y129333D01*
X443151D01*
X437955Y134529D01*
Y143504D01*
X437868Y143942D01*
X437620Y144313D01*
X431714Y150218D01*
X431343Y150466D01*
X430905Y150554D01*
X425671D01*
X422739Y153486D01*
X422711Y153627D01*
X422463Y153998D01*
X408919Y167541D01*
X408548Y167789D01*
X408110Y167876D01*
X393584D01*
X388604Y172856D01*
X388233Y173104D01*
X387795Y173191D01*
X321734D01*
X313211Y181714D01*
X312839Y181962D01*
X312402Y182050D01*
X307319D01*
X307211Y182211D01*
X307130Y182265D01*
X307097Y182787D01*
X307420Y183108D01*
X313503D01*
X322419Y174191D01*
X322791Y173943D01*
X323228Y173856D01*
X410156D01*
X423207Y160805D01*
X423578Y160557D01*
X424016Y160470D01*
X432991D01*
X436061Y157400D01*
Y151575D01*
X436148Y151137D01*
X436396Y150766D01*
X449486Y137675D01*
X449858Y137427D01*
X450295Y137340D01*
X451223D01*
X451234Y137254D01*
X451595Y136382D01*
X452169Y135634D01*
X452918Y135059D01*
X453789Y134698D01*
X454724Y134575D01*
X455660Y134698D01*
X456531Y135059D01*
X457280Y135634D01*
X457854Y136382D01*
X458215Y137254D01*
X458338Y138189D01*
X458215Y139124D01*
X457854Y139996D01*
X457280Y140744D01*
X456531Y141318D01*
X455660Y141679D01*
X454724Y141803D01*
X453789Y141679D01*
X452918Y141318D01*
X452169Y140744D01*
X451595Y139996D01*
X451443Y139628D01*
X450769D01*
X438349Y152049D01*
Y157874D01*
X438262Y158312D01*
X438014Y158683D01*
X434273Y162423D01*
X433902Y162671D01*
X433465Y162758D01*
X424490D01*
X411439Y175809D01*
X411068Y176057D01*
X410630Y176144D01*
X323702D01*
X314785Y185061D01*
X314414Y185309D01*
X313976Y185396D01*
X307319D01*
X307211Y185558D01*
X306612Y185958D01*
X305906Y186099D01*
X305199Y185958D01*
X304600Y185558D01*
X304200Y184959D01*
X303703Y185026D01*
Y188547D01*
X303865Y188655D01*
X304265Y189254D01*
X304406Y189961D01*
X304265Y190667D01*
X303865Y191266D01*
X303266Y191667D01*
X302559Y191807D01*
D02*
G37*
G36*
X432157Y140094D02*
X426260D01*
Y134197D01*
X427101Y134280D01*
X428288Y134640D01*
X429383Y135225D01*
X430342Y136012D01*
X431129Y136972D01*
X431714Y138066D01*
X432074Y139253D01*
X432157Y140094D01*
D02*
G37*
G36*
X425472D02*
X419575D01*
X419658Y139253D01*
X420018Y138066D01*
X420603Y136972D01*
X421390Y136012D01*
X422350Y135225D01*
X423444Y134640D01*
X424631Y134280D01*
X425472Y134197D01*
Y140094D01*
D02*
G37*
G36*
X380425D02*
X374528D01*
Y134197D01*
X375369Y134280D01*
X376556Y134640D01*
X377650Y135225D01*
X378610Y136012D01*
X379397Y136972D01*
X379982Y138066D01*
X380342Y139253D01*
X380425Y140094D01*
D02*
G37*
G36*
X373740D02*
X367843D01*
X367926Y139253D01*
X368286Y138066D01*
X368871Y136972D01*
X369658Y136012D01*
X370617Y135225D01*
X371712Y134640D01*
X372899Y134280D01*
X373740Y134197D01*
Y140094D01*
D02*
G37*
G36*
X330157Y140000D02*
X323386D01*
Y133228D01*
X330157D01*
Y140000D01*
D02*
G37*
G36*
X340136Y136221D02*
X337008D01*
Y133092D01*
X337539Y133162D01*
X338401Y133519D01*
X339141Y134087D01*
X339709Y134827D01*
X340066Y135689D01*
X340136Y136221D01*
D02*
G37*
G36*
X336221D02*
X333092D01*
X333162Y135689D01*
X333519Y134827D01*
X334087Y134087D01*
X334827Y133519D01*
X335689Y133162D01*
X336221Y133092D01*
Y136221D01*
D02*
G37*
G36*
X135236Y142188D02*
X127362D01*
X126684Y142098D01*
X126052Y141837D01*
X125509Y141420D01*
X125092Y140877D01*
X124831Y140245D01*
X124741Y139567D01*
Y135630D01*
X124831Y134952D01*
X125092Y134319D01*
X125509Y133777D01*
X126052Y133360D01*
X126684Y133098D01*
X127362Y133009D01*
X135236D01*
X135915Y133098D01*
X136547Y133360D01*
X137090Y133777D01*
X137506Y134319D01*
X137768Y134952D01*
X137857Y135630D01*
Y139567D01*
X137768Y140245D01*
X137506Y140877D01*
X137090Y141420D01*
X136547Y141837D01*
X135915Y142098D01*
X135236Y142188D01*
D02*
G37*
G36*
X115236D02*
X107362D01*
X106684Y142098D01*
X106052Y141837D01*
X105509Y141420D01*
X105093Y140877D01*
X104831Y140245D01*
X104741Y139567D01*
Y135630D01*
X104831Y134952D01*
X105093Y134319D01*
X105509Y133777D01*
X106052Y133360D01*
X106684Y133098D01*
X107362Y133009D01*
X115236D01*
X115915Y133098D01*
X116547Y133360D01*
X117089Y133777D01*
X117506Y134319D01*
X117768Y134952D01*
X117857Y135630D01*
Y139567D01*
X117768Y140245D01*
X117506Y140877D01*
X117089Y141420D01*
X116547Y141837D01*
X115915Y142098D01*
X115236Y142188D01*
D02*
G37*
G36*
X389705Y154642D02*
X382736D01*
Y147673D01*
X384073D01*
Y135142D01*
X380803Y131872D01*
X271982D01*
X271917Y131957D01*
X271264Y132458D01*
X270502Y132774D01*
X269685Y132881D01*
X268868Y132774D01*
X268107Y132458D01*
X267453Y131957D01*
X266951Y131303D01*
X266636Y130542D01*
X266528Y129724D01*
X266636Y128907D01*
X266951Y128146D01*
X267453Y127492D01*
X268107Y126990D01*
X268868Y126675D01*
X269685Y126567D01*
X270502Y126675D01*
X271264Y126990D01*
X271917Y127492D01*
X271982Y127577D01*
X381693D01*
X382515Y127740D01*
X383211Y128206D01*
X387739Y132733D01*
X388205Y133430D01*
X388368Y134252D01*
Y147673D01*
X389705D01*
Y154642D01*
D02*
G37*
G36*
X275590Y155390D02*
X272638D01*
X271931Y155249D01*
X271332Y154849D01*
X251597Y135114D01*
X227953D01*
X227246Y134974D01*
X226647Y134573D01*
X226247Y133974D01*
X226106Y133268D01*
X226247Y132561D01*
X226647Y131962D01*
X227246Y131562D01*
X227953Y131421D01*
X252362D01*
X253069Y131562D01*
X253668Y131962D01*
X273403Y151697D01*
X275590D01*
X276297Y151837D01*
X276896Y152238D01*
X277296Y152837D01*
X277437Y153543D01*
X277296Y154250D01*
X276896Y154849D01*
X276297Y155249D01*
X275590Y155390D01*
D02*
G37*
G36*
X215354Y138461D02*
X214648Y138320D01*
X214049Y137920D01*
X213648Y137321D01*
X213508Y136614D01*
X213648Y135907D01*
X214031Y135334D01*
X212774Y134077D01*
X212526Y133705D01*
X212439Y133268D01*
Y127699D01*
X212274Y127595D01*
X211774Y127873D01*
Y135201D01*
X211936Y135309D01*
X212336Y135907D01*
X212476Y136614D01*
X212336Y137321D01*
X211936Y137920D01*
X211336Y138320D01*
X210630Y138461D01*
X209923Y138320D01*
X209324Y137920D01*
X208924Y137321D01*
X208783Y136614D01*
X208924Y135907D01*
X209324Y135309D01*
X209486Y135201D01*
Y123855D01*
X209324Y123747D01*
X208924Y123148D01*
X208783Y122441D01*
X208924Y121734D01*
X209324Y121135D01*
X209923Y120735D01*
X210630Y120594D01*
X211336Y120735D01*
X211936Y121135D01*
X212336Y121734D01*
X212476Y122441D01*
X212336Y123148D01*
X211994Y123660D01*
X212013Y123925D01*
X212289Y124117D01*
X212551Y124167D01*
X212679Y124082D01*
X213386Y123941D01*
X214092Y124082D01*
X214691Y124482D01*
X215092Y125081D01*
X215232Y125787D01*
X215092Y126494D01*
X214727Y127040D01*
Y132794D01*
X216163Y134230D01*
X216411Y134601D01*
X216498Y135039D01*
Y135201D01*
X216660Y135309D01*
X217060Y135907D01*
X217201Y136614D01*
X217060Y137321D01*
X216660Y137920D01*
X216061Y138320D01*
X215354Y138461D01*
D02*
G37*
G36*
X296043Y116339D02*
X293217D01*
Y114052D01*
X293414D01*
X294108Y114143D01*
X294755Y114411D01*
X295310Y114837D01*
X295736Y115392D01*
X296003Y116039D01*
X296043Y116339D01*
D02*
G37*
G36*
X292430D02*
X289605D01*
X289644Y116039D01*
X289912Y115392D01*
X290338Y114837D01*
X290893Y114411D01*
X291540Y114143D01*
X292233Y114052D01*
X292430D01*
Y116339D01*
D02*
G37*
G36*
X276358D02*
X273533D01*
Y114052D01*
X273729D01*
X274423Y114143D01*
X275069Y114411D01*
X275625Y114837D01*
X276051Y115392D01*
X276318Y116039D01*
X276358Y116339D01*
D02*
G37*
G36*
X272745D02*
X269920D01*
X269959Y116039D01*
X270227Y115392D01*
X270653Y114837D01*
X271208Y114411D01*
X271854Y114143D01*
X272548Y114052D01*
X272745D01*
Y116339D01*
D02*
G37*
G36*
X297154Y109911D02*
Y106496D01*
X299342D01*
Y107382D01*
X299254Y108050D01*
X298996Y108672D01*
X298586Y109207D01*
X298051Y109617D01*
X297429Y109875D01*
X297154Y109911D01*
D02*
G37*
G36*
X296367D02*
X296093Y109875D01*
X295470Y109617D01*
X294936Y109207D01*
X294526Y108672D01*
X294268Y108050D01*
X294180Y107382D01*
Y106496D01*
X296367D01*
Y109911D01*
D02*
G37*
G36*
X269596D02*
Y106496D01*
X271783D01*
Y107382D01*
X271695Y108050D01*
X271437Y108672D01*
X271027Y109207D01*
X270492Y109617D01*
X269870Y109875D01*
X269596Y109911D01*
D02*
G37*
G36*
X268808D02*
X268534Y109875D01*
X267911Y109617D01*
X267377Y109207D01*
X266966Y108672D01*
X266709Y108050D01*
X266621Y107382D01*
Y106496D01*
X268808D01*
Y109911D01*
D02*
G37*
G36*
X125236Y112188D02*
X117362D01*
X116684Y112099D01*
X116052Y111837D01*
X115509Y111420D01*
X115093Y110877D01*
X114831Y110245D01*
X114741Y109567D01*
Y105630D01*
X114831Y104952D01*
X115093Y104320D01*
X115509Y103777D01*
X116052Y103360D01*
X116684Y103098D01*
X117362Y103009D01*
X125236D01*
X125915Y103098D01*
X126547Y103360D01*
X127090Y103777D01*
X127506Y104320D01*
X127768Y104952D01*
X127857Y105630D01*
Y109567D01*
X127768Y110245D01*
X127506Y110877D01*
X127090Y111420D01*
X126547Y111837D01*
X125915Y112099D01*
X125236Y112188D01*
D02*
G37*
G36*
X271783Y105709D02*
X269596D01*
Y102294D01*
X269870Y102330D01*
X270492Y102587D01*
X271027Y102998D01*
X271437Y103532D01*
X271695Y104155D01*
X271783Y104823D01*
Y105709D01*
D02*
G37*
G36*
X296367Y105709D02*
X294180D01*
Y104823D01*
X294268Y104155D01*
X294526Y103532D01*
X294936Y102998D01*
X295470Y102587D01*
X296093Y102330D01*
X296367Y102294D01*
Y105709D01*
D02*
G37*
G36*
X299342D02*
X297154D01*
Y102294D01*
X297429Y102330D01*
X298051Y102587D01*
X298586Y102998D01*
X298996Y103532D01*
X299254Y104155D01*
X299342Y104823D01*
Y105709D01*
D02*
G37*
G36*
X268808Y105709D02*
X266621D01*
Y104823D01*
X266709Y104155D01*
X266966Y103532D01*
X267377Y102998D01*
X267911Y102587D01*
X268534Y102330D01*
X268808Y102294D01*
Y105709D01*
D02*
G37*
%LPD*%
G36*
X421691Y313221D02*
Y293978D01*
X419876Y292163D01*
X419685Y292201D01*
X418978Y292060D01*
X418379Y291660D01*
X417979Y291061D01*
X417838Y290354D01*
X417979Y289648D01*
X418379Y289049D01*
X418384Y289046D01*
X418232Y288546D01*
X417009D01*
X405475Y300080D01*
Y301933D01*
X405636Y302041D01*
X406037Y302640D01*
X406177Y303346D01*
X406037Y304053D01*
X405636Y304652D01*
X405337Y304852D01*
X405489Y305352D01*
X405512D01*
X405950Y305439D01*
X406321Y305687D01*
X415309Y314675D01*
X415403Y314816D01*
X415470Y314829D01*
X416069Y315230D01*
X416178Y315391D01*
X419521D01*
X421691Y313221D01*
D02*
G37*
D10*
X210630Y122441D02*
Y136614D01*
X294094Y204134D02*
X326772D01*
X293996Y204035D02*
X294094Y204134D01*
X326772D02*
X390748Y268110D01*
X454508Y107972D02*
X454724Y108189D01*
X443405Y107972D02*
X454508D01*
X444606Y118189D02*
X454724D01*
X438386Y124409D02*
X444606Y118189D01*
X442677Y128189D02*
X454724D01*
X436811Y134055D02*
X442677Y128189D01*
X454429Y138484D02*
X454724Y138189D01*
X450295Y138484D02*
X454429D01*
X437205Y151575D02*
X450295Y138484D01*
X449843Y148189D02*
X454724D01*
X444882Y153150D02*
Y162205D01*
Y153150D02*
X449843Y148189D01*
X453406Y146870D02*
X454724Y148189D01*
X269882Y120866D02*
X430512D01*
X443405Y107972D01*
X266732Y124409D02*
X438386D01*
X186417Y102756D02*
X251772D01*
X269882Y120866D01*
X169685Y119488D02*
X186417Y102756D01*
X169685Y119488D02*
Y138583D01*
X175591Y125787D02*
X195866Y105512D01*
X175591Y125787D02*
Y137795D01*
X207283Y169488D01*
X211811Y180709D02*
Y187992D01*
X169685Y138583D02*
X211811Y180709D01*
X436811Y134055D02*
Y143504D01*
X247835Y105512D02*
X266732Y124409D01*
X195866Y105512D02*
X247835D01*
X207283Y169488D02*
X221850D01*
X236024Y183661D02*
Y186811D01*
X221850Y169488D02*
X236024Y183661D01*
X437205Y169882D02*
X444882Y162205D01*
X422835Y169882D02*
X437205D01*
X413976Y178740D02*
X422835Y169882D01*
X326181Y178740D02*
X413976D01*
X323819Y181102D02*
X326181Y178740D01*
X323819Y181102D02*
Y197244D01*
X323622Y208071D02*
Y208268D01*
X294685Y237205D02*
X323622Y208268D01*
X278937Y237205D02*
X294685D01*
X295669Y231102D02*
X296654D01*
X274016Y209449D02*
X295669Y231102D01*
X276181Y239961D02*
X278937Y237205D01*
X276181Y239961D02*
X276378D01*
X283465Y247047D01*
X261614Y225197D02*
X276181Y239764D01*
Y239961D01*
X246063Y209449D02*
X274016D01*
X297441Y226772D02*
X299410D01*
X276575Y205906D02*
X297441Y226772D01*
X430905Y149409D02*
X436811Y143504D01*
X425197Y149409D02*
X430905D01*
X421654Y152953D02*
X425197Y149409D01*
X408110Y166732D02*
X421654Y153189D01*
Y152953D02*
Y153189D01*
X437205Y151575D02*
Y157874D01*
X433465Y161614D02*
X437205Y157874D01*
X424016Y161614D02*
X433465D01*
X319882Y330906D02*
X370354D01*
X249606Y260630D02*
X319882Y330906D01*
X247441Y253150D02*
X249606Y255315D01*
Y260630D01*
X239567Y253150D02*
X247441D01*
X218504Y256890D02*
X235827D01*
X239567Y253150D01*
X208858Y247244D02*
X218504Y256890D01*
X226181Y235433D02*
Y252953D01*
Y235433D02*
X234055Y227559D01*
X379921Y330472D02*
X380354Y330906D01*
X379921Y324606D02*
Y330472D01*
X364764Y309449D02*
X379921Y324606D01*
X297441Y260630D02*
Y260827D01*
X320472Y283858D01*
X259842Y239173D02*
Y255315D01*
X364764Y294291D02*
Y309449D01*
X390354Y324213D02*
Y330906D01*
X388386Y322244D02*
X390354Y324213D01*
X383858Y322244D02*
X388386D01*
X372835Y311221D02*
X383858Y322244D01*
X372835Y297244D02*
Y311221D01*
X300590Y257283D02*
X324016Y280709D01*
X272047Y251969D02*
X297244D01*
X299016Y250197D01*
X400354Y321417D02*
Y330906D01*
X397244Y318307D02*
X400354Y321417D01*
X386811Y318307D02*
X397244D01*
X377559Y309055D02*
X386811Y318307D01*
X377559Y295276D02*
Y309055D01*
X357283Y286811D02*
X364764Y294291D01*
X362992Y280709D02*
X377559Y295276D01*
X410354Y321378D02*
Y330906D01*
X401575Y312598D02*
X410354Y321378D01*
X388307Y312598D02*
X401575D01*
X383071Y307362D02*
X388307Y312598D01*
X385827Y164370D02*
X386024Y164567D01*
X356693Y150394D02*
X370669Y164370D01*
X385827D01*
X298031Y150394D02*
X356693D01*
X351772Y154921D02*
X356890Y160039D01*
X297441Y175197D02*
X317717Y154921D01*
X351772D01*
X284055Y164370D02*
Y172835D01*
Y164370D02*
X298031Y150394D01*
X390748Y268110D02*
Y290748D01*
X398819Y268898D02*
Y274213D01*
X330709Y200787D02*
X398819Y268898D01*
X222835Y194685D02*
X247047D01*
X220276Y197244D02*
X222835Y194685D01*
X251181Y190551D02*
X288976D01*
X247047Y194685D02*
X251181Y190551D01*
X211811Y200197D02*
Y201378D01*
X220472Y191535D02*
X244488D01*
X211811Y200197D02*
X220472Y191535D01*
X248622Y187402D02*
X284646D01*
X244488Y191535D02*
X248622Y187402D01*
X302559Y175787D02*
Y189961D01*
X297441Y175197D02*
Y187205D01*
X302559Y175787D02*
X318307Y160039D01*
X344882D01*
X414500Y315484D02*
Y316272D01*
X394882Y306496D02*
X405512D01*
X414500Y316272D02*
X414764Y316535D01*
X405512Y306496D02*
X414500Y315484D01*
X414764Y316535D02*
X419994D01*
X422835Y313695D01*
Y293504D02*
Y313695D01*
X419685Y290354D02*
X422835Y293504D01*
X425000Y290551D02*
Y294685D01*
X426378Y296063D02*
X432677D01*
X425000Y294685D02*
X426378Y296063D01*
X250392Y156498D02*
X253346Y153543D01*
X253346D01*
X188779Y143504D02*
X250000D01*
X252756Y140748D01*
X244685Y162205D02*
X250392Y156498D01*
Y156498D02*
Y156498D01*
X234234Y222835D02*
X236006Y221063D01*
X236221D01*
X234055Y222835D02*
Y227559D01*
Y222835D02*
X234234D01*
X237598Y225197D02*
X261614D01*
X221457Y230118D02*
X229528Y222047D01*
X421850Y287402D02*
X425000Y290551D01*
X427756Y293110D02*
X428346Y292520D01*
X435827D01*
X416535Y287402D02*
X421850D01*
X404331Y299606D02*
Y303346D01*
Y299606D02*
X416535Y287402D01*
X158071Y192323D02*
X207480D01*
X211811Y187992D01*
X174965Y239798D02*
Y240586D01*
X162008Y238583D02*
X168898D01*
X220669Y186811D02*
X236024D01*
X168898Y238583D02*
X220669Y186811D01*
X221457Y230118D02*
Y249213D01*
X345866Y289961D02*
X352756Y296850D01*
X301378Y289961D02*
X345866D01*
X410630Y175000D02*
X424016Y161614D01*
X323228Y175000D02*
X410630D01*
X393110Y166732D02*
X408110D01*
X387795Y172047D02*
X393110Y166732D01*
X321260Y172047D02*
X387795D01*
X383071Y294685D02*
Y307362D01*
X365158Y276772D02*
X383071Y294685D01*
X359449Y283858D02*
X372835Y297244D01*
X304331Y254134D02*
X326969Y276772D01*
X365158D01*
X324016Y280709D02*
X362992D01*
X320472Y283858D02*
X359449D01*
X317913Y286811D02*
X357283D01*
X294882Y263779D02*
X317913Y286811D01*
X299016Y200787D02*
X330709D01*
X297835Y199606D02*
X299016Y200787D01*
X286417Y244094D02*
X293898D01*
X299016Y250197D02*
X320866D01*
X321063Y250394D01*
X293898Y244094D02*
X307087Y230906D01*
X283465Y247047D02*
X332283D01*
X305906Y184252D02*
X313976D01*
X323228Y175000D01*
X312402Y180905D02*
X321260Y172047D01*
X305906Y180905D02*
X312402D01*
X258465Y228740D02*
Y232874D01*
X263386Y237795D01*
Y255709D02*
X267323Y259646D01*
X263386Y237795D02*
Y255709D01*
X249410Y228937D02*
Y234055D01*
X256890Y241535D01*
Y257087D01*
X259646Y259842D02*
X262598D01*
X256890Y257087D02*
X259646Y259842D01*
X253937Y228740D02*
Y233268D01*
X259842Y239173D01*
X245276Y229134D02*
Y234646D01*
X245079Y228937D02*
X245276Y229134D01*
Y234646D02*
X253543Y242913D01*
Y259646D01*
X284842Y199606D02*
X297835D01*
X156102Y247244D02*
X208858D01*
X152362Y243504D02*
X156102Y247244D01*
X332283Y247047D02*
X350787Y265551D01*
X250590Y205906D02*
X276575D01*
X183465Y138189D02*
X188779Y143504D01*
X213583Y133268D02*
X215354Y135039D01*
X213583Y125984D02*
Y133268D01*
X215354Y135039D02*
Y136614D01*
X213386Y125787D02*
X213583Y125984D01*
X231102Y173228D02*
X240551D01*
X224016Y166142D02*
X231102Y173228D01*
X219817Y120407D02*
X225525D01*
X230118Y125000D01*
X224803Y113779D02*
X229577Y118553D01*
Y120866D01*
X214173Y114764D02*
X219817Y120407D01*
D11*
X284055Y172835D02*
Y177165D01*
X293898Y187008D02*
Y191732D01*
X284055Y177165D02*
X293898Y187008D01*
X280512Y194882D02*
X290748D01*
X293898Y191732D01*
X276378Y199016D02*
X280512Y194882D01*
X250197Y199016D02*
X276378D01*
X242913Y206299D02*
X250197Y199016D01*
X253543Y172835D02*
X284055D01*
X208465Y217717D02*
X208571D01*
X208768Y217913D01*
X271850D01*
X208465Y217717D02*
X208465Y217717D01*
X211614Y206299D02*
X242913D01*
X208465Y209449D02*
X211614Y206299D01*
X208465Y209449D02*
Y217717D01*
X172835Y242717D02*
X174965Y240586D01*
Y239798D02*
X176969Y237795D01*
X160630Y242717D02*
X172835D01*
X157283Y219488D02*
Y239370D01*
X160630Y242717D01*
X157283Y219488D02*
X178740Y198031D01*
X176969Y237795D02*
X188386D01*
X208465Y217717D01*
D12*
X286663Y232726D02*
X290896D01*
X271850Y217913D02*
X286663Y232726D01*
D14*
X272638Y153543D02*
X275590D01*
X252362Y133268D02*
X272638Y153543D01*
X195866Y123031D02*
Y136811D01*
X227953Y133268D02*
X252362D01*
D71*
X269685Y129724D02*
X381693D01*
X386221Y134252D01*
X240158Y109646D02*
X240354Y109843D01*
X209252Y109646D02*
X240158D01*
X195866Y123031D02*
X209252Y109646D01*
X386221Y134252D02*
Y151157D01*
D72*
X454724Y138189D02*
D03*
Y128189D02*
D03*
Y118189D02*
D03*
Y108189D02*
D03*
X380354Y330906D02*
D03*
X390354D02*
D03*
X400354D02*
D03*
X410354D02*
D03*
D119*
X454724Y148189D02*
D03*
D120*
X370354Y330906D02*
D03*
D121*
X121299Y107598D02*
D03*
X111299Y137598D02*
D03*
X131299D02*
D03*
Y309882D02*
D03*
X111299D02*
D03*
X121299Y339882D02*
D03*
D122*
X386221Y151157D02*
D03*
D123*
X396063D02*
D03*
X403937D02*
D03*
X413779D02*
D03*
D124*
X374134Y140488D02*
D03*
X425866D02*
D03*
D125*
X187402Y187205D02*
D03*
Y175394D02*
D03*
D126*
X336614Y136614D02*
D03*
D127*
X326772D02*
D03*
D128*
X269202Y106102D02*
D03*
X296761D02*
D03*
D129*
X273139Y116732D02*
D03*
X292824D02*
D03*
D130*
X210630Y136614D02*
D03*
X275590Y153543D02*
D03*
X183661Y157874D02*
D03*
X198085Y157033D02*
D03*
X444936Y165408D02*
D03*
X437008Y165354D02*
D03*
X425197Y173228D02*
D03*
X323819Y197244D02*
D03*
X323622Y208071D02*
D03*
X296654Y231102D02*
D03*
X290896Y232726D02*
D03*
X276181Y239961D02*
D03*
X299410Y226772D02*
D03*
X425197Y157480D02*
D03*
X433071D02*
D03*
X247441Y253150D02*
D03*
X226181Y252953D02*
D03*
X297441Y260630D02*
D03*
X259842Y255315D02*
D03*
X300590Y257283D02*
D03*
X272047Y251969D02*
D03*
X195866Y136811D02*
D03*
X386024Y164567D02*
D03*
X390748Y290748D02*
D03*
X398819Y274213D02*
D03*
X220276Y197244D02*
D03*
X288976Y190551D02*
D03*
X211811Y201378D02*
D03*
X284646Y187402D02*
D03*
X302559Y189961D02*
D03*
X297441Y187205D02*
D03*
X356890Y160039D02*
D03*
X344882D02*
D03*
X414764Y316535D02*
D03*
X432677Y296063D02*
D03*
X284055Y172835D02*
D03*
X394882Y306496D02*
D03*
X253346Y153543D02*
D03*
X252756Y140748D02*
D03*
X236221Y221063D02*
D03*
X229528Y222047D02*
D03*
X237598Y225197D02*
D03*
X427756Y293110D02*
D03*
X456693Y283465D02*
D03*
X460630Y275591D02*
D03*
Y244095D02*
D03*
X456693Y236221D02*
D03*
X460630Y228347D02*
D03*
X456693Y220473D02*
D03*
X460630Y212598D02*
D03*
X456693Y204725D02*
D03*
X460630Y196851D02*
D03*
Y165354D02*
D03*
X456693Y157480D02*
D03*
X448819Y283465D02*
D03*
X452756Y275591D02*
D03*
Y244095D02*
D03*
X448819Y236221D02*
D03*
X452756Y228347D02*
D03*
X448819Y220473D02*
D03*
X452756Y212598D02*
D03*
X448819Y204725D02*
D03*
X452756Y196851D02*
D03*
Y165354D02*
D03*
X448819Y157480D02*
D03*
X444882Y275591D02*
D03*
X440945Y267717D02*
D03*
X444882Y244095D02*
D03*
Y228347D02*
D03*
X440945Y220473D02*
D03*
X444882Y212598D02*
D03*
Y196851D02*
D03*
X440945Y173228D02*
D03*
Y157480D02*
D03*
X437008Y275591D02*
D03*
X433071Y267717D02*
D03*
X437008Y259843D02*
D03*
Y244095D02*
D03*
Y196851D02*
D03*
Y181103D02*
D03*
X433071Y173228D02*
D03*
X429134Y275591D02*
D03*
X425197Y267717D02*
D03*
X429134Y244095D02*
D03*
Y165354D02*
D03*
X255906Y338583D02*
D03*
X251969Y330709D02*
D03*
X248032Y338583D02*
D03*
X244095Y330709D02*
D03*
X240158Y338583D02*
D03*
X236221Y330709D02*
D03*
X240158Y322835D02*
D03*
X236221Y314961D02*
D03*
Y299213D02*
D03*
X232284Y338583D02*
D03*
X228347Y330709D02*
D03*
X232284Y322835D02*
D03*
X228347Y314961D02*
D03*
X224410Y338583D02*
D03*
X220473Y330709D02*
D03*
X224410Y322835D02*
D03*
X220473Y314961D02*
D03*
X224410Y307087D02*
D03*
X220473Y299213D02*
D03*
X216536Y338583D02*
D03*
X212598Y330709D02*
D03*
X216536Y322835D02*
D03*
X212598Y314961D02*
D03*
X216536Y307087D02*
D03*
X212598Y299213D02*
D03*
X208662Y338583D02*
D03*
X204725Y330709D02*
D03*
X208662Y322835D02*
D03*
X204725Y314961D02*
D03*
X208662Y307087D02*
D03*
X204725Y299213D02*
D03*
X200787Y338583D02*
D03*
Y322835D02*
D03*
X196851Y314961D02*
D03*
X192913Y322835D02*
D03*
X188977Y314961D02*
D03*
X181103Y299213D02*
D03*
X177165Y322835D02*
D03*
X173228Y314961D02*
D03*
X177165Y307087D02*
D03*
X173228Y299213D02*
D03*
X169291Y338583D02*
D03*
X165354Y330709D02*
D03*
X161417Y338583D02*
D03*
X153543D02*
D03*
X149606Y330709D02*
D03*
X153543Y307087D02*
D03*
X145669Y338583D02*
D03*
X141732Y330709D02*
D03*
X145669Y322835D02*
D03*
Y307087D02*
D03*
X141732Y299213D02*
D03*
X419685Y290354D02*
D03*
X436417Y296457D02*
D03*
X404331Y303346D02*
D03*
X211811Y187992D02*
D03*
X158071Y192323D02*
D03*
X176969Y237795D02*
D03*
X178740Y198031D02*
D03*
X237598Y228543D02*
D03*
X252756Y203150D02*
D03*
X242520Y209449D02*
D03*
X242126Y308465D02*
D03*
X241732Y286811D02*
D03*
X297441Y282677D02*
D03*
X426772Y320669D02*
D03*
X436417Y309055D02*
D03*
X400591Y265158D02*
D03*
X382087Y167126D02*
D03*
X238976Y124409D02*
D03*
X200591Y220669D02*
D03*
X183858Y241732D02*
D03*
X218701Y164764D02*
D03*
X245472Y139567D02*
D03*
X257283Y164764D02*
D03*
X301575Y198228D02*
D03*
Y221457D02*
D03*
X278937Y220276D02*
D03*
X221457Y249213D02*
D03*
X301378Y289961D02*
D03*
X350787Y265551D02*
D03*
X304331Y254134D02*
D03*
X294882Y263779D02*
D03*
X286417Y244094D02*
D03*
X321063Y250394D02*
D03*
X305906Y184252D02*
D03*
Y180905D02*
D03*
X258465Y228740D02*
D03*
X249410Y228937D02*
D03*
X253937Y228740D02*
D03*
X245079Y228937D02*
D03*
X267323Y259646D02*
D03*
X262598Y259842D02*
D03*
X253543Y259646D02*
D03*
X352756Y296850D02*
D03*
X152362Y243504D02*
D03*
X236024Y186811D02*
D03*
X162008Y238583D02*
D03*
X284842Y199606D02*
D03*
X293996Y204035D02*
D03*
X307087Y230906D02*
D03*
X253543Y172835D02*
D03*
X250590Y205906D02*
D03*
X246063Y209449D02*
D03*
X208465Y217717D02*
D03*
X183465Y138189D02*
D03*
X240551Y173228D02*
D03*
X224016Y166142D02*
D03*
X215354Y136614D02*
D03*
X227953Y133268D02*
D03*
X244685Y162205D02*
D03*
X213386Y125787D02*
D03*
X210630Y122441D02*
D03*
X230118Y125000D02*
D03*
X229577Y120866D02*
D03*
X214173Y114764D02*
D03*
X224803Y113779D02*
D03*
X435827Y292520D02*
D03*
X220866Y126047D02*
D03*
Y122772D02*
D03*
X236614Y161221D02*
D03*
X232677D02*
D03*
Y167126D02*
D03*
X236614D02*
D03*
X234646Y164173D02*
D03*
D131*
X269685Y129724D02*
D03*
X240354Y109843D02*
D03*
M02*
