M48
;Layer_Color=9474304
;FILE_FORMAT=2:5
INCH,LZ
;TYPE=PLATED
T1F00S00C0.01181
T5F00S00C0.02800
T6F00S00C0.03000
T7F00S00C0.03543
T8F00S00C0.03622
T9F00S00C0.09055
%
T01
X0183465Y0138189
X0195866Y0136811
X021063Y0136614
X0215354
X0213386Y0125787
X021063Y0122441
X0220866Y0122772
Y0126047
X0230118Y0125
X0229577Y0120866
X0224803Y0113779
X0214173Y0114764
X0227953Y0133268
X0238976Y0124409
X0245472Y0139567
X0252756Y0140748
X0253346Y0153543
X027559
X0344882Y0160039
X035689
X0382087Y0167126
X0386024Y0164567
X0429134Y0165354
X0437008
X0444936Y0165408
X0452756Y0165354
X046063
X0456693Y015748
X0448819
X0440945
X0433071
X0425197
Y0173228
X0433071
X0440945
X0437008Y0181103
Y0196851
X0444882
X0452756
X046063
X0456693Y0204725
X0448819
X0452756Y0212598
X046063
X0456693Y0220473
X0448819
X0440945
X0444882Y0228347
X0452756
X046063
X0456693Y0236221
X0448819
X0452756Y0244095
X046063
X0444882
X0437008
X0429134
X0437008Y0259843
X0440945Y0267717
X0433071
X0425197
X0429134Y0275591
X0437008
X0444882
X0452756
X046063
X0456693Y0283465
X0448819
X0435827Y029252
X0436417Y0296457
X0432677Y0296063
X0427756Y029311
X0419685Y0290354
X0427165Y0311024
X0436417Y0309055
X0404331Y0303346
X0394882Y0306496
X0390748Y0290748
X0398819Y0274213
X0400591Y0265158
X0350787Y0265551
X0352756Y029685
X0321063Y0250394
X0323622Y0208071
X0323819Y0197244
X0444882Y0212598
X0301575Y0221457
X029941Y0226772
X0296654Y0231102
X0290896Y0232726
X0286417Y0244094
X0276181Y0239961
X0272047Y0251969
X0267323Y0259646
X0262598Y0259842
X0259842Y0255315
X0253543Y0259646
X0247441Y025315
X0229134Y026063
X0220472Y0252362
X0216535Y025
X0208465Y0217717
X0200591Y0220669
X0229528Y0222047
X0236221Y0221063
X0237598Y0225197
Y0228543
X0245079Y0228937
X024941
X0253937Y022874
X0258465
X0278937Y0220276
X0284842Y0199606
X0284646Y0187402
X0288976Y0190551
X0297441Y0187205
X0302559Y0189961
X0305906Y0184252
Y0180905
X0301575Y0198228
X0293996Y0204035
X0307087Y0230906
X0304331Y0254134
X030059Y0257283
X0297441Y026063
X0294882Y0263779
X0297441Y0282677
X0301378Y0289961
X0241732Y0286811
X0236221Y0299213
X0242126Y0308465
X022441Y0307087
X0216536
X0208662
X0212598Y0299213
X0220473
X0204725
X0181103
X0173228
X0177165Y0307087
X0176969Y0237795
X0183858Y0241732
X0162008Y0238583
X0158071Y0192323
X017874Y0198031
X0211811Y0201378
X0220276Y0197244
X0211811Y0187992
X0236024Y0186811
X0240551Y0173228
X0236614Y0167126
X0232677
X0234646Y0164173
X0236614Y0161221
X0232677
X0244685Y0162205
X0257283Y0164764
X0253543Y0172835
X0284055
X0252756Y020315
X025059Y0205906
X0246063Y0209449
X024252
X0224016Y0166142
X0218701Y0164764
X0198085Y0157033
X0183661Y0157874
X0152362Y0243504
X0153543Y0307087
X0145669
X0141732Y0299213
X0145669Y0322835
X0149606Y0330709
X0141732
X0145669Y0338583
X0153543
X0161417
X0169291
X0165354Y0330709
X0177165Y0322835
X0173228Y0314961
X0188977
X0196851
X0204725
X0212598
X0220473
X0228347
X0236221
X0240158Y0322835
X0232284
X022441
X0216536
X0208662
X0200787
X0192913
X0204725Y0330709
X0212598
X0220473
X0228347
X0236221
X0244095
X0251969
X0255906Y0338583
X0248032
X0240158
X0232284
X022441
X0216536
X0208662
X0200787
X0414764Y0316535
X0426772Y0320669
T05
X0240354Y0109843
X0269685Y0129724
T06
X0187402Y0175394
Y0187205
T07
X0326772Y0136614
X0336614
X0454724Y0138189
Y0148189
Y0128189
Y0118189
Y0108189
X0410354Y0330906
X0400354
X0390354
X0380354
X0370354
T08
X0386221Y0151157
X0396063
X0403937
X0413779
T09
X0374134Y0140488
X0425866
M30
