M48
;Layer_Color=9474304
;FILE_FORMAT=2:5
INCH,LZ
;TYPE=PLATED
T3F00S00C0.01968
T4F00S00C0.02165
T5F00S00C0.02756
%
G90
G05
T03
G00X0269202Y0104823
M15
G01Y0107382
M16
G00X0296761Y0104823
M15
G01Y0107382
M16
T04
G00X0273729Y0116732
M15
G01X0272548
M16
G00X0293414Y0116732
M15
G01X0292233
M16
T05
G00X0123071Y0107598
M15
G01X0119528
M16
G00X0113071Y0137598
M15
G01X0109528
M16
G00X0133071Y0137598
M15
G01X0129528
M16
G00X0129528Y0309882
M15
G01X0133071
M16
G00X0109528Y0309882
M15
G01X0113071
M16
G00X0119528Y0339882
M15
G01X0123071
M16
M17
M30
