M48
;Layer_Color=9474304
;FILE_FORMAT=2:5
INCH,LZ
;TYPE=PLATED
T1F00S00C0.00787
T2F00S00C0.01181
T6F00S00C0.03000
T7F00S00C0.03150
T8F00S00C0.03543
T9F00S00C0.03622
T10F00S00C0.09055
%
T01
X0220866Y0122772
Y0126047
X0232677Y0161221
X0236614
X0234646Y0164173
X0232677Y0167126
X0236614
T02
X0183465Y0138189
X0195866Y0136811
X021063Y0136614
X0215354
X0213386Y0125787
X021063Y0122441
X0214173Y0114764
X0224803Y0113779
X0229577Y0120866
X0230118Y0125
X0238976Y0124409
X0227953Y0133268
X0245472Y0139567
X0249409Y0143504
Y0149803
X0284646Y0153937
X0382087Y0167323
X0429134Y0165354
X0437008
X0444882
X0452756
X046063
X0456693Y015748
X0448819
X0440945
X0433071
X0425197
Y0173228
X0433071
X0440945
X0437008Y0181103
Y0196851
X0444882
X0452756
X046063
X0456693Y0204725
X0448819
X0452756Y0212598
X046063
X0456693Y0220473
X0448819
X0440945
X0444882Y0228347
X0452756
X046063
X0456693Y0236221
X0448819
X0452756Y0244095
X046063
X0444882
X0437008
X0429134
X0437008Y0259843
X0440945Y0267717
X0433071
X0425197
X0429134Y0275591
X0437008
X0444882
X0452756
X046063
X0456693Y0283465
X0448819
X0435827Y029252
X0436417Y0296457
X0428937Y0297047
X0427756Y029311
X0419685Y0290354
X0399213Y0285827
X0394291Y0297638
X0398819Y0305906
X0404331Y0303346
X0436417Y0309055
X0400591Y0265158
X0350787Y0265551
X0352756Y029685
X0321063Y0250394
X0444882Y0212598
X0301575Y0221457
X0301378Y0230709
X0307087Y0230906
X0297835Y0233268
X0290158Y0232874
X0286417Y0244094
X0290551Y0251181
X030059Y0257283
X0297441Y026063
X0294882Y0263779
X0304331Y0254134
X0297441Y0282677
X0301378Y0289961
X0241732Y0286811
X0236221Y0299213
X0242126Y0308465
X022441Y0307087
X0216536
X0208662
X0212598Y0299213
X0220473
X0204725
X0181103
X0173228
X0177165Y0307087
X0176969Y0237795
X0183858Y0241732
X0162008Y0238583
X0158071Y0192323
X017874Y0198031
X0211811Y0187992
X0236024Y0186811
X0240551Y0173228
X0253543Y0172835
X0257283Y0164764
X0244685Y0162205
X0224016Y0166142
X0218701Y0164764
X0197441Y0157677
X0183661Y0157874
X0200591Y0220669
X0208465Y0217717
X0229528Y0222047
X0236221Y0221063
X0237598Y0225197
Y0228543
X0245079Y0228937
X024941
X0253937Y022874
X0258465
X0259842Y0255315
X0262598Y0259842
X0267323Y0259646
X0253543
X0250984Y0254528
X0226181Y0252953
X0221457Y0249213
X024252Y0209449
X0246063
X025059Y0205906
X0252756Y020315
X0284842Y0199606
X0293996Y0204035
X0301575Y0198228
X0305906Y0184252
Y0180905
X0284055Y0172835
X0278937Y0220276
X0152362Y0243504
X0153543Y0307087
X0145669
X0141732Y0299213
X0145669Y0322835
X0149606Y0330709
X0141732
X0145669Y0338583
X0153543
X0161417
X0169291
X0165354Y0330709
X0177165Y0322835
X0173228Y0314961
X0188977
X0196851
X0204725
X0212598
X0220473
X0228347
X0236221
X0240158Y0322835
X0232284
X022441
X0216536
X0208662
X0200787
X0192913
X0204725Y0330709
X0212598
X0220473
X0228347
X0236221
X0244095
X0251969
X0255906Y0338583
X0248032
X0240158
X0232284
X022441
X0216536
X0208662
X0200787
X0426772Y0320669
X0421654Y0314961
T06
X0187402Y0175394
Y0187205
T07
X0408504Y0167126
X0418504
X0401299Y032559
X0391299
X0381299
X0371299
T08
X0326772Y0136614
X0336614
T09
X0386221Y0151157
X0396063
X0403937
X0413779
T10
X0374134Y0140488
X0425866
M30
